<svg xmlns="http://www.w3.org/2000/svg" fill="none" viewBox="0 0 391 440">
  <path fill="#F3E7D9" d="M152.152 164.393s-20.625-21.918-3.222-47.064c17.404-25.145 52.85-48.994 97.323-39.327 44.472 9.668 42.537 68.339 39.959 76.075 0 0 16.113-16.76 36.094 5.158 19.978 21.919-18.047 73.497-18.047 73.497s25.134-13.539 28.36-3.867c3.222 9.672-114.078 92.192-136.634 104.439 0 0 10.312-19.339-10.313-5.801-20.625 13.538-18.047 21.918-49.628 33.525-31.582 11.607-72.185 32.878-78.628 32.878-6.443 0 18.047-27.076 32.225-37.392 14.178-10.315 21.269-13.538 21.269-13.538s-25.782-27.72-3.866-48.351c21.913-20.631 29.647-8.38 29.647-8.38s-44.472-59.955 20.625-63.825c0 0-28.767-3.361-24.49-31.59 3.214-21.283 19.326-26.437 19.326-26.437z"/>
  <path fill="#665070" d="M39.58 217.47l20.622 21.491 25.565-28.368-46.186 6.877z"/>
  <path fill="#856792" d="M85.767 210.593l-35.93 17.543.052 10.825 35.878-28.368zM62.405 77.868l37.219 17.486 29.324-33.844-66.543 16.358z"/>
  <path fill="#BB83C3" d="M128.948 61.51L85.401 97.99l-6.264-11.787 49.811-24.693z"/>
  <path fill="#856792" d="M265.587 55.762l48.659-12.573-19.982 24.176-28.677-11.603z"/>
  <path fill="#BB83C3" d="M314.246 43.19l-35.125 18.695 2.256 12.25 32.869-30.946z"/>
  <path fill="#856792" d="M125.083 351.352l35.663-12.035-18.047 24.498-17.616-12.463z"/>
  <path fill="#665070" d="M160.746 339.317l-28.001 17.348.15 7.7 27.851-25.048z"/>
  <path fill="#992C29" d="M223.408 181.744c-6.318.782-21.025 15.229-31.272 27.354-13.262 15.685-29.68 32.445-36.579 35.978-8.553 4.383-18.096 10.03-22.173 10.242 0 0 19.921 19.12 27.973 25.516 8.052 6.396 3.27-6.983 13.587-.709s28.274 25.459 28.274 25.459 8.622-3.043 20.984-15.632c16.149-16.443 39.548-86.411 35.153-98.145-4.395-11.733-29.993-12.039-35.947-10.063z"/>
  <path fill="#C94039" d="M166.88 281.237c.513-.835 8.691-12.365 11.554-15.542 2.864-3.178-18.865 13.705-18.865 13.705s2.48 2.399 4.447 3.047c1.845.607 2.35-.375 2.864-1.21z"/>
  <path fill="#2563EB" d="M246.363 192.292s15.99-1.964 23.056-5.651c7.067-3.687 1.067-31.708-14.239-33.395-17.489-1.931-36.538 9.982-46.757 18.851-10.219 8.869-4.15 19.189 12.822 22.098 17.212 2.953 25.118-1.903 25.118-1.903z"/>
  <path fill="#992C29" d="M208.965 182.588c1.255 9.089 30.857 5.463 39.862 4.221 9.005-1.243 15.289-9.619 14.035-18.709-1.254-9.089-9.571-15.448-18.581-14.202-9.009 1.247-36.57 19.601-35.316 28.69z"/>
  <path fill="#FFFCF3" d="M198.88 170.194s-4.191-.643-8.056-3.222c-3.865-2.579-6.044-9.831-5.8-11.281.383-2.294 6.444-8.059 9.348-7.737 2.9.322 8.699 9.672 8.699 14.182-.004 4.51-1.291 7.737-4.191 8.058z"/>
  <path fill="#FFFCF3" d="M193.187 164.556s0 6.604 3.93 10.238c3.93 3.634 17.025 6.274 23.896 0 6.871-6.274 6.549-15.522 6.549-15.522l-7.531 3.304s-19.969-4.954-22.262-4.954c-2.293 0-4.582 6.934-4.582 6.934z"/>
  <path fill="#F6BE4A" d="M195.174 163.423l3.707-3.544 3.38 8.217-7.087-4.673z"/>
  <path fill="#1D2538" d="M192.385 162.253c.338-.145.473-.59.299-.993-.173-.403-.588-.612-.927-.466-.339.145-.473.59-.3.993.173.404.589.612.928.466zM198.504 158.059c.335-.149.456-.61.269-1.029-.187-.419-.61-.638-.945-.489-.335.149-.455.61-.268 1.029.187.42.61.639.944.489z"/>
  <g>
    <path fill="#273252" d="M208.041 163.692c3.123 11.917 13.11 13.009 24.457 13.27 6.823.154 13.384-3.256 17.033-8.597 2.42-3.544 3.556-7.932 2.627-12.695-2.321-11.937-16.951-18.614-28.298-18.871-11.347-.265-19.176 14.093-15.819 26.893z"/>
    <path fill="#273252" d="M224.749 144.869c.605-3.532-3.788-7.233-9.812-8.265-6.023-1.032-11.397.996-12.002 4.528-.605 3.533 3.788 7.234 9.812 8.266 6.023 1.031 11.397-.996 12.002-4.529z"/>
    <path fill="#273252" d="M226.692 140.347c1.953-2.352-.176-7.344-4.756-11.15-4.58-3.805-9.876-4.984-11.83-2.632-1.953 2.352.176 7.344 4.756 11.15s9.876 4.984 11.83 2.632zM250.493 155.097c3.878-3.423 3.306-10.409-1.277-15.603-4.583-5.195-11.442-6.631-15.319-3.208-3.878 3.423-3.306 10.408 1.277 15.603 4.583 5.194 11.441 6.631 15.319 3.208z"/>
    <path fill="#273252" d="M264.774 159.966c.535-7.408-5.097-13.852-12.579-14.393-7.482-.541-13.982 5.026-14.517 12.434-.536 7.408 5.096 13.852 12.578 14.393 7.483.541 13.982-5.026 14.518-12.434z"/>
    <path fill="#273252" d="M254.869 146.259c2.176-7.355-3.821-15.616-13.396-18.45-9.575-2.835-19.101.83-21.277 8.185-2.176 7.355 3.821 15.615 13.396 18.45 9.575 2.835 19.101-.83 21.277-8.185z"/>
    <g>
      <path fill="#48598B" d="M209.079 163.485c2.599 9.716 14.585 12.368 23.839 12.527 5.564.094 9.506-2.057 12.455-6.433 1.959-2.904.419-8.971-.354-12.857-1.943-9.737-11.702-16.513-20.956-16.672-9.253-.158-17.774 12.997-14.984 23.435z"/>
      <path fill="#48598B" d="M224.56 145.523c.52-3.036-3.255-6.216-8.432-7.103-5.177-.887-9.795.855-10.315 3.891-.519 3.036 3.256 6.216 8.433 7.103 5.176.887 9.794-.855 10.314-3.891z"/>
      <path fill="#48598B" d="M226.022 140.718c1.331-1.603-.122-5.006-3.245-7.601-3.123-2.596-6.734-3.4-8.065-1.797-1.331 1.602.122 5.005 3.245 7.6 3.123 2.596 6.734 3.4 8.065 1.798zM247.764 157.401c3.331-2.94 2.099-9.781-2.752-15.28-4.851-5.498-11.483-7.571-14.814-4.631-3.331 2.941-2.099 9.782 2.751 15.28 4.851 5.498 11.484 7.572 14.815 4.631z"/>
      <path fill="#48598B" d="M259.031 160.505c.46-6.367-4.38-11.906-10.81-12.37-6.43-.465-12.015 4.319-12.475 10.686-.461 6.367 4.379 11.905 10.809 12.37 6.43.465 12.016-4.32 12.476-10.686z"/>
      <path fill="#48598B" d="M251.174 147.333c1.87-6.322-3.283-13.421-11.509-15.856-8.227-2.436-16.412.715-18.283 7.036-1.87 6.322 3.283 13.421 11.509 15.857 8.227 2.435 16.412-.715 18.283-7.037z"/>
    </g>
  </g>
  <g>
    <path fill="#EE5D4F" d="M194.241 278.21s1.015 5.17 28.613 8.886c11.261 1.516 22.315.917 31.157.66 7.442-.216 21.22-2.795 27.525-4.93 6.264-2.118 11.869-6.718-2.558-17.355-14.454-10.654-77.487-6.16-84.737 12.739z"/>
  </g>
  <g>
    <path fill="#273252" d="M266.617 296.278c.269 4.743-.383 16.468-6.675 17.103-6.175.624-10.069-4.021-12.508-11.028-3.478-9.986-18.365-56.895-2.648-59.029 15.718-2.135 17.481 4.827 19.726 13.933 2.24 9.101 1.608 30.242 2.105 39.021z"/>
    <path fill="#273252" d="M266.271 304.117c-.171 1.003-4.708-6.115-4.708-6.115s-.501-15.502-3.01-17.107c-8.818-6.506-16.479-2.473-16.479-2.473-4.342-15.669-7.209-33.754 2.712-35.102 15.718-2.135 17.481 4.828 19.726 13.933 1.303 5.284 1.637 14.622 1.784 23.247.105 6.233.843 18.5-.025 23.617z" opacity=".4"/>
    <path fill="#CC6D3D" d="M272.674 314.604c7.506 22.517 9.563 41.335 11.758 68.876.872 10.927-5.792 9.464-8.056 1.279-2.957-10.678-11.702-32.873-21.464-63.237-2.965-7.57 12.324-23.231 17.762-6.918z"/>
    <path fill="#F5894E" d="M268.556 313.048c9.274 23.906 10.239 39.086 12.137 62.851.188 2.338.452 4.212.269 5.797-.419 3.605-4.13 5.349-5.6.041-2.55-9.216-12.048-33.595-20.467-59.791-2.562-6.535 8.297-22.73 13.661-8.898z"/>
    <path fill="#273252" d="M269.615 308.049c-1.198-1.98-5.352-11.285-16.972-8.519-3.226.766-3.181 6.816.163 16.793 2.317 6.922 2.994 8.556 3.205 9.086 0 0 8.912-5.215 18.597-5.166 0 0-2.203-7.574-4.993-12.194z"/>
    <path fill="#273252" d="M264.727 303.001s1.919-.053 4.183 4.07c2.676 4.877 5.645 13.123 5.645 13.123M255.893 309.022s5.739.709 7.637-1.609c0 0-.713 3.773-2.688 4.583-1.976.811-3.943-1.108-3.943-1.108l1.8-.297-2.806-1.569z" opacity=".4"/>
    <g>
      <path fill="#CC6D3D" d="M276.767 386.907c.456 7.952.827 18.125 17.742 17.078 8.581-.53-1.455-10.992-4.334-14.842 0 0-5.042-6.335-5.446-7.325-1.03-2.526-5.054-3.349-7.506 1.548-1.267 2.53-.521 2.388-.456 3.541z"/>
      <path fill="#F5894E" d="M274.661 390.031c-.338 1.377-.081 3.447 1.805 4.796 3.971 2.831 10.471 5.459 17.171 5.109 8.415-.445-8.394-4.527-9.8-6.568-1.409-2.041-1.718-10.617-2.785-13.326-1.247-3.17-1.625-.835-3.108 1.511-1.483 2.347-2.904 6.93-3.283 8.478z"/>
      <path fill="#992C29" d="M276.221 383.631s-.273.2 1.096 3.186c5.164 11.273 8.064 11.521 15.175 11.847 4.684.216-2.138-9.297-2.138-9.297l-5.25-6.812s4.688 4.506 8.712 9.591c2.472 3.125 5.486 5.814 6.509 7.704 1.8 2.799 3.718 7.248 1.397 7.627-7.788 1.258-17.893-1.255-19.738-2.319-1.845-1.063-1.926-3.74-4.17-6.653-.852-1.104-3.751-3.263-3.853-4.224-.029-2.473-.106-3.3.602-6.213.754-3.088 1.658-4.437 1.658-4.437z"/>
    </g>
    <g>
      <path fill="#F5894E" d="M225.77 374.929c1.666 5.255.419 6.307-.957 8.071-10.203 13.085-13.021 8.38-14.716 9.297-5.645 3.051-6.182-3.875-3.645-5.46 2.44-1.527 6.236-7.398 9.262-10.454 1.413-1.43 1.482-2.277 3.49-2.652 2.098-.395 5.865-1.023 6.566 1.198z"/>
      <path fill="#CC6D3D" d="M226.084 381.549c-5.275 16.105-18.544 12.707-21.176 11.644-1.087-.44 5.356-8.523 5.356-8.523s7.621-2.473 11.698-4.547c4.272-2.175 5.69-3.357 4.122 1.426z"/>
      <path fill="#992C29" d="M226.198 375.116c-.481-.79-.546-.415-.656.184-.851 4.636-1.133 6.49-4.59 10.617-1.177 1.405-.99 4.4-11.4 5.463-4.416.452.712-6.71.712-6.71l5.768-8.682-1.748 1.899s-6.859 8.494-9.616 10.519c-2.7 1.98-5.482 10.927-2.794 11.037 6.855.285 13.319-.774 18.678-2.372 2.493-.888 3.723-6.278 4.68-6.677 0 0 2.558-2.053 2.513-3.479-.049-1.369-.871-10.691-1.547-11.799z"/>
    </g>
    <g>
      <path fill="#273252" d="M211.502 307.682s-5.852-30.971-.79-47.133c3.031-9.672 9.563-11.778 16.748-11.921 7.185-.142 8.944 5.423 8.195 11.522-.75 6.099-4.024 39.417-6.158 47.117-2.289 8.274-7.678 7.968-11.132 8.131-4.02.192-5.69-1.829-6.863-7.716z"/>
      <path fill="#273252" d="M222.634 283.075c-2.811-1.671-13.856-2.001-13.856-2.001-.265-7.211.11-14.703 1.93-20.525 3.031-9.672 9.563-11.778 16.748-11.921 7.185-.142 8.944 5.423 8.195 11.522-.326 2.648-1.128 10.425-2.106 19.01 0 0-2.35 20.125-3.47 24.778-.265-.118-1.36-4.824-3.063-12.308-1.124-2.587-1.568-6.885-4.378-8.555zM213.588 311.247s5.16-.464 7.144-1.707c1.979-1.243-3.438 7.016-7.144 1.707z" opacity=".4"/>
    </g>
    <g>
      <path fill="#F5894E" d="M229.493 313.748c6.557 18.366 1.568 27.439-3.866 61.666-.501 3.157-6.728 5.699-8.606 1.083-.309-.766-.268-2.257-.358-3.956-.656-12.552-5.625-43.421-4.191-55.554 1.104-9.354 13.787-12.291 17.021-3.239z"/>
      <path fill="#CC6D3D" d="M232.474 325.531c.277 3.145.367 7.744-.554 14.198-1.377 9.663-4.028 21.845-4.329 23.951-.497 3.508-1.98 12.141-2.395 14.321-.261 1.364-4.273 2.986-4.273 2.986s2.195-7.431 2.692-9.326c1.027-3.927 5.621-31.627 6.281-45.446.081-1.601 2.297-3.87 2.578-.684z"/>
      <path fill="#273252" d="M230.686 310.139c-2.464-6.356-5.433-7.615-10.549-7.472-4.309.122-7.934.065-7.824 10.218.073 6.62.069 11.448-.106 14.19 0 0 5.454-2.567 20.369-.986.004.004-.257-11.738-1.89-15.95z"/>
      <path fill="#273252" d="M230.686 310.139c-.509-1.247-.379 3.112-.379 3.112l-.436 12.618s.603.004 2.705.224c.004 0 .024-7.598-1.89-15.954z" opacity=".4"/>
    </g>
  </g>
  <g>
    <path fill="#CC6D3D" d="M206.92 197.209s-8.642 14.834-10.487 18.036c-3.438 5.965 1.686 9.782 5.84 7.093 4.155-2.689 13.477-16.398 15.314-19.686 1.833-3.287-6.182-9.529-10.667-5.443z"/>
    <path fill="#C94039" d="M222.951 184.934c-2.219-1.776-8.206.473-12.251 6.27-4.48 6.421-5.722 9.257-5.722 9.257s3.95-.285 5.698 1.723c2.843 3.263 4.932 6.808 4.932 6.808s4.586-7.008 7.156-11.782c2.387-4.433 3.055-9.978.187-12.276z"/>
  </g>
  <g>
    <path fill="#F7BC4B" d="M225.876 223.259c6.802 6.429 25.451-1.568 25.924-8.034.2-2.75.859-9.154 3.148-20.892 1.434-7.341 1.613-9.733.754-10.711-2.253-2.566-10.26-3.1-18.471-3.911-13.542-1.336-14.332 1.927-18.434 8.405-5.001 7.9-6.297 22.497 7.079 35.143z"/>
    <path fill="#CE9436" d="M246.037 196.627c6.802 6.429 5.437 23.548 5.91 17.083.199-2.75.712-7.635 3.001-19.373 1.434-7.341 1.613-9.732.754-10.71-2.253-2.567-7.254-7.627-19.066-6.405-13.538 1.402-14.617 6.287-18.959 13.066-5.038 7.867 14.984-6.311 28.36 6.339z"/>
    <path fill="#CE9436" d="M220.308 192.435c-2.566 1.572-4.517 3.442-4.517 3.442s.302-3.397 2.468-6.84c1.634-2.595 16.064-.147 16.064-.147s-12.386 2.547-14.015 3.545z"/>
    <path fill="#F5894E" d="M236.315 187.521l1.055.017a4.354 4.354 0 004.415-4.286l.118-8.051a4.354 4.354 0 00-4.285-4.416l-1.055-.016a4.353 4.353 0 00-4.415 4.286l-.118 8.05a4.35 4.35 0 004.285 4.416z"/>
    <path fill="#CC6D3D" d="M236.164 178.693l1.69.024a4.035 4.035 0 004.094-3.976l.126-8.686a4.035 4.035 0 00-3.975-4.094l-1.691-.025a4.036 4.036 0 00-4.093 3.977l-.126 8.685a4.035 4.035 0 003.975 4.095z"/>
  </g>
  <g>
    <path fill="#F5894E" d="M267.794 197.621c3.263 6.132 7.25 14.109 8.374 16.089 1.23 2.163 2.02 9.749-.884 11.611s-7.168-3.484-8.736-4.983c-1.568-1.495-7.73-11.277-9.979-16.455-1.763-4.066-1.397-8.784.758-10.124 2.154-1.345 7.205-2.269 10.467 3.862z"/>
    <path fill="#CC6D3D" d="M267.794 197.621c3.263 6.132 7.262 14.101 8.374 16.089.558.994.538 1.601.526 2.302-.013.7 1.417 5.671.329 4.632-.859-.819-7.628-13.836-10.255-19.882-2.159-4.982-.448-5.911 1.026-3.141z"/>
    <path fill="#EC5E4D" d="M252.236 183.924c3.209-1.524 7.934-.22 11.937 7.097 2.102 3.842 4.998 8.983 4.998 8.983s-5.124 1.398-11.368 6.328c0 0-2.598-3.977-4.553-7.713-4.114-7.863-3.519-13.505-1.014-14.695z"/>
    <path fill="#C94039" d="M252.236 183.924c3.209-1.524 7.934-.22 11.937 7.097 2.102 3.842 4.998 8.984 4.998 8.984l-2.297.761-5.531-3.723-9.445-1.516c-2.79-6.559-1.894-10.544.338-11.603z"/>
    <path fill="#C94039" d="M257.192 197.576s5.727.502 7.865 1.5c2.135.998 1.719 1.686 1.719 1.686l-9.584-3.186z"/>
  </g>
  <g>
    <path fill="#C93F37" d="M267.134 271.472s4.306-2.155 3.006-4.905c-1.299-2.75-4.997-2.987-4.997-2.987l1.991 7.892z"/>
    <path fill="#F7BC4B" d="M252.835 219.059s25.92 38.109 27.708 43.087c1.792 4.991 7.84 11.485 7.514 14.076-1.674-4.982-18.006-3.736-20.922-4.746 0 0 6.052-3.797 1.058-5.724-4.993-1.927-16.483-2.384-23.24-2.42-20.173-.102-43.608 3.247-50.74 15.159 0 0 12.76-56.214 28.963-68.134 15.88-11.693 29.659 8.702 29.659 8.702z"/>
    <path fill="#CE9436" d="M252.835 219.059s25.92 38.109 27.708 43.087c1.792 4.991 7.84 11.485 7.514 14.076-1.674-4.982-18.006-3.736-20.922-4.746 0 0 6.052-3.797 1.058-5.724-4.993-1.927-16.483-2.383-23.24-2.42-20.173-.102-43.608 3.247-50.74 15.16 0 0 5.796-14.333 53.164-31.738 10.349-3.805 5.458-27.695 5.458-27.695z"/>
  </g>
  <g>
    <path fill="#2563EB" d="M223.408 181.744c-6.317.783-21.514 14.52-31.765 26.645-13.261 15.685-31.402 32.825-38.326 36.304-7.918 3.976-24.104 11.929-28.181 12.141l8.309 5.451s18.112-2.037 31.728-18.615c16.471-20.052 43.694-54.767 58.235-61.926zM231.211 189.856c11.405-2.037 33.973 3.365 33.944 3.117-1.226-10.487-13.868-15.445-19.558-16.158-3.78.183-12.211 5.145-14.386 13.041z"/>
    <path fill="#2563EB" d="M227.676 178.445c3.58-.994 8.26 8.453 8.745 10.042.484 1.589-12.936-2.322-35.031 12.308-7.592 5.023 18.14-21.536 26.286-22.35z"/>
    <path fill="#273150" d="M234.181 188.064a1.046 1.046 0 100-2.093 1.046 1.046 0 000 2.093z"/>
  </g>
  <g>
    <path stroke="#1D2538" stroke-miterlimit="10" d="M212.093 178.412l3.417 6.514-1.865 1.964-.163 2.171M215.51 184.926l.025 1.805.957 1.666M220.483 182.343l.151 1.903 1.079 1.707"/>
    <g>
      <path stroke="#1D2538" stroke-miterlimit="10" d="M216.121 175.996l4.362 6.347-1.727 2.168-.008 2.297M220.618 182.217l1.201.073 1.711 1.903"/>
    </g>
  </g>
  <g>
    <path fill="#F3E7D9" d="M247.756 220.049s-3.654-10.1-6.444-11.819c-2.794-1.719-9.237-7.093-9.237-7.093l-33.516 4.942 7.95 10.1 2.578 6.017 38.669-2.147z"/>
    <path fill="#F5894E" d="M205.967 210.165c-.484-.081-4.191 1.288-4.191 1.288s3.222-1.935 3.063-2.579c-.163-.644-1.287-1.288-1.287-1.288l-5.963 1.936-2.777 2.656a1.566 1.566 0 00-.241 1.976c.501.786 1.133 1.768 1.41 2.135.277.37.472 2.151.888 3.626.301 1.083 1.934 2.415 1.934 2.415s4.35.889 5.719-.24c1.368-1.128 5.315-4.754 5.718-6.046 0 0-.644-1.287-1.531-1.369 0 0 0-1.45-.322-1.935-.322-.485-1.287-1.287-1.287-1.287l-1.133-1.288z"/>
  </g>
  <g>
    <path fill="#F5894E" d="M247.54 212.903s.696-1.666-.163-3.386c-.86-1.719-4.994-2.742-6.928-3.866-2.098-1.226-2.147 2.147.216 4.082 2.362 1.935 4.081 4.673 6.875 3.17z"/>
    <path fill="#856792" d="M218.109 211.237l30.074-8.809-10.524 28.152-6.232-13.97-13.318-5.373z"/>
    <path fill="#665070" d="M247.755 202.428l-16.544 13.107.644 6.449 15.9-19.556z"/>
    <path fill="#F5894E" d="M272.674 214.675s-8.712-2.318-14.545-1.332c-5.832.986-8.744-.469-10.312 2.139-1.568 2.607-.098 5.194 4.007 5.989 4.106.794 12.92 5.443 17.318 4.978 4.664-.493 7.189-.183 8.048-3.394.86-3.21-1.095-8.576-4.516-8.38z"/>
    <path fill="#F5894E" d="M252.48 217.042s-1.368-3.601-3.087-5.748c-1.719-2.147-2.684-2.339-4.631-.766-1.947 1.572-3.719 3.104-5.437 3.104-1.719 0-7.25-.456-8.753.831-1.503 1.288 0 1.504 0 1.504s-2.147.427-1.719 1.287c.428.86 3.006 1.076 3.006 1.076s1.935 1.287 2.578 1.503c.644.216 8.191 1.854 8.191 1.854s6.203-.563 7.922-1.854c1.714-1.288 1.93-2.791 1.93-2.791z"/>
  </g>
  <g>
    <path fill="#CC6D3D" d="M247.892 156.109c2.646-.978 3.828-4.375 2.641-7.587-1.187-3.212-4.294-5.023-6.94-4.045-2.646.978-3.828 4.375-2.641 7.587 1.187 3.213 4.294 5.024 6.94 4.045z"/>
    <path fill="#273150" d="M220.683 142.544c-.599 2.518 4.301 3.899 9.445 5.121 5.144 1.226 9.803.175 10.402-2.339.599-2.517-3.087-5.549-8.231-6.771-5.148-1.226-11.017 1.471-11.616 3.989z"/>
    <path fill="#CC6D3D" d="M244.705 151.91c-3.975-13.053-15.758-13.84-18.552-13.579-13.934 1.312-18.027 9.558-13.229 24.22 3.332 10.177 7.914 11.746 14.569 12.288 8.003.652 22.177-6.629 17.212-22.929z"/>
    <path fill="#F5894E" d="M241.581 157.398c-3.596-9.713-14.125-10.348-16.617-10.165 0 0-10.048 3.288-11.95 5.952-1.902 2.665 1.629 11.408 1.629 11.408 3.665 8.555 6.011 9.007 11.958 9.439 7.152.518 19.472-4.502 14.98-16.634z"/>
    <path fill="#F6BE4A" d="M231.749 142.593c-13.441-2.445-20.365 5.296-20.365 5.296s5.812-13.738 18.736-10.593c15.07 3.667 14.292 11.921 14.255 16.297 0 0-2.134-9.094-12.626-11z"/>
    <g>
      <path fill="#C94039" d="M246.892 141.293c.66 1.006-2.928 5.398-4.94 3.361-1.89-1.919-3.707-4.367-1.984-5.117 1.719-.75 6.26.75 6.924 1.756z"/>
      <path fill="#F7BC4B" d="M246 142.939s-2.472 2.424-3.332 1.931c-.859-.493.807-1.238 2.363-2.868 1.556-1.634 1.979-.102.969.937z"/>
      <path fill="#C94039" d="M239.28 140.552s1.315 6.445 4.069 10.641c2.081 3.174 4.219 4.909 4.219 4.909l.033-1.405 1.991-.065s-5.021-3.989-8.85-13.962l-1.462-.118z"/>
      <path fill="#C94039" d="M239.789 142.947s-.147 6.266 1.698 10.751c1.397 3.39 3.181 5.456 3.181 5.456l.359-1.3 2.052.363s-4.215-4.771-5.824-14.85l-1.466-.42z"/>
    </g>
  </g>
  <g>
    <path fill="#273252" d="M231.832 157.994c.783-.188 1.134-1.527.783-2.991-.35-1.463-1.269-2.498-2.053-2.31-.783.187-1.133 1.526-.783 2.99.351 1.464 1.27 2.499 2.053 2.311zM218.442 161.766c.663-.138.971-1.347.689-2.699-.282-1.352-1.048-2.337-1.711-2.198-.663.138-.971 1.347-.689 2.699.282 1.352 1.048 2.337 1.711 2.198z"/>
    <path stroke="#273252" stroke-linecap="round" stroke-linejoin="round" stroke-miterlimit="10" d="M228.637 148.044s1.919-.452 3.026.994M215.078 153.45s.725-1.503 1.996-1.862"/>
  </g>
</svg>
