<svg xmlns="http://www.w3.org/2000/svg" width="1087" height="826" fill="none" viewBox="0 0 1087 826">
  <path fill="#F4E8D8" d="M912.734 266.495s-288.55-3.59-348.68 104.01c-60.13 107.6-360.79 158.24-471.56 107.6-110.77-50.63-132.92-129.75-6.33-199.38 158.75-87.31 140.79 28.84 155.08 9.49 79.85-108.17 227.61-238.89 332.31-212.04 123.43 31.65 31.65 148.75 31.65 148.75s187.27-56.54 307.53 41.57z"/>
  <path fill="#F4E8D8" d="M361.504 539.825s261.89-35.08 341.01-152.18c79.12-117.1 383.736-35.6 383.736-35.6s-138.456 16.62-198.586 92.57c0 0 68.84-30.07 135.296-14.24 0 0-47.466 30.86-102.066 87.82-54.47 56.84-454.95 91.26-559.39 21.63z"/>
  <path fill="#866694" d="M588.159 794.464s19.36-16.04-26.06-14.16c-44.88 1.86-92.84 8.13-72.98 19.42 19.87 11.29 80.42 4.38 99.04-5.26z"/>
  <path fill="#866694" d="M684.57 778.534s28.72-23.8-38.66-21.01c-66.58 2.76-137.73 12.06-108.26 28.82 29.47 16.75 119.31 6.5 146.92-7.81zM666.47 812.124s13.16-10.9-17.71-9.63c-30.5 1.26-63.1 5.53-49.6 13.2 13.5 7.68 54.66 2.99 67.31-3.57z"/>
  <path fill="#866694" d="M1034.04 766.905c11.08-6.33-77.545-3.96-121.935-7.39-3.06-.24-6.48.29-10.14.37-20.56-3.18-131.72-7.18-174.92-4.85-43.04 2.32-89.67 16.42-47.34 27.67 31.74 8.43 51.47 12.86 123.3 8.73 14.68-.85 54.46-7.8 86.22-14.63 11.23-.06 47.34 2.44 60.3 1.69 28.87-1.67 75.075-6.2 84.515-11.59z"/>
  <path fill="#288453" d="M1009 724.345s11.26-32.64 31.52-31.52c20.26 1.13 9 21.39 9 21.39s9-13.51 20.26-2.25c11.26 11.26 0 19.13 0 19.13s9-5.63 10.13 4.5c1.13 10.13-43.9 24.76-60.78 20.26-16.88-4.5-10.13-31.51-10.13-31.51z"/>
  <path fill="#866694" d="M503.137 693.326c-129.4 2.63-43.52 24.53-43.52 24.53s-465.6-6.49-332.31 19.78c0 0-82.06 14.47-104.44 28.48-14.55 9.11 121.75 42.34 197.8 39.56 108.4-3.96 122.37-16.35 121.85-26.9-.65-13.03-76.79-14.23-53.8-20.57 33.89-9.35 57.82 3.98 188.31-11.08 82.29-9.49 144.79-6.33 144.79-6.33s-64.76 19.85-1.46 14.75c122.72-9.89 148.5 2.44 163.66-17.92 22.48-30.18-120.64-47.56-280.88-44.3z"/>
  <path fill="#1D2538" d="M905.496 186.196l26.6-130.78c.16-.77 9.21-2.25 9.21-2.25l11.62 3.49-4.31 153.77c-.06 2.32-2.73 3.56-4.84 2.24l-36.6-22.85c-1.27-.79-1.95-2.26-1.68-3.62z"/>
  <path fill="#1D2538" d="M918.505 188.857l21.789-135.01c.31-1.47 17.631 3.25 17.581 4.8l-4.63 147.36c-.14 4.44-5.23 6.78-9.22 4.29l-22.461-14.641c-2.39-1.49-3.629-4.249-3.059-6.799z"/>
  <path fill="#C73F37" d="M917.305 128.176s-1.97-2.56 5.56-3.01c7.56-.46 32.32 20.85 32.32 20.85l-1.75 63.55-48.4-21.09 12.27-60.3z"/>
  <path fill="#F4E8D8" d="M907.227 177.647s21.35-104.23 22.36-109.44c1.19-6.17 6.68-6.51 6.03 1.56-.43 5.35-19.97 110.38-19.97 110.38l-8.42-2.5z"/>
  <path fill="#C73F37" d="M920.506 112.217s1.66-1.71 5.03-1.41c13.8 1.23 30 22.77 30 22.77l-.42 12.7s-22-22.63-27.31-23.99c-7.55-1.93-9.99 3.67-9.99 3.67l2.69-13.74z"/>
  <path fill="#1D2538" d="M952.336 161.616s-17.57-20.8-33.01-18.94c-6.5.78-4.46 2.94-4.46 2.94s-1.29.92 4.08.79c7.98-.19 33.39 15.21 33.39 15.21zM954.284 175.177c-7.56-12.62-32.62-20.32-32.62-20.32s28.23 16.58 32.35 23.92l.27-3.6zM909.855 170.056s3.1-4.69 5.71-3.7c2.61.99 19.82 11.56 23.66 16.79 3.79 5.17-23.1-12.12-24.48-12.7-1.39-.57-4.89-.39-4.89-.39zM953.707 195.357s-2.42-3.88-7.4-5.33c-4.98-1.45 7.39 9.13 7.39 9.13l.01-3.8z"/>
  <path fill="#634874" d="M779.665 760.966c126.61-2.54 214.81 4.38 238.555-5.11 0 0 22.15-53.04-4.75-91.02-55.975-58.04-94.955-80.7-182.775-71.21-87.82 9.49-161.67 64.35-185.41 116.57-23.74 52.22 2.64 53.14 10.95 54.33 8.31 1.19 84-2.76 123.43-3.56z"/>
  <path fill="#F4E8D8" d="M899.616 603.575c-43.52-15.24-70.36-17.22-118.98 7.71-48.62 24.94-59.74 31.84-66.8 65.49-7.06 33.66 40.01 29.65 73.73 21.68 33.74-7.96 161.89-77.43 112.05-94.88z"/>
  <path fill="#F4E8D8" d="M979.826 676.615c-45.29 18.25-77.82 23.48-125.82-3.42-51.1-28.63-61.8-36.7-37.05-68.05 19.25-24.39 87.79-6.58 114.26 2.29 24.2 8.11 85.814 54.19 48.61 69.18z"/>
  <path fill="#F6874E" d="M826.734 159.255l181.756 105.41c1.96 1.14 17.03-7.5 18.41-9.47 1.38-1.97-4.53-16.22-7.68-18.09l-175.456-105.14c-2.57-1.53-15.25 1.77-15.25 1.77l-1.78 25.52z"/>
  <path fill="#F4E8D8" d="M912.196 184.176l10.68 18.99-83.11-49.77c-2.34-1.45-3.94-6.53-3.94-6.53l-3.56-12.02 79.93 49.33z"/>
  <path fill="#C73F37" d="M1026.92 255.186s-1.3 1.47-4.22 3.23c-4.89 2.94-11.27 7.91-14.9 6-3.63-1.91-178.154-103.05-181.054-105.16-2.2-1.6-3.16-16.62-3.16-18.46 0-1.85 4.95-7.05 4.95-7.05s1.65 15.1 4.55 18.4c2.9 3.3 178.684 105.23 178.684 105.23 2.36.78 10.4-.93 15.15-2.19z"/>
  <path fill="#F6BE4A" d="M828.644 603.986l70.4-398.151c.16-.88.47-1.73.93-2.5 2.42-4.07 6.09-4.72 11.44-1.65 0 0 29.53 17.24 32.17 18.83 2.64 1.58 5.78 4.67 5.41 8.97l-33.01 384.96a7.422 7.422 0 01-5.64 6.58l-33.3 8.151c-1.45.36-2.98.259-4.38-.261l-35.55-13.349c-.84-.32-1.62-.78-2.3-1.38l-3.76-3.31c-1.95-1.73-2.87-4.34-2.41-6.89z"/>
  <path fill="#F6874E" d="M899.457 204.194c1.66-3.4 5.26-5.41 4.92-3.31l-67.99 410.74c-.25 1.49-2.04 2.14-3.18 1.13l-4.49-3.96c-.5-.44-.74-1.12-.62-1.78l71.11-402.18c.05-.22.13-.44.25-.64z"/>
  <path stroke="#F4E8D8" stroke-miterlimit="10" stroke-width="2" d="M875.395 628.836l54.199-416.17"/>
  <path fill="#F4E8D8" d="M889.996 315.654l35.38 83.86 2.47-23.55-34.1-88.9-3.75 28.59zM895.395 274.676l35.38 92.8 7.539-58.49-34.1-88.9-8.819 54.59zM997.645 660.885s4.755 18.2-34.02 30.86c-.01-.01 53.005-.8 34.02-30.86z"/>
  <path stroke="#F4E8D8" stroke-miterlimit="10" stroke-width="2" d="M930.383 448.574l-10.28-3.17-7.91 14.25 6.32 13.45-20.57 24.52-6.33 8.51"/>
  <path fill="#634874" d="M719.004 683.746s21.09 24.12 59.48 18.8c16.6-1.39 66.26-17.61 66.26-17.61s-90.21 16.85-125.74-1.19z"/>
  <path fill="#C73F37" d="M969.945 233.625l11.08-4.74 5.54 15.03-16.62-10.29z"/>
  <path fill="#1D2538" d="M947.854.615c-15.82-3.61-29.04 9.07-29.33 27.46-.27 17.46 11.33 33.35 25.75 36.26 14.25 2.88 26.93-7.82 28.55-24.61 1.7-17.67-9.36-35.55-24.97-39.11zm-3.68 46.64c-5.46-1.77-10.11-9.41-10.37-17.22-.27-7.99 4.15-13.03 9.85-11.08 5.65 1.93 10.23 9.96 10.26 17.77.03 7.64-4.31 12.29-9.74 10.53z"/>
  <g>
    <path fill="#F6BE4A" d="M950.424 11.906c-8.98-2.22-16.51 5.09-16.75 16.01-.05 2.14.2 4.26.68 6.29-.31-1.36-.51-2.76-.55-4.17-.27-7.99 4.15-13.03 9.85-11.08 5.65 1.93 10.23 9.96 10.26 17.77.03 7.64-4.32 12.29-9.74 10.53-3.38-1.1-6.45-4.45-8.36-8.69 2.61 5.96 7.36 10.57 12.85 11.84 8.43 1.94 15.77-4.65 16.48-14.98.75-10.66-5.81-21.32-14.72-23.52zM934.605 35.166c.05.18.09.36.14.54-.05-.18-.09-.36-.14-.54zM935.285 37.256c.1.28.22.55.33.82-.11-.27-.23-.54-.33-.82z"/>
  </g>
  <g>
    <path fill="#F4E8D8" d="M928.457 47.085c-.45 0-.9-.2-1.19-.59-9.92-12.94-3.06-30.67-2.76-31.42.3-.77 1.17-1.15 1.95-.84.77.3 1.15 1.18.84 1.95-.07.17-6.52 16.91 2.36 28.49.5.66.38 1.6-.28 2.1-.28.21-.6.31-.92.31z"/>
  </g>
  <g>
    <path fill="#F4E8D8" d="M939.046 55.434c-.31 0-.62-.09-.88-.29-2.05-1.5-3.74-3.18-5.01-5.01-.47-.68-.31-1.61.37-2.09.68-.47 1.61-.31 2.09.37 1.08 1.55 2.54 3 4.32 4.3a1.503 1.503 0 01-.89 2.72z"/>
  </g>
  <g>
    <path fill="#33A86D" d="M1013.99 770.326c8.17-4.53-21.501-45.28-42.661-55.26-21.16-9.98-7.79 38.65 7.97 49.81 15.76 11.17 26.521 9.99 34.691 5.45z"/>
    <path fill="#33A86D" d="M997.527 773.145s-40.98-19.92-62.45-19.19c-21.46.73 4.86 17.56 4.86 17.56s-22.65-4.66-28.35 7.24c-5.7 11.9 85.94-5.61 85.94-5.61zM1037.53 764.445c2.06-4.41.49-17.41-18.33-15.26-18.82 2.15-23.333 19.44-16.75 23.65 6.58 4.2 33.02-3.98 35.08-8.39z"/>
  </g>
  <path fill="#F6874E" d="M873.028 381.784l-1.36 14.4c-.23.91 1.29 1.63 2.79 1.32l11.55-2.38c1.16-.24 1.72-1 1.21-1.65l-10.19-12.02c-.87-1.1-3.69-.87-4 .33zM926.038 499.875l-9.89 9.89 7.91 10.28 1.98-20.17zM849.286 532.705l8.71 11.87-11.48 6.33 2.77-18.2z"/>
  <g>
    <path fill="#33A86D" d="M967.697 820.344s-6.89-4.46-19.96-2.76c-12.91 1.68-17.7 4.56-8.43 7.19 5.95 1.68 23.82 1.81 28.39-4.43z"/>
    <path fill="#288453" d="M917.857 794.234s-6.89-4.46-19.96-2.76c-12.91 1.68-17.7 4.56-8.43 7.19 5.95 1.68 23.81 1.81 28.39-4.43z"/>
    <path fill="#33A86D" d="M947.529 808.475s-6.89-4.46-19.96-2.76c-12.91 1.68-17.7 4.56-8.43 7.19 5.95 1.68 23.81 1.82 28.39-4.43zM919.037 814.414s-6.89-4.46-19.96-2.76c-12.91 1.68-17.7 4.56-8.43 7.19 5.95 1.68 23.82 1.81 28.39-4.43z"/>
  </g>
  <g>
    <path fill="#288453" d="M820.435 805.887s-7.32-5.38-21.88-4.38c-14.38.99-19.86 3.87-9.79 7.38 6.46 2.26 26.2 3.6 31.67-3zM874.634 809.147s-7.32-5.38-21.88-4.38c-14.38.99-19.86 3.87-9.79 7.38 6.47 2.26 26.2 3.6 31.67-3zM844.134 797.386s-5.74-4.22-17.14-3.43c-11.27.78-15.56 3.03-7.67 5.78 5.06 1.77 20.52 2.82 24.81-2.35z"/>
    <path fill="#288453" d="M845.314 810.307s-7.32-5.38-21.88-4.38c-14.38.99-19.86 3.87-9.79 7.38 6.47 2.26 26.21 3.6 31.67-3z"/>
  </g>
  <g>
    <path fill="#288453" d="M915.352 545.625s-1.58-12.66-7.38-8.97c-5.8 3.69-5.8 7.38-3.16 12.13 2.63 4.76 8.43 1.59 10.54-3.16z"/>
    <path fill="#33A86D" d="M909.024 526.634s-1.58-12.66-7.38-8.97c-5.8 3.69-5.8 7.38-3.16 12.13 2.64 4.75 8.43 1.59 10.54-3.16z"/>
    <path fill="#33A86D" d="M912.192 510.025s-1.58-12.66-7.38-8.97c-5.8 3.69-5.8 7.38-3.16 12.13 2.62 4.75 8.43 1.59 10.54-3.16zM931.172 434.855s-1.58-12.66-7.38-8.97c-5.8 3.69-5.8 7.38-3.16 12.13 2.63 4.76 8.43 1.59 10.54-3.16z"/>
    <path fill="#288453" d="M937.504 420.615s-1.58-12.66-7.38-8.97c-5.8 3.69-5.8 7.38-3.16 12.13 2.64 4.75 8.43 1.59 10.54-3.16zM919.043 563.564s-1.3-12.66-6.04-8.97c-4.75 3.69-4.75 7.38-2.59 12.13 2.16 4.75 6.91 1.59 8.63-3.16z"/>
    <path fill="#288453" d="M911.664 560.925s-1.3-12.66-6.04-8.97c-4.75 3.69-4.75 7.38-2.59 12.13 2.15 4.75 6.9 1.59 8.63-3.16zM922.844 540.105s-1.05-10.26-4.9-7.27c-3.85 2.99-3.85 5.98-2.1 9.83 1.75 3.85 5.6 1.29 7-2.56zM907.443 582.224s-.88-8.57-4.09-6.07-3.21 5-1.75 8.21c1.46 3.21 4.67 1.07 5.84-2.14zM927.223 411.125s-1.58-12.66-7.38-8.97c-5.8 3.69-5.8 7.38-3.16 12.13 2.63 4.75 8.43 1.59 10.54-3.16z"/>
    <g>
      <path fill="#288453" d="M855.615 605.894s-15.82-5.93-21.76 1.98c-1.96 2.62-2.84 5.19-3.14 7.47-.61 4.6 1.17 7.96 1.17 7.96s-14.64-15.03-24.92-7.12c-10.29 7.91 3.56 17.41 3.56 17.41s-9.89-3.96-18.2-.4c-8.31 3.56-2.77 14.24-2.77 14.24s5.93 7.52 14.24 2.37c8.31-5.14 7.91-6.73 7.91-6.73s5.54 1.98 14.24-4.35 9.1-9.1 9.1-9.1 7.52 6.33 12.26 2.37c4.75-3.96 6.73-8.7 6.73-8.7s1.58 8.31 8.7 8.31c7.13 0 17.41-36-7.12-25.71zM943.446 631.524s-1.58-7.53-7.38-5.33-5.8 4.39-3.16 7.22c2.64 2.83 8.43.93 10.54-1.89zM954.516 641.014s-1.58-7.53-7.38-5.33-5.8 4.39-3.16 7.22c2.64 2.83 8.44.94 10.54-1.89zM939.887 648.135s-1.58-7.53-7.38-5.33-5.8 4.39-3.16 7.22c2.63 2.82 8.43.94 10.54-1.89zM967.176 659.614s-1.58-7.53-7.38-5.33-5.8 4.39-3.16 7.22c2.63 2.81 8.43.93 10.54-1.89z"/>
      <path fill="#288453" d="M920.105 630.424s11.08-5.54 6.33-13.45c-4.75-7.91-18.2-7.52-20.57-.4 0 0-3.96-24.92-13.05-23.34-9.1 1.58-12.26 9.1-9.1 20.97 0 0-5.54-7.52-13.45 1.19-7.91 8.7 2.37 15.03 2.37 15.03s-10.29-7.91-12.66 3.96c-2.37 11.87 7.91 20.18 16.22 16.22 8.31-3.96 10.68-6.73 10.68-6.73s29.27 13.05 33.23-13.45z"/>
    </g>
    <path fill="#33A86D" d="M903.753 630.005s-2.33-9.73-10.89-6.89c-8.56 2.84-8.56 5.68-4.67 9.32 3.88 3.65 12.44 1.22 15.56-2.43z"/>
    <path fill="#33A86D" d="M896.364 622.095s-1.98-9.73-9.22-6.89c-7.25 2.84-7.25 5.68-3.95 9.32 3.29 3.65 10.54 1.22 13.17-2.43z"/>
    <path fill="#33A86D" d="M882.657 623.144s-1.98-9.73-9.22-6.89c-7.25 2.84-7.25 5.68-3.95 9.32 3.28 3.66 10.53 1.22 13.17-2.43zM857.113 622.124s5.81-3.98 2.61-11.22c-3.07-6.94-8.11-4.37-10.13.11-2.02 4.49 3.12 10.16 7.52 11.11zM829.116 631.995s-.24-10.09-10.5-9.75c-10.26.34-10.96 3.09-7.5 7.73 3.46 4.63 13.63 4.68 18 2.02z"/>
  </g>
  <g>
    <path fill="#1D2538" d="M669.285 364.965s-4.09-16.62-5.34-29.47c-1.2-12.3 5.97-7.3 13.52 1.25 7.91 8.97 15.56 25.05 17.67 28.75 2.11 3.69-17.93 12.13-25.85-.53zM529.505 550.905c-2.4-3.51-17.41-20.31-20.57-29.01-3.16-8.7-9.76-29.54-.26-40.62 0 0-13.45 0-19.78 28.48-6.33 28.48 21.37 55.25 23.74 57.49 10.54 10.03 23.73-6.32 16.87-16.34zM788.285 619.664c-2.95-5.95-13.96-8.73-13.96-8.73-.85-1.24-3.44-3.27-3.74-4.73-4.08-19.8-7.91-37.72-9.3-42.4-2.89-9.72-5.34-25.31-11.65-47.72-6.31-22.41-30.98-5.31-26.18 17.03 3.42 15.93 28.4 80.76 29.23 81.76l10.96 11.65c2.82 3.42 7.6 5.67 12.55 3.47 4.95-2.2 14.98-4.51 12.09-10.33zM596.897 593.574c5.78-6.77 36.39-12.52 39.81 1.35 2.92 11.81-40.25 86.73-40.25 86.73l.26 10.63s7.16 6.06 6.12 11.94c-.25 1.38-7.61 3.27-13.6 4.59-4.38.96-8-.41-8.69-3.36l-.86-3.72-5.48-12.94 15.55-51.9c-.01.02-.76-34.07 7.14-43.32z"/>
    <path fill="#273150" d="M686.693 516.096c-13.19 1.85-52.22-13.45-58.55-35.6-6.33-22.15-14.24-56.97-14.24-71.21 0 0-10.55-21.1-14.77-33.23-4.22-12.13-1.58-14.24 5.27-11.08 6.86 3.16 22.151 18.46 22.151 18.46s20.039-24.79 45.889-27.43c25.85-2.64 40.091 7.91 48.531 18.99l1.119.53s24.2-.53 37.38-2.11c13.19-1.58 19.52 2.11 21.1 16.35 1.58 14.24 1.32 17.93-2.9 25.85-4.22 7.91-27.43 32.57-41.14 43.12 0 0 8.7 30.46 7.65 40.48-1.05 10.02-44.3 15.03-57.49 16.88z"/>
    <path fill="#1D2538" d="M664.803 484.704s-30.33 17.93-36.66-4.22c-6.33-22.15-14.24-56.97-14.24-71.21 0 0-10.55-21.1-14.77-33.23-4.22-12.13-1.58-14.24 5.27-11.08 6.86 3.16 22.151 18.46 22.151 18.46s20.039-24.79 45.889-27.43c0 0-20.18 25.98-24.53 40.22-4.35 14.24 13.981 57.89 13.981 57.89s27.759 8.45 27.429 11.6c-1.05 10.03-24.52 19-24.52 19z"/>
    <path fill="#273150" d="M674.625 362.395s-4.86-15.75-7.91-26.31c-3.43-11.87 5.04-8.69 12.59-.13 7.91 8.97 14.97 18.79 17.08 22.48 2.11 3.7-17.4 13.46-21.76 3.96z"/>
    <path fill="#121721" d="M710.757 378.609c2.049-2.318.891-6.687-2.585-9.759s-7.955-3.684-10.003-1.366c-2.048 2.317-.89 6.686 2.586 9.758 3.476 3.072 7.954 3.684 10.002 1.367z"/>
    <path fill="#992C29" d="M734.344 470.545s26.92 14.5 32.3 22.41l-16.75 5.93s-13.16-11.87-15.55-28.34z"/>
    <path fill="#121721" d="M678.826 398.905c2.469-2.793 1.072-8.061-3.12-11.766-4.192-3.704-9.592-4.443-12.06-1.65-2.469 2.793-1.072 8.061 3.12 11.766s9.592 4.444 12.06 1.65z"/>
    <path fill="#273150" d="M693.026 462.284s-44.38-7.88-67.25 18.99c-20.45 24.03-31.36 31.64-60.13 45.89-18.08 8.95-40.43 8.06-53.01 32.44-8.44 16.35-4.22 40.09 4.22 60.66 17.93 20.04 157.8-19.7 168.26-24.26 30.86-13.45 48.85-41.1 58.55-53.01 8.7-10.68 9.12-45.28-14.73-66.25-8.7-7.65-20.47-13.19-35.91-14.46z"/>
    <path fill="#1D2538" d="M685.906 468.615c-26.11-6.07-37.26-14.21-60.13 12.66-20.45 24.03-31.36 31.64-60.13 45.89-18.08 8.95-40.43 8.06-53.01 32.44-8.44 16.35-4.22 40.09 4.22 60.66 17.93 20.04 157.8-19.7 168.26-24.26 0 0-36.4-4.75-41.14-18.2-4.75-13.45 18.2-47.47 18.2-47.47 7.91-22.95 32.99-59.57 23.73-61.72z"/>
    <path fill="#121721" d="M769.281 399.978c7.957-5.83 10.886-15.363 6.541-21.293-4.344-5.93-14.317-6.011-22.274-.182-7.957 5.83-10.886 15.363-6.541 21.293 4.344 5.93 14.317 6.011 22.274.182z"/>
    <path fill="#273150" d="M766.215 654.215c-4.77-6.92-18.08-8.49-18.08-8.49-1.27-1.41-4.71-3.49-5.39-5.26-9.27-24.03-17.82-45.77-20.5-51.38-5.57-11.64-8.98-34.98-21.42-61.89-12.44-26.91-48.65 20.28-32.35 38.97 13.64 15.65 54.5 87.12 55.68 88.22l15.29 12.66c4.04 3.79 10.05 5.76 15.23 2.16 5.19-3.59 16.22-8.21 11.54-14.99z"/>
    <path fill="#1D2538" d="M515.665 606.864c9.12-14.1 36.48-4.48 41.79-.78 5.59 3.88-3.78 37.74-4.06 42.31-.3 4.78-41.07 43.99-48.91 54.55-8.47 11.41 2.11 22.07-3.22 27.35-2.7 2.68-29.12 2.33-29.48-9.42-.34-11.1 6.72-30.3 6.82-31.2.2-1.77 33.47-45.53 34.03-47.91.55-2.33.32-30.71 3.03-34.9zM708.586 465.984s29.54-1.05 27.96-7.25c10.62-7.98 25.78-24.33 25.78-24.33l-31.05 17.34-22.69 14.24z"/>
    <path fill="#992C29" d="M623.924 468.615s-3.03 9.23-1.85 15.56c0 0 25.13 4.48 66.46 4.48 22.15 0 53.8-5.27 53.8-5.27l-3.16-16.68s-64.08 11.93-115.25 1.91z"/>
    <path fill="#C93F37" d="M732.965 471.654s18.86-15.15 29.91-15.92l14.6 24.74s-33.39-3.3-44.51-8.82z"/>
    <path fill="#992C29" d="M732.965 471.654c9.64 6.1 44.5 8.82 44.5 8.82s-14.24-11.39-18.83-11.85c-4.59-.46-25.67 3.03-25.67 3.03z"/>
  </g>
  <g>
    <path fill="#992C29" d="M284.767 175.525c16.62 1.19 57.01 36.93 85.45 67.2 36.79 39.16 81.98 80.72 100.48 89.01 22.95 10.29 48.66 23.74 59.34 23.74 0 0-49.45 52.67-69.63 70.47-20.18 17.8-9.49-17.8-35.6 0s-70.42 70.37-70.42 70.37-22.95-6.78-56.97-37.98c-44.44-40.75-115.12-220.35-105.23-251.6 9.9-31.26 76.75-35.56 92.58-31.21z"/>
    <path fill="#2563EB" d="M284.766 175.525c16.62 1.19 58.2 35 86.64 65.27 36.79 39.16 86.53 81.47 105.1 89.62 21.23 9.31 64.62 27.88 75.3 27.88l-20.97 15.38s-47.61-2.86-85.45-44.31c-45.78-50.14-121.66-137.12-160.62-153.84z"/>
    <path fill="#2563EB" d="M208.845 199.475s-42.15.64-61.79-6.39c-19.64-7.03-14.11-81.79 24.96-91.64 44.64-11.26 98.28 12.79 127.95 32.12s17.62 48.24-25.32 61.86c-43.57 13.81-65.8 4.05-65.8 4.05z"/>
    <path fill="#992C29" d="M302.314 160.944c0 24-78.03 25.21-101.82 25.21-23.79 0-43.08-19.46-43.08-43.46s19.29-43.46 43.08-43.46 101.82 37.71 101.82 61.71z"/>
    <path fill="#C93F37" d="M446.035 427.736c-1.45-2.11-24.4-31.121-32.31-39.031-7.91-7.91 51.16 33.231 51.16 33.231s-6.16 6.61-11.21 8.57c-4.74 1.85-6.19-.66-7.64-2.77z"/>
  </g>
  <g>
    <path fill="#F6874E" d="M412.346 370.315l-10.29-1.98-13.91 10.35c-2.41-2.87 1.46-22.87 5.2-23.13 5.8-.41 18-1.25 25.42 3.06 5.15 2.99 21.6 16.51 18.44 19.68-.7.7-4.02.4-4.02.4-.75.37-3.56-.26-4.62.13-1.05.4-3.09.15-4.78-.56l-11.44-7.95z"/>
    <path fill="#CE6D3E" d="M319.555 216.375s19.78 45.91 23.99 55.82c7.84 18.45-8.3 27.68-19.37 18.45s-33.21-52.13-37.36-62.27c-4.16-10.15 21.21-25.38 32.74-12z"/>
    <path fill="#F6874E" d="M325.255 228.844s14.75 34.35 18.38 43.61c4.29 10.95-8.37 17.34-14.04 10.64-6.92-8.17-12.53-64.79-4.34-54.25z"/>
    <path fill="#C93F37" d="M277.516 175.264c7.04-4.36 23.57 4.25 33.22 22.43 10.69 20.14 13.65 28.56 13.65 28.56s-11.68-2.01-17.44 3.18c-9.36 8.43-16.66 17.95-16.66 17.95s-10.8-21.86-16.56-36.56c-5.33-13.66-5.3-29.92 3.79-35.56z"/>
    <path fill="#CE6D3E" d="M395.027 348.014c4.76 12.74-7.15 17.67-14.27 12.12-7.12-5.54-21.14-25.63-37.52-43.44-18.86-20.49-25.71-30.54-13.7-39.31 12.01-8.78 12.57-7.91 31.91 19.63 13.29 18.92 31.33 45 33.58 51z"/>
    <path fill="#F6874E" d="M379.976 328.615c-8.97 13.01-43.98-35.38-43.98-35.38-11.14-14.34-9.96-14.37-4.55-17.87 10.95-5.54 11.14-4.75 24.07 13.12 10.19 14.08 27.28 36.03 24.46 40.13z"/>
    <path fill="#CE6D3E" d="M401.117 359.895l16.27 1.4c.82.07 1.57.48 2.08 1.13l19.11 13.2c1.1 1.41 3.2 1.53 4.45.25.92-.95 1.11-2.39.45-3.54l-16.96-15.64c-.33-.58-.85-1.03-1.46-1.27l-29.81-11.98c-1.07-.43-9.23-3.45-14.6 1.93-5.37 5.38-2.58 11.15-2.04 12.31l2.82 12.59c.03.06.05.11.08.16l9.66 17.86c.52.97 1.54 1.56 2.64 1.55l2.16-.03a2.952 2.952 0 002.78-3.86l-3.44-10.78a3.06 3.06 0 01-.06-1.59l2.74-11.45c.34-1.4 1.67-2.36 3.13-2.24z"/>
  </g>
  <g>
    <path fill="#EC5E4D" d="M359.405 433.725s-2.96 13.46-75.37 21.55c-29.55 3.3-58.43 1.08-81.55-.11-19.45-1-55.35-8.56-71.72-14.51-16.27-5.91-30.65-18.28 7.71-45.24 38.43-27.01 203.07-11.54 220.93 38.31z"/>
    <path fill="#C93F37" d="M169.104 411.805s-11.13-5.89-7.57-13.01c3.56-7.12 13.25-7.52 13.25-7.52l-5.68 20.53z"/>
  </g>
  <g>
    <path fill="#273150" d="M307.274 127.054c-2.2 31.07-29.53 35.76-61.12 38.58-18.99 1.7-39.22-5.78-52.35-18.75-8.71-8.6-14.3-19.62-14.32-31.97-.06-30.97 34.88-58.62 66.47-61.44 31.58-2.82 63.68 40.2 61.32 73.58z"/>
    <path fill="#273150" d="M247.233 62.738c9.057-13.182 10.138-28.171 2.413-33.479-7.724-5.307-21.329 1.076-30.387 14.259-9.057 13.182-10.138 28.171-2.413 33.479 7.725 5.307 21.329-1.076 30.387-14.259z"/>
    <path fill="#273150" d="M221.498 45.408c1.22-15.537-4.253-28.64-12.226-29.266-7.972-.626-15.424 11.462-16.644 26.999-1.221 15.537 4.253 28.64 12.225 29.266 7.972.626 15.424-11.461 16.645-26.998z"/>
    <path fill="#273150" d="M221.461 92.756c6.213-17.023.946-34.583-11.765-39.223-12.711-4.64-28.052 5.398-34.266 22.42-6.213 17.023-.946 34.584 11.765 39.223 12.711 4.64 28.052-5.398 34.266-22.42z"/>
    <path fill="#273150" d="M205.399 160.138c17.715-8.452 25.293-29.519 16.927-47.054-8.367-17.535-29.509-24.898-47.224-16.446-17.714 8.452-25.292 29.518-16.926 47.053 8.366 17.535 29.509 24.899 47.223 16.447zM290.333 112.902c13.492-11.527 13.368-33.817-.276-49.786-13.644-15.969-35.641-19.57-49.133-8.042-13.491 11.527-13.367 33.817.276 49.786 13.644 15.968 35.642 19.569 49.133 8.042z"/>
    <g>
      <path fill="#48598B" d="M307.016 125.205c-1.79 25.36-24.1 29.18-49.87 31.48-15.5 1.38-32.01-4.72-42.72-15.3-7.11-7.02-11.66-16.01-11.68-26.09-.05-25.27 28.46-47.83 54.24-50.14 25.76-2.29 51.95 32.82 50.03 60.05z"/>
      <path fill="#48598B" d="M246.069 67.064c7.782-11.326 8.706-24.206 2.065-28.769-6.641-4.563-18.333.919-26.115 12.244-7.781 11.325-8.705 24.205-2.064 28.768 6.641 4.563 18.333-.918 26.114-12.243z"/>
      <path fill="#48598B" d="M219.642 54.898c.832-10.593-2.898-19.526-8.333-19.953-5.434-.426-10.513 7.815-11.345 18.408-.832 10.593 2.898 19.526 8.332 19.953 5.435.427 10.514-7.814 11.346-18.407z"/>
      <path fill="#48598B" d="M227.731 92.783c6.577-18.018 3.056-35.857-7.865-39.843-10.921-3.986-25.107 7.389-31.684 25.407-6.577 18.019-3.055 35.857 7.866 39.844 10.921 3.986 25.106-7.389 31.683-25.408z"/>
      <path fill="#48598B" d="M213.268 153.661c15.223-7.263 21.735-25.366 14.546-40.433-7.19-15.068-25.358-21.395-40.58-14.132-15.222 7.262-21.734 25.365-14.545 40.433 7.189 15.067 25.357 21.395 40.579 14.132zM284.149 113.066c11.593-9.905 11.487-29.06-.237-42.782-11.725-13.722-30.627-16.816-42.221-6.91-11.593 9.905-11.487 29.059.237 42.781 11.725 13.723 30.627 16.817 42.221 6.911z"/>
    </g>
  </g>
  <g>
    <path fill="#273150" d="M187.447 480.625c-.05 12.43 3.24 42.97 19.78 43.77 16.22.79 22.669-11.04 28.089-29.67 7.73-26.56 43.341-151.98 1.981-155.42-41.36-3.44-45.02 15-49.65 39.08-4.63 24.09-.1 79.23-.2 102.24z"/>
    <path fill="#102441" d="M189.428 501.055c.58 2.59 11.47-16.62 11.47-16.62s-.81-40.57 5.54-45.1c22.15-18.2 42.73-8.701 42.73-8.701 9.21-41.52 14.24-89.159-11.87-91.329-41.36-3.44-45.02 15-49.65 39.08-2.68 13.98-2.28 38.42-1.5 60.97.57 16.31.31 48.45 3.28 61.7z"/>
    <path fill="#CE6D3E" d="M178.675 520.204c-32.38 60.77-23.92 118.41-25.91 190.66-.79 28.67 16.43 23.94 21.23 2.24 6.27-28.3 26.1-87.47 47.47-168.13 6.73-20.18-21.64-64.47-42.79-24.77z"/>
    <path fill="#102441" d="M182.925 509.125c9.33-19.32 27.17-23.54 40.56-17.18 8.79 4.17 10.53 8.33 3.27 36.16-4.54 17.38-7.59 26.23-8.12 27.56 0 0-21.3-11.58-50.58-10.69 0-.01 8.54-22.74 14.87-35.85z"/>
    <path fill="#F6874E" d="M184.654 524.695c-27.93 52.43-21.43 103.51-23.15 165.84-.17 6.13-.6 11.07.09 15.18 1.58 9.36 11.52 13.42 14.64-.66 5.41-24.42 26.9-89.41 45.34-159 5.8-17.4-18.67-55.61-36.92-21.36z"/>
    <path fill="#273150" d="M186.653 512.924s12.66-32.44 37.76-25.71c8.38 2.24 10.1 12.24 2.72 38.77-5.11 18.4-7.52 27.88-8 29.3 0 0-18.21-12-43.52-10.55l11.04-31.81z"/>
    <path fill="#102441" d="M227.004 508.705s-14.9 2.64-20.18-3.16c0 0 2.37 9.76 7.65 11.6 5.27 1.85 10.15-3.43 10.15-3.43l-4.75-.53 7.13-4.48z"/>
    <g>
      <path fill="#F6874E" d="M157.835 719.574c2.28 20.71 4.62 47.24 48.69 42.2 22.35-2.56-5.3-28.52-13.34-38.18 0 0-14.04-15.87-15.23-18.4-3.03-6.46-13.66-8.06-19.41 5.07-2.98 6.78-1.04 6.3-.71 9.31z"/>
      <path fill="#CE6D3E" d="M148.675 732.094c-.69 3.64 1.14 5.12 6.26 8.38 10.76 6.86 28.11 12.84 45.57 11 21.93-2.3-22.55-10.68-26.51-15.82-3.96-5.14-5.55-15.42-8.7-22.35-3.69-8.11-4.75-14.04-8.31-7.71-3.56 6.32-7.53 22.39-8.31 26.5z"/>
    </g>
    <path fill="#992C29" d="M152.765 711.255s-.69.56 3.3 8.18c15.03 28.75 22.65 29 41.27 28.88 12.27-.08-6.86-24-6.86-24l-11.74-17.84s9.96 11.9 21.16 24.63c6.89 7.82 15.13 14.44 18.06 19.24 5.09 7.07 10.7 18.43 4.69 19.73-20.18 4.35-46.93-.84-51.89-3.36-4.96-2.52-5.54-9.51-11.8-16.81-2.37-2.77-8.57-5.54-8.97-8.04-.42-6.45-2.41-11.08-.95-18.79 1.55-8.17 3.73-11.82 3.73-11.82z"/>
  </g>
  <g>
    <path fill="#F6874E" d="M304.893 680.524c-3.63 13.95-.24 16.53 3.6 20.95 28.45 32.8 35.17 20.12 39.72 22.28 15.17 7.21 15.63-10.96 8.78-14.76-6.59-3.66-17.3-18.48-25.62-26.05-3.89-3.54-4.18-5.75-9.49-6.46-5.52-.73-15.45-1.85-16.99 4.04z"/>
    <path fill="#CE6D3E" d="M304.983 697.865c15.97 41.35 50.18 30.67 56.92 27.53 2.78-1.3-15.16-21.53-15.16-21.53s-20.25-5.42-31.19-10.29c-11.46-5.1-15.32-7.99-10.57 4.29z"/>
    <path fill="#992C29" d="M303.804 681.084c1.15-2.13 1.37-1.16 1.74.39 2.86 12 3.84 16.8 13.44 27.11 3.27 3.51 3.19 11.35 30.54 12.72 11.6.58-2.78-17.43-2.78-17.43l-16.25-21.9 4.83 4.73s19.08 21.26 26.56 26.17c7.33 4.81 15.81 27.79 8.81 28.45-17.87 1.68-34.91-.21-49.14-3.65-6.63-1.98-10.59-15.9-13.14-16.8 0 0-6.97-5.02-7.04-8.75-.06-3.6.82-28.06 2.43-31.04z"/>
    <path fill="#273150" d="M333.026 502.905s11.08-81.71-4.35-123.24c-9.23-24.86-26.59-29.46-45.39-28.86-18.8.6-22.64 15.39-19.85 31.22 2.79 15.83 15.89 102.43 22.51 122.26 7.11 21.3 21.15 19.77 30.2 19.73 10.53-.06 14.62-5.57 16.88-21.11z"/>
    <path fill="#102441" d="M300.585 440.135c7.12-4.75 35.93-7.11 35.93-7.11-.29-18.87-2.29-38.4-7.85-53.36-9.23-24.86-26.59-29.46-45.39-28.86-18.8.6-22.64 15.39-19.85 31.22 1.21 6.87 4.36 27.08 8.09 49.38 0 0 8.88 52.26 12.44 64.26.68-.35 2.9-12.79 6.33-32.57 2.61-6.92 3.18-18.21 10.3-22.96z"/>
    <g>
      <path fill="#F6874E" d="M286.847 521.206c-14.64 48.88-.36 71.9 18.5 160.57 1.74 8.18 18.36 13.98 22.64 1.66.71-2.04.4-5.93.4-10.38 0-32.88 8.78-114.21 3.39-145.7-4.17-24.29-37.72-30.24-44.93-6.15z"/>
      <path fill="#CE6D3E" d="M280.657 552.385c-.3 8.26.09 20.28 3.38 37.02 4.92 25.06 13.5 56.52 14.57 61.98 1.78 9.1 6.82 31.45 8.21 37.09.87 3.53 11.57 7.22 11.57 7.22s-6.75-19.11-8.31-24c-3.22-10.12-19-81.85-22.61-117.87-.41-4.16-6.51-9.79-6.81-1.44z"/>
      <path fill="#273150" d="M283.226 511.936c5.57-16.94 13.16-20.63 26.54-20.95 11.27-.27 20.74-.91 21.83 25.63.71 17.31 1.38 29.91 2.21 37.06 0 0-14.6-5.96-53.36.2.01 0-.91-30.71 2.78-41.94z"/>
      <path fill="#102441" d="M283.226 511.935c1.16-3.33 1.41 8.08 1.41 8.08l2.86 32.9s-1.57.09-7.04.96c0 0-1.08-19.84 2.77-41.94z"/>
    </g>
    <path fill="#102441" d="M328.063 512.505s-13.55-.51-18.9-3.48c-5.35-2.97 9.93 17.85 18.9 3.48z"/>
  </g>
  <g>
    <path fill="#F6BE4A" d="M283.978 284.315c-16.89 17.72-66.73-.63-68.84-17.46-.9-7.16-3.49-23.79-11.08-54.15-4.75-18.99-5.54-25.21-3.43-27.88 5.54-7.01 26.39-9.5 47.74-12.73 35.21-5.34 37.71 3.09 49.32 19.45 14.14 19.95 19.52 57.91-13.71 92.77z"/>
    <path fill="#D09435" d="M226.608 213.844c-16.89 17.72-9.36 69.84-11.47 53.01-.9-7.16-3.49-23.79-11.08-54.15-4.75-18.99-5.54-25.21-3.43-27.88 5.54-7.01 26.39-9.5 47.74-12.73 35.21-5.34 37.68 2.98 49.95 20.09 14.24 19.87-38.48-13.2-71.71 21.66z"/>
    <path fill="#D09435" d="M216.719 250.245c-2.64 9.89-2.15 35.14-1.32 20.04.4-7.2-11.34-59.16-11.34-59.16l54.59-19.17-35.87 32.44c.01 0-3.42 15.96-6.06 25.85z"/>
    <path fill="#F6BE4A" d="M209.597 275.565s-70.06 98.14-75.03 111.05c-4.98 12.95-21.19 29.57-20.49 36.37 4.67-12.93 47.32-8.71 55.01-11.18 0 0-15.61-10.29-2.43-15.03s43.26-5.26 60.94-4.96c52.78.92 113.89 11.06 131.85 42.64 0 0-30.07-147.77-71.76-179.91-40.84-31.5-78.09 21.02-78.09 21.02z"/>
    <path fill="#D09435" d="M293.468 199.804c6.92 3.76 13.12 11.6 13.12 11.6s-1.25-8.84-7.38-17.54c-4.62-6.56-21.56 2.37-21.56 2.37s11.43 1.19 15.82 3.57z"/>
    <path fill="#FEED7F" d="M285.107 268.925c-10.43 8.63-61.6 6.77-53.88-15.2 3.69-10.52 27.02-23.43 43.78-25.36 27.63-3.18 32.7 21.88 10.1 40.56z"/>
    <path fill="#FEED7F" d="M333.026 387.915l-98.11-7.91c-24.47 0-56.97-44.31-49.05-56.97 7.91-12.66 40.62-53.27 40.62-53.27 3.43-16.88 9.29-29.54 33.76-29.54 0 0 27.96 1.58 39.56 32.18 0 0 30.07 45.49 34.81 80.31 3.48 25.53-1.59 35.2-1.59 35.2zM215.478 376.515c-9.11.64-17.12 4.69-25.49-21.32.01 0 9.23 13.3 25.49 21.32z"/>
    <path fill="#F6BE4A" d="M186.918 313.544s2.64 20.04 11.6 33.23c0 0-7.91-22.68-7.38-36.4.53-13.72-4.22 3.17-4.22 3.17zM327.608 389.586c.35-5.18 2.22-21.59-1.35-29.83 0 0 7.64 13.22 7.27 26.83-.36 13.61-6.27 8.18-5.92 3zM213.386 285.324s11.22-17.71 32.93-25.09c0 0-25.92 3.21-35.14 15.86-9.22 12.65 2.21 9.23 2.21 9.23z"/>
  </g>
  <g>
    <path fill="#F6874E" d="M257.646 189.844l-2.3.35c-5.83.89-11.28-3.11-12.17-8.94l-3.4-22.21c-.89-5.83 3.11-11.28 8.94-12.17l2.3-.35c5.83-.89 11.28 3.11 12.17 8.94l3.4 22.21c.9 5.83-3.11 11.28-8.94 12.17z"/>
    <path fill="#CE6D3E" d="M254.396 163.745l-3.84.59c-5.41.83-10.46-2.88-11.29-8.29l-3.63-23.75c-.83-5.41 2.88-10.46 8.29-11.29l3.84-.59c5.41-.83 10.46 2.88 11.29 8.29l3.63 23.75c.83 5.41-2.88 10.47-8.29 11.29z"/>
  </g>
  <g>
    <path fill="#F6874E" d="M175.174 223.345c-6.73 16.88-17.59 47.04-20.63 52.16-3.04 5.12-3.14 12.94 4.96 16.94 8.09 4.01 14.2 1.99 17.85-2.36 3.65-4.35 24.46-39.58 28.81-53.69 3.42-11.08 1.11-23.24-4.88-26.11-5.99-2.87-19.38-3.82-26.11 13.06z"/>
    <path fill="#CE6D3E" d="M175.176 223.343c-6.73 16.88-17.59 47.04-20.63 52.16-.93 1.57-1.59 3.6-1.7 4.71-.24 2.49 1.57 2.71 4.1-.3 2-2.38 16.7-32.23 21.79-48.7 4.19-13.57-.52-15.5-3.56-7.87z"/>
    <path fill="#EC5E4D" d="M211.703 183.254c-8.78-3.04-20.7 1.71-29.01 21.89-4.36 10.6-10.42 24.79-10.42 24.79s13.72 2.16 31.38 13.19c0 0 5.61-11.08 9.63-21.36 8.44-21.63 5.28-36.14-1.58-38.51z"/>
    <path fill="#C93F37" d="M211.703 183.254c-8.78-3.04-20.7 1.71-29.01 21.89-4.36 10.6-10.42 24.79-10.42 24.79l6.2 1.32 13.32-11.27 24.13-6.66c5.36-17.85 1.89-27.95-4.22-30.07z"/>
    <path fill="#F6874E" d="M104.153 337.534s-8.52 8.8-5.74 13.78c2.62 4.67 12 8.48 18.69 3.05 6.69-5.43 28.19-19.54 56.77-57.97 12.19-16.38-11.49-27.79-20.95-17.44-9.46 10.35-48.77 58.58-48.77 58.58z"/>
    <path fill="#CE6D3E" d="M112.543 328.315l21.1-12.4 25.49-40.52s-3.49.52-6.21 3.57c-9.33 10.46-40.38 49.35-40.38 49.35z"/>
    <g>
      <path fill="#CE6D3E" d="M84.323 367.224s-9.22 15.89-11.68 19.78c-2.15 3.39-5.35.48-4.36-1.82.99-2.3 7.77-18.68 16.04-17.96z"/>
      <path fill="#CE6D3E" d="M78.522 367.224s-9.22 15.89-11.68 19.78c-2.15 3.39-5.35.48-4.36-1.82.99-2.3 7.76-18.68 16.04-17.96z"/>
      <path fill="#F6874E" d="M117.734 350.214c-.86 5.55-4.32 14.13-12.73 23.32-6.49 7.09-7.96 10.67-10.33 15.81-.6 1.29-2.18 2.9-3.76 4.35-5.04 4.62-7.09 3.9-7.61.83-.6-3.6 1.18-6.32 4.34-11.11 1.62-2.46 1.92-5.41 2.47-7.02.71-2.04.99-6.92-4.92-7.94-6.07-1.05-9.38-9.01-7.35-11.94 3.56-5.14 26.81-18.43 29.49-17.66 5.94 1.11 11.26 5.81 10.4 11.36z"/>
      <path fill="#F6874E" d="M87.184 360.993c2.01.57 4.65 4.51 1.94 6.93-2.71 2.42-16.85 9.64-20.76 14.37-4.65 5.63-7.21 10.55-10.1 12.05-3.69 1.91-8.42 1.66-4.6-4.21 5.41-8.31 9.42-17.31 18.7-21.91 9.29-4.6 12.81-7.8 14.82-7.23z"/>
      <path fill="#F6874E" d="M86.693 367.954c4.51-4.65-.49-16.08-3.8-15.14-3.31.94-18.42 13.3-21.93 14.91-3.51 1.61-11.46 13.25-13.21 17.39-1.76 4.14-1.91 6.7 2.93 5.47 4.84-1.23 10.5-14.98 17.14-18.45 6.64-3.47 14.36.47 18.87-4.18z"/>
    </g>
    <path fill="#C93F37" d="M202.733 220.174s-14.75 2.95-20.02 6.16-3.98 4.88-3.98 4.88l24-11.04z"/>
  </g>
  <g>
    <path fill="#2563EB" d="M273.286 187.734c-29.08 19.78-95.05 26.64-94.84 26.02 2.11-6.35 16.38-37.89 31.15-40.53 9.91-.03 48.73.34 63.69 14.51z"/>
    <path fill="#2563EB" d="M283.445 171.654c-9.49-2.11-29.02 13.54-30.08 17.76-1.06 4.22 31.79-2.33 91.53 32.88 20.52 12.09-46.16-46.95-61.45-50.64z"/>
    <path fill="#273150" d="M261.428 190.083a2.74 2.74 0 10.001-5.479 2.74 2.74 0 00-.001 5.479z"/>
  </g>
  <g>
    <path fill="#C93F37" d="M286.315 44.854c3 1.01 2.65 15.92-4.81 14.94-7.02-.92-14.74-3.07-12.38-7.4 2.35-4.32 14.19-8.55 17.19-7.54z"/>
    <path fill="#F7BC4B" d="M287.125 49.705s-1.21 9.02-3.78 9.39c-2.58.36-.33-3.87.26-9.76.59-5.89 3.93-3.42 3.52.37z"/>
    <path fill="#C93F37" d="M267.875 56.073s13.14 11.23 25.63 15.48c9.44 3.21 16.68 3.35 16.68 3.35l-2.2-2.97 4.03-3.35s-16.85-.15-40.91-14.63l-3.23 2.12z"/>
    <path fill="#C93F37" d="M274.324 60.164s9.82 13.23 20.89 19.54c8.37 4.77 15.41 6.16 15.41 6.16l-1.36-3.27 4.85-2.56s-16.45-3.07-36.06-21.36l-3.73 1.49z"/>
    <path fill="#CE6D3E" d="M208.325 120.525c6.088-4.179 7.166-13.185 2.408-20.114-4.757-6.93-13.549-9.16-19.637-4.98-6.087 4.179-7.165 13.185-2.407 20.114 4.757 6.93 13.549 9.16 19.636 4.98z"/>
    <path fill="#273150" d="M251.016 58.505c3.34 5.88-7.95 12.94-19.99 19.78-12.03 6.84-24.501 7.62-27.841 1.73-3.34-5.88 3.701-16.2 15.731-23.04 12.04-6.83 28.76-4.35 32.1 1.53z"/>
    <path fill="#CE6D3E" d="M197.512 99.605c.44-35.69 29.47-46.3 36.68-47.68 35.96-6.9 52.14 14.41 59.01 52.13 5.02 27.56-11.29 35.3-27.61 41.53-19.64 7.5-68.62-1.4-68.08-45.98z"/>
    <path fill="#F6874E" d="M209.375 111.114c1.93-27.03 27.91-36.33 34.31-37.69 0 0 34.93 8.49 41.66 13.78 6.73 5.29 7.97 23.07 7.97 23.07 3.22 20.63-11.45 27.2-26.08 32.64-17.58 6.53-60.27 1.95-57.86-31.8z"/>
    <path fill="#F6BE4A" d="M220.333 65.033c18.9-14.14 49.08-8.43 49.08-8.43s-28.6-22.74-54.64.35c-23.36 20.71-16.91 39.06-13.62 50.02 0 0-3.16-25.22 19.18-41.94z"/>
  </g>
  <g>
    <path fill="#273252" d="M238.683 96.905c2.077-.373 3.197-3.817 2.502-7.692-.695-3.876-2.942-6.717-5.019-6.344-2.076.372-3.196 3.816-2.501 7.692.695 3.876 2.942 6.716 5.018 6.344zM274.69 91.86c1.735-.365 2.541-3.525 1.799-7.06-.741-3.535-2.749-6.106-4.484-5.742-1.735.364-2.541 3.524-1.799 7.06.741 3.535 2.749 6.105 4.484 5.741z"/>
    <path stroke="#273252" stroke-linecap="round" stroke-linejoin="round" stroke-miterlimit="10" d="M235.874 69.715s-5.07.93-6.21 5.55M274.045 68.444s-3.31-2.84-6.74-2.36"/>
  </g>
</svg>
