<svg xmlns="http://www.w3.org/2000/svg" width="897" height="928" fill="none" viewBox="0 0 897 928">
  <path fill="#F3E7D9" d="M391.299 360.777c78.12-32.76 340.12-116.74 420.85-151.2 80.73-34.46 77.17-139.12 5.27-156.03-71.9-16.91-98.19 23.63-98.19 23.63s-12.92-73.9-67.16-77.05c-54.23-3.15-101.63 52.37-80.35 135.34 0 0-7.84-25-48.39-26.49-40.55-1.49-93.91 36.7-117.67 91.81-23.76 55.11-2.86 79.49 11.32 85.46 0 0-69.81 18.91-104.98 53.74s1.18 53.55 79.3 20.79zM99.208 314.307c11.87-5.94 137.72-74.8 201.83-115.16 64.11-40.36 104.48-61.74 97.35-85.48-7.13-23.74-5.94-46.3-61.74-20.18 0 0-40.37-52.24-111.6-9.5-71.23 42.74-23.75 131.79-23.75 131.79s-29.68-5.94-59.36 15.43-32.06 32.06-26.12 40.37c5.94 8.31 14.25 5.94 14.25 5.94s-34.43 23.75-42.74 34.43c-8.3 10.67.01 8.29 11.88 2.36z"/>
  <path stroke="#1D2538" stroke-miterlimit="10" stroke-width="2" d="M175.899 461.799s-19.11 36.24 7.58 38.87c26.68 2.64 28.33-29.65 28.33-29.65"/>
  <path stroke="#3E4C6F" stroke-miterlimit="10" stroke-width="2" d="M186.279 452.568s-9.07 16.25 9.89 35.21c15.03 15.03 35.82-12.4 35.82-12.4"/>
  <path stroke="#992C29" stroke-miterlimit="10" stroke-width="2" d="M183.72 465.418s-11.26 36.24 4.47 38.87c15.73 2.63 16.7-29.65 16.7-29.65"/>
  <path fill="#C94039" d="M128.139 720.709l-18.78-152.18h160.09l25.7 164.04-167.01-11.86z"/>
  <path fill="#992C29" d="M128.14 720.709l133.7-86.56 7.61-65.62 25.7 164.04-167.01-11.86z"/>
  <path fill="#992C29" d="M346.54 531.959l-77.09 36.57 25.45 164.04 77.33-84.99-25.69-115.62z"/>
  <path fill="#EE5D4F" d="M110.35 568.529l126.49-37.56 109.7.99-77.09 36.57h-159.1z"/>
  <path fill="#3E4C6F" d="M258.329 550.539c-25.85-1.92-76.93 5.74-76.93 5.74s-.2 1.49 0 2.42c.62 2.76 20.98 4.22 39.26 4.15 17.34-.07 42.16-5.3 45.73-9 .83-.86.39-3.56.39-3.56s-5.28.49-8.45.25z"/>
  <path fill="#1D2538" d="M258.329 548.239c-25.85-1.92-50.22.16-70.16 4.97-19.94 4.81 8.12 7.43 32.5 7.34 24.38-.09 63.51-10.4 37.66-12.31z"/>
  <path fill="#121721" d="M192.25 465.857l23.84 89.16 6.92.35 5.57-2.91-27.97-95.85-8.36 9.25z"/>
  <path fill="#48598B" d="M213.13 476.618s-2.96 13.84 2.96 25.69c5.93 11.86 9.88 11.86 34.59 7.91 24.71-3.95 37.22-9.88 47.43-14.82 7.32-3.54-.99-29.98-5.93-30.64-15.81-6.92-79.05 11.86-79.05 11.86z"/>
  <path fill="#1D2538" d="M207.38 456.739s-2.96 13.84 2.96 25.69c5.93 11.86 9.88 11.86 34.59 7.91 24.71-3.95 37.22-9.88 47.43-14.82 7.32-3.54-.99-29.98-5.93-30.64-15.8-6.92-79.05 11.86-79.05 11.86z"/>
  <path fill="#48598B" d="M212.14 490.458s-5.93-10.87-15.81-13.84c-9.88-2.96-26.02-.66-30.64-.99-4.62-.33-14.82-14.82-21.74-33.6-6.92-18.78-9.88-35.58 11.86-44.47 21.74-8.89 70.16-21.74 91.91-21.74 21.74 0 21.74 12.85 26.68 23.72 4.94 10.87 21.74 57.32 23.72 62.26 1.98 4.94-4.28 9.55-29.65 17.79-32.83 10.65-56.33 10.87-56.33 10.87z"/>
  <path fill="#3E4C6F" d="M193.239 420.159c-3.53-7.66-9.73-23.3 10.6-31.81 20.33-8.51 23.27-12.37 43.6-12.37 20.33 0 18.25 6.84 22.87 17.25 4.62 10.41 20.33 54.9 22.18 59.63 1.85 4.73-95.71-25.04-99.25-32.7z"/>
  <path fill="#273252" d="M231.53 459.736c5.084-2.439 5.092-12.994.018-23.576-5.075-10.583-13.311-17.185-18.395-14.747-5.085 2.439-5.093 12.994-.018 23.576 5.074 10.583 13.31 17.185 18.395 14.747z"/>
  <path fill="#121721" d="M228.092 456.978c4.138-1.985 4.148-10.57.021-19.175s-10.827-13.973-14.965-11.988c-4.138 1.984-4.148 10.569-.021 19.175 4.126 8.605 10.826 13.972 14.965 11.988z"/>
  <path fill="#273252" d="M274.395 442.903c4.736-2.271 4.746-12.098.023-21.948-4.724-9.85-12.393-15.994-17.128-13.723-4.736 2.271-4.746 12.097-.023 21.947 4.724 9.851 12.392 15.995 17.128 13.724z"/>
  <path fill="#121721" d="M271.21 440.34c3.849-1.846 3.855-9.838.013-17.851-3.843-8.012-10.078-13.011-13.928-11.165-3.849 1.846-3.855 9.838-.012 17.85 3.842 8.013 10.077 13.012 13.927 11.166z"/>
  <path fill="#1D2538" d="M213.102 501.514c4.852-1.703 6.96-8.28 4.709-14.689-2.25-6.409-8.007-10.224-12.859-8.521-4.851 1.704-6.959 8.28-4.709 14.69 2.251 6.409 8.008 10.224 12.859 8.52z"/>
  <path fill="#273252" d="M210.843 501.995c4.851-1.704 6.959-8.28 4.709-14.69-2.251-6.409-8.008-10.224-12.859-8.52-4.852 1.703-6.96 8.28-4.709 14.689 2.25 6.409 8.007 10.224 12.859 8.521z"/>
  <g>
    <path stroke="#FFACFF" stroke-miterlimit="10" d="M214.609 405.467l59.29-112.66M239.81 466.236l143.79 23.72M235.359 332.826s32.61 5.93 42.99 28.16M248.699 441.037l66.31-24.83M345.69 399.326s16.89 72.69-18.42 106.94"/>
  </g>
  <g>
    <path fill="#F5894E" d="M508.091 375.078s-27.23 6.9-32.37 37.68c-1.89 11.34-3.95 44.98-7.38 67.1-5.45 35.19-10.28 69.12-12.66 79.91-3.75 17.03-7.12 30.58 14.02 38.54 21.91 8.25 30.53-1.89 41.33-27.87 11.1-26.7 30.74-91.49 32.74-114.85 2.08-24.08-1.74-77.24-35.68-80.51z"/>
    <path fill="#CC6D3D" d="M508.301 377.008c-8.29-.06-16.62 4.35-17.01 17.41-.9 29.78 8.82 87.88 9.88 107.17 1.78 32.31-44.51 92.19-31.46 96.74 22.1 7.71 30.53-1.89 41.33-27.87 11.1-26.7 30.74-91.49 32.74-114.85 2.07-24.1-27.19-78.55-35.48-78.6z"/>
  </g>
  <g>
    <path fill="#1D2538" d="M549.31 585.787s-4.94 105.14-3.82 111.15c1.12 6.01 107.59 37.76 107.59 37.76s94.12-10.05 104.57-10.89c10.45-.85 12.61-77.93 3.97-106.67-8.64-28.75-212.31-31.35-212.31-31.35z"/>
    <path fill="#F7BC4B" d="M714.41 354.057c-21.46-17.08-45.79-24.09-109.71-13.76-76.47 12.36-98.8 30.19-107.13 36.87-8.35 6.7 14.74 85.32 27.36 113.88 12.56 28.4 15.41 79 15.41 79s.91 59.18.15 71.45c-.76 12.26 212.69.39 221.39-4.99 8.68-5.36-.56-98.6-7-122.76-6.68-25.01-20.87-144.09-40.47-159.69z"/>
    <path fill="#CE9436" d="M654.771 459.058s-17.48 26.2-38.77 58.79c-8.9 13.62 29.42 69.85 29.42 69.85l40.84 56.69c45.84-2.24 73.25-5.67 76.8-7.86 8.68-5.36-2.78-96.9-7.52-123.43-5.93-33.23-7.95-127.68-39.56-161.41-18.75-20.01-49.49-25.63-113.41-15.3-76.47 12.36-96.68 34.1-105.01 40.79"/>
    <path fill="#CC6D3D" d="M556.19 354.758s-21.99 5.16-17.93 13.97c4.07 8.81 14.79 26.91 47.69 29.18 32.9 2.27 64.87-45.14 55.81-56.24-9.06-11.1-85.57 13.09-85.57 13.09z"/>
    <path fill="#CC6D3D" d="M547.62 334.488s10.02 31.77 16.52 43.36c7.46 13.3 32.84 11.39 32.84 11.39s23.74-11.43 25.35-27.59l-9.73-72.22-64.98 45.06z"/>
  </g>
  <g>
    <path fill="#F5894E" d="M156.28 740.258s-81.17 22.07-78 66.38c3.17 44.31 23.99 79 201.14 109.42 274.05 47.07 611.04-59.22 613.74-134.74.65-18.26 6.38-38.58-37.64-50.64-226.12-61.96-594.24 1.5-699.24 9.58z"/>
    <path fill="#A96443" d="M147.53 716.898s-50.46 27.4-65.08 62.46c-15.88 38.07 10.49 85.19 189.56 116.09 344 59.36 786.09-121.42 557.5-184.35-228.59-62.93-575.84-2.4-681.98 5.8z"/>
    <path fill="#7A462F" d="M87.37 769.938l218.77 92.08 216.63 34.93 10.05-8.82 4.75-30.86 122.24-7.12 126.99-64.09 28.48-35.6 55.78-22.55s-19.38-14.24-65.67-21.36c-43.51-6.69-715.15 59.14-715.15 59.14l-2.87 4.25zM820.43 826.409l9.49 11.08-.79-17.41-42.72-5.54 34.02 11.87z"/>
    <path fill="#7A462F" d="M867.9 796.349l-84.66-22.16 1.58-4.74 87.04 22.15 1.58 18.99-5.54-14.24zM825.18 795.559l-37.98-6.33 22.15 7.12 31.65 7.91-15.82-8.7zM761.09 820.078l-33.23-7.91-42.73-7.91 37.19 14.24 38.77 1.58zM875.02 775.769s-25.32-7.91-34.81-10.29c-9.49-2.37-20.57 0-20.57 0l55.38 10.29zM653.48 881.009l7.92 13.449 8.7-17.409-83.87-15.82 67.25 19.78zM682.76 868.347l-40.35-9.49c0-.01-1.59 9.49 40.35 9.49zM376.56 907.118l-187.91-48.66-39.96-30.47 49.45 23.35 178.42 55.78zM477.84 904.738l-181.98-36.39 110.77 30.85 71.21 5.54zM220.69 844.208l-66.46-37.97-51.03-17.81 51.03 24.93 66.46 30.85z"/>
  </g>
  <g>
    <path fill="#BB83C3" d="M0 731.117s188.6-33.72 201.09-34.97c12.49-1.25 14.99-1.25 14.99-1.25l87.43-78.69s158.62 36.22 162.37 36.22 31.23 16.24 31.23 16.24l123.65 1.25 57.45 14.99s151.13-11.24 156.13-11.24 56.21 12.49 62.45 13.74l-101.17 52.46-27.48 38.72-104.92 67.45-334.74 12.49L0 731.117z"/>
    <path fill="#856792" d="M300.76 847.288l-5.3-76.26-37.98-59.34 45.1-95.34s159.55 36.08 163.3 36.08 31.23 16.24 31.23 16.24l123.65 1.25 57.45 14.99s151.13-11.24 156.13-11.24-32.42 19.76-26.17 21.01l-46.29 36.79-27.3 37.98-248.04 80.7 29.43-104.13-113.94 102.85-73.55 9.64-27.72-11.22z" opacity=".7"/>
    <path fill="#856792" d="M238.82 704.896l21.08 7.601 21.05 7.69 42.04 15.54 41.96 15.75 20.95 7.96 20.92 8.05-21.09-7.591-21.05-7.699-42.04-15.541-41.95-15.75-20.96-7.959-20.91-8.051zM494.44 679.207c-3.78 6.69-7.65 13.33-11.53 19.96l-11.76 19.82-11.96 19.71-6.05 9.81-6.14 9.76 5.72-10.01 5.81-9.95 11.76-19.82 11.96-19.7c4.03-6.56 8.06-13.1 12.19-19.58zM760.6 770.447l-37.88.58-37.88.42-75.76.81-75.77-.16-37.88-.09-37.88-.24 37.88-.23 37.88-.1 75.77-.16 75.76-.51 37.88-.24 37.88-.08z"/>
    <path stroke="#4B3355" stroke-miterlimit="10" d="M301.74 696.668c-8.52 5.68-24.61 17.73-24.61 17.73s-35.7 15.53-40.88 31.57c-5.06 15.69.85 22.28 11.46 31.07 19.28 15.97 42.74 12.52 54.64 9.96 12.28-2.64 23.43-9.96 40.23-23.79 10.07-8.3-19.55-13.03-20.26-20.26 17.16-15.29 38.66-26.45 32.12-31.13-6.54-4.68-48.75-17.79-52.7-15.15z"/>
    <path stroke="#4B3355" stroke-miterlimit="10" d="M294.963 721.591c7.228-4.504 11.756-10.291 10.114-12.926-1.641-2.634-8.831-1.118-16.059 3.386-7.228 4.505-11.756 10.291-10.114 12.926 1.641 2.634 8.831 1.118 16.059-3.386zM305.69 696.338s7.58-10.54 15.81-13.18c8.24-2.64 40.02 2.47 45.29 10.38 5.27 7.91-12.85 17.29-12.85 17.29s-17.91-6.79-27.67-9.88c-9.63-2.35-20.58-4.61-20.58-4.61z"/>
    <path stroke="#4B3355" stroke-miterlimit="10" d="M327.76 737.509s29.65 10.87 43.48-11.86c13.84-22.73-11.86-19.76-11.86-19.76"/>
    <path stroke="#4B3355" stroke-miterlimit="10" d="M339.62 728.619s8.89 24.71 26.68 13.84c17.79-10.87-6.92-34.59-6.92-34.59M615.33 804.708s-20.75 14.82-66.21 14.82c-45.46 0-66.75-7.53-54.35-26.68 10.87-16.8 17.79-28.66 27.67-38.54 9.88-9.88 25.69-4.94 31.62-15.81 5.93-10.87 7.91-21.74 48.42-21.74 40.52 0 31.62 7.91 26.68 19.76-4.94 11.85 29.65 7.91 17.79 27.67-9.86 16.46-31.62 40.52-31.62 40.52z"/>
    <path stroke="#4B3355" stroke-miterlimit="10" d="M546.4 761.017c3.75-.09 4.54 4.29 1.57 10.32-3.31 6.72-10.04 13.03-14.74 13.39-4.8.36-4.86-5.66-.52-12.67 3.88-6.27 9.88-10.95 13.69-11.04zM606.02 764.638c3.75-.09 4.54 4.29 1.57 10.32-3.31 6.72-10.04 13.03-14.74 13.39-4.8.36-4.86-5.66-.52-12.67 3.89-6.26 9.88-10.95 13.69-11.04z"/>
    <path stroke="#4B3355" stroke-miterlimit="10" stroke-width=".5" d="M615.33 794.828l47.44-.99"/>
    <g>
      <path stroke="#4B3355" stroke-miterlimit="10" d="M642.02 706.877l15.15 2.959 17.13-2.639s16.14 3.949 21.08 3.949c2.23 0 15.81-2.639 15.81-2.639s20.56.869 22.73.329c3.95-.99 16.8-4.94 20.75-4.94 3.95 0 13.84.991 16.8.991 2.96 0 5.93-.991 5.93-.991M766.53 716.757l-9.88-1.98h-6.92l-16.8 2.97-17.78.99h-16.8l-5.93.98"/>
      <path fill="#4B3355" d="M705.26 737.507l-51.55-.38 6.49-7.14 51.08-.35-6.02 7.87zM719.97 738.097l-10.99-.05 6.19-7.92 9.39.24-4.59 7.73z"/>
    </g>
    <g>
      <path fill="#4B3355" d="M646.63 833.996l-51.55-.38 8.46-7.44 51.08-.35-7.99 8.17zM662.11 804.047l-14.99-.08 8.47-7.44 14.51-.65-7.99 8.17zM681.22 804.047l-14.99-.08 8.46-7.44 14.52-.65-7.99 8.17z"/>
    </g>
    <path fill="#4B3355" d="M484.89 788.897l-16.14-.66 5.93-6.26 15.81.33-5.6 6.59z"/>
    <g>
      <path fill="#1D2538" d="M165.03 771.107c-4.31-1.88-8.57-3.89-12.79-5.97-2.1-1.06-4.19-2.15-6.25-3.3-2.04-1.19-4.11-2.31-5.95-3.95l.02.02c-1.01-.8-2.15-1.48-3.33-2.08-1.18-.59-2.42-1.12-3.65-1.57l-.02-.01-.02-.01-5.69-2.7-5.67-2.75.04.02c-4.91-1.84-9.81-3.7-14.68-5.64-2.43-.99-4.87-1.97-7.25-3.09-2.37-1.14-4.74-2.25-6.99-3.65l.05.02c-1.74-.49-3.49-.98-5.23-1.5 1.78.36 3.54.75 5.31 1.14h.02l.04.02c2.29 1.21 4.69 2.28 7.09 3.32 2.39 1.04 4.82 2.01 7.27 2.95a763.7 763.7 0 0014.69 5.56l.02.01.02.01 5.7 2.69 5.67 2.74-.04-.02c1.29.49 2.52 1.04 3.74 1.67 1.2.64 2.4 1.33 3.45 2.26l.02.02c1.64 1.54 3.72 2.74 5.71 3.95 2.02 1.19 4.08 2.32 6.16 3.42 4.12 2.23 8.33 4.33 12.54 6.42zM104.01 725.316c.61.47 1.03 1.14 1.61 1.63.56.52 1.21.92 1.93 1.17.71.25 1.46.4 2.21.46.38.03.76.03 1.14.05.38.02.82.04 1.18.32.18.13.32.35.37.56.06.2.09.38.14.55.11.33.34.59.62.81.58.43 1.27.79 1.94 1.14l2.05 1.04c.7.34 1.35.76 2.04 1.03 2.81 1.17 5.69 2.25 8.55 3.34 2.85 1.1 5.72 2.2 8.59 3.24.72.26 1.44.52 2.15.75.38.12.67.23 1.01.26.34.04.67.01 1.08-.01.41-.03.94.04 1.36.26.41.22.74.5 1.03.78.3.3.59.65.78 1.05.2.39.31.81.44 1.04.2.45.92.64 1.63.78.83.15 1.58.5 2.27.83 1.4.7 2.72 1.49 4.03 2.31 2.61 1.62 5.15 3.39 7.69 5.03l8.4 3.54.02.01.01.01 3.18 1.92c.53.34 1.05.63 1.63.86.57.24 1.15.46 1.73.66-.6-.15-1.2-.31-1.79-.51-.59-.19-1.17-.46-1.71-.76l-3.3-1.72.03.01-4.3-1.61-2.15-.8-1.08-.39-.53-.2-.13-.04c-.06-.02-.16-.07-.19-.09l-.27-.16c-2.62-1.66-5.12-3.39-7.73-4.98-1.3-.79-2.61-1.57-3.96-2.23-.68-.32-1.35-.63-2.03-.74-.39-.07-.8-.16-1.21-.32-.4-.15-.88-.47-1.11-.93-.24-.44-.31-.78-.47-1.07-.15-.29-.35-.54-.59-.79-.25-.25-.52-.47-.78-.61-.27-.14-.51-.18-.87-.16-.35.01-.79.05-1.22 0-.43-.04-.86-.2-1.21-.32-.74-.25-1.46-.51-2.18-.78-5.75-2.16-11.44-4.42-17.05-6.93-.73-.32-1.37-.75-2.04-1.09-.67-.36-1.36-.71-2.03-1.09-.67-.39-1.34-.75-1.97-1.25-.31-.26-.59-.6-.72-1.01-.12-.41-.11-.77-.37-.96-.25-.21-.62-.26-.99-.29-.38-.03-.76-.04-1.15-.08-.77-.08-1.53-.26-2.26-.54-.73-.28-1.39-.73-1.93-1.27-.55-.53-.93-1.22-1.52-1.71zM187.931 749.867c-1.07-.18-2.13-.46-3.16-.82-1.03-.37-2.05-.8-2.99-1.39-.92-.62-1.8-1.17-2.78-1.6-.96-.43-2-.78-3-.97l.07.01c-.92 0-1.81-.09-2.73-.41-.23-.09-.46-.19-.68-.34-.21-.14-.37-.28-.55-.43-.35-.3-.67-.63-.97-.92-.59-.58-1.29-1.03-2.03-1.45-.73-.41-1.53-.83-2.24-1.03-.1-.02-.13-.02-.21-.03h-.33l-.68-.03a12.145 12.145 0 01-3.95-.92c-1.64-.66-3.23-1.38-4.82-2.12l-.1-.05-.06-.08-2.16-3.01.14.11-14.73-6.34-7.35-3.2c-2.45-1.07-4.93-2.07-7.27-3.38 2.38 1.23 4.89 2.14 7.36 3.17l7.43 3.02 14.83 6.1.08.03.06.08 2.29 2.91-.16-.13c1.59.71 3.19 1.41 4.8 2.03a11.535 11.535 0 003.68.8l.63.02h.32c.14 0 .32.03.44.06.97.28 1.71.72 2.5 1.17.76.45 1.54.97 2.19 1.62.33.32.61.63.92.9.15.13.32.27.47.38.13.1.31.18.48.25.73.28 1.6.37 2.42.41H176.161c1.12.27 2.14.67 3.14 1.17.99.48 1.93 1.14 2.78 1.77 1.73 1.21 3.76 2.04 5.85 2.64z"/>
      <path stroke="#4B3355" stroke-miterlimit="10" stroke-width=".5" d="M229.93 717.748l17.78 7.9M286.25 676.238l30.64 12.85M310.96 795.818l44.47-30.64"/>
      <path fill="#4B3355" d="M331.38 801.417l-10.87-5.27 6.33-4.18 10.47 4.51-5.93 4.94zM178.54 785.938l-10.87-5.27 6.33-4.18 10.47 4.51-5.93 4.94zM214.77 802.408l-32.94-14.83 6.33-4.17 32.54 14.06-5.93 4.94zM230.58 729.278l-10.87-5.27 6.33-4.18 10.47 4.51-5.93 4.94zM456.56 694.028l-38.14-13.2 5.04-5.67 37.56 12.57-4.46 6.3zM298.44 678.547l-10.87-5.27 6.33-5.17 10.47 4.51-5.93 5.93zM346.21 796.477l-16.8-7.58 6.33-4.17 16.4 6.81-5.93 4.94z"/>
    </g>
  </g>
  <g>
    <path fill="#273252" d="M542.719 720.309h-19.89l-240.55 159.51v3.82l254.9 18.33 23.56-182.91-18.02 1.25zm-34.81 132.39l-110.02-4.97 127.14-113.87 15.41-2.52-32.53 121.36z"/>
    <path fill="#29ABE2" d="M547.029 711.818h-21.08l-243.76 168 255.62 17.13 28.33-186.45-19.11 1.32zm-36.9 140.33l-116.61-5.27 132.42-116.61 16.33-2.67-32.14 124.55z"/>
    <path stroke="#1689CB" stroke-miterlimit="10" d="M368.979 820.518h32.12M389.729 805.697h26.85M407.52 793.838h21.25M425.31 781.488h21.25M443.589 768.637h21.25M461.87 756.287h18.29M480.16 743.938h13.83"/>
    <g>
      <path stroke="#1689CB" stroke-miterlimit="10" d="M355.639 867.629l-20.09 15.81M382.65 868.619l-20.09 15.81M406.699 870.27l-20.1 15.81M430.749 871.578l-16.15 15.81M455.449 873.559l-15.15 15.81M483.449 875.539l-14.16 15.81"/>
    </g>
  </g>
  <g>
    <path fill="#F5894E" d="M445.83 701.018s-8.1 13.17-19.71 20.89c-17.72 11.78-47.67 2.37-29.14-35.65 10.66-21.87 39.98-82.37 47.4-101.01 7.1-17.83 13.78-22.27 28.41-18.72 14.7 3.56 30.76 16.4 27.67 37.42-3.21 21.87-54.63 97.07-54.63 97.07z"/>
    <path fill="#CC6D3D" d="M445.83 701.019s-8.1 13.17-19.71 20.89c-17.72 11.78 15.45-38.46 19.73-56.33 9.69-40.43 22.76-95.52 32.25-93.94 9.49 1.58 25.44 11.28 22.35 32.31-3.2 21.87-54.62 97.07-54.62 97.07z"/>
  </g>
  <g>
    <path fill="#F5894E" d="M419.85 706.146c4.82 0 13.18 19.231 7.39 37.581-5.79 18.36-18.89 16.24-29.17 17.7-10.29 1.46-23.63-2.19-23.63-2.19s-11.15-2.54-19.83-7.79c-6-3.63-3.31-8.72-4.48-15.75-.73-4.38.58-12.66 2.63-16.32 5.61-9.97 62.26-13.231 67.09-13.231z"/>
    <path fill="#CC6D3D" d="M368.55 741.766s3.14-12.28 5.38-14.76c2.24-2.48 24.69 1.71 27.52 2.02 2.83.31 1.93 20.29-.29 26.96-2.23 6.67-28.97-4.5-32.61-14.22z"/>
    <path fill="#F5894E" d="M358.25 761.346s-.59 7.05 2.94 9.84 11.21 5.81 11.21 5.81 10.06.42 10.29-2.38c.22-2.62-1.63-5.19-4.42-6.04-5.56-1.7-20.02-7.23-20.02-7.23z"/>
    <path fill="#CC6D3D" d="M358.12 757.336s-.59 7.05 2.94 9.84 11.21 5.81 11.21 5.81 10.06.42 10.29-2.38c.22-2.62-1.63-5.19-4.42-6.04-5.56-1.7-20.02-7.23-20.02-7.23z"/>
    <path fill="#F5894E" d="M355.99 752.596s-2.72 6.53.95 10.24c3.67 3.7 12.5 8.88 12.5 8.88s12.56 3.41 13.63.82c1.01-2.43-.6-5.43-3.87-7.07-6.54-3.29-23.21-12.87-23.21-12.87z"/>
    <path fill="#CC6D3D" d="M356.93 750.846s-2.46 1.98 1.21 5.69c3.67 3.7 7.54 8.38 10.95 11.06 3.41 2.69 7.9 5.74 8.98 3.15 1.01-2.43 1.95-4.06-1.32-5.7-6.54-3.28-19.82-14.2-19.82-14.2z"/>
  </g>
  <g>
    <path fill="#3E4C6F" d="M389.658 623.098l-11.51 158.76s9.93 5.13 16.24.36l12.95-157.15s-7.19-6.75-17.68-1.97z"/>
    <path fill="#273252" d="M394.389 782.218l12.95-157.15s-3.58-3.36-9.37-3.66c-1.1-.06-11.72 158.32-11.72 158.32s3.37 4.55 8.14 2.49z"/>
    <path fill="#F5894E" d="M394.388 782.219l-7.85 18.74-8.39-19.1 4.04.67 4.08-2.89 3.87 2.66 4.25-.08z"/>
    <path fill="#1D2538" d="M384.508 796.719h3.82l-1.49 4.89-.36-.02-1.97-4.87z"/>
  </g>
  <g>
    <path fill="#F5894E" d="M354.33 732.657c-6.29-4.14-7.2 4.07-6.39 9.77.41 2.88 7.35 12.87 15.91 18.89 3.36 2.37 5.36 4.7 9.95 8.13 5.57 4.17 9.33-7.23 4.06-13.86-8.15-10.26-17.24-18.79-23.53-22.93z"/>
    <path fill="#F5894E" d="M368.14 720.037c-3.52-1.56-8.2-6.76-13.49 4.98-5.29 11.74 4.18 12.12 9.09 16.95 6.73 6.61 13.72 20.62 19.08 15.52 5.35-5.1 3.03-15.3-.07-20.21-5.34-8.48-12.38-16.25-14.61-17.24z"/>
    <path fill="#CC6D3D" d="M354.03 732.848s6.31 6.8 13 12.5c3.5 3.48 12.01 13.37 12.01 13.37s-11.16-10.09-12.93-12.35c-3.39-3.19-7.74-7.59-12.08-13.52z"/>
    <g>
      <path fill="#CC6D3D" d="M425.27 746.905s-10.13 10.56-17.6 11.14c-5.43.42-.38 6.19-10.85 9.87-10.47 3.68-12.81-2.22-12.31-5.73.5-3.51 7.03-12.2 16.44-23.62 8.41-10.22 36.4-6.65 24.32 8.34z"/>
      <path fill="#F5894E" d="M426.2 746.886s-10.13 10.56-17.6 11.14c-5.43.42-.38 6.19-10.85 9.87-10.47 3.68-12.81-2.22-12.31-5.73.5-3.51 9.35-15.38 17.59-25.74 8.24-10.37 35.25-4.53 23.17 10.46z"/>
    </g>
  </g>
  <g>
    <path fill="#CC6D3D" d="M689.83 565.777c-29.38-6.67-33.62-28.41-28.7-61.66 5.06-34.14.74-53.11-1.6-77.2-2.39-24.56-14.52-79.45 19.7-86.62 34.25-7.17 51.23 41.63 51.48 79.72.24 36.99.29 37.03-.64 73.17-.89 35.13-11.14 79.19-40.24 72.59z"/>
    <path fill="#F5894E" d="M659.22 524.658c2.42-30.61 2.66-73.65.31-97.74-2.39-24.56-14.52-79.45 19.7-86.62 26.98-5.65 22.64 4.93 22.51 36.69-.04 8.55 12.53 37.81 12.66 45.89.57 36.99-9.9 39.24-10.45 75.3-.52 35.06-47.56 62.39-44.73 26.48z"/>
    <g>
      <path fill="#CC6D3D" d="M602.87 706.599c-20.02.3-27.05-13.12-19.49-36.81 8.12-25.44 34.84-74.95 55.59-104.27 16.97-23.98 42.16-57.95 65.6-42.06 22.39 15.18 16.15 43.64-10.56 81.06-24.36 34.15-71.24 101.77-91.14 102.08z"/>
      <path fill="#F5894E" d="M595.1 676.649c-4.74 1.95-19.27 16.82-11.71-6.86 8.12-25.44 34.84-74.95 55.59-104.27 16.97-23.98 35.73-57.26 59.61-41.35 22.82 15.2-14.68 51.83-39.55 88.62-22.71 33.59-59.18 61.9-63.94 63.86z"/>
    </g>
  </g>
  <g>
    <path fill="#F5894E" d="M593.741 675.198c-11.03-5.52-29.86 12.34-42.83 14.66-10.88 1.95-19.92 7.78-23.9 12.18-3.98 4.4-9.39 13.08-15.16 15.11-5.4 1.9-10.19 13.51.29 15.72 10.48 2.2 15.55-2.2 24.42-9.91 8.87-7.71 13.29-5.61 13.29-5.61s2.8 8.49 2.97 14.47c.18 5.98 2.16 13.1.97 37.23-.43 8.64 8.99 9.91 12.98 5.5 3.98-4.4 6.21-16.18 6.21-16.18s.92 8.44 1.19 11.08c.26 2.64-.46 11.21 8.24 11.34 9.63.26 11.21-27.69 11.21-27.69l1.85 6.86s2.69 13.05 5.54 14.77c2.85 1.72 3.94 1.34 6.2.79 4.52-1.1 4.24-15.27 4.24-15.27-.61 10.04 9.7 16.26 12.85-12.11.41-3.66-1.06-13.21-1.78-15.41-.72-2.2 1.49-28.63-2.28-38.54-3.77-9.91-15.47-13.48-26.5-18.99z"/>
    <path fill="#CC6D3D" d="M624.29 748.128c1.63-3.3-1.06-13.21-1.78-15.41-.72-2.2 1.49-28.63-2.28-38.54-3.77-9.91-7.38-6.5-18.41-12.01-11.03-5.52 1.44 35.28 1.44 35.28l21.03 30.68zM572.031 762.437s2.66-12.47 2.78-21.77c.11-9.29-2.82-10.79-2.82-10.79s.27 22.39.04 32.56zM591.17 771.249s1.02-25.38.6-31.47c-.42-6.1 0-8.31 0-8.31s4.94 12.06-.6 39.78zM611.761 759.258s4.94-15.97.37-22.94l-.7 23.92"/>
  </g>
  <g>
    <path fill="#3E4C6F" d="M617.63 278.876c-11.56 53.42-23.49 34.831-23.49 34.831-69.87 20.16-108.89 1.679-113.08-48.551-6.08-51.77 3.53-67.32 54.15-77.46 70.49-14.13 92.72 43.6 82.42 91.18z"/>
    <path fill="#1D2538" d="M628.96 262.537c-1.05 38.77-18.46 42.99-18.46 42.99-13.76-5.44-87.83-45.16-100.16-74.83-10.64-25.59-7.94-46 40.92-50.43 25.41-2.3 49.73 5.77 61.88 17.92 10.28 10.29 14.55 44.73 15.82 64.35z"/>
    <path fill="#CC6D3D" d="M527.751 229.048s-34.47 10.9-39.63 18.59c-5.16 7.69 1.67 72.81 17.17 93.56 15.28 20.46 88.1 3.75 102.51-15.33 11.81-15.63 6.03-30.191 5.4-52.741-.66-23.75-16.79-21.1-20.06-29.81-5.62-14.94-65.39-14.269-65.39-14.269z"/>
    <path fill="#F5894E" d="M491.67 257.757c-5.25 9.3-4.12 53.86 13.4 80.34 11.55 17.35 99.89 5.74 93.82-24.39-3.17-15.75-8.34-45.24-29.54-62.09-25.95-20.62-74.81 1.06-77.68 6.14z"/>
    <path fill="#CC6D3D" d="M620.74 261.267c1.44 12.53-2.85 23.78-9.58 25.19-6.77 1.41-13.48-7.64-14.97-20.25-1.49-12.66 2.84-24.02 9.66-25.34 6.79-1.33 13.45 7.83 14.89 20.4z"/>
    <path fill="#1D2538" d="M581.48 218.746s1.84 34.77 7.65 44.21l11.75 13.48-4.65-49.02-14.75-8.67z"/>
    <g>
      <path fill="#1D2538" d="M569.38 210.868s-9.48 15.58-50.09 24.47c-20.16 4.42-35.84 15.21-46.05 15.36-25.08.37 6.27-52.01 47.4-62.41 41.58-10.52 48.74 22.58 48.74 22.58z"/>
      <path fill="#3E4C6F" d="M520.77 187.738c-32.7 9.67-61.16 46.59-40.96 46.27 5.73-.09 14.82-.51 25.69-1.6 18.14-6.72 35.67-20.09 35.67-20.09.58 8.98-9.11 14.66-20.15 18.2 9.69-1.39 20.09-3.29 30.48-5.9 17.07-4.29 19.06-3.8 19.09-9.56.07-11.72-14.49-37.77-49.82-27.32z"/>
    </g>
    <g>
      <path fill="#34283A" d="M507.66 290.746c1.86 4.72.38 7.59-2.05 8.45-2.43.86-4.9-.62-6.77-5.35-1.87-4.73-1.41-9.27 1.03-10.12 2.44-.85 5.93 2.3 7.79 7.02zM547.73 280.156c1.99 4.63.64 7.54-1.7 8.47-2.35.94-4.82-.45-6.82-5.09-2-4.65-1.71-9.17.65-10.1 2.35-.93 5.87 2.08 7.87 6.72z"/>
      <path stroke="#34283A" stroke-linecap="round" stroke-linejoin="round" stroke-miterlimit="10" d="M543.17 263.726s-5.34-2.5-9.87.51M501.24 272.576c-5.23.89-8.52 4.86-8.52 4.86"/>
    </g>
  </g>
</svg>
