<svg xmlns="http://www.w3.org/2000/svg"  fill="none" viewBox="0 0 510 621">
  <path fill="#F3F4F6" d="M271.649 42.425s-29.271-59.894-91.473-37.353c-62.202 22.54-38.419 88.23-38.419 88.23s-23.173-13.524-46.956 1.289c-23.783 14.812-15.246 37.353-15.246 37.353s-15.245.644-23.783 12.88c-8.537 12.237-1.83 28.981 3.05 31.557 0 0-23.784 14.813-23.174 25.761.61 10.948 82.326-34.133 116.476-52.81 34.15-18.676 135.38-75.994 148.187-83.078 12.806-7.084-7.928-8.372-14.636-1.932-6.708 6.44 67.08-35.421 43.907-36.71-23.173-1.287-57.933 14.813-57.933 14.813zM389.65 49.187s-14.026 13.525-5.488 12.237c8.537-1.288 66.47-32.201 73.178-37.353 6.708-5.152 4.879-14.169-1.829-15.457-6.708-1.288-21.344 7.084-24.393 19.965 0 0-3.049-24.473-20.124-23.829-17.075.644-23.174 29.625-21.344 44.437z"/>
  <path fill="#33A86D" d="M107.391 588.284s-13.507-2.035-27.021-2.035c-13.514 0-18.337 10.188-12.544 10.188 0 0-40.529 7.136-20.264 11.212 20.264 4.071 82.99-1.024 59.829-19.365zM331.438 562.78c3.909-3.954-9.897-4.476-26.978-3.664-21.68 1.03-17.24 6.073-17.24 6.073s-11.733-.631-17.715 3.252c-3.653 2.37 1.914 3.884 18.678 4.927 16.758 1.043 22.027-4.901 22.027-4.901s17.313-1.732 21.228-5.687zM145.676 564.738c3.909-3.484-9.897-5.667-26.978-6.904-21.68-1.571-17.24 4.006-17.24 4.006s-11.733-2.041-17.715 1.127c-3.653 1.932 1.915 4.116 18.678 7.168 16.764 3.053 22.027-2.254 22.027-2.254s17.319.341 21.228-3.143zM187.002 581.161s-18.484-.329-34.26 2.28c-15.776 2.608-10.477 8.204-6.275 8.204 4.201 0-62.836 20.268-43.907 25.478 18.928 5.21 47.084 2.846 124.964-1.095 40.529-2.048 60.793-12.133 43.426-15.721-15.563-3.213-55.634-7.245-55.634-7.245 11.58-8.475-28.314-11.901-28.314-11.901z"/>
  <path fill="#288453" d="M100.237 588.264s-1.232-8.256 1.232-8.256 2.055 5.217 2.055 5.217 4.94-7.825 4.94-4.779c0 3.04-2.47 5.648-2.47 5.648s-4.519 5.217-5.757 2.17z"/>
  <path fill="#33A86D" d="M130.641 604.365s2.543-10.993 0-11.483c-2.543-.489-3.006 6.105-3.006 6.84 0 .734-.232-10.994-2.08-11.239-1.848-.244-2.775 4.399-2.775 4.399s-1.622-3.42-3.701-.734c-2.08 2.686.231 4.643.231 4.643s-2.311-.489-3.701 2.441c-1.391 2.93 6.476 6.105 6.476 6.105l-3.006 1.952c0 .013 7.629.257 11.562-2.924z"/>
  <path fill="#288453" d="M298.415 599.915s-2.104-1.849-1.049-4.444c1.049-2.589 3.153.367 3.153.367s1.75-7.773 4.208-5.925c2.451 1.848.348 5.184.348 5.184s6.311-11.109 9.116-6.292c2.806 4.811-3.854 8.888-3.854 8.888s4.909 3.703 2.805 3.703c-2.103 0-15.776 1.848-17.88 1.108-2.103-.734 3.153-2.589 3.153-2.589zM167.222 598.813c-14.697-3.181-27.637 1.778-20.106 4.167 0 0-30.131 3.317-20.923 6.898 9.209 3.58 50.219 2.653 60.635 1.59 10.416-1.062 13.763-2.125 18.599-5.841s-23.508-3.632-38.205-6.814z"/>
  <path fill="#33A86D" d="M150.376 613.484s-1.116-6.092.561-4.714c1.671 1.378 2.226 6.485-.561 4.714zM178.273 612.75s-1.115-6.092.562-4.714c1.67 1.371 2.225 6.479-.562 4.714zM147.395 612.699s-1.116-6.093.561-4.715c1.67 1.378 2.225 6.486-.561 4.715z"/>
  <path fill="#288453" d="M89.95 594.434s-5.5-5.281-2.5-6.601c3-1.32 2.75 2.641 2.75 2.641s.5-9.242 3-7.922c2.5 1.32.75 5.545.75 5.545s1.75-4.753 2.25-1.584c.5 3.168-2.75 8.977-6.25 7.921z"/>
  <path fill="#F7BC4B" d="M168.605 512.753V269.172s0-4.656 4.409-8.649c4.409-3.993 10.08-9.313 10.08-9.313v-60.576c0-2.274 1.586-4.206 3.714-4.528l9.513-1.436V90.926c0-2.685 1.976-4.907 4.513-5.08l16.282-1.102 5.043 5.435s148.693-5.326 154.364-5.326c5.672 0 76.868 36.594 83.168 39.923 6.299 3.33 2.518 5.326 3.153 12.642.628 7.316.628 164.354.628 164.354V509.43l-294.867 3.323z"/>
  <path fill="#161E2E" d="M222.157 90.18l15.648 17.8-3.763 155.969 12.3 41.275-.725 22.167-.153 6.324-.567 65.523 110.006 3.053 2.171-151.332L359.233 83.9l-137.076 6.28z"/>
  <path fill="#CE9436" d="M365.437 96.008v206.357l49.627 1.739 4.238-62.387-17.953-18.689V101.772s-5.641-22.045-13.202-24.041c-4.495-1.185-10.465 10.44-16.081 10.813-3.733.25-6.629 3.523-6.629 7.464z"/>
  <path fill="#CC6D3D" d="M355.496 91.538v224.01h55.72v-57.222l-24.57-15.301V97.302c0-7.548-5.354-12.642-8.22-12.642-2.866 0-14.514.18-18.167.18-3.659 0-4.763 4.457-4.763 6.698z"/>
  <path fill="#F7BC4B" d="M359.237 83.9v215.058h55.719v-57.221l-24.569-15.302V89.665c0-7.549-1.031-12.643-3.897-12.643-2.866 0-18.831.18-22.49.18-3.659 0-4.763 4.463-4.763 6.698z"/>
  <path fill="#CC6D3D" d="M229.714 98.835v166.344l13.861 8.649v51.238l-6.928 8.649 3.781 7.316v83.176l6.3-3.324 2.518-79.852-3.781-7.316 3.781-4.656v-65.877l-6.403-9.48-5.037-145.722-8.092-9.145z"/>
  <path fill="#FEED7F" d="M290.936 110.17v8.037c0 .831.64 1.488 1.427 1.468l45.114-1.358c.921-.026 1.604-.96 1.391-1.9l-1.812-7.98c-.152-.676-.725-1.14-1.39-1.12l-43.303 1.307c-.787.013-1.427.708-1.427 1.546zM335.427 134.694l-23.68.715c-1.03.032-1.872-.831-1.872-1.919v-5.526c0-1.088.836-1.997 1.872-2.029l23.68-.715c1.03-.032 1.872.825 1.872 1.92v5.525c0 1.089-.836 1.997-1.872 2.029zM281.093 209.51l-27.168.818c-1.305.038-2.366-1.05-2.366-2.428v-6.054c0-1.378 1.061-2.531 2.366-2.57l27.168-.817c1.305-.039 2.366 1.049 2.366 2.427v6.054c0 1.378-1.061 2.531-2.366 2.57zM311.251 206.496l-9.22.277c-.896.025-1.622-.715-1.622-1.662v-4.476c0-.947.726-1.732 1.622-1.758l9.22-.277c.897-.026 1.623.715 1.623 1.662v4.476c-.006.94-.732 1.732-1.623 1.758zM292.308 230.756l-32.649.985c-1.171.033-2.117-.94-2.117-2.176v-5.004c0-1.237.952-2.267 2.117-2.3l32.649-.985c1.171-.032 2.116.94 2.116 2.177v5.004c.007 1.23-.945 2.26-2.116 2.299zM314.367 293.58h-25.424v10.002h25.424V293.58zM383.212 84.576l-5.702 8.225 4.757 13.299-.842 30.352 4.196 15.689.561-41.263-.842-10.91 2.799-3.748c.007-.006-2.408-11.302-4.927-11.644z"/>
  <path fill="#CC6D3D" d="M209.432 155.122l8.971 23.687-5.983 17.376 1.5 31.589v18.947l-4.488-3.155-2.244-20.532 2.988-41.063-.744-26.849z"/>
  <path fill="#CE9436" d="M183.759 226.19l-1.494 29.219 5.232 13.428-.75 61.594 2.244 7.896 3.739-70.282-6.727-15.792-2.244-26.063z"/>
  <path fill="#CC6D3D" d="M230.617 204.081l-20.935 40.36 19.941 24.924-1.994 25.265 18.941 29.483-2.994-50.285-11.959-21.047-1-48.7z"/>
  <path fill="#CE9436" d="M411.077 99.84l-.994 48.436 16.946 44.225v40.013l37.889 64.228-1.348-167.599c-.012-1.662-.921-3.169-2.336-3.884l-50.157-25.42z"/>
  <path fill="#CC6D3D" d="M235.355 150.91l15.703 7.104 11.964-6.318 34.394.792-34.394 3.156-13.465 9.48-16.446-8.688 2.244-5.526zM357.241 197.499l6.727 13.428-6.727 8.687v-22.115z"/>
  <g>
    <path fill="#4B3355" d="M192.997 348.135l20.027.773 10.83 14.046 5.501 41.835-7.989 50.118-21.874 18.342-12.343-39.266 5.848-85.848z"/>
    <path fill="#665070" d="M223.854 362.954l-12.922 17.743 3.433 24.034 8.544 25.806 6.446-25.748-5.501-41.835z"/>
  </g>
  <g>
    <path fill="#273252" d="M509.931 321.073s-13.233-35.266-16.38-39.923c-3.147-4.656-5.043-6.652-18.905-7.316-13.861-.663-29.612-5.326-29.612-5.326l-28.967 14.542-3.793 12.739 11.971 232.221 34.686 16.467 36.644.49 7.422-10.968s-1.89-143.056-1.89-152.375c0-9.319 4.409-11.309 6.927-13.305 2.525-2.003 1.897-47.246 1.897-47.246z"/>
    <path fill="#3E4C6F" d="M424.54 280.944l17.447-4.74 23.429 11.58s7.976 4.74 12.959 3.156c4.982-1.585 12.958-4.74 12.958-4.74l5.483 10.529 8.476 26.321-.5 32.639-11.465-1.578-12.464 35.273-13.709-39.484 7.476-25.272-12.214-31.061-21.436-12.107-16.44-.516zM85.142 393.603l15.124-14.639v-59.887l.915-18.87c.213-4.366 2.652-8.269 6.372-10.195l50.676-26.166s18.271 3.329 27.095 9.312c8.818 5.99 13.233 15.972 13.233 15.972l2.518 29.94v45.913s1.891 1.996-2.518 5.989-5.043 5.989-5.043 5.989-1.263 3.33-.629 6.653c.629 3.33 0 116.445 0 116.445l-27.094 40.606H96.485l-8.19-33.283-3.153-113.779z"/>
    <path fill="#273252" d="M85.142 393.603l15.124-14.639v-59.887l.677-13.911c.359-7.432 4.512-14.072 10.842-17.337l2.391-1.236 44.053-22.747-14.916 35.356 8.58 32.459c-.549 3.33.354 6.749 2.464 9.293l3.208 3.871c3.738 4.514 5.018 6.859 9.446 3.104l34.064-28.865-.859 21.356-14.209 12.635-4.489 33.167s-3.622 53.531-2.988 56.861c.238 1.262-13.458-6.318-13.458-6.318l-14.209 63.288 14.928 40.605H96.485l-8.19-33.282-3.153-113.773z"/>
    <path fill="#3E4C6F" d="M139.895 336.575l-8.97 15.791 16.447 3.948 7.482 1.584-5.982-19.745-8.977-1.578z"/>
    <path fill="#48598B" d="M120.195 309.565l12.971-7.362 7.726 1.733c1.311.097 5.397 23.738 4.488 24.743l-6.641-1.578-7.604-4.218c-.11 1.333-1.897 1.481-2.201.187l-6.318 12.378-6.873.554-8.769-18.883 13.221-7.554zM109.983 297.264l14.959 3.684 13.458-8.946 17.947-26.327-32.406 16.847-16.946 12.108 2.988 2.634z"/>
    <path fill="#3E4C6F" d="M469.904 353.596l-2.489 25.8 9.965 22.637 2.165 24.215 4.317 17.898-7.976-17.898-1.994-22.109-10.965-25.271 4.238-28.955 2.739 3.683z"/>
    <path fill="#3E4C6F" d="M478.38 427.04l13.459 6.576 5.482 19.481.5 8.952-1.994-9.48-5.982-15.791-9.971-4.212-1.494-5.526z"/>
    <g>
      <path fill="#288453" d="M424.6 295.029c-1.622-1.713.543-9.692 3.781-3.233 3.232 6.46-2.165 4.94-3.781 3.233zM418.766 293.045c-2.342-1.333-1.439-8.455 1.079-6.459 1.44 1.14 4.19 2.467 2.159 5.893-.896 1.52-.896 1.9-3.238.566z"/>
      <path fill="#288453" d="M419.914 286.477c-2.518-1.9-2.518-12.926 1.439-9.886 3.964 3.04 1.08 11.785-1.439 9.886zM424.598 288.756s1.799-7.979 3.598-3.799c1.799 4.179-3.598 3.799-3.598 3.799zM417.567 303.64s1.092-7.445-1.958-4.818c-3.049 2.628-1.524 7.007 1.958 4.818zM416.437 286.335c-1.116-1.34-5.306-2.563-2.519 2.28 3.171 5.513 3.629-.941 2.519-2.28zM418.474 300.349s7.915 6.079 6.116 1.52c-1.799-4.56-5.756-4.94-6.116-1.52z"/>
      <path fill="#288453" d="M418.116 285.717s-1.079-11.786-2.519-7.98c-1.439 3.806.36 8.74 2.519 7.98zM410.773 288.583c-2.549-1.089-5.537 1.629.25 3.696 5.781 2.061 2.299-2.608-.25-3.696z"/>
    </g>
  </g>
  <g>
    <path fill="#856792" d="M45.111 552.631c-3.153-1.334-9.452-17.969-5.671-21.955 3.78-3.993 6.3-3.33 3.153-13.975-3.153-10.646-2.519-67.204-2.519-90.492 0-23.287 0-43.915 3.781-53.228 3.78-9.312 0-18.631 2.519-23.288 2.518-4.656 9.452-7.985 9.452-7.985s1.89-21.955 3.152-25.285c1.263-3.329 14.49-8.649 19.533-8.649 5.043 0 5.043 2.66 13.233 11.979 8.19 9.312 14.49 14.639 16.38 17.968 1.89 3.33 1.262 7.323 3.153 11.979 1.89 4.656 12.599 49.242 14.489 53.898 1.891 4.656 1.891 3.329 2.519 14.638.628 11.309 1.89 49.906 2.518 53.229.628 3.329 0 5.989 5.044 9.312 5.043 3.33 5.043 9.313 6.299 12.642 1.262 3.33 1.262 15.972 1.262 21.955 0 5.983-1.262 30.61-.628 34.603.628 3.993 3.781 8.649-4.409 9.983-8.19 1.333-24.57 1.996-32.131 2.659-7.562.664-9.453-2.659-9.453-2.659s-20.16-1.334-28.984-1.334c-8.825 0-11.971 1.997-13.233-.663-1.269-2.673-6.306-4.006-9.459-5.332z"/>
    <path fill="#665070" d="M92.039 555.406l.33-11.933-13.96-17.55 2.66-24.917-11.63-9.126-2.988-16.493-9.306-15.09s7.976-27.725 7.641-29.831c-.33-2.106 12.63-7.367 12.63-7.367l14.952 18.953-3.323 18.954 3.323 18.599 21.6 63.881-7.641-.702-3.323 16.493-10.965-3.871z"/>
    <path fill="#BB83C3" d="M66.776 343.066l4.983-1.404s12.544 8.25 12.544 16.146c0 7.896-4.489 17.376-4.489 17.376s-1.494 14.213 1.494 22.901 14.953 28.427 14.953 28.427l14.953 7.896s.75 12.635 2.244 15.005c1.403 2.222.829 12.024.829 12.024s3.739 6.054 3.989 2.37 4.903-5.706 4.903-5.706l-4.489-11.843.75-15.006-20.19-9.474-13.46-24.479-.75-18.161 4.489-21.324s-5.818-13.511-10.8-17.195c-2.129-1.578-15.618.702-15.618.702l3.665 1.745z"/>
    <path fill="#BB83C3" d="M115.717 450.199l-2.244 6.582 2.244 47.909s2.909-12.462 4.403-25.098c1.494-12.629-4.403-29.393-4.403-29.393zM42.186 533.645s5.983 6.846 9.47 6.846c3.49 0 7.977-7.896 7.977-7.896s10.965-.528 12.96-.528c1.993 0 9.97 7.896 9.97 7.896l7.976 4.74-4.488.528-5.983-3.156-8.476-6.318-10.47.528-8.477 8.952-8.477-6.846-1.982-4.746z"/>
    <path fill="#BB83C3" d="M57.637 537.857l-4.982 11.058 1.908 9.035-5.403-5.88-.994-9.473h3.489l5.982-4.74zM78.328 315.161l-5.239 7.728 2.995 9.442 8.226 8.584 1.494 13.731 2.988-12.874-5.982-7.722-5.232-9.441.75-9.448zM47.666 369.652s-3.738 29.219-2.988 37.114c.75 7.896 5.982 15.006 5.982 19.74 0 4.733-.75 22.109-6.732 33.167-5.982 11.057-2.988-26.85-2.988-26.85l-1.494-33.959c-.006.007-.006-28.42 8.22-29.212zM53.147 449.149c-6.233 14.478-8.727 15.006-4.983 22.902 3.739 7.895 11.465 27.113 11.465 27.113s13.459 18.954 16.453 19.739c2.988.792-.75-18.161-.75-18.161l-5.982 2.37-3.739-3.156-8.226-29.219-4.488-7.11 5.232-20.531-.994-20.532-3.738 7.11-.25 19.475z"/>
    <path fill="#665070" d="M64.122 372.022l-3.738 13.427 3.738 17.37v11.057l2.988-11.843-2.988-16.584 2.988-19.745-2.988 6.318z"/>
    <path fill="#665070" d="M64.118 396.501l7.476 2.37 9.72-.786-8.226 6.311-8.97-1.577v-6.318zM67.108 365.704l-9.72-3.156-4.483-7.11-5.982 1.578 2.988 3.948 5.232 5.532 11.965-.792z"/>
  </g>
  <g>
    <path fill="#288453" d="M60.944 427.955c1.33 2.106 5.983 3.156 6.977-.528.994-3.684-2.988-5.262-2.988-5.262s-5.318 3.684-3.989 5.79z"/>
    <path fill="#33A86D" d="M61.773 412.337s-.994 10.53 4.489 6.846c5.482-3.683-.5-8.952-4.489-6.846zM71.746 423.923s.994 7.368 3.489 2.634c2.494-4.74.5-7.374-3.489-2.634zM66.261 433.925s4.488-11.058 4.982-5.79c.5 5.262-4.982 5.79-4.982 5.79zM228.259 404.087s-.664-14.097 3.336-7.754c4 6.344.665 9.873.665 9.873s4.006-9.873 8.013-1.41c4.006 8.462-6.007 9.873-6.007 9.873s-13.349.702-13.349-9.873 7.342-.709 7.342-.709zM100.334 306.538s-7.495-8.443-7.495-4.747c0 3.697 4.995 7.915 4.995 7.915s-6.495-.528-5.495 3.169 5.995 1.584 5.995 1.584 4.994 10.028 7.495 0c2.5-10.027-3.001-24.807-5.495-7.921zM122.024 331.989c-1.153-4.05 6.678-12.687 6.678-7.052 0 5.642-4.678 14.104-6.678 7.052zM117.927 343.022s5.306-8.405 6.635-3.272c1.329 5.133-5.312 12.14-6.635 3.272zM121.355 365.826s-7.342-13.395 0-11.985c7.349 1.41 4.678 18.335 0 11.985zM128.702 365.124s10.013-10.574 9.349-4.231c-.671 6.344-6.013 10.575-9.349 4.231zM117.353 369.355s-10.013-.702-5.342 2.113c4.671 2.821 12.013 3.529 5.342-2.113zM113.347 360.893s-9.349-2.112-4.007 1.41c5.342 3.523 4.007-1.41 4.007-1.41zM129.369 382.043s1.335-12.687 6.006-9.165c4.678 3.53 2.007 11.284-6.006 9.165zM125.36 389.797s-7.342-11.986-.664-7.754c6.671 4.231 8.007 7.754.664 7.754zM127.37 398.259s4.006-13.395 7.342-4.231c3.336 9.164-6.007 9.873-7.342 4.231zM130.038 410.244s-11.349-11.283-7.342-4.933c4 6.344 7.342 4.933 7.342 4.933zM138.713 403.901s-9.348 7.052-1.335 4.933c8.007-2.112 6.007-4.231 1.335-4.933zM121.688 396.494s-6.006 6.344-.335 4.586 7.013-6.344.335-4.586zM126.031 414.121s-3.007 10.221 4.342 6.698c7.336-3.523 6.006-11.985-4.342-6.698zM137.382 420.117s4.342-5.989 7.342-2.821c3.001 3.169-16.02 10.929-7.342 2.821zM128.031 423.994s-14.356 5.642-3.336 3.877c11.013-1.764 8.678-2.119 3.336-3.877zM131.368 429.636s3.006 4.933 7.342 1.764c4.336-3.168 1.006-2.473-7.342-1.764zM143.387 423.64s11.013 0 4.342 1.764c-6.672 1.765-10.02 1.057-4.342-1.764z"/>
    <path fill="#33A86D" d="M126.363 432.45s-5.007 7.052 4.342 3.175c9.348-3.877-4.342-3.175-4.342-3.175zM140.382 433.861s-6.007 7.754 3.671 3.877c9.684-3.877 6.342-6.344-3.671-3.877z"/>
    <path fill="#33A86D" d="M129.369 440.211s-.335 4.231 5.007 1.764c5.342-2.473 3.671-3.529-5.007-1.764zM130.368 447.256s-6.007 3.523 1.671 3.175c7.677-.354-1.671-3.175-1.671-3.175zM116.685 378.874s-12.685-2.467-6.007 1.056c6.677 3.523 7.342.702 6.007-1.056zM124.362 374.643s-11.013-1.765-5.006 1.41c6.007 3.169 8.013 1.411 5.006-1.41zM136.382 385.92s11.014-5.99 7.007-1.057c-4.006 4.934-15.691 9.165-7.007 1.057zM101.999 323.765s-12.904-2.82-7.568.941c5.336 3.761 12.465 3.761 7.568-.941zM102.442 330.347s-6.678 9.873 2.671 6.112c9.349-3.761 3.561-7.992-2.671-6.112z"/>
    <path fill="#33A86D" d="M102 323.765s11.123-2.821 4.897 1.881c-6.233 4.701-4.897-1.881-4.897-1.881zM109.113 312.952s-8.013 12.217 1.78 5.642c9.794-6.576 5.788-11.747-1.78-5.642zM115.349 320.474s6.233 2.351-.89 4.702c-7.117 2.35-4.897.94.89-4.702zM114.013 328.937s-6.678 6.582 1.335 3.761c8.013-2.821 6.233-4.701-1.335-3.761zM109.559 342.094s-12.459.94-3.116 3.761c9.342 2.821 7.568-1.88 3.116-3.761zM110.897 337.393s8.458-7.522 6.232-1.881c-2.226 5.642-8.897 6.112-6.232 1.881zM118.484 336.375s10.684-2.821 3.562.941c-7.123 3.761-3.562-.941-3.562-.941zM107.34 350.086s-14.239 1.411-5.342 3.291c8.898 1.874 8.007-1.41 5.342-3.291zM100.219 344.915s-9.348 0-4.897 2.351c4.452 2.35 9.794 2.35 4.897-2.351z"/>
  </g>
  <g>
    <path fill="#4B3355" d="M346.946 398.523l-107.189 1.14c-2.097 0-6.811-1.404-6.811 5.178s.042 10.047.042 10.047l115.22-.393-1.262-15.972z"/>
    <path fill="#4B3355" d="M210.433 438.04s-.659-1.05-.872-7.715c-.25-7.767-.878-10.459 1.994-11.979 3.488-1.842 12.337-2.37 12.337-2.37l115.628-3.085.5 9.841v16.635l-129.587-1.327z"/>
    <path fill="#FEED7F" d="M209.413 420.742s-.585-2.467 2.519-3.33c7.385-2.048 11.544-3.452 21.179-3.8 9.635-.347 106.901-.193 106.901-.193v9.313l-130.599-1.99zM210.933 437.963s-.25.219-7.891 2.499c-7.641 2.28-8.556 4.707-8.556 7.367s6.733 2.106 6.733 2.106l137.545 2.106v-13.196l-127.831-.882z"/>
    <path fill="#FFACFF" d="M196.721 463.466c-3.323 0-5.482 2.093-11.3 5.249-4.39 2.389-7.641 3.51-8.305 7.367-.793 4.592 162.901 14.658 162.901 14.658v-25.941s-139.972-1.333-143.296-1.333z"/>
    <path fill="#4B3355" d="M182.762 471.877c-3.116.831-4.428.277-5.483 2.151-.847 1.5-1.164 4.444-1.164 5.925 0 3.329-.098 10.8-.098 10.8H340.01l-2.384-16.764s-65.489-.921-111.329-1.539l-3.037 1.72s-3.464-1.804-4.61-1.823c-19.801-.283-34.522-.837-35.888-.47z"/>
    <path fill="#FFACFF" d="M343.826 499.061l-182.489 1.063c-.579 0-.994-3.684 1.311-4.624l13.264-4.702a.532.532 0 01.244-.058h172.28c.439 0 .701.522.451.908l-4.61 7.155a.52.52 0 01-.451.258z"/>
    <path fill="#665070" d="M158.255 510.66s-.75-3.51-.415-6.93c.33-3.42 3.324-6.408 3.324-6.408 0-1.153 1.397-.702 2.494-.702l175.574.181c1.091 0 1.982.933 1.982 2.093v10.729c0 1.153-.885 2.087-1.976 2.093l-177.312.386c-1.097 0-3.671-.289-3.671-1.442z"/>
    <path fill="#FFACFF" d="M160.276 510.608l-20.167 8.649 171.525 4.914 38.468-4.914-5.818-7.721-184.008-.928z"/>
    <path fill="#665070" d="M140.106 519.219s-2.207 9.866-2.543 12.32c-.329 2.454 2.543 5.448 2.543 5.448h204.949l6.927-18.431-33.625 1.403s-5.921 2.106-7.477 2.106c-5.732 0-12.214-3.342-12.214-3.342l-158.56.496z"/>
    <path fill="#665070" d="M138.782 537.168l-10.556 2.917c-4.677 1.295-6.61 1.436-6.61 6.543l-1.329 4.914c0 6.202-1.885 11.232 3.988 11.232h213.297c5.873 0 10.635-5.03 10.635-11.232v-3.516c0-6.202-4.762-11.232-10.635-11.232H141.478c-.909.013-1.811.135-2.696.374z"/>
    <path fill="#FFACFF" d="M139.942 536.852l-15.587 4.309c-1.25.347-1.336 2.189-.122 2.666l8.708 3.394c.201.077 9.397-4.064 9.611-4.096l21.837.013c.068-.007.135-.013.202-.013l106.182 2.615c.451.012.872.264 1.104.676a1.286 1.286 0 002.262.013l.464-.799a1.302 1.302 0 011.128-.663h66.964c.903 0 1.543-.934 1.256-1.842l-1.36-4.315c-.176-.567-.683-.953-1.25-.953l-201.058-1.05a1.22 1.22 0 00-.341.045z"/>
    <path fill="#FEED7F" d="M240.593 397.821s-8.971 2.544-6.977 3.336c1.994.792 22.436.348 30.162.876 7.726.528 77.27-.528 77.27-.528s2.659-3.684-6.561-3.42c-9.233.258-93.894-.264-93.894-.264zM211.846 420.458l3.323 1.05 1.659 1.578 11.3-1.752 2.659.702 3.988-2.106-22.929.528z"/>
    <path fill="#4B3355" d="M323.833 446.354l-3.476 3.06-2.201-3.021-1.939.013-.848 1.61-3.915-1.578-52.914.341-3.757 1.205-4.22.637-8.476-2.846-45.2-.226s-2.409-.38-2.409 2.28c0 2.66-.915 14.916 1.58 16.494 2.494 1.577 142.698 1.796 142.698 1.796v-19.868l-14.923.103z"/>
    <path fill="#FFACFF" d="M228.13 468.889l5.11 6.118s8.513-.612 11.069 0c1.744.419 26.527.721 26.527.721l6.677.805 7.611-3.613-11.44-2.814-45.554-1.217zM172.548 495.738l15.703 3.162 4.628 1.159 7.83-.109 6.483 1.056 12.465-6.846-47.109 1.578zM241.258 517.499l4.317 4.212 9.306 2.106 4.324-2.454 6.312.348 7.311-4.212h-31.57z"/>
    <path fill="#34283A" d="M196.894 445.549l11.135.348 2.659 2.106-1.329 3.858 3.323 5.261v3.858l6.312-1.05 2.988 3.858-26.917-.702s-.994-.702-.994-6.318-.671-11.921 2.823-11.219z"/>
    <path fill="#4B3355" d="M158.253 510.66s-3.408-5.79 2.909-13.338l3.653-.528-.329 5.616 4.122 5.564c.11.026.214-.045.238-.161l.293-1.546 13.294-2.807 1.329 3.509-2.323 3.51-23.186.181z"/>
    <path fill="#34283A" d="M186.51 481.003l2.494 3.419.622 3.027 4.739.129 2.366 2.634.5.393h-16.453l-4.623.142-.238-5.932s0-8.295.372-9.08c.372-.786 1.873-2.763 1.873-2.763l4.982-1.449 3.988 2.106-.622 7.374z"/>
    <path fill="#4B3355" d="M146.039 543.299l1.83 7.722 5.482 1.049 2.494 5.268 5.318 5.436h-26.588l.835-5.262-4.159-4.038 2.33-5.963 8.97-4.386 3.488.174zM192.404 543.827l-.415 4.031 4.067 3.336 6.898-1.494 5.403 5.004 7.525-10.33-23.478-.547z"/>
    <path fill="#FFACFF" d="M162.494 542.771l1.33 2.106 4.317-3.156 4.653 3.156h6.647s.329 2.808 1.33 3.155c1 .348 7.311-5.963 7.311-5.963l-24.923-3.156-.665 3.858zM298.75 495.39l1.994 3.51 6.647.348 7.641-2.106 3.324 1.758 2.329-3.51H298.75z"/>
    <path fill="#33A86D" d="M228.263 404.087s-.665-14.097 3.336-7.754c4 6.344.664 9.873.664 9.873s4.007-9.873 8.013-1.41c4.007 8.462-6.006 9.873-6.006 9.873s-13.349.702-13.349-9.873 7.342-.709 7.342-.709z"/>
  </g>
  <g>
    <path fill="#665070" d="M334.62 454.154V426.21c0-7.316 3.781-11.889 3.781-11.889s.342-14.832.647-18.206c.372-4.212 8.891-12.327 8.891-12.327l1.805-10.53v-82.795s-1.891-5.326-2.519-6.653c-.628-1.333 0-7.316 0-7.316s17.642-7.986 19.533-7.986c1.89 0 37.803 10.646 37.803 10.646s20.788 25.948 21.423 29.941c.628 3.992 0 33.27 0 33.27l17.252 8.333 8.97 24.479s5.903 39.047 8.428 39.711c2.518.663 10.708 25.284 11.342 29.277 2.031 12.874 5.66 2.183 5.66 41.256l8.97 14.638 3.738 49.732-25.923 19.127-115.153-1.932-10.233-3.858-4.415-108.974z"/>
    <path fill="#856792" d="M399.555 347.279l15.234 7.895 2.103 8.424 5.782 7.368 4.726 13.163.116 10.002 23.447 5.79.5 6.054s-1.494 21.845-1.494 26.057c0 4.211-1.171 37.643-1.171 37.643l8.404 23.165-8.404 70.546-104.401-8.688-2.104-76.336 7.879-71.595 11.556-8.424 5.257-42.119 13.66-16.848 18.91 7.903z"/>
    <path fill="#856792" d="M332.314 467.839s1.744-19.166 1.744-28.163c0-2.518.561-11.869.561-13.466 0-2.673.507-4.979 1.147-6.833 1.11-3.214 2.634-5.056 2.634-5.056s.513-16.693.647-18.206c.372-4.212 8.891-12.327 8.891-12.327l8.641 4.212 1.329-6.666-8.165-18.953v-71.918s-1.89-5.326-2.519-6.653c-.628-1.333 0-7.316 0-7.316s17.643-7.986 19.533-7.986c1.89 0 .957 54.555.957 54.555s33.766 9.435 34.394 13.428c.628 3.993-32.649 118.455-32.649 118.455l-37.639 46.066.494-33.173z"/>
    <path fill="#1D2538" d="M354.247 400.449l3.488-26.321 20.667-21.06 26.692 2.106s4.238 4.045 4.867 8.701c.628 4.656 9.092 14.465 9.092 14.465s1.598 11.592 2.988 21.175c.329 2.28 20.771 5.79 21.435 6.466 4.55 4.605.994 38.345.994 41.855 0 3.51 23.302 24.047 23.93 27.377.628 3.33 5.769 18.2 5.769 18.2s-10.751 71.132-10.751 74.455c0 3.323-112.665-.792-112.665-.792V410.978l3.494-10.529z"/>
    <path fill="#665070" d="M370.66 332.93l5.506-8.437-8.287-1.893 2.781 10.33zM369.208 282.786l-6.732 6.318 8.227 7.896-1.495-14.214z"/>
    <path fill="#4B3355" d="M401.609 285.156l4.488 24.216s6.483 12.107 10.471 17.375c3.988 5.262 3.488 20.532 3.488 20.532l9.971 6.845-12.959-4.74s-.5-17.375-1.994-20.003c-1.494-2.634-8.477-13.164-10.965-16.319-2.5-3.162-2.5-27.906-2.5-27.906z"/>
  </g>
  <g>
    <path fill="#665070" d="M353.551 437.261s-7.342-.277-11.367.187c-4.354.502-7.343 1.107-11.715 8.681-3.75 6.498-5.421 12.745-6.47 15.328-1.049 2.582-.701 4.064 2.445 7.02 3.147 2.956 21.685 12.558 31.473 1.848 9.794-10.71 8.391-24.376 5.245-27.699-3.147-3.324-9.611-5.365-9.611-5.365z"/>
    <path fill="#665070" d="M376.631 420.072c-4.372-3.136-18.398-3.832-24.874-1.726-10.886 3.536-10.965 10.002-13.459 16.848-1.787 4.901.835 12.023 4.342 13.46 3.506 1.429 16.325 1.165 20.709-2.177 4.385-3.343 17.655-23.262 13.282-26.405z"/>
    <path fill="#856792" d="M367.018 418.964s-6.787-.618.696 5.178l-9.422 14.439s-6.275 3.059-8.202 8.153c-1.927 5.095 1.793 18.175 1.543 20.248-1.049 8.862-11.892 42.841-9.093 55.032 2.799 12.185 26.229 2.956 52.109 7.02 25.881 4.064 69.947-4.064 76.24-5.539 6.294-1.475.903-26.843-1.573-33.057-5.598-14.034-4.025-21.974-6.818-33.425-2.799-11.451 2.452-18.026-11.885-27.261-14.349-9.236-69.258-15.586-83.595-10.788z"/>
    <path fill="#856792" d="M411.038 411.745s8.909.122 16.971 2.222c2.214.573 7.44-1.179 9.727-.522 9.049 2.602 16.886 7.638 18.014 10.188 2.445 5.539 5.945 27.333 2.799 30.289-3.147 2.956-6.897 6.781-13.197 6.781-6.299 0-16.788-1.108-18.185-7.02-1.402-5.912-28.368-25.69-16.129-41.938zM357.749 469.932l-6.123-7.02c-11.19-.74-17.837.367-22.38 4.064-4.549 3.69-7.696 10.523-8.745 20.126-1.049 9.602-1.049 16.248 8.391 23.268s11.892 5.539 22.033 8.862c10.141 3.323 27.247-.335 27.247-.335l1.994-5.79.994-10.002s-1.701-9.306-1.494-12.107c.177-2.409-5.665-10.73-9.159-11.097-3.495-.367-10.142-1.107-12.941-2.215l.183-7.754z"/>
    <path fill="#665070" d="M365.28 486.194h4.348s-.464-2.564 6.982-3.072c7.452-.516 7.489 4.888 7.489 4.888s.603 5.087 1.939 10.787c.982 4.205.354 8.437.354 10.993 0 6.028-3.263 11.734-7.922 13.267-3.421 1.127-10.94-.76-14.867-4.888-1.415-1.488-2.36-3.265-2.482-5.3-.202-3.278 1.335-7.767 1.329-11.696 0-1.507-1.61-2.627-1.592-4.018.061-3.484.189-6.428.385-7.896.469-3.581 4.037-3.065 4.037-3.065z"/>
    <path fill="#856792" d="M364.731 488.113h5.39s-.036-2.518 2.421-2.789c9.239-.464 8.087 4.186 8.087 4.186s2.39 3.723 3.604 10.053c.762 3.948.799 7.645.799 9.97 0 5.474-4.403 10.671-10.178 12.062-4.245 1.024-7.33-.689-12.197-4.437-1.75-1.352-2.927-2.969-3.079-4.811-.244-2.975 1.652-7.052 1.646-10.62 0-1.372-2-2.383-1.97-3.651.074-3.169.238-5.835.476-7.168.573-3.259 5.001-2.795 5.001-2.795z"/>
    <path fill="#665070" d="M475.268 528.106c0 11.631 1.421 26.128 0 29.503s-2.744 6.292-9.848 9.731c-8.513 4.122-13.923 1.134-20.314 3.761-6.39 2.628-15.965 1.874-28.033 1.501-12.062-.374-12.776-3.748-18.1-1.127-5.323 2.621-15.965 4.121-16.324-5.996-.354-10.118-.708-31.853.353-37.476 1.067-5.622 5.141-5.081 10.111-5.435 5.324-.374 12.953 1.687 12.953 1.687 11.653-4.998 26.942-4.296 26.942-4.296s8.897-2.447 15.995-4.694c7.099-2.248 6.385-2.248 9.227-4.496 2.842-2.254 17.038 5.7 17.038 17.337z"/>
    <path fill="#665070" d="M333.618 506.499s-17.167 6.138-22.137 9.513c-4.97 3.374-7.098 5.995-7.098 14.986 0 8.99 1.067 16.113 1.067 19.861 0 3.749 6.031 10.118 9.934 14.987 3.903 4.869 6.385 2.994 14.904 4.122 8.519 1.127 10.288-1.875 16.679-1.128 6.385.748 16.325-1.5 16.325-1.5s2.128 2.995 8.159 3.748c6.031.747 1.421.747 7.452.374 6.031-.374 9.58-2.248 9.227-18.361-.354-16.114 3.195-22.483-2.482-26.978-5.678-4.496-7.099-4.869-12.422-5.249-5.324-.38-6.251 1.352-10.154.605-3.903-.747-20.581-4.121-23.063-7.87-2.488-3.735-.36-4.862-6.391-7.11zM422.117 417.676s2.738 13.634 6.263 19.424c3.525 5.79 3.61 7.013 11.044 8.256 7.434 1.237 12.129-.412 12.129-.412s2.11 4.038-6.689 3.826c-8.806-.207-17.02-2.274-18.588-3.51-1.567-1.237-2.591-11.052-4.159-17.041-1.567-5.99 0-10.543 0-10.543zM449.205 478.478s-3.909-1.835-5.952-1.713c-2.043.122-6.123 6.118-7.312 8.392-1.189 2.273.33 15.443.33 17.794 0 2.351-.842 3.864 2.219 5.12 3.062 1.256 7.312-.283 8.166-.226.848.058 3.403-2.382 2.043-2.737-1.36-.354-7.141 1.346-8.33.741-1.19-.605-2.043-4.321-2.043-4.321s-.848-8.16-.513-10.749c.336-2.589 1.702-5.371 1.702-5.371s2.378-6.112 3.744-6.015c1.354.083 5.946-.915 5.946-.915z"/>
    <path fill="#856792" d="M434.011 521.537l-10.885 8.785s-4.757 18.837-3.891 23.268c.866 4.431 6.056 10.523 6.056 10.523l16.434 6.093s6.056.554 9.947-3.323c3.89-3.877 2.164-12.745 2.164-12.745s-2.238-29.612-4.616-31.551c-2.378-1.938-15.209-1.05-15.209-1.05zM393.636 523.669s-9.556-3.323-10.007-.554c-.451 2.769-1.817 17.176-.909 21.053.909 3.877 1.818 6.093 1.818 6.093l-1.818 4.43s.055 17.003 2.982 17.64c2.934.644 9.757-6.562 9.757-6.562l2.732-9.416s.909-27.699-.457-29.361c-1.366-1.661-4.098-3.323-4.098-3.323z"/>
    <path fill="#665070" d="M458.291 479.019s2.622 5.107 3.146 11.225c.525 6.119-1.097 12.217-4.72 16.951-6.757 8.829-7.476 8.211-7.476 8.211s-13.904 2.673-18.1.818l17.313-5.287s10.196-9.551 10.196-11.213c0-1.661-.963-15.624-.963-15.624l.604-5.081z"/>
    <path fill="#856792" d="M373.828 401.859s.957 3.703.158 5.899c-.799 2.19-3.592 1.772-5.824 1.772-2.232 0-4.226-.252-5.342-1.263-1.116-1.011-2.732-6.607-1.915-7.915.818-1.307 3.507-.843 6.861-.335 3.354.509 6.062 1.842 6.062 1.842z"/>
    <path fill="#856792" d="M412.221 416.073s.47-15.682-1.177-20.158c-1.652-4.483-1.652-3.98-6.128-7.22-4.476-3.233-5.184-2.737-5.422-4.727-.237-1.99-1.652-2.988-11.074-2.988-9.428 0-18.856.998-20.972 2.988-2.116 1.99-4.573 10.06-4.573 10.06s-1.891 8.533-.147 20.802c.025 3.368.5 7.824.5 7.824l-1.329.702s.689 13.628 1.396 16.114c.708 2.486.238 5.229 14.142 4.231 13.904-.998 24.039-1.745 26.393-6.472 2.354-4.728 4.598-7.999 4.598-7.999s4.312-6.492 3.793-13.157z"/>
    <path fill="#665070" d="M382.532 404.635s1.884 4.315 3.14 5.641c1.257 1.327 10.684 1.662 10.684 1.662s-5.024.663-8.171.663c-3.141 0-4.397-1.326-4.397-1.326l-1.256-6.64zM372.696 404.751c-1.994-2.37-10.592-3.117-10.72-1.469-.122 1.643 1.189 6.08 2.658 6.473 1.311.348 7.458.947 7.891-.348.354-1.056 2.165-2.286.171-4.656z"/>
    <path fill="#665070" d="M400.596 398.195l10.922.038-.061 1.823-7.245 1.829s-1.732 4.579-2.354 5.725c-2.488 4.553-17.69 1.263-17.69 1.263l-1.245-3.156 17.673-7.522zM361.812 423.002s.774 5.513 2.189 10.491c1.415 4.979 1.878 7.387 5.183 7.639 3.299.251 16.898.148 25.619-.844 8.72-.998 10.452-5.3 11.867-8.533 1.415-3.233 2.122-7.465 2.122-7.465s1.177 2.242.47 4.727c-.708 2.486-.104 10.775-6.233 12.018-4.043.818-25.771 2.924-34.314 2.589-6.361-.251-6.123-3.407-6.592-10.375-.482-6.975-.311-10.247-.311-10.247z"/>
    <path fill="#34283A" d="M381.824 402.052s.787 4.811 2.988 5.97c2.202 1.16 9.111.999 12.41.831 3.299-.167 2.83.168 3.141-2.653.317-2.821.945-9.126-.628-9.957-1.574-.83-14.301 3.156-17.911 5.809zM372.672 403.553s.707 2.737.115 4.353c-.591 1.617-2.646 1.308-4.299 1.308-1.646 0-3.122-.187-3.945-.934-.824-.747-2.019-4.875-1.415-5.841.604-.966 2.592-.625 5.061-.251a16.676 16.676 0 014.483 1.365z"/>
    <path fill="#856792" d="M412.614 396.243s-.207 2.988-2.598 2.988c-2.39 0-8.745-2.074-13.288-.58-4.543 1.494-11.775 5.912-14.404 5.912-2.628 0-7.592.065-9.269.065-1.677 0-2.628-1.99-6.696-2.241-4.067-.252-6.122.354-6.5-.219-.72-2.989-.434-8.488 1.719-10.478 2.153-1.991-2.854-10.781 12.434-12.694 27.839-3.484 27.351 1.745 28.784 3.233 1.433 1.494 4.33 1.391 6.049 2.409 3.928 2.312 3.769 7.625 3.769 11.605z"/>
    <path fill="#665070" d="M363.72 399.927c-5.982-.528-4.293-6.253-2.14-8.243 2.152-1.99-2.854-10.781 12.434-12.694 27.838-3.484 27.35 1.745 28.783 3.233.94.979-8.324 5.062-13.47 8.63-5.147 3.568-6.544.985-8.044 2.035-1.494 1.05-9.281-1.526-8.592-1.391.006.006-6.379 8.655-8.971 8.43zM363.697 412.936l.469 9.377-2.305.702.086 1.591s25.13-1.713 35.028.773l-1.885-2.486s-15.135-2.241-28.649-1.076l-1.336-2.241-1.408-6.64zM372.743 404.622s2.793.58 3.189.58c.39 0 2.122-.252 2.122-.252l4.793-.412-.469.747-4.245 1.411-2.988.083-2.128-.386-.274-1.771zM412.35 410.405s.061 9.822-.86 12.063c-1.573 4.076-2.908 5.706-2.908 5.706l.317-3.259s2.116-2.447 2.433-3.665c.311-1.223 1.018-10.845 1.018-10.845z"/>
    <path fill="#856792" d="M364.853 384.96s2.829 5.474 4.952 6.472c2.122.999 7.543-.495 7.543-.495s-7.306 3.98-8.72 2.988c-1.415-.998-3.775-8.965-3.775-8.965zM326.775 469.307s4.524-2.209 10.123-4.225c5.598-2.015 8.043-2.376 8.043-2.376s-3.323-2.737-9.33.168c-3.866 1.867-6.178 2.318-8.836 6.433z"/>
    <path fill="#665070" d="M329.421 487.108l.524 15.238 5.507 12.461s-8.653-9.138-8.653-11.631c0-2.492 2.622-16.068 2.622-16.068zM393.998 482.233l5.598-3.368 11.196 1.442 4.452 2.969 1.299.065-8.654-5.777-11.196-1.443-5.598 3.368.317 5.069 3.061-.457-.475-1.868zM390.453 483.733l-5.305-.579a.684.684 0 00-.714.483l-2.213 6.923a.738.738 0 00.311.857l2.128 1.268c.463.277.463.979 0 1.25l-1.073.631a.738.738 0 00-.348.67l.964 17.453a.709.709 0 00.109.354l5.08 8.089a.67.67 0 00.476.315l10.733 1.514c.115.019.237 0 .347-.045l6.531-2.834c.683-.296.494-1.359-.244-1.378l-15.654-.393a.68.68 0 01-.616-.457l-2.213-5.958a.686.686 0 00-.384-.405l-2.732-1.127a.72.72 0 01-.433-.696l.128-3.181a.732.732 0 01.298-.561l.403-.927a.738.738 0 00.03-1.159l-.792-1.378a.725.725 0 01-.262-.541l-.141-3.865a.753.753 0 01.165-.495l2.146-2.628a.736.736 0 00-.03-.966l-2.677-2.905a.764.764 0 01-.11-.85l1.958-3.735a.68.68 0 01.433-.348l3.793-.979c.744-.199.664-1.333-.092-1.417z"/>
    <path fill="#856792" d="M313.2 524.319c3.244-1.964 14.739-1.944 17.501 0 2.763 1.945-1.878 17.486-1.878 17.486s10.91 19.443 8.147 22.36c-2.762 2.917-19.343-3.89-22.569-7.297-3.226-3.407-6.056-20.596-4.885-24.769 1.092-3.89.439-5.815 3.684-7.78zM334.664 519.792l7.867 6.099 16.612-.187-16.612-3.696-7.867-2.216z"/>
    <path fill="#665070" d="M447.137 475.387l-23.551 4.637-7.08 4.418 6.58-7.052 15.446-4.689 8.605 2.686z"/>
    <path fill="#665070" d="M431.819 444.184l-6.355 9.699s-.707 20.139 4.239 22.38c0 0 3.53-8.952 4.238-13.428.707-4.476.707-5.468 1.884-7.709 1.177-2.235 3.061-8.701 3.061-8.701l-7.067-2.241zM378.874 460.323s-1.61 11.213-1.287 15.965c.324 4.753 6.757 10.53 6.757 10.53s-3.537-5.435-3.537-11.547c0-6.112-1.933-14.948-1.933-14.948zM377.428 443.701s7.391 8.643 13.184 8.643c5.793 0 14.477-11.721 14.477-11.721l-27.661 3.078zM405.088 520.365s12.544-5.094 13.508-6.112c.963-1.017 0-11.212 0-11.212s5.549 9.68 2.415 13.248c-3.135 3.567-15.923 4.076-15.923 4.076zM458.967 449.452s1.927 5.777 2.897 14.948c.963 9.171-4.824 20.383-4.824 20.383s8.36-4.418 7.72-17.324c-.646-12.913-5.793-18.007-5.793-18.007zM350.085 506.1c-.244 2.293 4.988 7.22 4.988 7.22l-1.61-6.582.604-6.112c0-.006-3.739 3.175-3.982 5.474zM333.198 512.341s3.213 3.355 6.11 4.714c2.897 1.359 15.441 2.376 15.441 2.376 1.225.342-9.068.921-16.081-1.017-1.287-.354-2.257-1.32-5.47-6.073z"/>
    <path fill="#856792" d="M338.02 438.072s4.769-2.917 7.556-3.026c2.781-.11 3.183 2.131 3.183 2.131s-2.653-1.017-4.702-.766c-3.293.412-6.037 1.661-6.037 1.661z"/>
    <path fill="#665070" d="M358.284 476.9s-5.537-2.698-8.94-2.698c-3.403 0-9.153 5.397-9.153 5.397s9.153-2.473 11.068-2.248c1.915.226 7.025-.451 7.025-.451zM376.861 484.442c0-1.018-3.616-4.418-6.513-4.418-2.896 0-3.415.212-5.628 1.017-2.33.851-3.86 2.036-4.501 3.06 0 0 0-4.753 5.147-5.436 5.147-.676 4.714-1.256 6.592-.676 1.927.592 4.903 6.453 4.903 6.453z"/>
    <path fill="#665070" d="M348.878 477.564s9.409.257 12.787 3.568c0 0 3.415-2.409 0-3.568-6.756-2.293-12.787 0-12.787 0z"/>
  </g>
  <g>
    <path fill="#665070" d="M56.25 555.426l.89-9.429-30.357-22.631-17.855 8.482L0 545.997l16.069 13.196 40.18-3.767z"/>
    <path fill="#4B3355" d="M16.069 559.193l15.178-1.88-12.794-10.691 8.33-23.256-17.855 8.482.89 8.488L0 545.997l16.069 13.196z"/>
    <g>
      <path fill="#4B3355" d="M438.954 576.775l-9.178-15.714-10.416 4.186-4.586 12.172 5.836 1.088 8.507 2.287 9.837-4.019z"/>
      <path fill="#665070" d="M429.533 561.189l.994 7.464-3.97 4.193-.372 4.714 2.854 2.879c6.202-.522 9.921-3.671 9.921-3.671l.494-7.6-9.921-7.979z"/>
      <path fill="#4B3355" d="M417.062 581.025l1.994-8.423-9.635-3.51-6.318 6.672 4.653 4.559 9.306.702z"/>
      <path fill="#665070" d="M417.061 581.025l-5.318-7.722-4.982 2.461.994 4.559 9.306.702z"/>
    </g>
  </g>
  <g>
    <path fill="#33A86D" d="M347.768 459.944s0-7.896 3.988-5.79c3.989 2.106 1.994 7.896 1.994 7.896s4.489-3.156 5.483 1.049c.994 4.212-2.988 2.634-2.988 2.634l-8.477-5.789zM338.299 463.627s-2.494-4.74 1.494-4.212c3.988.528 1 4.74-1.494 4.212z"/>
    <path fill="#288453" d="M348.768 466.783s-5.982-7.896-6.976-2.106c-1 5.796 4.482 7.374 6.976 2.106z"/>
    <path fill="#288453" d="M348.267 473.101s-.994-12.636 3.489-10.002c4.488 2.634 1.5 11.586-3.489 10.002zM345.774 478.897s-10.965 4.212-2.988 5.262c7.976 1.056 2.988-5.262 2.988-5.262z"/>
    <path fill="#33A86D" d="M309.984 563.193s-2.079-7.748.665-7.452c2.744.297 1.439 6.241 1.439 6.241s5.013-9.087 6.08-2.776c1.067 6.312-.463 8.637-.463 8.637s3.372-5.114 4.964-2.564c1.585 2.551-.543 4.335-.543 4.335s-3.482 3.754-6.123 1.809l-2.64-1.945s-2.281 2.467-6.952-2.35c-4.665-4.824-4.001-12.275 3.573-3.935zM119.95 561.551s-1.494-10.53 3.488-8.952c4.982 1.578 2.494 5.789 2.494 5.789s5.983-1.577 3.488 4.212c-2.494 5.79-4.982 5.79-4.982 5.79s-6.976 4.212-9.47-5.262c-2.494-9.473 4.982-1.577 4.982-1.577zM98.022 561.551s-2.989-6.846 0-7.896c2.988-1.05 2.988 4.212 2.988 4.212s3.488-6.846 4.488-1.578c.994 5.262-1 12.101-7.477 5.262zM99.513 543.125s0 6.318 2.989 4.212c2.994-2.106 4.488-10.53-2.989-4.212zM84.557 544.175s-1.494 6.846 1.495 6.318c2.988-.528 3.988-1.05 2.988-4.212-.988-3.156-4.483-2.106-4.483-2.106zM81.57 536.279s1.494 6.318 4.488 2.634c2.988-3.69-1-6.846-4.488-2.634zM89.542 539.435s1.994 4.74 3.988 4.212c1.995-.528 2.495-10.002-3.988-4.212z"/>
    <path fill="#33A86D" d="M85.558 532.595s.5 8.424 4.982 3.156c4.482-5.268-.494-6.846-4.982-3.156zM85.06 525.75s-.5 6.317 2.989 2.634c3.494-3.691 1-8.952-2.989-2.634zM443.981 485.736s.75-10.265 6.732-6.317c5.983 3.947-3.738 9.48-6.732 6.317zM446.225 489.684s-10.636 7.194 1.329 3.336c11.965-3.857 10.306-5.261-1.329-3.336zM448.556 496.182s1.329 11.58 3.988 4.914c2.659-6.672 1.659-5.97-3.988-4.914z"/>
    <path fill="#33A86D" d="M446.557 496.53s-9.635 2.106-1.658 3.156c7.97 1.056 1.658-3.156 1.658-3.156zM447.553 513.024s7.977-4.914 1.33-4.914-9.306 4.914-1.33 4.914zM455.28 466.963s-1.329 8.424 4.653 3.858c5.982-4.56 2.329-6.318-4.653-3.858zM466.251 455.732s-8.97 3.51-2.988 4.212c5.976.702 4.982-3.865 2.988-4.212zM460.595 447.308s-.994 8.424 3.653 4.212c4.659-4.212 2.329-4.212-3.653-4.212zM458.275 451.52s-5.647-.702-.994 1.404c4.647 2.106.994-1.404.994-1.404zM457.939 442.742s9.306 4.914 5.647 0c-3.653-4.914-10.965-5.262-5.647 0zM462.591 559.966s-1.329 6.666 2.988 4.914c4.318-1.752 2.989-5.262 1.33-5.616-1.659-.354-4.318.702-4.318.702zM462.591 555.407s4.317-10.878 3.323-3.51c-.994 7.367-3.323 3.51-3.323 3.51zM460.597 557.867s-10.635-13.686-5.647-12.282c4.982 1.404 4.653 5.616 4.653 5.616s.994-14.742 2.988-9.126c1.994 5.616-1.994 15.792-1.994 15.792zM469.243 549.694s7.245-5.493 6.208-.844c-1.036 4.65-7.244 2.538-6.208.844zM474.555 562.072s-.33-9.126-2.988-9.126c-2.659 0 0 10.53 2.988 9.126z"/>
    <path fill="#33A86D" d="M477.552 561.022s-4.317-17.897.994-14.741c5.318 3.162 2.994 17.897-.994 14.741zM465.915 544.175s.665-9.126 2.324-3.156c1.665 5.964-.994 6.666-2.324 3.156z"/>
    <path fill="#33A86D" d="M480.874 559.264s1.329-10.877 3.988-10.175.994 4.914.994 4.914 2.988-10.176 5.647-7.368c2.659 2.808-1.994 7.02-1.994 7.02s7.641-4.212 5.318-.348c-2.324 3.858-7.641 2.454-7.641 2.454s1.994 6.665-6.312 3.503zM452.957 571.9s-9.636-8.07-5.318-9.126c4.318-1.05 3.324 2.454 3.324 2.454s4.982-3.156 4.653-1.05c-.33 2.106.994 2.454.994 2.454s7.647 7.026-3.653 5.268zM340.291 557.867s0-7.02 1.658-5.616c1.659 1.404 1.33 4.914 1.33 4.914s6.311-4.212 5.647-.702c-.665 3.51-3.989 3.857-3.989 3.857s0 5.964-1.994 4.212c-1.994-1.751-2.652-6.665-2.652-6.665zM342.286 542.771s5.982 2.106 3.324 4.212c-2.659 2.106-3.324-4.212-3.324-4.212zM346.937 550.145s1.659 7.722 4.982 2.106c3.33-5.616 2.994-3.864-4.982-2.106zM320.35 513.99s-4.318-7.722.664-5.964c4.983 1.758 1.33 4.56 1.33 4.56s7.311-1.05 5.317 2.453c-1.994 3.51-6.311 1.404-6.311 1.404l-1-2.453zM318.357 515.046s.664-5.262-1.994-6.318c-2.659-1.056-4.653 8.07 1.994 6.318zM320.354 503.814s-4.983-7.02-1.659-6.318c3.323.702 3.988 2.454 3.988 2.454s4.653-.348 2.659 4.56c-1.994 4.907-4.988-.696-4.988-.696zM318.026 490.824s4.318 5.262 6.312 1.404c1.994-3.858-6.312-1.404-6.312-1.404zM331.986 492.93s4.318-4.212 2.324-4.212h-2.989c-1 0-1.664 3.864.665 4.212zM326.003 485.563s-2.988 5.615 1.659 2.807c4.646-2.807 5.317-4.211-1.659-2.807zM326.746 466.261s-.994-5.963 2.323-3.857c3.324 2.105.665 4.559.665 4.559s6.647-1.404 3.988 2.808c-2.659 4.212-4.982 1.752-4.982 1.752l-1.994-5.262zM323.76 459.589s-10.3-1.049-6.647 2.454c3.659 3.516 9.971-1.05 6.647-2.454zM322.767 465.205s-5.318 4.56-.665 3.156c4.647-1.398 2.324-3.504.665-3.156zM319.771 473.281s8.642-1.404 3.653-2.454c-4.988-1.049-6.311 1.398-3.653 2.454zM325.416 480.649s2.988-4.212-.665-4.212-3.653 3.51.665 4.212zM410.087 534.347s-6.647 4.914-1.659 3.51c4.982-1.404 1.659-3.51 1.659-3.51zM411.416 539.615c-.927.805 3.324 6.318 4.318 1.05 1-5.262 1.329-5.964-4.318-1.05zM407.09 544.175s9.306 6.665 5.647 2.106c-3.653-4.56-7.306-3.156-5.647-2.106zM408.42 549.791s4.318 7.367 4.653 3.51c.335-3.858 1-3.858-4.653-3.51zM406.763 555.406s11.965 3.156 4.318 3.51c-7.647.355-10.3-3.155-4.318-3.51zM420.719 522.768s-3.323 4.913 1.33 2.807c4.653-2.105 8.97-5.268-1.33-2.807zM419.392 529.788s5.647.347 2.988-1.05c-2.659-1.411-5.982-1.758-2.988 1.05zM419.393 533.645s3.653 4.212 5.647-.348c1.994-4.566-8.306-1.404-5.647.348zM374.164 320.243s-4.878-10.878 0-9.731c4.879 1.146 1.628 5.152 1.628 5.152s7.593-4.006 6.507 1.719c-1.085 5.726-3.25 7.445-3.25 7.445s6.507-5.725 5.964 1.72c-.543 7.444-5.964 2.292-5.964 2.292s-3.25 5.726-7.05.573c-3.799-5.152 0-3.432 0-3.432s-11.391-9.171 2.165-5.738zM363.227 381.322c-2.658 1.049-5.982 11.579 3.739 5.261 9.72-6.311-1.08-6.311-3.739-5.261z"/>
    <path fill="#33A86D" d="M367.526 374.173c2.464 0 10.416-.167 2.744 4.392-7.671 4.56-5.208-4.392-2.744-4.392zM369.818 393.043s4.104-5.062-2.055-2.763c-6.153 2.305-4.617 5.989 2.055 2.763zM371.825 397.293c-3.842 1.462-3.562 5.919 2.036 2.634 5.593-3.291 1.806-4.096-2.036-2.634zM374.99 386.152c-2.433.438-.695 6.646 5.311 3.246 3.098-1.759-2.878-3.691-5.311-3.246zM359.904 417.825s1.994-3.858-1.658-3.156c-3.653.702-1.659 2.808-1.659 2.808s-5.647-7.368-7.977-4.212c-2.323 3.156 3.989 5.616 3.989 5.616s-9.306-2.106-11.3 1.404c-1.994 3.51 4.653.702 4.653.702s-7.977 5.261-5.647 6.665c2.323 1.404 5.982-1.404 5.982-1.404s1.994 4.914 3.324.348l1.329-4.56s5.647 3.858 5.318 0c-.33-3.857 0-2.807 0-2.807s4.64 3.509 3.646-1.404z"/>
    <path fill="#288453" d="M409.086 322.535s-7.476-4.211-4.488 3.684c2.988 7.896 6.983-.528 4.488-3.684zM408.585 317.267s9.47-7.895 5.482-1.578c-3.988 6.318-5.482 1.578-5.482 1.578zM401.61 309.372s-3.488 5.789 2.494 4.74c5.983-1.05-2.494-4.74-2.494-4.74zM403.604 302.532s10.471 7.896 3.488 6.318c-6.976-1.584-3.488-6.318-3.488-6.318z"/>
    <path fill="#288453" d="M413.075 324.641s-7.976 6.846-1.994 6.318c5.983-.528 1.994-6.318 1.994-6.318zM416.559 332.537s9.471 1.578 2.989 3.684c-6.483 2.106-3.482-4.734-2.989-3.684z"/>
    <path fill="#33A86D" d="M82.398 439.354s12.465-8.424 8.97-1.578c-3.488 6.846-8.97 1.578-8.97 1.578zM83.891 445.672s-2.494 8.952 2.988 4.74c5.489-4.212-2.988-4.74-2.988-4.74zM79.404 443.566s-6.482-14.213-10.47-6.846c-3.989 7.368 3.988 2.634 3.988 2.634s-6.977 7.368-1.994 6.318c4.988-1.05 8.476-2.106 8.476-2.106z"/>
    <path fill="#33A86D" d="M77.41 431.458s-3.49 9.474 3.987 2.634c7.477-6.839-1.994-2.105-1.994-2.105l-1.994-.529zM182.763 281.473s6.977-6.318 6.483-.528c-.501 5.789-6.483.528-6.483.528zM184.264 286.734s4.982 7.368 7.476 2.106c2.495-5.261-7.476-2.106-7.476-2.106zM196.23 292.002s-8.97 11.58 0 6.318c8.97-5.261 8.97-7.902 0-6.318zM185.759 294.108s-13.459 2.106-4.982 4.212c8.476 2.106 11.958 2.106 4.982-4.212zM195.227 307.794s11.464-3.684 6.976-4.74c-4.482-1.05-10.465 4.74-6.976 4.74zM195.727 310.956c-5.482-1.578-13.459 3.156.994 4.74 14.459 1.571 4.488-3.162-.994-4.74z"/>
  </g>
  <g>
    <path fill="#FFACFF" d="M448.628 248.305c-2.988-8.069-3.653-18.251 2.323-30.185 0 0 2.665 5.899 5.94 5.571 3.281-.329 5.976-4.869 6.141-11.695.165-6.949-1.397-9.97-1.397-9.97l5.611 7.651s.78-6.311.347-11.348c-.481-5.583-3.347-10.941-3.347-10.941s14.885 4.714 18.3 17.337c2.604 9.615 1.86 15.733 1.86 15.733l4.769-5.494s5.982 21.762.97 33.277c-4.153 9.531-12.002 14.909-19.911 15.508-9.099.683-18.612-7.374-21.606-15.444z"/>
    <path fill="#9E54C7" d="M471.397 253.567s-7.3-1.121-11.02-8.81c-3.823-7.896 1.555-10.099 1.555-10.099l3.482 6.273 6.483-18.425s3.988 5.088 4.817 7.367c.83 2.28 7.038 19.353-5.317 23.694zM476.383 184.599s-.5-3.684.994-3.684c1.5 0 2.994 3.162-.994 3.684z"/>
    <path fill="#FFACFF" d="M454.945 196.185s-2.494-7.368 1.494-11.058c0 0-8.97 6.318-1.494 11.058zM470.94 168.634c.122 1.114-1.274 1.623-1.811.657-1.195-2.164-2.488-5.004-.231-3.639 1.414.85 1.933 1.958 2.042 2.982z"/>
  </g>
  <g>
    <path fill="#FFACFF" d="M138.777 259.222s-14.374 4.051-23.643-13.583c-6.08-10.407-2.073-28.472-2.073-28.472s6.22-.438 10.373 4.38c-2.488-14.459 4.561-21.466 4.561-21.466l3.732 1.752s2.421-2.962 7.702-12.436c0 0 18.319 11.985 15.679 26.985-2.641 14.999-1.805 9.975-1.805 9.975l10.373-6.131c-.012.007 8.543 37.418-24.899 38.996z"/>
    <path fill="#9E54C7" d="M145.621 249.368s-6.842 5.912-12.447.657c-5.598-5.255-4.354-13.144-4.354-13.144l2.488 2.627s-.622-5.255 3.732-12.487l4.355-7.226 2.488 9.853 3.732-3.284c.006 0 9.964 17.743.006 23.004zM112.97 196.713s-.329 6.318 1.994 8.424-1.329-6.318 1.659-11.232l-3.653 2.808z"/>
    <path fill="#FFACFF" d="M131.245 180.916s-3.653 4.913-1.33 6.317c2.324 1.404 1.33-6.317 1.33-6.317z"/>
    <path fill="#9E54C7" d="M149.861 182.674s-.33 5.261 1.658 3.857c2.001-1.404.671-7.722-1.658-3.857z"/>
    <path fill="#FFACFF" d="M138.894 164.422s2.988.702 2.658 3.858c-.329 3.155-2.658-3.858-2.658-3.858z"/>
  </g>
  <g>
    <path fill="#C94039" d="M156.715 537.509c-.165 1.23 12.257 7.722 20.234 7.368 7.976-.355 22.722.193 24.167-1.514 1.391-1.642-3.397-2.962-3.397-2.962s-11.281-4.077-21.435-6.099c-13.215-2.628-19.404 1.977-19.569 3.207z"/>
  </g>
  <g>
    <path fill="#F5894E" d="M193.486 564.487c0 2.853-.378 29.883-.915 34.9-.36 3.349-4.366 5.474-4.75.921-.555-6.524-2.421-16.391-2.696-19.07-.811-8.031 1.171-15.804 1.171-15.804s7.19-2.267 7.19-.947z"/>
    <path fill="#CC6D3D" d="M190.666 573.877c-.811 1.005 1.647 20.235 1.11 25.258-.36 3.349-3.573 5.726-3.958 1.173-.554-6.524-2.421-16.391-2.695-19.07-.811-8.031.659-15.778.659-15.778s5.695 7.412 4.884 8.417z"/>
    <path fill="#273252" d="M195.064 548.915c-.122 2.808.104 8.056-.342 11.895-.073.65.061.064-.841 9.493l-9.05.064-.402-10.51c-.525-1.759-1.934-12.134-1.958-11.992.5-2.634 12.758-2.834 12.593 1.05z"/>
    <path fill="#CC6D3D" d="M190.325 599.805c2.988 1.752 3.458 2.042 5.964 3.491 2.69 1.552-7.238 1.912-7.958-.129-.726-2.035-.567-4.869 1.994-3.362z"/>
    <path fill="#C94039" d="M187.446 600.829c.317-.741 2.006-.38 2.335-.238.33.142 3.818 1.558 3.818 1.558s3.47 1.552 4.421 1.701c2.702.418 4.732 2.44-1.823 3.142-2.604.277-5.269-.888-5.269-.888l-.226.856-.622.129s-2.402.167-2.531-.129c-.17-.412-.42-5.39-.103-6.131z"/>
    <path fill="#992C29" d="M197.564 606.825s-3.806.741-6.641-.857c0 0-.409-.888.902-.637 3.982.766 4.464 1.359 5.739 1.494z"/>
    <path fill="#1D2538" d="M193.587 548.915c-.152 3.155-.884 6.846-1.183 9.827-.067.651-.152 9.3-.982 10.704-.829 1.404-6.287.348-6.287.348l-1.348-10.955c-.482-1.719-1.512-11.154-1.543-10.974.446-2.634 11.526-2.834 11.343 1.05z"/>
    <path fill="#273252" d="M180.19 533.909s1.702 12.256 2.549 15.411c.848 3.156 11.739 7.136 12.154 2.667.415-4.47 1.458-17.55-.805-21.762-2.262-4.212-13.898-3.162-13.898 3.684z"/>
    <path fill="#1D2538" d="M180.19 533.909s1.531 12.256 2.299 15.411c.769 3.156 10.575 7.136 10.953 2.667.372-4.476 1.317-17.55-.726-21.762-2.049-4.212-12.526-3.162-12.526 3.684z"/>
  </g>
  <g>
    <path fill="#F5894E" d="M167.873 554.756s-.957 6.53-2.952 13.248c-1.372 4.624-1.719 6.311-1.713 16.068 0 2.235-.647 10.117-.598 11.663.086 2.686.043 4.585 1.348 4.328 2.049-.412 2.677-1.295 5.013-12.018 3.122-14.329 6.458-33.167 6.458-33.167l-7.556-.122z"/>
    <path fill="#CC6D3D" d="M167.871 554.756s-.957 6.53-2.951 13.248c-1.372 4.624-1.72 6.311-1.714 16.068 0 2.235-1.219 12.198-1.171 13.743.086 2.686.616 2.505 1.915 2.248 2.049-.412 1.189-3.922 3.525-14.645 3.122-14.33 2.159-15.09 2.159-15.09l-1.763-15.572z"/>
    <path fill="#273252" d="M181.257 532.299s-2.897 17.93-5.019 22.038c-2.824 5.468-8.367 4.463-8.855.973-.768-5.552-1.329-15.605-.86-21.04.506-5.842 8.599-10.652 14.734-1.971z"/>
    <path fill="#273252" d="M167.462 553.996c-1.664.902-2.921 13.962-2.921 13.962l8.105 1.707s2.153-5.815 3.397-13.911c1.146-7.451-7.19-4.514-8.581-1.758z"/>
    <path fill="#1D2538" d="M178.616 531.719s-.335 8.862-1.982 14.864c-.457 1.675-1.756 7.806-2.22 8.701-2.823 5.468-6.549 3.51-7.037.013-.768-5.551-1.329-15.605-.86-21.04.512-5.829 5.964-11.219 12.099-2.538z"/>
    <path fill="#CC6D3D" d="M163.435 595.973c.652-.187 1.354.007 1.908.425 2.178 1.649 2.043 2.01 4.897 4.083 2.062 1.501-7.75 2.795-8.287 1.14-.47-1.423-.677-5.029 1.482-5.648z"/>
    <path fill="#C94039" d="M161.342 598.614c.451-1.076.055-3.542 2.982-1.816 4.104 2.421 5.683 2.911 6.848 3.394 1.165.483 1.793.785 2.677.94 2.622.444 1.964.85-1.024 2.254-2.299 1.082-6.995-.296-6.995-.296l-.177.534a.87.87 0 01-.823.618l-2.555-.18s-.567-.212-.708-.586c-.195-.522-.676-3.787-.225-4.862z"/>
    <path fill="#1D2538" d="M167.462 553.996c-1.664.902-2.921 13.962-2.921 13.962l7.141 1.45s1.61-5.906 2.854-13.995c1.147-7.451-5.683-4.173-7.074-1.417z"/>
  </g>
  <g>
    <path fill="#F7BC4B" d="M190.244 500.304l-.994 6.318s4.982 10.877 7.811 18.251c2.824 7.368 4.489 11.406 4.318 17.898 0 0-6.647-2.454-12.794-2.634-6.147-.174-24.759-9.654-31.906-2.634 0 0 9.141-18.6 12.794-27.552 0 0-4.817-20.357 1.33-23.867 6.147-3.51 13.958-2.106 15.617-1.23 1.659.882 6.976 5.622 3.824 15.45z"/>
    <path fill="#CE9436" d="M186.005 500.304l-.994 6.317 4.983 18.6-9.721 4.476 10.221.528s-6.306 2.557-14.459 3.684c-7.153.991-16.02.315-19.356 3.6 0 0 9.141-18.6 12.794-27.552 0 0-4.817-20.357 1.33-23.867 6.147-3.51 13.958-2.106 15.617-1.23 1.659.876 2.744 5.616-.415 15.444z"/>
  </g>
  <g>
    <path fill="#EE5D4F" d="M170.576 455.699s2.098 2.48 4.196 3.484c1.585.767 2.829.863 2.829.863l-.335-.644.75-.663s-2.909-.193-6.848-3.458l-.592.418z"/>
    <path fill="#EE5D4F" d="M170.363 455.403s1.171 3.085 2.812 4.792c1.238 1.288 2.378 1.835 2.378 1.835l-.11-.728.915-.354s-2.671-1.237-5.312-5.725l-.683.18z"/>
    <path fill="#992C29" d="M171.699 457.007c.732-.168 1.275-4.367-.487-4.38-1.659-.013-3.531.297-3.165 1.604.359 1.301 2.921 2.943 3.652 2.776z"/>
    <path fill="#F7BC4B" d="M172.245 454.611s-.341-1.778-.866-1.713c-.524.064-.024.805.159 1.977.183 1.166.835.483.707-.264z"/>
    <path fill="#992C29" d="M171.053 456.169s-.146-.818.958-1.661c1.103-.844 1.951-1.314 2.689-.876.738.438 1.073 2.512.701 3.574-.372 1.063-2.927.38-3.579.013-.647-.367-.769-1.05-.769-1.05z"/>
    <path fill="#F7BC4B" d="M175.158 455.294s.305 1.655-.39 1.957c-1.031.451-.494-2.737-.458-3.239.043-.496.988.077.848 1.282z"/>
    <g>
      <path fill="#CC6D3D" d="M183.987 458.539s3.622 1.211 5.147 6.64c1.524 5.436 1.384 12.836-5.477 12.836-10.763 0-10.653-9.152-10.342-11.226 1.335-8.855 10.672-8.25 10.672-8.25z"/>
      <path fill="#F5894E" d="M183.41 458.366s3.622 1.21 5.147 6.639c1.524 5.436 1.384 12.836-5.477 12.836-10.763 0-10.653-9.152-10.342-11.226 1.335-8.855 10.672-8.249 10.672-8.249z"/>
      <path fill="#F7BC4B" d="M186.19 468.367s1.183-7.503-2.433-10.265c-2.982-2.28-5.69-2.48-9.495-1.887 0 0 5.336-.464 9.452 4.933 1.451 1.9 2.476 7.219 2.476 7.219z"/>
      <path fill="#273252" d="M180.523 457.309s-5.733-3.155-10.965 1.314c-5.232 4.476-5.568 6.93-4.568 9.564l.994 2.634s-3.988.792-3.988 3.156c0 2.363-.024 7.979 7.477 8.423 5.195.309 5.939-1.668 5.939-1.668s10.093 3.42 13.502-1.14c2.543-3.4 2.884-8.861-2.348-10.439 0 0-.811-11.052-6.043-11.844z"/>
      <path fill="#1D2538" d="M178.53 457.309s-6.311-3.819-10.964 1.314c-3.738 4.122-4.903 7.284-4.568 9.564.409 2.801.994 2.634.994 2.634s-3.988.792-3.988 3.156c0 2.363 0 7.631 7.476 8.423 7.477.793 8.227-1.049 8.227-1.049s11.19 2.808 13.044-3.311c1.329-4.385 1.39-6.581-3.842-8.159-.006 0-1.146-11.779-6.379-12.572z"/>
      <path fill="#273252" d="M176.907 457.025s1.829-6.144 4.153-5.088c2.323 1.05-1.659 6.144-1.659 6.144s3.488-4.038 5.482-2.453c1.994 1.577 0 5.442-3.823 5.615-3.824.168-4.153-4.218-4.153-4.218z"/>
      <path fill="#1D2538" d="M176.285 456.955s1.83-6.144 4.153-5.088c2.324 1.05-1.659 6.144-1.659 6.144s3.489-4.038 5.483-2.453c1.994 1.577 0 5.442-3.824 5.615-3.824.174-4.153-4.218-4.153-4.218z"/>
      <path fill="#CC6D3D" d="M187.64 466.809s-1.25-3.736-2.573-3.053c-1.324.683-1.184 4.521 1.738 6.047 2.914 1.533.835-2.994.835-2.994z"/>
      <path fill="#F5894E" d="M188.173 467.092s-.994-2.963-2.043-2.422c-1.049.548-.939 3.588 1.378 4.798 2.324 1.218.665-2.376.665-2.376z"/>
    </g>
  </g>
  <g>
    <path fill="#CC6D3D" d="M208.607 528.203c.311.335 1.079 1.533 1.451 2.28.116.225.476.676.439 1.153-.092 1.217-.317 1.964-1.214 1.874-.219-.528-.518-2.235-1.134-2.499-.646-.277-1.171-4.547.458-2.808z"/>
    <path fill="#1D2538" d="M199.307 524.989c-.043-.083.171-.773 1.152-1.429 1.153-.767 1.732-.026 1.732-.026l12.526 15.591-4.22 3.51-11.19-17.646z"/>
    <path fill="#1D2538" d="M196.951 518.665c-1.567 1.056-1.75 3.304-.457 4.933 1.226 1.546 3.324 1.926 4.72.934 1.384-.985 1.665-3.014.598-4.618-1.129-1.687-3.318-2.292-4.861-1.249zm3.031 4.386c-.579.315-1.506.051-2.085-.606-.592-.676-.592-1.494.018-1.816.604-.322 1.555-.019 2.116.664.555.657.524 1.442-.049 1.758z"/>
    <path fill="#F7BC4B" d="M197.973 519.425c-.902.586-1 1.874-.238 2.847.153.193.324.354.507.489-.122-.09-.238-.2-.342-.316-.592-.676-.592-1.494.018-1.816.604-.322 1.555-.019 2.116.664.549.663.525 1.442-.048 1.764-.36.2-.848.168-1.312-.032.641.296 1.366.283 1.909-.077.836-.56.97-1.771.287-2.731-.701-1.005-2-1.372-2.897-.792z"/>
    <path fill="#F6BE4A" d="M198.333 522.826c.018.012.031.024.049.031-.018-.013-.031-.019-.049-.031zM198.543 522.948a.54.54 0 01.085.045c-.031-.013-.061-.032-.085-.045z"/>
    <path fill="#3E4C6F" d="M199.891 524.249a.169.169 0 01-.092.051 2.233 2.233 0 01-.774 0c-.085-.019-.14-.116-.116-.212.024-.103.11-.168.201-.148.202.038.427.045.665 0 .091-.013.171.051.177.154a.236.236 0 01-.061.155z"/>
    <path fill="#C94039" d="M205.263 530.373c.774-.869 1.055-1.739 1.055-1.739l6.104 7.639c.689.792 2.671 3.11 2.671 3.11s-3.884 3.349-4.543 3.755c0 0-1.799-2.918-2.275-3.774l-4.762-7.58c0-.013.975-.535 1.75-1.411z"/>
    <path fill="#1D2538" d="M205.052 534.109l-.591-1.082s1.03-.657 2.64-2.473c0 0 .433.302-2.049 3.555z"/>
    <path fill="#C73F37" d="M206.271 528.577s-2.007 2.215-3.129 2.634l-.701-1.289s2.738-1.584 3.208-2.118l.622.773z"/>
    <path fill="#1D2538" d="M208.459 531.314l.238.302s-1.585 2.003-3.086 2.898l2.848-3.2zM206.13 535.951l.598.94s2.207-1.642 3.067-3.922c0 0-2.159 2.763-3.665 2.982zM208.274 539.351l-.89-1.436s2.5-1.147 3.775-3.265l1.914 2.382c0 .007-1.695.657-4.799 2.319zM209.362 541.154l.458.799s2.475-.792 3.793-3.272c0 .007-3.507 2.75-4.251 2.473z"/>
    <g>
      <path fill="#C94039" d="M222.267 538.823c-.195.071-.317.245-.482.373l-14.257 11.844c-.195.142-.628.039-1.769-.161-.768-.135-1.512-.58-1.268-1.391.323-1.063.494-2.435.847-2.654l13.984-11.057c.219-.168 1.268-.322 1.701-.387.488-.071.781-.36 1.372-.244.439.083.701.56.671 1.133l-.799 2.544z"/>
    </g>
    <g>
      <path fill="#F5894E" d="M221.844 538.101a1.18 1.18 0 01-.372.529l-14.794 11.708c-.043.032-1.909.006-2.178-.49-.268-.496.561-2.84.561-2.84s14.862-12.146 15.142-12.114c.513.065 1.165-.019 1.787.097.464.09.732.586.573 1.05l-.719 2.06z"/>
    </g>
    <g>
      <path fill="#FEED7F" d="M221.844 538.102a1.172 1.172 0 01-.372.528l-3.439-.103-12.971 8.475s14.861-12.146 15.142-12.114c.634-.026 1.165-.019 1.787.097.463.09.731.586.573 1.049l-.72 2.068z"/>
    </g>
    <path fill="#FEED7F" d="M236.419 568.3l-2.909-4.025-10.062-1.643 2.775 4 10.196 1.668zM232.609 563.141l-1.177-1.494-10.062-1.642 1.043 1.468 10.196 1.668z" opacity=".5"/>
    <path fill="#C94039" d="M219.698 540.291l-.908-.135c-.311-.052-.372-.032-.427.303l-.208 1.049 1.543-1.217z"/>
    <g>
      <path fill="#F7BC4B" d="M253.081 589.751s-33.741-45.126-34.205-45.828a37.465 37.465 0 00-.951-1.366c-.317-.27-.64-.109-1.799.908l-4.775 3.948 33.857 48.823c.165.245 6.995 2.158 6.995 2.158.165-.071.476.064.634-.638l.598-7.032a1.617 1.617 0 00-.354-.973z"/>
      <path fill="#F5894E" d="M253.081 589.752s-33.729-45.184-34.193-45.886a39.157 39.157 0 00-1.183-1.636s-.042-.032-.652.483l35.315 48.102s.311 7.644.469 6.942l.598-7.033c-.018-.502-.214-.779-.354-.972z"/>
      <path fill="#F5894E" d="M236.759 568.184l1.409 1.732c.128.11-.086.329-.385.393l-2.03.438c-.183.039-.305-.026-.275-.142l.836-2.37c.049-.186.311-.161.445-.051zM237.459 585.019l1.708.238-.415 1.61-1.293-1.848zM240.451 587.395l2.323-.129-1.335 1.713-.988-1.584z"/>
      <path stroke="#F3F4F6" stroke-miterlimit="10" d="M252.537 598.202l-38.18-53.235M231.623 576.492l1.055-.838 1.732.973.012 1.893 3.635 1.069 1.396.432"/>
    </g>
  </g>
  <g>
    <path fill="#F5894E" d="M195.23 495.918s3.988 10.176 4.817 13.512c.354 1.41.909 4.109-.018 5.068-1.262 1.308-4.311.419-5.464-1.906-1.994-4.038-6.732-13.338-6.068-15.791.671-2.467 4.989-5.095 6.733-.883z"/>
    <path fill="#CC6D3D" d="M192.486 498.108s3.488 7.896 4.86 11.451c.732 1.893-.787 7.065-2.781 3.027-1.994-4.038-6.732-13.338-6.068-15.792.671-2.46 2.244-2.898 3.989 1.314z"/>
    <path fill="#F5894E" d="M204.95 529.433s3.177.528.414-5.442c-2.128-4.598-3.22-8.771-4.592-12.59-1.299-3.613-5.897-1.05-5.732 1.577.165 2.634 2.128 5.314 4.177 9.255 2.824 5.448 3.738 7.374 5.733 7.2z"/>
    <path fill="#CC6D3D" d="M204.95 529.433s2.701 1.031-.061-4.933c-2.128-4.598-5.129-10.897-7.166-14.413-2.366-4.083-3.988-1.713-3.823.921.165 2.634 3.269 7.29 5.318 11.231 2.823 5.442 3.738 7.368 5.732 7.194z"/>
    <path fill="#CC6D3D" d="M202.543 527.153s.61-1.867 2.909-1.204c1.634.47 1.53.515 3.158 2.261.312.335 1.037 1.623 1.415 2.37.378.747-3.067 1.146-3.238 1.313-.329.329-.018 2.937-.018 2.937l.5 1.778s.415 1.314.579 1.842c.165.528-.603.528-.927.277-.323-.252-1.213-1.527-1.213-1.527-.531.245-.683.464-1.933-1.874a67.62 67.62 0 01-.994-1.977s-.738-4.09-.238-6.196z"/>
    <g>
      <path fill="#C94039" d="M188 483.81s2.244-.348 4.239 3.858c1.994 4.212 3.408 8.952 3.408 8.952l-6.732 3.155s-1.579-.792-3.324-8.952c-1.536-7.187 2.409-7.013 2.409-7.013z"/>
      <path fill="#992C29" d="M189.243 484.068s-.311 6.144.061 7.065c.372.921 3.305 6.846 3.305 6.846l-3.695 1.797s-1.58-.792-3.324-8.952c-.768-3.593-.329-6.144 1.08-6.846 1.207-.592 2.573.09 2.573.09z"/>
      <path fill="#992C29" d="M190.037 489.491s-.554 3.645.629 5.564l.945.999c0-.007-1.708-5.855-1.574-6.563z"/>
    </g>
  </g>
  <g>
    <path fill="#2563EB" d="M183.427 482.226c-2.604 0-16.697 1.14-19.191 5.352-4.08 6.891-7.062 14.742-10.55 17.64-3.489 2.898-19.691 9.474-25.924 8.688-6.232-.786-9.72-2.106-13.959 3.684-4.238 5.789-13.208 16.847-14.953 17.633 0 0 11.386 2.28 14.624.702 3.238-1.578 8.477-1.23 16.453 1.932 7.976 3.156 10.721.792 10.721.792s6.976-4.74 12.214-10.794c5.233-6.053 15.953-6.227 20.771-10.001 4.818-3.774 7.446-5.732 10.056-13.248 1.555-4.489 4.561-12.397 4.903-14.832.482-3.419.262-6.124-.329-6.491-1.22-.747-2.842-1.057-4.836-1.057z"/>
    <path fill="#2563EB" d="M183.493 485.987s-6.83 6.247-14.13 8.475c-2.854.876-5.665.786-8.153-2.711-2.482-3.497-1.091-7.136.817-10.691 1.909-3.555 6.294-2.756 12.654-3.155 6.36-.4 11.995 1.365 8.812 8.082z"/>
    <path fill="#C14455" d="M181.768 478.716c1.622 1.314-15.892 9.236-17.325 7.858-1.427-1.379-1.128-4.869.635-7.194 1.268-1.675 3.097-1.282 8.409-1.481 4.769-.174 6.659-.496 8.281.817z"/>
  </g>
</svg>
