<svg xmlns="http://www.w3.org/2000/svg" width="960" height="1080" fill="none" viewBox="0 0 960 1080">
  <path fill="#F3E7D9" d="M647.5 216.5c72.5-28.5 145-88 160-94s-48-44-89-35-36 63-36 75c0 0-10-16-32-7s-28 43-28 59 13.51 6.52 25 2zM115.01 537.19s139.46-67.41 203.38-104.6c63.92-37.19 74.38-79.03 79.03-101.11 4.65-22.08 1.16-41.84-54.62-13.95 0 0 12.78-23.24-6.97-47.65-19.76-24.41-66.25 0-88.33 30.22s-23.24 36.03-23.24 36.03-16.27-26.73-40.68-18.6c-24.41 8.13-31.38 73.22-12.78 92.98 0 0-20.92-4.65-48.81 23.24s-46.49 51.14-38.35 61.6 30.22 10.46 55.79-5.81c0 0-53.46 48.81-53.46 55.79-.01 6.97 29.04-8.14 29.04-8.14z"/>
  <path fill="#1D2538" d="M695.36 621.49c10.76-12.81 30.2-36.01 30.2-36.01s29.34 28.28 39.19 37.72c10.47 10.03 31.03 25.19 21.51 26.33-9.58 1.14-20.64-.84-23.62-1.7 0 0-1.29 29.37-40.79 22.36-38.04-6.76-38.2-34.76-26.49-48.7z"/>
  <path fill="#1D2538" d="M763.529 641.73s71.24 67.31 69.07 73.68c-2.24 6.58-53.26 18.61-85.65-19.28-27.13-31.73-29.19-66.98 16.58-54.4z"/>
  <path fill="#1D2538" d="M809.01 719.5c3.84 2.19 82.28 82.07 81.64 94.21-.68 12.74-40.43 30.3-76.1 5.02-32.48-23.01-56.73-128.39-5.54-99.23zM281.51 622.68l-99.27 76.39s8.37 6.63 31.48 1.39l128.59 29.22-60.8-107z"/>
  <path fill="#1D2538" d="M219.94 688.67l-77.28 66.12s34.32 27.82 67.94-1.96c9.61-8.51 126.31.38 126.31.38l-51.8-69.92s-49.15 1.84-65.17 5.38z"/>
  <path fill="#1D2538" d="M168.2 758.2c-3.5 1.47-34.11 23.11-68.58 52.47 0 0 40.55 31.06 68.16 19.3 27.63-11.77 50.95-93.04.42-71.77zM404.231 541.39l-64.31 74.77s7.8 5.66 24.95.97l107.04 16.13-67.68-91.87z"/>
  <path fill="#1D2538" d="M375.95 603.68l-55.91 52.72s77.82 112.65 98.62 86.71c5.95-7.41 53.42-89.51 53.42-89.51l-53.68-59.93c-.02-.01-30.56 6.84-42.45 10.01z"/>
  <path fill="#1D2538" d="M340.71 659.15c-2.47 1.3-22.43 20.18-43.98 45.77 0 0 37.61 26.49 57.06 16.14 19.46-10.35 22.56-80.63-13.08-61.91z"/>
  <path fill="#C94039" d="M427 407s-20-112 79-136 131.48 52.43 137 69c11 33 11 53 11 53l-227 14z"/>
  <path fill="#EE5D4F" d="M430.54 395.2s30.27-43.72 102.86-61.32 85.53-1.06 88.62 2.37c7.12 7.91 7.12 36 7.12 36s-52.39-10.96-105.63-5.14c-68.84 7.52-92.97 28.09-92.97 28.09z"/>
  <path fill="#1D2538" d="M654.25 393.64c.99 14.99-31.78 27.08-118.25 32.02-86.47 4.95-109-10.66-109-18.29-.99-14.99 50.17-30.33 98-35.36 57-6.01 128.26 6.64 129.25 21.63z"/>
  <path fill="#1D2538" d="M638.61 381.88l-.7-.26c.01-.16 2.27-15.39-10.26-53.97-12.76-39.27-56.57-57.57-57-57.76l1.78.48 1.04.3c.43.19 42.18 19.23 54.74 57.01 12.46 37.48 10.41 54.04 10.4 54.2z"/>
  <path fill="#EE5D4F" d="M505.45 351.16c21.705 0 39.3-17.595 39.3-39.3s-17.595-39.3-39.3-39.3c-21.704 0-39.3 17.595-39.3 39.3s17.596 39.3 39.3 39.3z"/>
  <path fill="#34283A" d="M518.5 348c23.472 0 42.5-19.028 42.5-42.5S541.972 263 518.5 263 476 282.028 476 305.5s19.028 42.5 42.5 42.5z"/>
  <path fill="#1689CB" d="M513.5 343c23.472 0 42.5-19.028 42.5-42.5S536.972 258 513.5 258 471 277.028 471 300.5s19.028 42.5 42.5 42.5z"/>
  <path fill="#29ABE2" d="M511 334c19.882 0 36-16.118 36-36s-16.118-36-36-36-36 16.118-36 36 16.118 36 36 36z"/>
  <path fill="#665070" d="M510 329c17.673 0 32-14.327 32-32 0-17.673-14.327-32-32-32-17.673 0-32 14.327-32 32 0 17.673 14.327 32 32 32z"/>
  <path fill="#FEED7F" d="M513.351 327.58c15.187 0 27.5-12.312 27.5-27.5s-12.313-27.5-27.5-27.5c-15.188 0-27.5 12.312-27.5 27.5s12.312 27.5 27.5 27.5z"/>
  <path fill="#F7BC4B" d="M534.81 312.94c-10.29 16.93-30.4 9.85-30.4 9.85l31.36-35.31s9.33 8.53-.96 25.46z"/>
  <g>
    <path stroke="#F7BC4B" stroke-miterlimit="10" d="M527.86 246.05L508.87 51.42M437.66 269.79L299.99 96.52M492.25 243.68l-52.22-111.56M392.561 241.31s26.11-73.58 116.31-68.84"/>
  </g>
  <g>
    <path fill="#3E4C6F" d="M239.59 225.22l10.68 45.1-8.3-8.31-8.31-37.98 5.93 1.19zM255.42 228.91l10.68 45.1-8.31-8.31-8.31-37.97 5.94 1.18z"/>
    <path fill="#1D2538" d="M253.7 227.07l-9.49 33.23 7.12 10.68 10.68-30.86-2.37 39.17 17.8-3.56-9.49-47.48-14.25-1.18z"/>
    <path fill="#1D2538" d="M247.53 413.99c-13.35-9.3-17.47-108.64-16.65-136.87l.48-16.38s-1.38-5.81 10.6-5.81 11.97.34 13.48 4.1c1.52 3.78 2.52 10.03 4.07 12.47 1.56 2.46 4.3 3.34 6.79 3.28 2.49-.06-1.18-4.33 6.26-4.33 7.44 0 10.16-1.4 12.25 7.39 2.13 8.91 17.71 85.02 17.93 92.84.23 7.92-12.38 10.28-22.64 12.51-6.7 1.46-17.72 16.57-19.3 20.92-1.56 4.34-7.59 13.84-13.27 9.88z"/>
    <path stroke="#4B3355" stroke-miterlimit="10" stroke-width="3" d="M273.88 375.42s1.98 29.27 19.78 44.7c17.8 15.43 33.43 20.97 33.43 20.97"/>
    <path stroke="#665070" stroke-miterlimit="10" stroke-width="3" d="M270.32 375.42s1.19 32.04 18.99 47.47c17.8 15.43 34.22 18.2 34.22 18.2M288.34 359.34s4.84 28.83 22.72 44.17c17.88 15.33 35.21 24.92 35.21 24.92"/>
    <path stroke="#4B3355" stroke-miterlimit="10" stroke-width="3" d="M283.2 359.73s4.84 28.83 22.72 44.17c17.88 15.33 35.21 24.92 35.21 24.92"/>
    <path stroke="#4B3355" stroke-miterlimit="10" stroke-width="3" d="M274.5 364.88s4.84 28.83 22.72 44.17c17.88 15.33 35.21 24.92 35.21 24.92"/>
    <g>
      <path fill="#992C29" d="M262.869 244.48s17.36 8.13 21.96 5.43c4.6-2.7 9.22-7.47 12.58-14.39 3.36-6.92 6.57-11.27 3.67-14.11-2.9-2.83-6.04-5.73-6.04-5.73s3.03 2.35 5.74-1.1c2.71-3.45 11.35-19.64 9.87-23.92-1.48-4.28-4.84-10.35-6.16-12.25-1.32-1.9-2.43-.63-2.43-.63s.05-5.18-2.36-7.89c-2.41-2.71-6.91-4.4-6.91-4.4s.16-3.6-2.62-5.88c-2.78-2.28-3.97-2.2-9.17-3.69-5.2-1.49-8.55-1.58-8.55-1.58s-3.99-3.12-6.18-3.69c-2.19-.57-12.81-2.69-17.53.5-4.73 3.18-13.31 14.2-16.76 24.46-3.45 10.26-7.62 37.23-3.22 48.25 4.4 11.03 22.97 18.49 34.11 20.62z"/>
      <path fill="#C94039" d="M277.349 229.58s14.18 13.31 17.08 7.72c2.42-4.68 5.41-10.37 5.41-10.37s.91-2.52.41-4.45c-.5-1.93-3.29-3.71-3.29-3.71 2.22-2.82 10.51-14.43 9.29-17.94-1.21-3.51-3.96-8.48-5.04-10.03-1.08-1.55-1.99-.52-1.99-.52s.04-4.24-1.93-6.46c-1.97-2.22-5.66-3.6-5.66-3.6s.13-2.94-2.15-4.81c-2.28-1.87-3.25-1.8-7.51-3.02s-7-1.29-7-1.29-3.27-2.55-5.06-3.02c-1.79-.47-10.49-2.2-14.36.41-3.87 2.61-10.9 11.63-13.73 20.04-2.83 8.41-5.95 19.19.85 26.13 5.25 5.37 18.89 3.2 34.68 14.92z"/>
      <path fill="#121721" d="M268.829 152.04s6.35 5.55 6.45 8.89c.1 3.34-5.24 21.62-6.98 26.82-1.74 5.2-2.39 6.19-5.79 7.26-3.4 1.07-9.1-.23-9.1-.23s1.9 1.66 6.52 1.89c4.62.23 7.25-2.4 8.4-3.07 1.15-.67 2.58-6.15 3.95-11.44 1.38-5.29 5.21-18.51 5.78-20.7.57-2.19-1.99-6.56-9.23-9.42z"/>
      <path fill="#121721" d="M292.579 165.31s-.5 7.4-4.7 22.02c-1.37 4.77-2.53 11.94-9.52 10.64-4.44-1.38-12.34-3.99-12.34-3.99l-.36.88s5.92 2.71 9.88 3.94c3.97 1.23 7.39 1.54 9.52-.64s6.07-15.56 7.23-22.27c1.16-6.72 2.95-8.33.29-10.58zM302.07 177.77s-4.44 17.03-5.96 22.09c-1.51 5.06-4.82 6.28-10.06 9.2l1.64.17s8.11-3.47 9.35-8.21c1.24-4.74 6.19-23.61 6.19-23.61s-.21-.09-.6 0c-.38.09-.56.36-.56.36z"/>
      <path fill="#121721" d="M297.62 218.76s-10.06-9.24-14.87-12.45c-4.81-3.21-9.37.09-10.73 3.05-1.35 2.96-5.35 6.3-2.23 9.26 3.11 2.96 9.73 5.84 13.09 8.59 0 0-.3.23-1.21 2.55-.91 2.32-2.36 2.79-2.36 2.79l2.22-5.33s-13.77-7.47-14.02-10.26 3.23-7.92 5.23-11.1c2-3.18 6.02-2.91 11.29.02 5.27 2.92 13.59 12.88 13.59 12.88z"/>
    </g>
    <g>
      <path fill="#992C29" d="M289.31 441.68c17.258 0 31.25-13.991 31.25-31.25s-13.992-31.25-31.25-31.25c-17.259 0-31.25 13.991-31.25 31.25s13.991 31.25 31.25 31.25z"/>
      <path fill="#4B3355" d="M282.98 424.27c6.334 0 11.47-5.136 11.47-11.47 0-6.335-5.136-11.47-11.47-11.47-6.335 0-11.47 5.135-11.47 11.47 0 6.334 5.135 11.47 11.47 11.47z"/>
    </g>
    <g>
      <path stroke="#856792" stroke-miterlimit="10" stroke-width="3" d="M262.01 372.65s1.98 29.27 19.78 44.7c17.8 15.43 33.43 20.97 33.43 20.97"/>
      <path stroke="#BB83C3" stroke-miterlimit="10" stroke-width="3" d="M253.31 371.07s1.98 29.27 19.78 44.7c17.8 15.43 33.43 20.97 33.43 20.97"/>
      <path stroke="#665070" stroke-miterlimit="10" stroke-width="3" d="M256.079 378.78s3.96 38.57 21.76 54 33.43 20.97 33.43 20.97"/>
    </g>
    <g>
      <path fill="#C94039" d="M429.48 454.08c-9.08-8.43-3.94-6.71-49.37-28.75-27.78-13.48-48.56-20.44-58.03-23.29-3.53-1.06-9.68.76-10.51 5.48-1.88 10.62-3.54 17.19-6.59 22.86-3 5.56-5.73 7.67-10.44 5.18-4.53-2.4-10.3-8.87-12-2.36-1.67 6.43-1.95 21.55 3.65 25.28 12.33 8.23 84.05 56.04 115.32 63.66 35.65 8.69 37.33-59.36 27.97-68.06z"/>
      <path fill="#EE5D4F" d="M393.53 459.61c-6.49-5.77 2.79-3.74-30.07-19.18-20.37-9.57-35.73-14.65-42.77-16.75-2.63-.79-7.23.39-7.85 3.64-1.41 7.34-2.65 11.89-4.95 15.8-2.26 3.85-4.32 5.3-7.88 3.51-3.43-1.72-7.8-6.31-9.1-1.77-1.29 4.5-1.52 15.12 2.73 17.78 9.36 5.85 63.1 38.77 85.89 44.51 12.25 3.11 20.67-41.61 14-47.54z"/>
      <path stroke="#1D2538" stroke-miterlimit="10" stroke-width=".5" d="M281.75 446.17l131.18 69.51"/>
      <path fill="#F7BC4B" d="M436.42 444.39s-20.71-10.25-23.61-2.8c-1.61 18.76-11.88 54.99-21.42 79.8 2.76 3.63 16.3 14.21 27.35 10.6 11.57-3.77 17.68-87.6 17.68-87.6z"/>
      <path fill="#FEED7F" d="M414.14 492.66c-4.04-2.54-6.1-7.32-5.23-12.02 2.78-15.08 6.26-45.09 3.9-39.04-1.61 18.76-11.88 54.99-21.42 79.8 2.76 3.63 16.3 14.21 27.35 10.6 5.98-1.95 9.69-36.71 9.69-36.71-7.05-.22-10.93-.52-14.29-2.63z"/>
    </g>
    <g>
      <path fill="#C94039" d="M245.019 412.26c-15.26-10.37-20.96-118.31-18.26-145.62 2.46-24.89 1.51-15.27 1.51-15.27s-1.09-5.32 11.38-5.32c12.39 0 12.37.31 13.78 3.72 1.43 3.45 2.22 9.2 3.75 11.46 1.54 2.28 4.37 3.08 6.97 3.02 2.59-.07-1.09-4.01 6.62-4.04 7.68-.03 10.5-1.32 12.52 6.79 2.08 8.35 16.51 80.84 19.48 102.62-4.45-1.7-14.55-.09-27.49 5.99-13.15 6.18-21.74 15.58-24.18 23.99-2.49 8.54.44 17.09-6.08 12.66z"/>
      <path fill="#F7BC4B" d="M290.1 300.25l-3.03-15.96s-33.23-10.02-61.19 3.69l.53 16.88c0 .01 33.1-15.68 63.69-4.61z"/>
      <path fill="#F7BC4B" d="M226.8 312.71l-.2-5.54s17.62-6.55 32.24-7.71c17.41-1.38 32.04 4.15 32.04 4.15l.99 5.74s-12.34-6.39-32.72-4.95c-9.25.66-20.17 3.55-32.35 8.31z"/>
      <path fill="#EE5D4F" d="M242.77 407.63c-8.45-24.7-12.57-83.11-12.57-83.11s-.98-4.8 10.26-4.8c11.17 0 33.5 12.14 39.36 18.9 11.21 12.92 15.96 26.11 13.85 27.16-2.11 1.05-11.94 3.31-23.61 8.79-11.86 5.57-19.61 14.05-21.81 21.64-2.24 7.7-3.18 18.16-5.48 11.42z"/>
      <path stroke="#1D2538" stroke-miterlimit="10" stroke-width=".5" d="M237.75 246.05c-5.98 11.09-5.93 63.86.53 103.65 4.92 30.33 14.24 46.29 14.24 46.29"/>
    </g>
  </g>
  <g>
    <path fill="#992C29" d="M429 443.86s22.9-34.81 98.07-40.35C615.15 394.54 657 427 657 427l74.99 417.5-344.62-10.13L429 443.86z"/>
    <path fill="#F7BC4B" d="M415.11 573.62s54.59-36.79 131.74-36.79 136.35 36 136.35 36l10.42 57.23s-68.44-35.08-142.02-36.26c-73.58-1.18-142.95 39.43-142.95 39.43l6.46-59.61z"/>
    <path fill="#F7BC4B" d="M406.74 652.93s59.63-32.83 142.54-32.83 147.9 31.97 147.9 31.97l10.29 52.62s-94.42-40.35-154.55-39.82c-60.13.53-152.18 40.14-152.18 40.14l6-52.08z"/>
    <path fill="#EE5D4F" d="M437.1 476.29s14.56-16.97 74.14-21.36c79.12 14.24 188.31 284.04 188.31 284.04s-64.88-27.69-147.96-28.88c-83.08-1.19-147.96 41.54-147.96 41.54l33.47-275.34z"/>
    <path fill="#FEED7F" d="M652.11 635.18s6.29 12.4 13.02 26.46c5.59 11.68 11.41 24.52 14.85 32.15-133.93-75.86-270.16 7.99-270.16 7.99l6.38-53.34s59.42-28.02 135.66-27.61c49.58.26 79.12 8.43 100.25 14.35zM426.05 567.27l-7.51 60.81s32.97-24 104.37-30.13c71.41-6.13 115.58 10.88 115.58 10.88s-17.37-34.02-38.24-66.46c0-.01-76.35-24.14-174.2 24.9z"/>
    <path stroke="#1D2538" stroke-miterlimit="10" stroke-width=".5" d="M663.151 456.52s-45.1-40.75-130.68-33.91c-31.31 2.5-67.38 12.28-104.58 34.71M462.85 439.77l-4.49 96.46"/>
    <path fill="#1D2538" d="M416.6 561.83l-.2.17.06-.71s8.69-8.49 25.86-17.7c15.85-8.49 42.27-19.26 78.15-22.34 80.22-6.9 145 16.17 159.73 34.95l.19 1.05-.3-.37c-14.07-18.76-78.99-42.06-159.58-35.14-35.8 3.08-62.16 13.81-77.96 22.28-17.1 9.18-25.86 17.72-25.95 17.81z"/>
    <path stroke="#1D2538" stroke-miterlimit="10" stroke-width=".5" d="M697.97 721.97s-65.8-49.94-153.49-42.73c-67.64 5.56-115.52 22.55-137.97 40.38M548.69 421.97l.53 48s41.74.6 58.02 4.22c23.74 5.27 29.01 8.44 29.01 8.44l-4.22-44.84s-39-17.27-83.34-15.82zM634.141 459.42s18.99 5.8 25.32 11.6M549.22 459.42s-50.11-3.16-87.56 15.82M636.25 482.63l3.3 50.96"/>
  </g>
  <g>
    <path fill="#3E4C6F" d="M843.55 225.22l-10.68 45.1 8.31-8.31 8.3-37.98-5.93 1.19zM827.73 228.91l-10.69 45.1 8.31-8.31 8.31-37.97-5.93 1.18z"/>
    <path fill="#1D2538" d="M829.44 227.07l9.49 33.23-7.12 10.68-10.68-30.86 2.38 39.17-17.81-3.56 9.5-47.48 14.24-1.18z"/>
    <path fill="#1D2538" d="M806.13 376.34c-4.95-1.28-8.09-5.36-7.79-9.88 1.29-19.6 4.06-68.4 4.32-71.65.31-3.97 2.15-7.85 8.33-8.94 6.14-1.08 13.73-1.08 14.53-4.29.78-3.15-.09-8.38 5.22-8.76 5.3-.38 12.55-1.62 15.42 1.01 3.9 3.57 20.01 71.13 22.01 102.26 2.35 36.6-27.1 54.28-29.37 50.9-2.23-3.33 7.63-11.15-1.01-34.13-5.05-13.45-23.2-14.33-31.66-16.52z"/>
    <path stroke="#4B3355" stroke-miterlimit="10" stroke-width="3" d="M838.01 361.97s-1.98 29.27-19.78 44.7c-17.8 15.43-33.43 20.97-33.43 20.97"/>
    <path stroke="#665070" stroke-miterlimit="10" stroke-width="3" d="M841.57 361.97s-1.19 32.04-18.99 47.47c-17.8 15.43-34.22 18.2-34.22 18.2M819.39 341.73s-4.84 28.83-22.72 44.17c-17.88 15.33-35.21 24.92-35.21 24.92"/>
    <path stroke="#4B3355" stroke-miterlimit="10" stroke-width="3" d="M824.54 342.13s-4.84 28.83-22.72 44.17c-17.88 15.33-35.21 24.92-35.21 24.92M837.39 351.43s-4.84 28.83-22.72 44.17c-17.88 15.33-35.21 24.92-35.21 24.92"/>
    <path fill="#992C29" d="M813.53 250.91s-17.73 6.91-22.1 3.92c-4.37-2.99-8.61-8.03-11.46-15.1-2.85-7.08-5.73-11.61-2.66-14.21 3.06-2.6 6.37-5.25 6.37-5.25s-3.16 2.11-5.61-1.49c-2.45-3.6-9.88-20.22-8.12-24.35 1.76-4.14 5.5-9.91 6.94-11.7 1.44-1.79 2.45-.46 2.45-.46s.31-5.13 2.88-7.64 7.14-3.87 7.14-3.87.09-3.57 3-5.64 4.08-1.91 9.33-3.02 8.57-.97 8.57-.97 4.17-2.81 6.37-3.22c2.21-.41 12.86-1.78 17.32 1.7 4.46 3.48 12.19 14.96 14.9 25.36 2.71 10.4 4.98 37.37-.14 47.97-5.11 10.59-24.01 16.64-35.18 17.97z"/>
    <path fill="#C94039" d="M803.081 238.12s-12.76 7.25-15.86 6.54c-3.1-.71-5.12-2.08-7.34-7.62-2.22-5.54-4.48-9.08-2.08-11.12 2.4-2.04 2.52-2.46.6-5.27-1.92-2.82-7.73-15.82-6.35-19.05 1.38-3.24 4.3-7.75 5.43-9.16 1.13-1.41 1.92-.36 1.92-.36s.24-4.01 2.25-5.98c2.01-1.97 5.58-3.03 5.58-3.03s.07-2.79 2.35-4.41c2.28-1.62 3.19-1.49 7.3-2.36 4.1-.87 6.7-.76 6.7-.76s3.26-2.2 4.98-2.52c1.72-.32 10.06-1.39 13.55 1.33 3.49 2.72 9.54 11.71 11.66 19.84 2.12 8.14 3.5 16.29-.5 24.58s-15.61 6.3-30.19 19.35z"/>
    <path fill="#121721" d="M814.011 159.09s-6.66 5.05-7 8.35c-.34 3.3 3.7 21.76 5.07 27.02 1.37 5.26 1.94 6.3 5.23 7.58 3.29 1.28 9.02.4 9.02.4s-2 1.52-6.58 1.42c-4.58-.09-7.01-2.87-8.1-3.62-1.09-.75-2.13-6.26-3.12-11.59-1-5.33-3.88-18.68-4.3-20.88-.42-2.2 2.41-6.35 9.78-8.68z"/>
    <path fill="#121721" d="M789.59 170.58s-.02 7.36 3.13 22.12c1.03 4.82 1.68 11.99 8.69 11.18 4.49-1.06 12.48-3.1 12.48-3.1l.29.9s-6.04 2.27-10.05 3.22c-4.01.94-7.42 1.01-9.37-1.29-1.95-2.3-4.93-15.82-5.62-22.54-.68-6.73-2.34-8.45.45-10.49zM779.341 182.26s3.23 17.16 4.37 22.27c1.14 5.11 4.33 6.54 9.32 9.79l-1.64.05s-7.79-3.99-8.68-8.77c-.9-4.78-4.5-23.79-4.5-23.79s.21-.08.59.04c.38.13.54.41.54.41z"/>
    <path fill="#121721" d="M780.92 223.13s10.59-8.45 15.58-11.29 9.27.74 10.41 3.76c1.14 3.02 2.47 4.39-.8 8.24-3.27 3.85-10.05 10.07-10.05 10.07s6.03 3.2 8.6 6.2c-.92-3.45-5.69-7.55-5.69-7.55s10.45-9.19 10.89-11.94c.44-2.75-1.66-5.26-3.42-8.55-1.76-3.29-5.76-3.3-11.18-.76s-14.34 11.82-14.34 11.82z"/>
    <g>
      <path fill="#992C29" d="M812.43 434.89c17.259 0 31.25-13.991 31.25-31.25s-13.991-31.25-31.25-31.25-31.25 13.991-31.25 31.25 13.991 31.25 31.25 31.25z"/>
      <path fill="#4B3355" d="M817.18 414.32c5.683 0 10.29-4.607 10.29-10.29 0-5.683-4.607-10.29-10.29-10.29-5.683 0-10.29 4.607-10.29 10.29 0 5.683 4.607 10.29 10.29 10.29z"/>
    </g>
    <g>
      <path stroke="#856792" stroke-miterlimit="10" stroke-width="3" d="M842.03 365.79s-1.98 29.27-19.78 44.7c-17.8 15.43-33.43 20.97-33.43 20.97"/>
      <path stroke="#BB83C3" stroke-miterlimit="10" stroke-width="3" d="M850.74 364.21s-1.98 29.27-19.78 44.7c-17.8 15.43-33.43 20.97-33.43 20.97"/>
      <path stroke="#665070" stroke-miterlimit="10" stroke-width="3" d="M845.99 381.22s-1.98 29.27-19.78 44.7c-17.8 15.43-33.43 20.97-33.43 20.97"/>
    </g>
    <g>
      <path fill="#C94039" d="M660.21 425.64s94.67-30.9 107.79-34.66c12.6-3.62 17.72-1.55 19.27 9.03 1.53 10.42 6.72 15.39 16.33 16.59 9.27 1.16 11.8.83 13.7 1.21 1.9.38 3.09 4.42 3.21 13.97.11 9.16 3.21 10.68-16.66 22.96-21.17 13.08-108.51 51.58-108.51 51.58s-25.8-13.67-33.94-33.22c-8.48-20.34-1.19-47.46-1.19-47.46z"/>
      <path fill="#EE5D4F" d="M728.16 450.28c21.67-7.28 49.11-20.03 56.69-19.16 7.34.84 17.09 3.68 23.3 3.52 6.17-.15 7.89-3.06 8 4.34.1 7.11-6.57 8.62-22.17 18.25-16.58 10.23-92.69 41.66-92.69 41.66S690 486.5 688.42 471.15c-.86-8.49 17.71-13.47 39.74-20.87z"/>
      <path fill="#3E4C6F" d="M698.05 482.55c.11 1.8-1.2 3.33-2.94 3.42-1.74.09-3.25-1.31-3.37-3.11-.12-1.81 1.2-3.35 2.94-3.43 1.75-.09 3.25 1.31 3.37 3.12z"/>
      <path stroke="#1D2538" stroke-miterlimit="10" stroke-width=".5" d="M682.641 494.99l137.75-58.25"/>
      <path fill="#FEED7F" d="M667.45 421.76s-16.23 2.95-19.4 6.7c-3.19 3.77 1.23 37.86 11.09 57.76 9.44 19.04 19.8 27.83 29.66 23.49 4.82-2.13 9.7-4.71 9.7-4.71s-10.08-11.2-19.61-39.6c-10.49-31.29-11.44-43.64-11.44-43.64z"/>
      <path fill="#F7BC4B" d="M667.45 421.76s-16.23 2.95-19.4 6.7c-3.19 3.77 7.99 38.39 7.99 38.39s4.2 5.76 22.85-1.45c-10.49-31.29-11.44-43.64-11.44-43.64z"/>
    </g>
    <path fill="#C94039" d="M812.43 363.15c-9.23 0-13.58 6.68-13.58 6.68s-.89-.3-.3-6.5c2.11-26.01 4.08-83.1 4.29-85.84.34-4.44 2.33-8.78 9.03-10 6.65-1.21 14.88-1.21 15.74-4.8.85-3.52-.09-9.38 5.66-9.8 5.74-.42 13.6-1.81 16.71 1.13 4.23 4 21.68 79.56 23.85 114.39 2.55 40.94-30.22 61.68-32.67 57.9-2.42-3.73 13.08-14.22 3.72-39.93-5.49-15.05-23.22-23.23-32.45-23.23z"/>
    <path stroke="#1D2538" stroke-miterlimit="10" stroke-width=".5" d="M804.45 319.64s18.99 2.37 27.69-2.37c8.7-4.75-.49-41.64-.49-41.64l-25.81 5.44-1.39 38.57z"/>
    <path fill="#EE5D4F" d="M815.3 360.29c-10.98.48-13.15 1.46-12.63-3.99.92-19.38 54.2-27.82 58.29-27.69 5.06.16 10.55 20.57 8.97 45.89s-15.41 46.13-17.41 22.15c-1.06-12.66-12.14-37.45-37.22-36.36z"/>
    <path stroke="#1D2538" stroke-miterlimit="10" stroke-width=".5" d="M840.12 252.12c1.49 4.36 31.91 96 15.3 165.63"/>
  </g>
  <g>
    <path fill="#CC6D3D" d="M683.249 363.62c-4.69 4.68-15.42 12.44-10.11 17.52 4.11 3.94 9.24-.25 17.95-8.85 5.6-5.53-3.15-13.35-7.84-8.67z"/>
    <path fill="#F5894E" d="M679.449 375.47l2.71 4.6 7.72-7.86-10.43 3.26z"/>
    <path fill="#C94039" d="M699.389 354.77s-4.64-4.28-9.99 1.4c-6.03 6.41-6.32 6.89-6.32 6.89l8 9.23s10.43-15.79 8.31-17.52z"/>
    <path fill="#CC6D3D" d="M672.219 381.1c3.91 2.21 5.71 2.22 8.22-.97 2.51-3.19-4.24-7.55-14.37-12.88-10.14-5.33-13.55-7.76-15.12-5.45-1.58 2.31 2.911 7.66 9.951 12.23 7.04 4.57 7.409 4.86 11.319 7.07z"/>
    <path fill="#F5894E" d="M671.559 380.3c3.91 2.21 5.66 1.01 5.66 1.01l-2.73-4.07s-22.07-9.41-15.03-4.84c7.04 4.57 8.19 5.69 12.1 7.9z"/>
  </g>
  <g>
    <path fill="#CC6D3D" d="M650.68 367.16c-1.79-1.19-2.91-1.76-3.95-2.81-1.2-1.79-2.21-5.28-3.12-6.77-1.88-3.06.19-5.63 1-3.57s4.76 5.61 4.76 5.61l-1.72-6.21-5-6.08s-.23-5.28 1.36-4.77c1.59.51 4.62 6.83 7.3 7.5 2.68.67 6.2 11.37 5.46 13.72-.74 2.35-3.76 4.78-6.09 3.38z"/>
  </g>
  <g>
    <path fill="#EE5D4F" d="M673.79 407.43s-2.08 7.57 14.14 4.82 45.82-9.95 45.82-9.95-50.03-7.12-59.96 5.13z"/>
  </g>
  <g>
    <path fill="#CC6D3D" d="M695.3 438.74l12.43 19.18 5.49-5.91-9.58-19.71-8.34 6.44z"/>
    <path fill="#1D2538" d="M682 405.4c-1.09.27-7.55 1.5-1.41 11.75 7.08 11.82 8.78 14.47 14.85 21.97l8.42-6.24s-4.79-12-7.1-18.81c-2.85-8.4-13.67-8.94-14.76-8.67z"/>
    <path fill="#3E4C6F" d="M695.16 433.21c-4.5-1.18-20.71-26.31-14.57-16.06 7.08 11.82 8.78 14.47 14.85 21.97l8.42-6.24c0 .01-4.19 1.51-8.7.33z"/>
    <path fill="#CC6D3D" d="M707.24 455.791s-2.75 11.25.24 12.5 7.61-13.63 5.74-16.28c-1.87-2.65-5.98 3.78-5.98 3.78z"/>
    <path fill="#C94039" d="M706.8 457.651s-.84 7.4.67 7.5c1.5.1 4.17-4.95 5.01-6.48.84-1.53-.23-6.74.97-6.93 1.19-.19 3.1 3.19 3.15 4.69.02.52-1.05 1.79-1.92 4.87-.56 1.98-.74 5.53-1.53 7.4-1.52 3.59-4.23 6.09-5.31 6.64-2.5 1.29-3.09-2.44-3.11-7.24-.03-4.8 2.07-10.45 2.07-10.45z"/>
    <path fill="#992C29" d="M712.72 457.05c.15-2.01-.46-5.11.73-5.3 1.19-.19 3.1 3.19 3.15 4.69.02.52-1.05 1.79-1.92 4.87-.56 1.98-.74 5.53-1.53 7.4-1.52 3.59-4.23 6.09-5.31 6.64-2.5 1.29 4.19-4.1 4.16-8.9-.01-1.18-3.37-1.86-3.37-1.86s3.82-3.97 4.09-7.54z"/>
    <path fill="#1D2538" d="M697.85 394.49s-13.77 6.08-17.75 10.77c-3.98 4.69-3.6 14.57 15.74 7 13.36-5.23 27.01-10.36 20.65-12.01-6.35-1.65-11.86-9.1-18.64-5.76z"/>
  </g>
  <g>
    <path fill="#C94039" d="M697.44 468.55s-2.49 4.31-3.54 6.75c-.91 2.13-2.71 4.95-3.05 6.6-.73 3.56-.45 5.53 1.08 5.72 1.53.19 5.62-1.15 7.93-3.69 1.3-1.43 3.82-8.13 4.33-11.34.41-2.5-2.36-10.1-6.75-4.04z"/>
    <path fill="#992C29" d="M699.85 478.19c-1.33 6.44-9.45 9.25-7.92 9.43 1.53.19 5.62-1.15 7.93-3.69 1.3-1.43 5.38-10.27 5.9-13.48.4-2.51-1.5-4.68-2.05-5.21-.54-.52-8.1 6.97-3.86 12.95z"/>
    <path fill="#F5894E" d="M699.69 446.93l-1.35 18.95s-4.49 12.61-3.3 12.66c1.19.05 5.39-2.94 7.65-7.6 1.46-3.03 5.26-19.48 6.74-23.67 4.96-14.11-9.31-11.94-9.74-.34z"/>
    <path fill="#1D2538" d="M720.239 398.29c-3.01 1.47-15.95 4.3-17.22 13.01-1.57 10.72-3.36 36.02-3.36 36.02l9.55.34s6.18-14.09 7.95-23.06c1.26-6.38 1.78-11.51 1.78-11.51s13.02-9.66 14.13-13.19c1.1-3.53-9.82-3.08-12.83-1.61z"/>
    <path fill="#3E4C6F" d="M701.609 424.63l-.83 9.27-1.13 13.43 9.56.33-6.76-7.34-.84-15.69z"/>
  </g>
  <g>
    <path fill="#CE9436" d="M726.23 385.48c1.3-1.64-1.38-4.39-1.74-8-.6-6.12.03-14.24-1.59-20.1-1.12-4.07-1.08-4.58-3.77-6.5-1.78-1.27-8.68 1.07-15.67 1.35-7.06.29-7.53.72-10.16 8.31-2.5 7.21-.37 8.51 2.45 13.52 2.25 4 5.88 8.3 5.88 8.3s.82 4.91 7.1 6.15c8.22 1.64 13.99 1.4 17.5-3.03z"/>
    <path fill="#CC6D3D" d="M697.93 343.9l2.8 8.85s1.52 3.91 4.49 3.94c2.97.03 4.81-3.73 4.55-4.65-.26-.92-3.67-11.61-3.67-11.61l-8.17 3.47z"/>
    <path fill="#F7BC4B" d="M702.39 383.33c-3.66 1.85-12.82 10.37-18.49 13.72-12.32 8.87-10.11 10.38-10.11 10.38s4.22-3.9 9.22-2.74c2.75.64 9.02 5.69 17.27 1.86 6.06-2.81 15.79-4.14 15.79-4.14s9.3 1.71 11.03 2.14c5.31 1.32 8.48-2.28 8.48-2.28-2-5.47-8.91-21.56-13.73-23.38-4.84-1.81-15.8 2.59-19.46 4.44z"/>
    <path fill="#CE9436" d="M727.09 404.56c5.27 1.43 8.48-2.28 8.48-2.28-2.9-8.67-8.29-17.21-8.29-17.21l4.48 14.25-4.67 5.24z"/>
    <path fill="#F7BC4B" d="M705.64 372.34c-1.77.99-11.61-5.4-10.7-3.09.91 2.3 7.12 16.16 9.85 17.28 2.72 1.12 5.49-4.8 9.05-5.66 3.56-.86 9.75 1.67 9.56.15-.19-1.52-7.71-14.3-17.76-8.68z"/>
    <path fill="#CE9436" d="M701.27 402.52c-2.98 1.72-9.09 2.78-9.09 2.78s7.02-3.66 12.66-12.4c.01 0-.59 7.9-3.57 9.62z"/>
  </g>
  <g>
    <path fill="#CC6D3D" d="M731.07 364.08s4.07 7.28 5.62 12.69c1.55 5.41-2.34 7.92-4.78 7.81-2.44-.1-7.27-12.33-10.4-17.36-3.13-5.03 5.24-11.56 9.56-3.14z"/>
    <path fill="#C94039" d="M721.4 368.76s-7.83-13.28-1.95-17.18c5.87-3.91 10.98 9.13 12.26 12.89l-10.31 4.29z"/>
    <path fill="#CC6D3D" d="M741.721 403.63s-11.4-16.44-13.09-22.32c-1.69-5.88 5.36-6.79 7.93-4.5 2.56 2.28 8.63 18.99 9.91 23.15 1.28 4.16-2.18 5.71-4.75 3.67z"/>
    <path fill="#F5894E" d="M739.91 400.1s-8.78-12.67-10.08-17.19c-1.3-4.53 12.76 11.16 13.74 14.37.98 3.2-1.67 4.39-3.66 2.82z"/>
    <path fill="#CC6D3D" d="M741.4 401.33s-.54 4.05.2 6.7c.27 1.2 2.5 1.44 4.27 1.74 1.77.3 3.55.26 4.56.19 1-.07 2.43-1.2-.86-2-1.41-.34-4.35-1.68-4.35-1.68s-.44-2.84-1.08-4.27c-1.05-2.37-2.74-.68-2.74-.68z"/>
    <path fill="#CC6D3D" d="M746.33 406.89s5.34-.4 7.16-.16c1.93.26 5.55 1.28 6.24.29.67-.98-1.72-2.47-2.48-2.53-.74-.07-6.28-.36-6.28-.36s-10.55.58-4.64 2.76z"/>
    <path fill="#CC6D3D" d="M744.59 403.92s5.76-2.08 6.79-2.22c1.06-.14 8.31 4.79 6.03 4.78-2.15-.01-4.48-2.16-6.31-.99-1.81 1.15-7.09 1.95-6.51-1.57z"/>
    <path fill="#CC6D3D" d="M744.15 402.01s3.94-1.75 4.97-1.36c1.08.41 4.99 3.55 2.63 3.55-2.21.01-7.35 3.31-7.6-2.19z"/>
  </g>
  <g>
    <path fill="#273252" d="M687.48 342.99s3.96 6.6 10 3.9c6.04-2.71 7.53-18.08-1.43-17.78-8.96.3-11.92 9.37-8.57 13.88z"/>
    <path fill="#273252" d="M691.801 322.37c3.02-3.26 4.15-7.45 10.75-6.08 0 0 6.76-2.19 13.25 2.45 7.78 5.57 4.83 13.64 4.83 13.64s8.56 8.6-1.69 14.35c-4.94 2.77-13.99 0-17.96-1.27-8.85-2.82-12.2-19.83-9.18-23.09z"/>
    <path fill="#273252" d="M700.71 320.38c-3.34.84-15.27-.73-15.54-3.48-.27-2.75 9.91-5.75 11.42.03 0 0-2.41-5.62 1.03-7.17 3.45-1.56 6.43 9.78 3.09 10.62z"/>
    <path fill="#CC6D3D" d="M688.801 332.01c-1.42 12.97 6.84 16.07 15.78 14.92 6.72-.86 7.66-5.13 7.29-13.61-.37-8.48-3.7-14.8-10.46-15.27-8.93-.62-11.69 5.54-12.61 13.96z"/>
    <path fill="#F5894E" d="M691.621 339.06c1.56 4.57 5.1 7.9 11.24 7.16 4.93-.59 7.81-4.38 8.03-9.08.22-4.7-10.2-7.96-15.09-8.11-6.45-.19-5.74 5.45-4.18 10.03z"/>
    <path fill="#F7BC4B" d="M713.41 334.96l-5.7-.29s-.25-10.37-6.82-12.86c-6.9-2.62-10.05 1.8-10.05 1.8s3.29-8.87 13.49-5.15c8.11 2.95 9.08 16.5 9.08 16.5z"/>
    <path fill="#F5894E" d="M714.771 335.609c.686-2.595-.399-5.133-2.422-5.667-2.024-.535-4.22 1.135-4.906 3.73-.686 2.595.399 5.132 2.422 5.667 2.024.535 4.22-1.135 4.906-3.73z"/>
    <path stroke="#1D2538" stroke-linecap="round" stroke-linejoin="round" stroke-miterlimit="10" stroke-width=".25" d="M699.211 326.99s-1.74-1.15-2.86-1.14"/>
    <path fill="#273252" d="M697.785 330.392c.22-1.015-.044-1.934-.589-2.052-.545-.118-1.165.609-1.385 1.623-.22 1.015.043 1.934.588 2.052.545.118 1.166-.609 1.386-1.623zM691.352 329.555c.09-.935-.123-1.72-.475-1.754-.352-.033-.709.697-.799 1.632-.089.934.123 1.719.475 1.753.352.034.71-.697.799-1.631z"/>
    <path stroke="#1D2538" stroke-linecap="round" stroke-linejoin="round" stroke-miterlimit="10" stroke-width=".25" d="M692.131 325.19s-1.28-.09-1.91.52"/>
    <path fill="#273252" d="M713.72 338.57s-5.95-2.54-9.42 1.45c-3.47 3.99 2.11 14.02 8.89 10.38 6.78-3.62 5.09-10.35.53-11.83z"/>
    <g>
      <path fill="#EE5D4F" d="M704.91 320.48s-.27 4.45.85 7.52c.85 2.32 2 3.67 2 3.67l.28-.94 1.38.13s-2.72-3.12-3.52-10.16l-.99-.22z"/>
      <path fill="#EE5D4F" d="M704.97 319.99s-1.78 4.09-1.78 7.35c0 2.47.62 4.13.62 4.13l.58-.79 1.25.59s-1.48-3.86.17-10.76l-.84-.52z"/>
      <path fill="#EE5D4F" d="M704.78 322.85c.89.58 5.44-2.84 3.69-4.62-1.64-1.68-3.8-3.28-4.68-1.68-.89 1.59.09 5.72.99 6.3z"/>
      <path fill="#F7BC4B" d="M707.61 321.13s1.35-2.02.77-2.49c-.58-.47-.789.74-1.729 2.02-.93 1.3.369 1.31.959.47z"/>
      <path fill="#EE5D4F" d="M704.93 321.4s.64-.92 2.54-.6c1.91.31 3.2.72 3.52 1.88.32 1.16-1.33 3.45-2.71 4.08-1.39.63-3.28-2.59-3.58-3.59-.3-1 .23-1.77.23-1.77z"/>
      <path fill="#F7BC4B" d="M709.86 324.71s-1.28 1.87-2.26 1.45c-1.46-.62 2.12-3.08 2.64-3.51.51-.43.91 1.07-.38 2.06z"/>
    </g>
  </g>
  <g>
    <path fill="#1D2538" d="M271.71 776.34s-126.05 79.73-162.33 95.08c-37.54 15.88 33.93 17.28 33.93 17.28s-33.02 20.27-8.93 23.08c24.23 2.83 37.91 0 37.91 0s-56.75 23.14-12.41 44.34c46.33 22.15 314.56 98.7 476.55 55.57 149.63-39.85 152.85-53 206.27-49.97 53.75 3.05 26.97-21.22 8.12-28.41 0 0 68.07 4.79 48.89-24.03-37.82-56.83-66.46-74.37-66.46-74.37l-561.54-58.57z"/>
    <path fill="#3E4C6F" d="M534.08 997.79c1.48-3.48 25.64-25.28 13.79-27.37-11.85-2.09-29.05 10.86-29.05 10.86s-3.69-21.25-9.52-15.03c-5.84 6.22-9.33 16.92-9.33 16.92s-4.27-22.37-11.44-15.52c-7.17 6.85-10.13 13.81-10.13 13.81s-11.22-13.53-14.56-5.69c-3.34 7.84-7.05 16.54-7.05 16.54s-9.21-20.74-16.65-20.73c-7.44.01-11.83 15.31-11.83 15.31s-4.43-19.51-12.24-18.63c-7.81.88-11.68 12.45-11.68 12.45s-17.27-.71-20.4 9.11c-3.12 9.83 16.01-.01 57.72 8.05 32.97 6.38 92.37-.08 92.37-.08zM224.09 940.44s-25.89-19.22-19.19-20.13c6.83-.93 15.04 8.62 15.04 8.62s-.34-15.8 6.51-9.2c6.76 6.5 13.01 28.86 13.01 28.86s-7.38-30.58 2.3-20.03c9.43 10.28 12.83 22.82 12.83 22.82s28.6-38.46 41.83-23.25c12.76 14.67 3.81 23.54 3.81 23.54s9.32-22.05 17.81-8.63c8.17 12.91-29.96 35.16-93.95-2.6zM583.62 1008.62s-39.7 6.94-36.01-2.43c3.68-9.37 19.44-5.88 19.44-5.88s-10.9-25.02-2-22.43c8.9 2.6 10.32 5.86 10.32 5.86s1.93-16.37 8.04-11.27l6.11 5.11s8.74-24.52 10.35-14.87l1.62 9.65s15.32-18.32 16.37 1.93c1.05 20.25 10.09 20.2-34.24 34.33z"/>
    <path fill="#3E4C6F" d="M627.55 965.26s11.87-20.18 13.05-14.24c1.19 5.93-3.56 21.36-3.56 21.36s20.18-24.92 24.92-14.24c4.75 10.68-8.31 20.18-8.31 20.18s33.23-20.18 32.04-11.87c-1.19 8.31-40.35 33.23-61.71 26.11-21.35-7.12 3.57-27.3 3.57-27.3zM731.84 942.24s-13.02-18.1-19.45-7.25c-6.43 10.85 5.88 12.19 5.88 12.19s-19.97-3.53-13.14 7.27c6.83 10.8 11.72 11.1 11.72 11.1s-19.84 3.68-9.93 11.5c9.9 7.82 55.36-13.9 69.58-15.34 14.22-1.43 11.7-21.49 1.42-18.37l-10.29 3.12s7.98-22-3.68-19.84l-11.67 2.17s-14.41-19.05-20.44 13.45z"/>
  </g>
  <g>
    <path fill="#33A86D" d="M640.61 836.61s-28.8 40.43-20.09 48.99c8.85 8.7 55.01-6.22 55.01-6.22s12.02 16.55 31.94 16.72c19.93.18 45.76-26.19 45.76-26.19s42.34 22.29 53.27 18.79c10.86-3.48 29.41-34.17 29.41-34.17s38.87 10.97 45.86 5.08c6.91-5.82-67.36-79.83-67.36-79.83l-27.18-29.36-146.62 86.19z"/>
    <path fill="#4B3355" d="M740.4 823.83c-.03 2.19-6.97 139.8-6.97 139.8l39.74-14.01-13.79-132.31-18.98 6.52z"/>
    <path fill="#34283A" d="M740.3 825.62c-.03 2.19-4.02 70.04-4.02 70.04l17.86-28.77 9.76-8.7-2.64-32.97-20.96.4z"/>
    <path fill="#288453" d="M681.85 765.18l-36.91 57.14s-22.74 32.55-18.26 39.71c4.55 7.26 59.54-34.36 59.54-34.36s15.45 31.93 28.13 32.25c12.69.32 35.68-28.31 35.68-28.31s40.09 21.21 52.38 18.8c12.24-2.4 23.89-38.2 23.89-38.2s18.96 17.04 27.7 8.96c8.6-7.95-47.37-62.88-57.71-77.9l-9.9-14.38-104.54 36.29z"/>
    <path fill="#33A86D" d="M693.12 704.78l-.17 2.56c-3.36 8.64-38.53 69.39-38.53 69.39s-.8 18.98 9.61 18.44c10.39-.54 36.12-19.66 36.12-19.66s22.44 30.07 39.81 26.49c17.25-3.55 25.4-33.85 25.4-33.85s27.06 14.99 36.76 8.31c9.57-6.58 2.12-17.49 2.12-17.49s18.7 6.61 13.82-.76c-4.81-7.26-57.04-78.24-57.04-78.24s-24.96-33.24-39.31-16.56c-14.94 17.36-30.9 41.37-30.9 41.37"/>
    <path fill="#288453" d="M692.97 687.36l-.16 2.09c-3.24 7.05-39.78 70.24-39.78 70.24s6.27 9.01 12.57 8.55c6.3-.46 34.11-23.3 34.11-23.3s26.31 24.72 38.14 21.48c11.73-3.22 20.42-27.32 20.42-27.32s33.52 11.76 37.91 9.89c4.38-1.86 1.73-12.01 1.73-12.01s20.44 6.88 15.97.95c-4.4-5.84-55.5-70.84-55.5-70.84s-23.98-27.24-37.84-13.56c-14.41 14.22-29.79 33.84-29.79 33.84"/>
    <path fill="#FFFCF3" d="M729.12 625.04s-31.74 45.36-51.82 80.41c0 0 9.23 11.65 15.63 9.1 6.37-2.54 23.12-27.26 23.12-27.26s9.94 18.59 22.82 21.16c12.96 2.58 26.18-14.63 26.18-14.63s24.56 13.81 23.38 6.61c-1.15-7.09-57.19-71.32-59.31-75.39z"/>
    <path fill="#34283A" d="M756.83 874.27l-1.18 22.02 1.96 26.92-.65 25.7 7.2-23.86-3.93-22.03 2.09-45.36-8.12-6.59 2.63 23.2zM749.13 922.01l-2.11 12.13 5.279 11.08v-13.19l-1.059-17.93-2.11 7.91z"/>
  </g>
  <g>
    <path fill="#33A86D" d="M525.75 759.51s100.22 152.35 76.48 160.66c-23.74 8.31-74.69-20.23-74.69-20.23s-13.83 29.51-39.79 33.57c-25.96 4.06-42.18-24.42-42.18-24.42s-63.69 9.89-76.75-1.58c-13.05-11.47 28.48-64.48 28.48-64.48l79.29-91.35 49.16 7.83z"/>
    <path fill="#4B3355" d="M472.55 862L467 1006l29-2-8.64-144-14.81 2z"/>
    <path fill="#34283A" d="M471.68 856.87l-2.37 65.4 6.43-4.48 15.06-1.19-1.81-62.14-17.31 2.41z"/>
    <path fill="#288453" d="M521 752.98s94.95 118.75 74.11 126.67c-20.84 7.91-72.32-18.04-72.32-18.04s-20.95 23.9-39.79 25.97c-18.84 2.07-42.18-18.89-42.18-18.89s-51.43 24.24-68.04 4.75c-16.62-19.49 75.16-131.3 75.16-131.3L521 752.98z"/>
    <path fill="#FFFCF3" d="M437.3 746.58s39.21-51.03 54.6-86.91c0 0 21.72 49.21 30.7 63.89s26.62 36.85 20.26 40.16c-6.36 3.31-26.07-14.96-26.07-14.96s-13.87 12.5-22.81 14.45c-8.94 1.95-16.62-5.15-16.62-5.15s-20.4 11.12-28.83 9.83c-8.43-1.29-11.23-21.31-11.23-21.31z"/>
    <path fill="#34283A" d="M481.7 910.93l-3.16 25.06 1.32 15.3-.27 17.93 3.17-16.62-.79-15.82 4.74-26.37-5.01.52zM474.849 924.12l-1.59 40.09 1.59 11.08-3.7-13.98.53-22.42 3.17-14.77zM484.34 970.8l3.17 16.35 2.11 14.51-.27-16.62-3.43-12.92-.52-12.39-1.06 11.07z"/>
  </g>
  <g>
    <path fill="#288453" d="M217.58 766.02c-15.65 22.15-83.95 51.59-100.89 68.92-16.97 17.37-20.16 29.24-3.1 38.01 17.2 8.83 47.94-13.48 47.94-13.48s-4.76 28.16 13.88 37.59c39.25 19.85 66.11-3.24 66.11-3.24s-6 26.75 12.01 30.46c18.13 3.73 39.04-13.13 39.04-13.13s27.86 41.02 46.07 40.96c18.3-.06 21.02-23.8 21.02-23.8s24.49 24.35 46.37 24.29c22.02-.07 23.57-45.26 23.57-45.26s35.49 36.21 41.03 12.79c5.5-23.26-33.44-71.9-75.41-157.98-39.29-80.58-147.4-38.91-177.64 3.87z"/>
    <path fill="#665070" d="M308.96 792.79l12.79 173.33-48.38 8.88 17.78-192.16 17.81 9.95z"/>
    <path fill="#4B3355" d="M309.39 787.12l8.34 123.59-28.09-28.87-8.44 5.17 11.45-107.11 16.74 7.22z"/>
    <path fill="#33A86D" d="M195.35 773.46s-99.31 72.63-85.23 78.65c14.17 6.06 68.74-27.15 68.74-27.15s-1.83 48.18 28 53.33c30.14 5.2 53.88-28.25 53.88-28.25l27.93-4.29s30.43 61.35 42.69 61.2c19.98-.24 11.65-32.53 11.65-32.53s33.23 40.23 57.13 39.95c24.05-.28 16.46-42.42 16.46-42.42s26.94 33.17 46.1 32.51c19.26-.67-31.46-82.87-72.64-159.21-36.81-68.23-120.99-28.17-194.71 28.21z"/>
    <path fill="#288453" d="M265.25 674.56s-123.34 86.66-120.11 98.12c2.89 10.26 10.63 6.07 26.21 4.85 15.64-1.23 34.75-12.16 34.75-12.16s3.17 15.94 16.19 18.82c7.63 1.69 34.46-12.22 34.46-12.22s4.09 15.96 24.05 21.69c14.31 4.1 44.72-18.3 44.72-18.3s5.64 37.18 24.39 36.86c18.85-.33 41.59-58.4 41.59-58.4l38.05 30.75s-41.51-111.09-64.21-158.12c-22.15-45.89-100.09 48.11-100.09 48.11z"/>
    <path fill="#288453" d="M371.73 737s-8.75 53.05 7.7 62.09c16.58 9.11 11.74-20.98 11.74-20.98s24.09 28.82 30.08 20.82c5.98-7.99-6.92-24.73-6.92-24.73s21.69 21.7 11.17-3.93c-10.54-25.68-13.32-28.36-13.32-28.36L371.73 737z"/>
    <path fill="#33A86D" d="M257.02 676.3c-24.21 22.73-95.65 69.3-92.62 80.23 3.05 10.99 52.09-30.27 52.09-30.27s-19.97 36-6.97 35.72c13-.28 41.94-13.2 41.94-13.2s10.31 28.57 28.57 27.49c18.24-1.08 49.77-27.57 49.77-27.57s15.59 29.36 32.59 27.06c16.96-2.3 26.37-35.47 26.37-35.47s42.13 53.25 36.45 29.18c-4.52-19.17-76.86-180.05-76.86-180.05s-67.43 64.44-91.33 86.88z"/>
    <path fill="#F3E7D9" d="M347.59 574.25L240.38 674.9s6.17 4.02 17.97 3.94c11.84-.09 24.24-15.8 24.24-15.8s-6.94 17.84 6.12 19.67c13.11 1.84 26.05-21.77 26.05-21.77s19.3 29.81 35.49 28.42c16.25-1.4 12.28-21.04 12.28-21.04 16.55 19.16 47.44 57.59 46.94 40.88-.5-16.61-42.22-91.14-61.88-134.95z"/>
    <path fill="#33A86D" d="M248.94 827.41s-4.48 31.15 11.9 37.16c10.09 3.7 18.36-12.31 29.82-27.2 5-6.5 2.58-19.41-5.13-18.96l-36.59 9z"/>
    <path fill="#4B3355" d="M307.88 896.88l6.11 17.21.38 20.34 3.51 26.07-7.56-18.07-.51-23.98-5.49-22.69 3.56 1.12zM310.27 954.19l-4.72 1.95 1.03 10.71-4.82-8.83.21-38.06 8.3 34.23zM296.16 877.44l6.99 7.12-6.33 53.01-4.27-18.04 3.61-42.09z"/>
  </g>
  <g>
    <path fill="#288453" d="M504.67 827.77c88.83-132.23 105.02-128.72 105.02-128.72s153.5 192.34 136.46 202.68c-29.54 17.92-76.32-20.08-76.32-20.08s15.19 36.92-2.72 40.9c-18.03 4-63.3-9.49-63.3-9.49s-16.69 26.64-39.56 31.65c-23.07 5.05-47.16-60.35-47.16-60.35s-32.14 34.75-62.03 15.26c-9.2-8.6 27.8-39.39 49.61-71.85z"/>
    <path fill="#665070" d="M598.21 826.49L596 1002l39.46-8.78-24.48-179.93-12.77 13.2z"/>
    <path fill="#4B3355" d="M614.64 908.22l3.41 22.93-1.87 22.28-.14 21.17-2.44-16.04 1.89-29.28-.85-21.06zM603.74 872.3l5.46 24.7-2.31 34.82-4.33 51.93-.8-24.02 1.42-32.2 2.43-31.88-1.87-23.35zM611.07 943.9l-1.95 39.85-6.92 14.23 3.8-22 5.07-32.08z"/>
    <path fill="#4B3355" d="M596.82 849.43l-.01 37.78 16.7 3.63 10.87 20.06-11.28-74.67-16.28 13.2z"/>
    <path fill="#33A86D" d="M521.489 775.01c67.98-108.84 83.86-88.77 83.86-88.77s92.69 121.24 108.46 145.5c18.49 28.43 26.15 31.68 14.06 38.65-12.24 7.06-67.23-24.62-67.23-24.62s-10.07 21.33-31.5 25.44c-21.59 4.15-36.86-14.68-36.86-14.68s-30.43 28.05-49.52 25.94c-19.02-2.1-18.05-31.27-18.05-31.27s-49.98 23.32-66.77 24.15c-16.82.84 46.98-73.81 63.55-100.34z"/>
    <path fill="#288453" d="M559.52 720.81l-58.17 81s9.23 13.86 26.28 14.55c17.07.7 31.82-13.44 31.82-13.44s24.49 26.01 36.48 25.94c11.99-.07 25.4-24.41 25.4-24.41s26.49 19.79 36.78 18.06c10.26-1.72 14.47-24.98 14.47-24.98s18.57 8.17 21.23.71c2.63-7.37-54.14-74.69-63.6-96.85-8.45-19.82-49.58-1.51-70.69 19.42z"/>
    <path fill="#33A86D" d="M566.259 705.29c-21.74 31.09-62.82 72.04-57.39 79.58 5.51 7.65 12.86-.72 24.92-1.19 12.05-.47 28.4-25.1 28.4-25.1s21.35 31.9 35.54 32.16c14.2.26 24.67-32.23 24.67-32.23s26.91 30.19 36.06 26.86c9.09-3.3 7.69-24.11 7.69-24.11s10.88 11.84 17.17 9.37c6.26-2.47-55.06-79.91-55.06-79.91s-41.6-14.61-62 14.57z"/>
    <g>
      <path fill="#F3E7D9" d="M601.38 649.81l-57.74 82.03 27.54-8.13s7.04 18.41 13.43 18.41c6.4 0 29.42-15.98 29.42-15.98s10.86 16.3 18.65 15.45c7.77-.85 13.34-15.59 13.34-15.59s23.87 13.78 15.49 3.36c-46.4-57.7-60.13-79.55-60.13-79.55z"/>
    </g>
  </g>
  <g>
    <path fill="#856792" d="M897.35 966.33s-41.62-34.87-122.62-15.75c-81 19.12-141.75 57.37-241.87 49.5-100.12-7.87-204.75-25.87-273.37-51.75-68.62-25.87-137.25-21.37-166.5-12.37-29.25 9-1.09 6.37 26.61 11.11 27.7 4.74 69.02 22.64 84.77 30.51 0 0-47.71-10.81-47.25-5.62.46 5.18 150.38 78.94 240.75 82.72 113.38 4.75 212.01-13.64 322.26-53.01 84.57-30.22 154.72-40.97 177.22-35.34z"/>
  </g>
</svg>
