<svg xmlns="http://www.w3.org/2000/svg" width="840" height="912" fill="none" viewBox="0 0 840 912">
  <path fill="#F3E7D9" d="M361.009 342.494s-242.36 46.69-298.27 66.25c-55.91 19.56-78.81 39.57-50.74-2.35s49.57-68.94 72.16-62.74c0 0-7.59-51.64 16.57-69.39s141.82-5.3 141.82-5.3 25.78-121.33 47.47-142.42c21.69-21.09 109.19-4.75 109.19-4.75s-20.16-56.98 1.14-87.63 56.46-38.65 99.1-31.97c42.64 6.68 141.34 34.24 123.66 177.51 0 0 19.97-37.58 61.28-35.53 41.31 2.05 62.36 69.07 47.09 106.21 0 0 57.24-14.93 66.21 6.83 8.96 21.76-137.39 49.86-159.59 55.53-15 3.83 5.33-17.16 5.33-17.16l-282.42 46.91z"/>
  <path fill="#33A86D" d="M362.03 748.443c4.75 0 132.919-22.15 196.219-22.15 63.3 0 109.19 9.49 109.19 9.49l-69.63 31.65s96.46 36.22 139.25 49.05c47.47 14.24 97.32 22.95 102.07 34.81 4.75 11.87-22.95 17.41-70.42 30.07s-58.55 23.74-131.34 25.32c-72.79 1.58-145.58 1.98-198.99 4.35-39.55 1.76-133.71-8.31-149.54-13.05-15.82-4.75 1.19-23.74 10.68-23.74s-153.1-14.24-192.26-32.04c-34.87-15.85 2.37-33.23 58.15-36.79-80.26 5.12-55.389-28.01 196.621-56.97z"/>
  <path fill="#33A86D" d="M89.85 815.694c-1.58-6.33-24.53-51.431-7.91-36.401 16.62 15.03 12.66 32.44 12.66 32.44s2.37-37.98 11.079-22.95c8.7 15.03 15.03 26.901 15.03 26.901s-12.66 30.069-29.27 3.959"/>
  <path fill="#288453" d="M227.829 832.603s30.15 13.15 62.2 20.27c32.04 7.12 67.65 24.92 135.3 23.74 67.65-1.18 60.66-27.43 60.66-27.43s128.84 25.85 177.49 9.23c48.66-16.62-89.8-87.43-176.44-106.42l-86.64-18.99-172.57 99.6z"/>
  <path fill="#EE5D4F" d="M500.679 747.873s-7.39-1.48-18.48 1.48-9.61 11.83-8.87 14.05c.74 2.22 10.35 6.65 31.79 5.18 21.44-1.47 21.99-2.79 34.01-2.22 13.08.62 7.39-20.7 3.7-27.36-3.7-6.65-42.15 8.87-42.15 8.87z"/>
  <path fill="#121721" d="M502.218 737.563s-6.3-1.62-17.39 1.34-12.25 17.37-11.51 19.59c.74 2.22 10.35 6.65 31.79 5.18 21.44-1.47 25.49-.44 37.39-2.22 6.56-.98 4.01-20.7.31-27.36-3.7-6.66-40.59 3.47-40.59 3.47zM558.949 544.103s-28.05-3.949-43.63-6.669c-15.58-2.72-41.29-9.301-45.19 3.229-3.9 12.53-1.56 38.28 23.37 43.11 24.93 4.83 82.55 20.381 96.61 12.291 14.06-8.09 27.28-39.591-31.16-51.961z"/>
  <path fill="#121721" d="M478.029 556.134s-9.04 1.06-8.46 15.51c.58 14.45 12.41 48.35 11.62 56.23-.79 7.88 7.1 53.61 9.46 71.74 2.37 18.13.79 34.69 4.73 42.57 3.94 7.88-3.94 6.31 14.19 6.31s29.17-2.37 32.32-4.73c3.15-2.37.79-22.07.79-22.07s-3.94-9.46-3.94-11.04c0-1.58 2.37-47.3 0-59.13-2.37-11.83-6.31-74.9-20.5-89.09-14.2-14.19-40.21-6.3-40.21-6.3z"/>
  <path fill="#7A462F" d="M117.939 585.384l-5.93 145.65-3.18 95.9 40 11 72 13 7-12s42 2 49 2 44.58-22.34 44.58-22.34l-1.58-15.83 42.73 6.86 47.34-28.75-19.78-217.85-121.45-11.6-150.73 33.96z"/>
  <path fill="#D77D5B" d="M266.559 543.514l-92.84 9.5-55.78 32.37 93.16 28.65 15.73-5.14 37.09-3.14 119.47-22.94 6.66-19.65-123.49-19.65z"/>
  <path fill="#B44C29" d="M263.039 551.954l-66.87 9.45-40.18 20.99 67.11 18.57 11.33-3.33 26.71-5.33 86.06-14.87 4.8-12.74-88.96-12.74z"/>
  <path fill="#A96443" d="M220.829 850.934l-3.59-134.41-5.94-52.74-.13-49.72 15.76-5.08 9.69 47.28 6.89 77.92 9.33 105.51-25.01-.76-7 12zM320.229 802.964l42.59 6.66-14.9-129.1-6.459-13.32-11.34-71.86 3.949 122.5 5.801 72.92-19.641 12.2zM270.779 836.134l3.23-28.49-2.7-22.55 2.16-34.41 4.32 34.41 4.85 17.81-1.08 26.11-10.78 7.12zM263.519 606.154l-3.56 63.16 11.08 45.1 15.43 28.49-18.99-75.56 16.48-65.28-20.44 4.09zM158.689 833.894l-25.32-6.33 20.57-54.2 12.66-11.08-6.33-30.06 15.43-14.25 4.35-55.78 2.37 40.36-.39 20.96-11.87 10.29 8.31 39.56-8.71 14.24-11.07 46.29zM196.269 702.154l5.93 36.79-8.3 29.67 4.74 30.86 2.38-33.23 5.93-32.05-10.68-32.04zM151.569 596.134l13.45 4.74v23.74l-6.33 43.91 3.95 26.11-3.95 10.29-9.5-37.98 4.75-43.91-2.37-26.9z"/>
  <path fill="#288453" d="M239.649 835.484s10.35-15.93 11.34-8.21c.99 7.72-.99 9.65-.99 9.65s13.8-20.76 11.83-11.58c-1.97 9.17-2.46 11.58-2.46 11.58s4.44-9.65 7.89-8.21c3.45 1.44.49 6.28.49 6.28s25.14-21.24 25.14-15.93v5.31s7.89-11.58 8.87-7.24c.99 4.34-2.46 8.21-2.46 8.21s16.76-20.76 17.74-15.93c.99 4.83-2.96 5.31-2.96 5.31s11.83-12.07 7.39-2.41c-4.44 9.65-18.24 28.48-47.81 28.96-29.57.49-34.01-5.79-34.01-5.79zM360.579 805.934s.13-8.84 3.03-9.23c2.9-.4 1.19 2.37 1.19 2.37s3.03-13.19 5.54-10.95c2.51 2.24.4 6.73.4 6.73s1.19-5.01 2.51-4.62c1.32.4 1.19 2.51 1.19 2.51s3.43-12.13 6.59-10.68c3.16 1.45-.66 5.8-.66 5.8s1.85-5.27 5.01-3.43c3.16 1.85.53 9.89.53 9.89s3.96-16.62 8.44-16.35c4.48.26-1.98 12.13-1.98 12.13l-31.79 15.83z"/>
  <path fill="#7A462F" d="M57.95 738.734s23.87 17.78 28.7 89.57l2.35-1.84s-.36-58.23-26.86-89.35l-4.19 1.62z"/>
  <path fill="#F5894E" d="M79.159 720.714c-1.59-5.59-6.73-6.99-19.23 2.29-12.5 9.28-27.6 21.33-28.06 31.31-.45 9.97 12.33 4.58 25.75-6.13 13.44-10.71 23.13-21.87 21.54-27.47z"/>
  <path fill="#F7BC4B" d="M78.239 719.544c-1.59-5.59-6.73-6.99-19.23 2.29-12.5 9.28-27.6 21.33-28.06 31.31-.45 9.97 12.33 4.58 25.75-6.13s23.13-21.88 21.54-27.47z"/>
  <path fill="#EE5D4F" d="M60.789 732.364c-.41-1.45-1.74-1.81-4.97.59-3.23 2.4-7.13 5.51-7.25 8.09-.12 2.58 3.18 1.18 6.65-1.58 3.48-2.77 5.98-5.65 5.57-7.1z"/>
  <path fill="#288453" d="M70.46 753.804s-5.77-13.72 8.22-15.21c14-1.49 23.499 12.16 23.499 12.16s-16.83 5.13-22.36 4.72c-5.52-.41-9.36-1.67-9.36-1.67zM71.489 756.314s-11.78 7.33-10.21 18.42c1.57 11.08 3.93 11.37 3.93 11.37s10.27-18.94 6.28-29.79z"/>
  <path fill="#33A86D" d="M152.089 834.414s-6.33-24.53 3.16-39.56c9.49-15.03 11.87 27.69 7.91 35.6 0 0 9.49-34.02 20.57-23.74 11.08 10.29-3.16 28.48-3.16 28.48s8.7-17.41 14.24-8.7c5.54 8.7.79 26.11-16.62 18.2-17.39-7.9-26.1-10.28-26.1-10.28zM146.029 835.474s-4.75-43.521-11.87-31.651c-7.12 11.87 7.91 38.771 11.87 31.651zM199.829 823.604s12.66 5.539 9.49-6.331c-3.16-11.87-18.19.001-9.49 6.331zM110.949 795.384c-7.38.26-8.82 35.88 3.24 35.88s4.15-36.14-3.24-35.88z"/>
  <path fill="#33A86D" d="M126.639 830.853s-15.03-27.69-.79-19.78c14.24 7.91 13.45 33.23.79 19.78z"/>
  <path fill="#288453" d="M100.139 779.034s5.54 14.24 13.45 7.91c7.91-6.33 0-18.2-6.33-15.03-6.33 3.16-7.12 7.12-7.12 7.12zM105.679 749.754s9.49 9.49 15.03 0c5.54-9.49-3.16-12.66-10.29-9.49-7.12 3.16-4.74 9.49-4.74 9.49zM126.248 773.494c6.33-6.33-.79-15.03-8.7-11.87-7.92 3.17 2.37 18.2 8.7 11.87z"/>
  <path fill="#288453" d="M124.668 773.494s-1.58 7.91 4.75 5.54c6.32-2.38 3.16-9.5-4.75-5.54zM115.699 788.263c.26 9.23 8.18 7.91 8.97.53.79-7.39-9.24-9.76-8.97-.53z"/>
  <g>
    <path fill="#288453" d="M98.819 696.084c1.58 5.54 12.13 9.23 9.23-2.11-2.9-11.34-10.81-3.42-9.23 2.11zM116.229 681.313c-7.91 0-12.92 11.87 2.9 8.97 15.82-2.9 5.01-8.97-2.9-8.97zM119.389 637.014c-6.07-1.85-18.73 6.07-8.7 8.18 10.02 2.1 14.77-6.34 8.7-8.18zM107.789 651.253c-5.01-.53-12.13 7.91 0 7.65 12.13-.26 5.01-7.12 0-7.65zM107.258 665.233c-3.96 4.75-.26 16.62 6.86 8.44 7.12-8.18-2.91-13.19-6.86-8.44z"/>
  </g>
  <g>
    <path fill="#7A462F" d="M40.799 785.893s9.23 26.641 41.67 31.911l-.79-3.69s-29.01-7.91-37.45-29.27l-3.43 1.049z"/>
    <path fill="#F5894E" d="M42.765 791.441c10.407-6.009 16.96-14.145 14.634-18.172-2.325-4.027-12.647-2.421-23.054 3.588-10.407 6.009-16.96 14.145-14.634 18.172 2.325 4.027 12.647 2.421 23.054-3.588z"/>
    <path fill="#F7BC4B" d="M42.496 789.334c10.407-6.009 16.959-14.145 14.634-18.172-2.325-4.027-12.647-2.42-23.054 3.589-10.408 6.008-16.96 14.144-14.634 18.171 2.325 4.027 12.646 2.421 23.054-3.588z"/>
    <path fill="#EE5D4F" d="M39.79 784.649c3.721-2.148 6.064-5.057 5.233-6.497-.831-1.439-4.522-.865-8.243 1.284-3.72 2.148-6.063 5.057-5.232 6.496.831 1.44 4.521.865 8.242-1.283z"/>
    <path fill="#288453" d="M50.029 797.494s-10.29-1.05-11.34 8.7c-1.05 9.76 6.59 11.08 6.59 11.08s20.57-11.08 4.75-19.78zM60.839 803.564s1.58-6.86 7.12-4.75c5.54 2.11 3.69 5.269 3.69 5.269s-6.85 5.011-10.81-.519z"/>
  </g>
  <path fill="#33A86D" d="M90.38 817.264s-6.18-18.98-12.92-18.98-3.37 25.72-3.37 25.72-3.46-.24-16.94 1.45-13.12 9.51-10.59 12.04c2.53 2.53-5.9-3.37-26.12-.84-20.23 2.53 2.53 11.8 31.18 10.96 28.65-.84 4.49-9.55 4.49-9.55s40.25-1.16 49.829-7.59c4.4-2.97-8.93-9.76-15.56-13.21z"/>
  <g>
    <path fill="#33A86D" d="M113.269 721.874s11.79-9.72 15.6-.34c3.81 9.38-8.88 15.88-12.86 10.03-3.98-5.85-2.74-9.69-2.74-9.69zM108.959 760.014s12.92-3.65 13.12 7.34c.2 10.99-8.94 9.5-13.61 3.26-4.68-6.23.49-10.6.49-10.6zM133.349 704.244c2.43 8.61-8.03 12.73-13.39 6.11-5.36-6.62 10.96-14.72 13.39-6.11zM130.789 750.154s2.48-7.68 6.85-2.52c4.36 5.17-1.88 9.84-6.85 2.52z"/>
    <path fill="#33A86D" d="M127.399 731.304c4.74-7.93 11-2.91 8.08 3.92s-12.81 4.01-8.08-3.92z"/>
  </g>
  <g>
    <path fill="#33A86D" d="M345.889 755.104s11.79-9.72 15.6-.34c3.81 9.38-8.88 15.88-12.86 10.03-3.98-5.85-2.74-9.69-2.74-9.69zM341.569 793.244s12.92-3.65 13.12 7.34c.2 10.99-8.94 9.5-13.61 3.26-4.67-6.23.49-10.6.49-10.6zM365.969 737.474c2.43 8.61-8.03 12.73-13.39 6.11-5.36-6.62 10.96-14.72 13.39-6.11zM363.398 783.384s2.48-7.68 6.85-2.52c4.36 5.17-1.87 9.84-6.85 2.52z"/>
    <path fill="#33A86D" d="M360.019 764.534c4.74-7.93 11-2.91 8.08 3.92-2.91 6.83-12.82 4.01-8.08-3.92z"/>
  </g>
  <g>
    <path stroke="#34283A" stroke-miterlimit="10" stroke-width="8" d="M306.639 505.804c0 17.41 14.77 30.59 30.59 37.98"/>
    <path stroke="#4B3355" stroke-miterlimit="10" stroke-width="5" d="M351.059 527.024l-38.19-17 39.14 38.13-47.16-15.46 36.31 22.16-51.4-19.58"/>
    <path fill="#34283A" d="M458.079 583.924c.4 10.1 1.54 14.27-7.96 19.89-9.49 5.61-21.34 2.84-26.46-6.19-5.12-9.03-1.58-20.9 7.91-26.51 9.5-5.62 26.11 2.7 26.51 12.81zM452.309 774.054s-5.3 4.98 1.03 7.37c5.88 2.22 17.33 11 32.66 16.87 12.43 4.76 13.5 5.45 15.94 3.24 2.32-2.1-.37-8.65-9.62-15.04-10.82-7.48-18.12-14.56-22-15.13-4.1-.61-18.01 2.69-18.01 2.69z"/>
    <path fill="#34283A" d="M323.789 534.024c-4.48 3.96-3.96 2.11-11.08 8.44-10.9 9.69 41.67 32.44 57.49 40.35 15.82 7.91 34.29 12.13 44.31 10.02 10.02-2.11 10.02-17.93 28.48-17.41 18.46.52-25.05-36.92-46.15-45.36-21.1-8.44-57.49-20.04-61.19-20.04-3.69 0-7.38 20.04-11.86 24z"/>
    <path fill="#4B3355" d="M434.27 760.514s17.66 4.19 20.41 3.95c2.74-.23 7.99-9.03 7.99-9.03s3.28-85.05 6.68-106.82c3.26-20.85 1.51-51.63 1.2-54.3-.31-2.66-8.68-6.32-21.32-9.49-12.28-3.08-12.53 20.47-18.1 19.97-5.58-.5-7.98-1.85-10.46 5.26-2.52 7.22 3.86 21.47 6.53 56.19 3.05 39.88 7.07 94.27 7.07 94.27z"/>
  </g>
  <g>
    <path stroke="#4B3355" stroke-miterlimit="10" stroke-width="3" d="M376.409 474.504s8.32-5.1 4.02-22.05c-4.31-16.95-9.92-25.18-9.92-25.18"/>
    <path stroke="#34283A" stroke-miterlimit="10" stroke-width="3" d="M357.398 438.084s5.99 16.99 7.01 21.4c1.03 4.4 4.09 22.65 4.09 22.65"/>
    <path stroke="#665070" stroke-miterlimit="10" stroke-width="5" d="M361.689 429.574s20.24 22.39-2.34 48.75"/>
    <path stroke="#34283A" stroke-miterlimit="10" stroke-width="3" d="M366.619 443.354s-10.61 3.18-11.24 15.24c-.63 12.05 12.65 19.55 17.27 17.15"/>
    <path stroke="#4B3355" stroke-miterlimit="10" stroke-width="3" d="M372.709 473.354s17.64-26.22-12.53-38.25"/>
    <path stroke="#34283A" stroke-miterlimit="10" stroke-width="3" d="M355.129 470.524s8.46-7.21 17.91-3.79 9.09 11.24 9.09 11.24"/>
    <g>
      <path fill="#34283A" d="M360.619 474.703c7.77 0 14.07-8.018 14.07-17.909 0-9.892-6.3-17.91-14.07-17.91-7.771 0-14.07 8.018-14.07 17.91 0 9.891 6.299 17.909 14.07 17.909z"/>
      <path fill="#34283A" d="M356.968 475.434c6.965 0 12.61-8.019 12.61-17.911 0-9.891-5.645-17.909-12.61-17.909-6.964 0-12.61 8.018-12.61 17.909 0 9.892 5.646 17.911 12.61 17.911z"/>
      <path fill="#856792" d="M356.748 462.634c1.458 0 2.64-2.4 2.64-5.36 0-2.961-1.182-5.36-2.64-5.36-1.458 0-2.64 2.399-2.64 5.36 0 2.96 1.182 5.36 2.64 5.36z"/>
    </g>
    <g>
      <path fill="#665070" d="M415.728 538.034c-4.98.43 5.93 20.81 11.22 24.12 5.3 3.31 10.73.649 5.98-6.881-4.74-7.54-12.23-17.669-17.2-17.239zM454.149 568.863c-1.6 2.64-4.97.47-10.86-4.45-5.89-4.93-22.74-26.04-18.46-29.33 4.28-3.29 20.05 17.641 22.56 20.351 2.5 2.7 8.35 10.779 6.76 13.429zM443.479 521.174c1.5-4.12 15.17 8.41 17.8 11.41 2.63 3 6.47 10.62 4.98 14.32-1.48 3.7-6.24-3.54-14.15-11.71-7.92-8.16-10.13-9.9-8.63-14.02z"/>
      <path fill="#665070" d="M439.058 529.344c-2.71 5.66 18.85 25.77 23.52 27.04 4.67 1.27 7.86-4.01.43-10.9-7.43-6.89-21.25-21.8-23.95-16.14z"/>
      <path fill="#665070" d="M433.838 539.454s12.31 16.07 21.69 24.46c6.58 5.89 8.46-4.73-2.63-17.15-11.08-12.41-21.5-14.62-19.06-7.31z"/>
    </g>
    <path fill="#493253" d="M445.179 548.894s-5.61-4.52-8.9-2.06c-3.29 2.46 4.37 7.67-3.43 7.53-7.8-.15-30.24-18.24-48.98-30.72s-44.46-26.75-40.9-29.76c3.56-3.01 11.64-2.04 12.33-9.57.69-7.53-6.97-14.11-.8-20.26 6.17-6.15 24.65-4.08 40.38 4.84 15.73 8.92 58.95 48.4 63.05 56.62 4.1 8.22.67 15.75-2.49 19.99-3.16 4.24-7.66 4.35-10.26 3.39z"/>
    <path fill="#4B3355" d="M353.459 444.474s2.8-2.97 9.83-3.71c7.03-.75 9.77-.15 11.19-11.86 1.42-11.71-.84-49.71-5.88-67.85-5.04-18.14-15.5-37.03-23.55-37.51-8.05-.48-2.48 18.49-5.69 25.95-3.21 7.46-11.32-1.91-10.93 18.5.39 20.41 2.16 74.92 7.5 87.24 2.95 6.8 6.7 8.63 10.42 6.01 3.73-2.62-.17-14.21 7.11-16.77z"/>
  </g>
  <g>
    <path fill="#665070" d="M219.609 518.983s33.76 42.2 61.71 50.64z"/>
    <path stroke="#34283A" stroke-miterlimit="10" stroke-width="5" d="M281.32 544.833l11.61 32.701-43.78-46.94 28.81 52.09-56.24-61.06 8.44 25.85"/>
    <path stroke="#34283A" stroke-miterlimit="10" stroke-width="8" d="M222.249 516.874s-12.13 0-14.24 21.63c-2.11 21.63 21.63 48 21.63 48"/>
    <path fill="#34283A" d="M325.748 661.325c13.702-1.291 23.863-12.389 22.695-24.788-1.168-12.4-13.223-21.405-26.926-20.114-13.702 1.291-23.863 12.389-22.695 24.789 1.168 12.399 13.223 21.404 26.926 20.113z"/>
    <path fill="#493253" d="M324.839 826.763s-3.96 5.54.79 8.7c4.75 3.16 15.03 15.82 31.65 27.69 16.62 11.87 18.2 13.45 22.15 11.08 3.96-2.37 0-14.24-13.45-26.9-13.45-12.66-21.36-22.95-25.32-23.74-3.95-.78-15.82 3.17-15.82 3.17zM303.379 565.093s-5.55-8.12-12.25-12.11c-6.79-4.06-10.38-1.239-18.25 2.141-8.05 3.46-24.2.489-38.69-8.461-14.94-9.23-17.42-17.17-34.1-8.15-17.45 9.44-.89 38.901 13.6 56.121 14.15 16.81 60.37 51.68 76.27 49.5 15.26-2.09 13.66-5.181 24.7-15.46 10.66-9.931 16.72-10.141 21.84-8.461 5.06 1.65 12.35-5.34 10.81-10.44-1.53-5.12-43.93-44.68-43.93-44.68zM342.249 819.644s-17.5 5.54-20.24 5.54c-2.74 0-8.21-8.21-8.21-8.21s-6.93-75.9-11.49-101.44c-4.56-25.54-6.99-56.07-6.74-59.67.25-3.6 15.17-15.18 27.94-23.39 12.77-8.21 14.73 9.26 21.11 8.35 6.38-.91 9.13-2.79 11.87 6.33 2.74 9.12-4.48 44.88-7.67 86.62-3.41 44.73-6.57 85.87-6.57 85.87z"/>
    <path fill="#665070" d="M323.65 815.694c-2.74 0-6.73-3.56-6.73-3.56s-5.33-69.41-9.89-94.95c-4.56-25.54-7.24-47.16-6.99-50.77.25-3.61 9.38-6.56 22.15-14.77 12.77-8.21 12.94 35.28 9.76 77.01-3.4 44.73-5.56 87.04-8.3 87.04z"/>
  </g>
  <g>
    <path fill="#34283A" d="M334.049 369.153c9.334 0 16.9-11.076 16.9-24.74 0-13.663-7.566-24.74-16.9-24.74-9.333 0-16.9 11.077-16.9 24.74 0 13.664 7.567 24.74 16.9 24.74z"/>
    <path fill="#BB83C3" d="M323.95 370.163c8.361 0 15.14-11.076 15.14-24.74 0-13.663-6.779-24.74-15.14-24.74-8.362 0-15.14 11.077-15.14 24.74 0 13.664 6.778 24.74 15.14 24.74z"/>
    <path fill="#FFACFF" d="M323.69 352.493c1.75 0 3.17-3.317 3.17-7.41 0-4.092-1.42-7.41-3.17-7.41-1.751 0-3.17 3.318-3.17 7.41 0 4.093 1.419 7.41 3.17 7.41z"/>
    <path stroke="#34283A" stroke-miterlimit="10" stroke-width="3" d="M166.339 354.414s17.41 20.04 3.16 33.23"/>
    <path stroke="#665070" stroke-miterlimit="10" stroke-width="3" d="M171.869 362.924s17.41 20.04 3.16 33.23M171.349 362.523s-.79 15.23-2.57 32.84"/>
    <path fill="#34283A" d="M159.989 380.764c8.169 0 14.79-11.077 14.79-24.74 0-13.664-6.621-24.74-14.79-24.74-8.168 0-14.79 11.076-14.79 24.74 0 13.663 6.622 24.74 14.79 24.74z"/>
    <path fill="#BB83C3" d="M151.159 381.774c7.318 0 13.25-11.077 13.25-24.74 0-13.664-5.932-24.74-13.25-24.74s-13.25 11.076-13.25 24.74c0 13.663 5.932 24.74 13.25 24.74z"/>
    <path fill="#FFACFF" d="M150.92 364.094c1.535 0 2.78-3.318 2.78-7.41 0-4.093-1.245-7.41-2.78-7.41-1.536 0-2.78 3.317-2.78 7.41 0 4.092 1.244 7.41 2.78 7.41z"/>
    <path fill="#4B3355" d="M249.54 316.964s-6.86 15.43-10.55 6.99c-3.69-8.44 0-52.35 0-52.35l12.13 2.64c-2.1 7.91-1.58 42.72-1.58 42.72z"/>
    <path stroke="#34283A" stroke-miterlimit="10" d="M218.559 285.583s-10.02 24.79-.53 34.81c9.49 10.02 14.77-8.97 14.77-8.97"/>
    <path stroke="#34283A" stroke-miterlimit="10" d="M216.448 282.414s-3.69 7.38-1.58 14.77 15.3 12.13 15.3 12.13"/>
    <path stroke="#34283A" stroke-miterlimit="10" d="M212.229 283.474s-7.91 13.19-.53 21.1c7.38 7.91 17.93 2.11 17.93 2.11"/>
    <path fill="#34283A" d="M246.509 280.044s-1.58 30.07-3.69 33.76c-2.11 3.69-11.6 2.64-11.6 2.64l-2.11-40.09 17.4 3.69z"/>
    <g>
      <path stroke="#34283A" stroke-miterlimit="10" stroke-width="8" d="M250.819 463.124l-6.29 59.82"/>
      <path stroke="#4B3355" stroke-miterlimit="10" stroke-width="3" d="M288.768 458.854s-9.48 46.609-13.16 60.599"/>
      <path stroke="#665070" stroke-miterlimit="10" stroke-width="5" d="M281.319 458.463l-6.29 59.82M272.619 458.463l-6.29 59.82M243.049 462.343l-.75 59.82M257.779 459.624l-6.3 59.82"/>
      <path stroke="#34283A" stroke-miterlimit="10" stroke-width="8" d="M266.599 461.183l-6.29 59.82"/>
      <path stroke="#4B3355" stroke-miterlimit="10" stroke-width="3" d="M285.539 468.354s19.52 27.959 2.11 29.539c-17.41 1.58-25.85-26.37-25.85-26.37"/>
      <path stroke="#34283A" stroke-miterlimit="10" stroke-width="3" d="M278.159 470.443s0 30.37-11.08 24.61c-11.08-5.76-5.8-27.23-5.8-27.23"/>
    </g>
    <path fill="#665070" d="M233.319 316.964s-6.86 15.43-10.55 6.99c-3.69-8.44 0-52.35 0-52.35l12.13 2.64c-2.1 7.91-1.58 42.72-1.58 42.72z"/>
    <path fill="#856792" d="M238.879 495.303c-4.24 5.02-27.87 4.39-32.46-.31-5.28-5.41-8.47-13.28-12.13-28.48-6.86-28.48-5.8-62.77-8.44-80.7 0 0-13.71-8.44-18.46-14.24-4.75-5.8-7.91-17.93-8.44-31.65-.53-13.71 3.69-15.82 14.24-17.93 2.97-.59 9.71-1.9 18.82-3.41 23.21-3.85 61.79-9.03 92.48-7.14 42.73 2.64 42.73 3.69 46.42 22.15 3.69 18.46 4.75 23.21 2.11 26.9-2.64 3.69-6.33 7.91-6.33 7.91s13.19 102.33-13.71 118.68c0 0-3.69 4.75-12.66-3.16s-13.71-8.44-24.26-7.91c-10.55.53-24.79 2.64-33.23 14.24-1.46 1.98-2.77 3.65-3.95 5.05z"/>
    <path fill="#665070" d="M249.68 477.054s37.98-11.87 54.59.79c16.62 12.66 18.2-7.12 19.78-33.23 1.58-26.11-34.02-36.4-48.26-49.85-14.25-13.45-35.61 76.75-26.11 82.29z"/>
    <g>
      <path fill="#856792" d="M302.659 499.124s-16.41 6.56-26.61 6.68c-10.87.13-29.35 4.769-39.56-.531-10.82-5.61-17.92-6.88-22.31-1.82-4.49 5.18-1.96 13.951 2.31 22.681 3.74 7.64 29.37 19.559 37.78 22.079 8.02 2.4 35.27-2.95 50.96-10.39 14.17-6.72 17.96-12.83 19.82-23.93 1.84-10.95.1-23.739-5.23-24.449-5.54-.74-9.99 2.029-11.23 3.279-1.24 1.26-5.93 6.401-5.93 6.401z"/>
      <path fill="#665070" d="M316.678 499.244c-2.58 4.19-1.98 8.39-7.25 18.36-5.47 10.34-33.18 24.289-45.46 22.349-13.25-2.09 1.1 13.22 35.19-1.38 27.74-11.88 25.16-26.27 25.16-33.18s-5.11-10.269-7.64-6.149z"/>
    </g>
    <path fill="#665070" d="M326.419 329.093s.79-10.81-16.25-12.49a381.233 381.233 0 00-28.92-1.72c-1.14-.02-1.35 1.62-.23 1.88 11.7 2.73 31.14 8.12 35.51 14.69 3.33 4.99 6.66 12.6 9.08 18.72.7 1.78 3.35 1.22 3.28-.69l-2.47-20.39z"/>
  </g>
  <g>
    <path fill="#4B3355" d="M254.419 347.034l4.22 46.42 57.5-3.43v-45.63l-61.72 2.64z"/>
    <path fill="#665070" d="M259.979 348.344l-18.72-12.75-3.45 1.15 10.84 69.71 3.57-1.46 11.7-11.54-3.94-45.11z"/>
    <path fill="#4B3355" d="M258.659 351.614l-16.02-10.91-2.95.98 9.28 59.66 3.05-1.24 10.02-9.89-3.38-38.6z"/>
    <path fill="#34283A" d="M256.319 354.614l-13.55-9.23-2.5.83 7.85 50.45 2.58-1.05 8.47-8.36-2.85-32.64z"/>
    <path fill="#BB83C3" d="M234.249 337.014l7.01-1.42 10.4 69.79-6.57 1.33-10.84-69.7z"/>
    <g>
      <path stroke="#34283A" stroke-miterlimit="10" stroke-width="2" d="M272.088 360.744l-.39-6.59 6.86-.4v-7.51M267.479 370.904l-3.43.13 1.19 12-1.72.39M278.028 380.134l.26 5.54 4.75-.27.26 6.46M287.389 366.283l8.97-.26"/>
      <path fill="#34283A" d="M285.169 380.394l-13.66.41c-2.23.07-4.18-1.69-4.37-3.93l-.46-5.44-.62-7.22c-.2-2.34 1.49-4.32 3.78-4.41l14.07-.54c2.32-.09 4.31 1.77 4.44 4.13l.68 12.78a3.978 3.978 0 01-3.86 4.22z"/>
      <path fill="#BB83C3" d="M285.349 377.624l-12.55.39c-2.04.06-3.84-1.55-4.01-3.62l-.96-11.67c-.18-2.16 1.38-3.99 3.49-4.07l12.93-.51c2.13-.08 3.96 1.62 4.07 3.8l.59 11.79c.11 2.09-1.48 3.83-3.56 3.89z"/>
      <path fill="#9E54C7" d="M281.289 372.124l-5.19.17c-.85.03-1.59-.64-1.65-1.51l-.35-4.8c-.06-.88.58-1.61 1.44-1.65l5.26-.19c.86-.03 1.61.66 1.66 1.54l.29 4.82c.04.87-.61 1.6-1.46 1.62z"/>
      <path stroke="#34283A" stroke-miterlimit="10" stroke-width="7" d="M296.749 356.793l1.06 25.84M307.299 356.793l1.06 25.84"/>
    </g>
    <path fill="#665070" d="M241.259 335.594l1.95 1.42 9.63 67.38-1.58.4-10-69.2z"/>
  </g>
  <g>
    <path fill="#F5894E" d="M427.169 498.174s-5.7 7.48-16.91 2.29c-11.37-5.25-40.6-47.03-52.03-59.57-11.89-13.04-22.26-26-13.71-38.84 7.85-11.78 14.76 3.76 21.73 8.71 6.88 4.89 64.73 62.16 66.87 71.57 2.06 9.1-5.95 15.84-5.95 15.84z"/>
    <path fill="#CC6D3D" d="M427.169 498.174s-5.7 7.48-16.91 2.29c-11.37-5.25-30.86-35.401-42.3-47.941l11.87 1.191 19.2-11.36c16.58 16.96 32.94 34.94 34.08 39.99 2.07 9.09-5.94 15.83-5.94 15.83z"/>
    <path fill="#F5894E" d="M472.799 405.584s-69.1 67.52-72.79 75.43c-3.69 7.91.53 15.82 9.49 18.99 8.97 3.16 10.02 8.44 34.81-16.35 24.79-24.79 82.81-65.93 79.65-77.54-3.16-11.61-16.88-30.07-51.16-.53z"/>
  </g>
  <g>
    <path fill="#F5894E" d="M355.3 420.483s-15.43 1.58-21.36-2.77-9.1-9.1-11.08-14.64c-1.98-5.54 3.96-35.6 13.05-33.63 9.1 1.98 11.87 3.96 16.22 15.03 4.36 11.09 12.27 35.61 3.17 36.01z"/>
    <path fill="#CC6D3D" d="M346.599 395.114s0 14.74-5.08 14.74-14.23-1.02-18.81-6.1c-4.58-5.08 6.61-24.4 12.2-22.88 5.59 1.53 11.69 14.24 11.69 14.24z"/>
    <path fill="#F5894E" d="M324.35 398.133c.59 1.09 3.96 6.33 3.07 7.52-1.33 1.78-4.45 3.86-9.2-2.47-4.75-6.33-5.84-12.019-.3-10.879 3.36.68 5.83 4.739 6.43 5.829z"/>
    <path fill="#CC6D3D" d="M325.709 392.223s7.01 6.83 4.89 8.95c-3.27 3.27-4.7.92-7.84-1.75-4.98-4.24-6.27-7.75-5.54-9.96.74-2.22 2.95-2.59 8.49 2.76z"/>
    <path fill="#F5894E" d="M326.419 391.404s7.52 7.32 5.24 9.59c-3.51 3.51-5.04.99-8.41-1.88-5.34-4.55-6.73-8.31-5.93-10.68.8-2.37 3.17-2.76 9.1 2.97z"/>
    <path fill="#CC6D3D" d="M319.899 380.134c-1.58 3.16-.99 5.14 2.57 9.1 3.56 3.96 6.13 7.91 8.51 7.12s3.96-2.77 0-9.49c-3.96-6.72-9.5-9.9-11.08-6.73z"/>
    <path fill="#F5894E" d="M320.089 379.733c-1.58 3.16-.99 5.14 2.57 9.1 3.56 3.96 6.13 7.91 8.51 7.12 2.37-.79 3.96-2.77 0-9.49-3.96-6.73-9.49-9.89-11.08-6.73zM345.41 373.403s-6.26-6.97-11.47-8.7c-4.75-1.58-13.05-3.56-17.8-3.96-4.75-.4-6.33 5.54-3.56 5.93 2.77.4 12.26 6.33 15.82 6.73 3.56.4 8.7 7.91 12.66 5.93 3.96-1.97 4.35-5.93 4.35-5.93z"/>
    <path fill="#CC6D3D" d="M341.649 379.534s-4.95-6.33-10.48-8.51c-4.61-1.81-10.48-3.96-12.46-2.57-1.98 1.39 3.96 5.54 7.52 7.52 3.56 1.98 15.42 3.56 15.42 3.56z"/>
    <path fill="#FFACFF" d="M300.739 363.983l17.51.5.26 13.74-17.14-.14-.63-14.1z"/>
    <path fill="#CC6D3D" d="M346.009 400.804s-9.87-1.361-13.95-10.381c-3.1-6.85-4.52-7.86-9.2-10.09-2.33-1.11-9.24-3.55-6.73-8.11 2.65-4.81 15.34 1.3 19.4 3.04 7.61 3.25 27.09 24.771 10.48 25.541z"/>
    <path fill="#F5894E" d="M346.199 401.893s-9.67-2.63-13.85-11.87c-3.17-7.01-3.56-7.52-10.55-10.68-4.68-2.12-8.04-3.56-5.67-8.31 2.51-5.03 15.03 1.38 19.19 3.16 7.79 3.34 27.89 26.9 10.88 27.7z"/>
  </g>
  <g>
    <path stroke="#4B3355" stroke-miterlimit="10" stroke-width="3" d="M158.689 544.703s-9.49-3.16-10.68-27.69c-1.19-24.53 1.58-37.98 1.58-37.98"/>
    <path stroke="#34283A" stroke-miterlimit="10" stroke-width="3" d="M165.409 487.733s-.4 25.32 0 31.65c.4 6.33 3.16 32.04 3.16 32.04"/>
    <path stroke="#665070" stroke-miterlimit="10" stroke-width="5" d="M158.689 478.243s-12.26 38.77 17.41 64.09"/>
    <path stroke="#34283A" stroke-miterlimit="10" stroke-width="3" d="M158.289 498.813s11.08-.4 15.43 15.43c4.35 15.82-5.93 31.65-11.08 30.46"/>
    <path stroke="#4B3355" stroke-miterlimit="10" stroke-width="3" d="M161.849 541.533s-24.92-27.3 0-56.57"/>
    <path stroke="#34283A" stroke-miterlimit="10" stroke-width="3" d="M177.679 530.063s-10.29-5.93-18.2 2.77-5.14 18.99-5.14 18.99"/>
    <g>
      <path fill="#34283A" d="M268.189 579.693c-.55-5.1 21.48 3.33 26.2 7.99 4.72 4.66.94 8.82-8.32 5.58s-17.33-8.46-17.88-13.57zM304.109 610.063c2.42-2.03-8.62-6.7-15.98-10.89-6.73-3.82-23.28-13.42-25.85-8.72-2.57 4.7 19.87 15.44 23.15 17.3 3.28 1.86 16.26 4.34 18.68 2.31zM255.419 613.613c-4.49 1.89 10.51 14.83 14.05 17.27 3.54 2.44 12.35 5.72 16.37 3.88 4.03-1.84-4.41-6.1-14.12-13.5-9.71-7.42-11.81-9.54-16.3-7.65z"/>
      <path fill="#34283A" d="M260.219 606.393c2.63-1.8 8.01-.36 13.78 3.8 9.35 6.74 19.19 12.73 20.45 15.11 2.35 4.44-2.82 8.75-11.91 2.68-9.1-6.05-28-17.69-22.32-21.59z"/>
      <path fill="#34283A" d="M266.259 598.953s20.03 8.41 31.18 16.13c7.82 5.42.38 9.58-15.56.96-15.94-8.61-24.17-18.05-15.62-17.09z"/>
    </g>
    <g>
      <path fill="#4B3355" d="M154.299 495.633s-4.08-3.2-13.4-3.2-12.82 1.07-16.32-12.8c-3.5-13.86-5.83-59.72-1.75-82.12 4.08-22.4 15.15-46.39 25.64-47.99 10.49-1.6 5.83 21.86 11.07 30.4 5.24 8.53 14.57-3.73 16.9 20.8 2.33 24.53 7.61 90.13 2.33 105.58-2.91 8.53-7.58 11.2-12.82 8.53s-1.75-17.07-11.65-19.2z"/>
      <path fill="#34283A" d="M165.949 386.853c-5.46-1.13-3.93 2.47-9.18-5.53s-10.05 1.27-11.22 19.4-1.17 75.72 4.66 79.99c5.83 4.27 13.4 11.73 14.57 17.6 1.17 5.87 2.91 12.26 7.58 10.13 4.66-2.13 5.83-8 5.83-24.53s-3.45-79.3-4.66-83.72c-1.75-6.41-2.12-12.21-7.58-13.34z"/>
    </g>
    <path fill="#856792" d="M276.329 594.403c-1.87-2.8-7.24-1.97-6.3-6.3.94-4.32 6.2-2.91 2.57-10.5-3.63-7.59-28.33-16.53-48.95-29.34-20.61-12.81-45.41-32.91-46.77-28.07-1.36 4.84 1.87 13.06-5.21 17.1-7.08 4.04-16.31-.01-19.59 8.79-3.28 8.8 7.01 26 22.79 37.45 15.78 11.45 67.21 35.97 77.1 36.32 9.89.35 18.06-6.63 20.81-11.62 2.75-4.99 5.42-11.03 3.55-13.83z"/>
    <g>
      <path fill="#34283A" d="M144.179 539.033c11.217 0 20.31-11.573 20.31-25.85 0-14.276-9.093-25.85-20.31-25.85-11.217 0-20.31 11.574-20.31 25.85 0 14.277 9.093 25.85 20.31 25.85z"/>
      <path fill="#4B3355" d="M138.909 540.093c10.052 0 18.2-11.573 18.2-25.85 0-14.276-8.148-25.85-18.2-25.85s-18.2 11.574-18.2 25.85c0 14.277 8.148 25.85 18.2 25.85z"/>
      <path fill="#856792" d="M138.589 521.623c2.104 0 3.81-3.465 3.81-7.74 0-4.274-1.706-7.74-3.81-7.74s-3.81 3.466-3.81 7.74c0 4.275 1.706 7.74 3.81 7.74z"/>
    </g>
    <path fill="#665070" d="M263.039 593.233s-10.27 19.13-11.67 21.46c-1.4 2.33 8.4 4.2 13.53-.93 5.13-5.13 11.67-11.67 9.8-15.87-1.87-4.2-11.66-4.66-11.66-4.66z"/>
  </g>
  <g>
    <path stroke="#34283A" stroke-miterlimit="10" d="M196.329 224.223s-5.22 15.78 4 25c7 7 16.91 1.54 16.91 1.54"/>
    <path stroke="#34283A" stroke-miterlimit="10" d="M198.329 226.223s-7 25 0 32 26 4 26 4"/>
    <path stroke="#554B5A" stroke-miterlimit="10" d="M186.829 220.723s-5 17 8 21 22-15 22-15"/>
    <path stroke="#34283A" stroke-miterlimit="10" d="M196.829 220.723s-11 9-12 26 21 26 21 26"/>
    <g>
      <path fill="#4B3355" d="M296.829 263.723s1 15-2 20-6.08 9.39-21 10.96c-19 2-31 2-41 1-7.24-.72-35-4.96-35-13.96s-3-16 2-19c1.39-.84 9.19 2.76 20 3 27.98.62 77-2 77-2z"/>
      <path fill="#665070" d="M214.829 266.723c1 1 5.79 24.04-1.15 22.71-6.73-1.29-13.95-2.16-14.34-8.21-.89-13.65-3.26-14.54 4.49-16.51 8.56-2.16 10 1.01 11 2.01zM177.829 209.723s1-26 1-33 14-13 33-18 29-5 59 2 31 18 31 25 3 33 1 57-1.66 23.54-12.54 28.62c-7.09 3.31-18.45 5.99-30.59 6.33-16.54.46-39.87-9.89-39.87-9.89s-6.15-2.57-11-15.05c-8.01-20.64-12-26-21-28s-9-4.01-10-15.01z"/>
      <path fill="#34283A" d="M208.829 274.793c4.418 0 8-5.596 8-12.5 0-6.903-3.582-12.5-8-12.5s-8 5.597-8 12.5c0 6.904 3.582 12.5 8 12.5z"/>
      <path fill="#BB83C3" d="M206.829 273.234c3.866 0 7-4.898 7-10.94s-3.134-10.94-7-10.94-7 4.898-7 10.94 3.134 10.94 7 10.94z"/>
      <path fill="#856792" d="M185.83 173.723s18.94-.06 28 9c9 9 5 13 5 32s0 44-3 42-8-19-17-28-14-6-16-9-2-42 3-46z"/>
      <path fill="#34283A" d="M237.519 243.723c3.143 0 5.69-4.701 5.69-10.5s-2.547-10.5-5.69-10.5c-3.142 0-5.69 4.701-5.69 10.5s2.548 10.5 5.69 10.5zM284.519 241.723c3.143 0 5.69-4.701 5.69-10.5s-2.547-10.5-5.69-10.5c-3.142 0-5.69 4.701-5.69 10.5s2.548 10.5 5.69 10.5z"/>
      <path fill="#856792" d="M221.829 179.723c4.5 2.4 52-7 72-2 0 0 3-7-7-10s-33-12-51-11-51.83 12-46 12c5 0 17 3 32 11z"/>
    </g>
  </g>
  <g>
    <path fill="#288453" d="M703.83 798.283s11.08-25.32 15.03-13.45c3.96 11.87-3.96 22.95-3.96 22.95s13.45-19.78 17.41-11.87c3.96 7.91-12.66 16.62-12.66 16.62s24.53-5.54 11.08 2.37c-13.45 7.91-29.27 3.16-29.27 3.16l2.37-19.78z"/>
    <path fill="#7A462F" d="M546.38 613.533s-1.32 151.95-1.32 154.95-29.54 47.47-29.54 47.47l-3.46 31.19 63.68 23.37 40.36-5.4 43.42 17.84 56.18-35.35-4.75-90.99-6.9-159.29-53.99 13-103.68 3.21z"/>
    <path fill="#D77D5B" d="M550.06 605.323l-3.68 9.01 25.68 10.99 44-2 3 8 26-1 45.32-9.27 13.67-23.73-73.01-2.38-80.98 10.38z"/>
    <path fill="#B44C29" d="M588.839 608.013l-2.11 5.17 14.73 6.3 25.23-1.15 1.72 4.59 14.91-.57 25.98-5.32 7.84-13.61-41.86-1.36-46.44 5.95z"/>
    <path fill="#A96443" d="M572.06 625.323l44-2 3.11 7.62-1.32 35.21 4.22 90.2-4.65 6.85-1.36 101.81-40.41 5.54 3.3-103.14.92-29-6.58-29.53-1.23-83.56zM690.38 621.053l13.67-23.73 11.65 250.28-15.03 9.49-10.29-236.04z"/>
    <path fill="#7A462F" d="M591.479 708.083s7.12 57.76 3.96 49.05c-3.17-8.69-3.96-49.05-3.96-49.05zM600.969 633.713s-.79 20.57 0 30.86.79 34.81.79 34.81l3.16-34.02-3.95-31.65zM581.72 734.193l2.37 31.65 10.29 15.03-1.58 28.49-8.71 15.82 5.54-20.57v-25.32l-8.7-12.66.79-32.44zM695.92 628.173l3.16 21.36-.79 35.61 3.96 27.69.79-27.69v-33.23l-7.12-23.74z"/>
    <path fill="#A96443" d="M683.26 864.743l-11.08-24.52 3.17-31.65-5.54-45.89 12.66 46.68-5.54 31.65 11.08 21.36-4.75 2.37zM688.8 794.333l-7.92-33.24 1.59-40.35-9.5-23.73 6.33.79 9.5 25.32-3.96 35.6 3.96 35.61zM560.49 622.453l-5.04.43-2.74 15.25 4.64 29.15-3.89 37.64 8.65-38.08-4.7-29.48 3.08-14.91zM631.29 644.203l-2.02 35.58 8.32 19.93 1.36 51.89 4.07-50.54-8.7-23.95-1.92-35.98"/>
    <path fill="#7A462F" d="M604.67 866.063l6.85-.53-3.43-42.72 5.54-46.68-7.91 19.78-2.37 26.9 1.32 43.25z"/>
    <path fill="#A96443" d="M561.41 866.333l2.38-33.24-13.45-30.85 4.74-34.82-9.49 33.23 14.24 34.03-4.75 29.27 6.33 2.38z"/>
    <path fill="#288453" d="M511.17 850.503s-10.29-10.29-6.33-16.62c3.96-6.33 8.7 7.12 8.7 7.12s5.54-15.82 7.91-10.29c2.37 5.54-2.37 17.41-2.37 17.41s10.29-18.99 13.45-9.49c3.16 9.49-2.37 15.03-2.37 15.03s16.62-11.08 15.82-2.37c-.79 8.7-1.98 7.52-1.98 7.52l-32.83-8.31z"/>
    <path fill="#33A86D" d="M556.669 867.513s-11.87-11.87-4.75-18.2c7.12-6.33 4.75 3.96 4.75 3.96s3.16-22.95 8.7-16.62c5.54 6.33-3.16 17.41-3.16 17.41s11.87-11.08 11.87-4.75-10.29 12.66-10.29 12.66 18.99-7.12 14.24 0c-4.75 7.12-21.36 5.54-21.36 5.54z"/>
    <g>
      <path fill="#33A86D" d="M599.789 852.613c-.13 1.85 5.54 14.24 13.45 7.91 7.91-6.33 0-18.2-6.33-15.03-6.33 3.16-6.99 5.27-7.12 7.12zM607.169 823.343c.92 1.58 9.49 9.49 15.03 0 5.54-9.49-3.16-12.66-10.29-9.49-7.11 3.16-5.66 7.9-4.74 9.49zM625.9 847.073c6.33-6.33-.79-15.03-8.7-11.87-7.92 3.17 2.37 18.2 8.7 11.87z"/>
      <path fill="#288453" d="M624.309 847.073s-1.58 7.91 4.75 5.54 3.17-9.49-4.75-5.54z"/>
      <path fill="#33A86D" d="M615.349 861.843c.26 9.23 8.18 7.911 8.97.531.78-7.39-9.24-9.761-8.97-.531z"/>
    </g>
    <g>
      <path fill="#33A86D" d="M619.43 798.553c.26 3.03 3.69 12.53 11.6 6.2 7.91-6.33-1.05-14.37-4.75-15.16-3.7-.79-7.11 5.92-6.85 8.96zM623.13 767.563s9.49 9.49 15.03 0c5.54-9.49-3.16-12.66-10.29-9.49-7.12 3.16-4.74 9.49-4.74 9.49zM643.7 791.293c6.33-6.33-.79-15.03-8.7-11.87-7.92 3.17 2.37 18.2 8.7 11.87z"/>
      <path fill="#33A86D" d="M642.12 791.293s-1.58 7.91 4.75 5.54c6.32-2.37 3.16-9.49-4.75-5.54z"/>
      <path fill="#288453" d="M625.24 818.983c.26 9.23 8.18 7.91 8.97.53.78-7.38-9.24-9.76-8.97-.53z"/>
    </g>
    <g>
      <path fill="#288453" d="M540.839 745.403c1.58 5.54 12.13 9.23 9.23-2.11-2.9-11.34-10.81-3.43-9.23 2.11zM558.249 730.633c-7.91 0-12.92 11.87 2.9 8.97 15.82-2.9 5.01-8.97-2.9-8.97zM561.409 686.333c-6.07-1.85-18.73 6.07-8.7 8.18 10.02 2.1 14.77-6.34 8.7-8.18zM549.81 700.573c-5.01-.53-12.13 7.91 0 7.65 12.13-.27 5.01-7.13 0-7.65zM549.279 714.553c-3.96 4.75-.26 16.62 6.86 8.44 7.12-8.18-2.9-13.19-6.86-8.44z"/>
    </g>
    <path fill="#33A86D" d="M619.96 872.653s18.2-3.16 24.53-.79l6.33 2.37s7.91-8.7 11.87-7.12c3.96 1.58-3.16 7.12-3.16 7.12s21.36-16.62 19.78-11.87c-1.58 4.75-10.29 11.87-10.29 11.87s27.69-27.16 31.65-17.14c3.96 10.02.79 10.02.79 10.02s1.58-24.53 9.49-21.36c7.91 3.16 0 7.91 0 7.91s34.02 21.36-15.03 30.86c-49.06 9.5-75.96-11.87-75.96-11.87z"/>
    <g>
      <path fill="#288453" d="M721.38 858.503s-21.5-28.35-13.58-28.35 19.24 30.59 13.58 28.35z"/>
      <path fill="#288453" d="M723.64 857.693s-3.4-33.95 9.05-26.03c12.45 7.92-6.78 36.22-9.05 26.03zM762.12 848.263s9.05-27.16 11.32-13.58c2.26 13.58-11.32 13.58-11.32 13.58z"/>
      <path fill="#288453" d="M758.73 849.013s-9.05-16.98 1.13-20.37c10.18-3.39 1.13 23.77-1.13 20.37zM710.06 873.163s-6.79-26.03-13.58-16.98 4.53 21.5 13.58 16.98z"/>
      <path fill="#288453" d="M713.46 872.033s-12.45-18.11-4.53-23.77c7.92-5.66 4.53 23.77 4.53 23.77z"/>
    </g>
  </g>
  <g>
    <path fill="#EE5D4F" d="M418.75 828.694s-8.75-1.75-21.87 1.75c-13.12 3.5-11.37 14-10.5 16.62.87 2.62 12.25 7.87 37.62 6.12 25.37-1.75 26.02-3.3 40.24-2.62 15.48.73 8.75-24.5 4.37-32.37-4.37-7.87-49.86 10.5-49.86 10.5z"/>
    <path fill="#121721" d="M420.579 816.484s-7.45-1.92-20.57 1.58c-13.12 3.5-14.5 20.55-13.62 23.18.87 2.62 12.25 7.87 37.62 6.12 25.37-1.75 30.16-.52 44.25-2.62 7.76-1.16 4.74-24.5.37-32.37-4.39-7.87-48.05 4.11-48.05 4.11z"/>
    <path fill="#1D2538" d="M607.459 534.623s15.01 39.94 9.83 59.26-15.56 23.4-35.27 26.45c-7.04 1.09-28.92.85-54.24-1.26-26.43-2.2-44.81-30.21-30.81-62.9 21.79-50.85 104.27-32.73 110.49-21.55z"/>
    <path fill="#1D2538" d="M491.59 556.603s-36 3-56 4-53 0-58 17-2 49 30 48 135.37 1.42 153.43-12.86c18.05-14.27 5.57-57.14-69.43-56.14z"/>
    <path fill="#1D2538" d="M388.59 581.604s-11.47 1.339-10.74 19.669c.74 18.33 15.74 61.331 14.74 71.331s9 68 12 91 4.13 38.13 9.13 48.13c5 10-6.05 11.69 16.95 11.69s34.92-.82 38.92-3.82 1-28 1-28-5-12-5-14 3-60 0-75-11.98-77.79-29.98-95.79-47.02-25.21-47.02-25.21z"/>
    <path fill="#273252" d="M405.539 616.303s-28.43-33.36-27.69-15.03c.74 18.33 15.74 61.33 14.74 71.33s9 68 12 91 4.13 38.13 9.13 48.13c5 10-6.05 11.69 16.95 11.69s34.92-.82 38.92-3.82-26.07-6.68-26.07-6.68-2.37-13.43-2.37-15.43-16.78-38.8-19.78-53.8 1.19-62.51 4.75-79.52c3.56-17.01-20.58-47.87-20.58-47.87z"/>
  </g>
  <g>
    <path stroke="#992C29" stroke-miterlimit="10" d="M439.659 409.353c-14.03 22.06 11.69 89.04 21.83 84.58 8.51-3.75 24.98-67.08 18.83-88.71-1.18-4.14-4.94-8.86-7.99-9.24"/>
    <path fill="#29ABE2" d="M461.797 507.48c2.06-.145 3.49-3.666 3.194-7.864-.296-4.198-2.207-7.483-4.267-7.338-2.061.146-3.491 3.667-3.194 7.864.296 4.198 2.206 7.484 4.267 7.338z"/>
  </g>
  <g>
    <path fill="#CC6D3D" d="M435.829 374.604c2 1 19 27 19 27l37-18-17-28-39 19z"/>
    <path fill="#F7BC4B" d="M492.829 553.604s-6-27-9-32-23.46-32.09-35.3-50.09c-25-38-18.99-54.33-18.99-54.33s17.27-26.26 41.27-36.26c24-10 44.02-8.32 50.02-6.32s23.97 10.27 33 25c8.43 13.74 37 54 43 84s10.47 53.19 10.47 53.19-32.47 14.81-49.47 16.81c-17 2-65 0-65 0z"/>
    <path fill="#CE9436" d="M500.489 407.824s14.34-35.22 20.34-33.22 23.97 10.27 33 25c8.43 13.74 37 54 43 84s12.32 52.26 12.32 52.26-34.32 15.74-51.32 17.74c-6.92.81-31.23-29.87-31.23-29.87l9.49-32.44-35.6-83.47z"/>
    <path fill="#CC6D3D" d="M465.829 431.703c5.71 15.15 3.75 30.33-4.38 33.9-8.13 3.57-23.91-17.93-29.62-33.08-5.71-15.15.8-18.21 8.94-21.78 8.13-3.57 19.35 5.81 25.06 20.96z"/>
    <path fill="#CE9436" d="M531.349 493.674s-18.99-47.471-26.11-59.341c0 0 10.29 39.561 22.15 66.461 5 11.33 3.96-7.12 3.96-7.12z"/>
  </g>
  <g>
    <path fill="#F5894E" d="M368.749 469.934c-19-7-64.75-32.6-76.75-35.6s-16.58 1.01-12.26 13.85c4.32 12.84 30.31 27.77 44.31 38.77 14 11 44.13 24.64 55.13 18.64s8.57-28.66-10.43-35.66z"/>
    <path fill="#CC6D3D" d="M329.059 477.584c-20.04-6.33-49.32-29.41-49.32-29.41 4.32 12.84 30.31 27.77 44.31 38.77 14 11 44.13 24.64 55.13 18.64s-30.08-21.67-50.12-28z"/>
    <path fill="#F5894E" d="M286.599 455.164c5.14-2.18 12.4-15.56 6.86-32.18-1.35-4.06-10.01-13.59-12.53-17.47-3.03-4.68-3.69-9.56-8.11-13.65-5-4.62-7.58.66-6.4 6.2.59 2.75 4.09 8.44 5.01 12.13.92 3.69.66 5.27.66 5.27s-9.63-5.41-13.45-9.1c-3.82-3.69-6.2-2.37-6.99-7.25-.99-6.13-4.95-10.09-8.9-9.69-3.96.4-3.96 1.98-1.78 12.33 0 0-5.35 2.6-3.96 6.73 1.38 4.09 3.56 6.66 3.56 6.66s-3.65.53-2.37 3.96c.43 1.14 4.35 6.07 5.34 7.12 0 0-1.03-.28-1.98 2.11-.95 2.39 10.92 14.82 14.44 17.87 3.96 3.42 25.46 11.14 30.6 8.96zM381.609 504.744c10.29-5.57 39.22-21.14 56.22-37.14s32.36-27.51 23.36-42.51c-9-15-14.9-18.6-26.9-11.6-4.76 2.77-17.92 19.67-29.01 29.01-16.9 14.23-33.94 27.26-39.3 32.18-11.86 10.88-3.36 40.35 15.63 30.06z"/>
    <path fill="#CC6D3D" d="M381.609 504.744c10.29-5.57 39.22-21.14 56.22-37.14s32.36-27.51 23.36-42.51c-9-15-14.9-18.6-26.9-11.6-4.76 2.77-17.92 19.67-29.01 29.01-16.9 14.23-32.62 27.26-37.98 32.18-11.87 10.88-4.68 40.35 14.31 30.06z"/>
    <path fill="#F5894E" d="M375.208 484.704c10.29-5.57 14.65-6.15 31.65-22.15 17-16 39.43-56.05 27.43-49.05-4.76 2.77-17.92 19.67-29.01 29.01-16.9 14.23-32.62 27.26-37.98 32.18-11.87 10.87-11.07 20.29 7.91 10.01z"/>
    <path fill="#CC6D3D" d="M254.028 416.924l-8.87-9.43-4.19-5.74c-.1-.36-1.02 1.35 3.46 7.35.99 1.32 9.6 7.82 9.6 7.82zM240.379 415.014s6.79 9.82 8.77 11.4c0 0-7.98-7.81-9.16-10.88l.39-.52z"/>
  </g>
  <g>
    <path fill="#CC6D3D" d="M453.829 296.604s-43.87-10.27-49.87 17.73-1.63 57.77 1.37 65.77c3 8 16 6 33 3s28-8 29-27 3.5-59.5-13.5-59.5z"/>
    <path fill="#F5894E" d="M440.749 316.203s-32.12-7.52-36.51 12.98c-4.39 20.5-1.19 42.3 1 48.16 2.2 5.86 11.72 4.39 24.16 2.2 12.44-2.19 20.5-5.86 21.23-19.77.73-13.92 2.56-43.57-9.88-43.57z"/>
    <path fill="#273252" d="M465.829 311.603s-41 15-58 4-10-17 7-27 32-11 47-3 17 24 4 26z"/>
    <path fill="#3E4C6F" d="M417.409 296.923s7.42 29.68-9.58 18.68-10-17 7-27c12.67-6.38 11.48-4.6 2.58 8.32z"/>
    <path fill="#273252" d="M429.829 312.603l-2 27h8s14 25 24 30c4 2.48 15.65 2.08 23.65-2.92 8-5 9.35-21.08 10.35-38.08s6.85-26.64-18-37c-36-15-46 21-46 21z"/>
    <path fill="#F5894E" d="M433.439 341.924s-1.81-11.76 10.86-15.38c12.67-3.62 9.95 12.66 7.24 19.9-2.71 7.24-9.56 12.65-15.38 9.95-12.75-5.91-2.72-14.47-2.72-14.47z"/>
  </g>
  <g>
    <path fill="#34283A" d="M409.749 335.813c.17 2.9-1.12 4.25-2.57 4.33-1.45.08-2.51-1.12-2.68-4.02-.17-2.9.86-5.31 2.31-5.4 1.45-.08 2.77 2.19 2.94 5.09z"/>
    <path stroke="#34283A" stroke-linecap="round" stroke-linejoin="round" stroke-miterlimit="10" stroke-width="2" d="M413.629 326.243s-2.84-5.11-7.45-3.72"/>
  </g>
</svg>
