<svg xmlns="http://www.w3.org/2000/svg" fill="none" viewBox="0 0 468 468">
  <path fill="#F3E7D9" d="M177.365 397.053s-91.264-7.824-135.1-4.697c-43.84 3.132-49.206.78-35.787-8.61 13.418-9.39 25.052-6.259 25.052-6.259s-18.79-34.434 4.473-43.825c23.262-9.39 56.367-7.044 56.367-7.044s-38.47-89.215 40.261-83.737c0 0-18.789-12.522-12.526-36.001 6.263-23.478 20.579-21.132 20.579-21.132s-18.789-20.346-1.79-43.825c16.999-23.478 67.996-4.697 67.996-4.697s16.999-37.567 62.63-31.303c0 0-18.789-38.347 9.844-74.347 28.632-36 55.469-33.65 83.21-28.957 27.735 4.698 48.314 49.303 42.051 64.952 0 0 13.418-14.088 34.896 4.698 21.471 18.78-8.054 54.781-8.054 54.781s30.961 11.911 18.462 36.073c-7.742 14.975-21.599 31.715-26.969 37.974 0 0 37.223-.378 11.19 21.427 0 0 30.439 10.743 9.86 32.656 0 0 16.339-2.628 21.705 13.807 5.37 16.434 3.325 31.792-28.883 56.056 0 0 17.897-3.132 25.053-3.912 7.155-.781 0 14.088-33.998 27.39-34.004 13.317-250.522 48.532-250.522 48.532zM433.011 412.315s-22.026 1.401-42.545 9.579c-20.518 8.178-8.014 16.211 2.489 15.208 0 0-48.07 12.861-67.059 23.905-18.989 11.043 19.033 9.269 69.88-7.194 50.847-16.464 61.223-26.038 55.725-26.669-5.499-.63-5.499-.625-5.499-.625s23.673-18.092-12.991-14.204zM115.764 403.637c-42.101-8.057-59.2 6.903-61.833 23.013-2.633 16.109 21.05 26.464 21.05 26.464s-38.154 5.755-9.211 10.355c28.943 4.601 65.779-2.302 89.462-10.355 23.683-8.052 2.633-41.425-39.468-49.477z"/>
  <path fill="#4B3355" d="M215.409 462.839l30.479-4.484 47.544-11.96s103.617-48.328 115.805-66.765c12.188-18.436 20.724-43.844 20.724-43.844s-50.593-16.444-184.683-18.931c-134.09-2.492-226.13 27.899-226.13 27.899s4.268 17.438 17.066 30.392c5.98 6.055 37.18 39.36 37.18 39.36l75.577 28.399 9.145-.499 8.652 6.171 48.641 14.262z"/>
  <path fill="#856792" d="M426.305 335.791c0 10.263-75.528 51.702-161.903 64.632l-49.86-2.298.083 6.171c-104.854 0-193.595-41.852-196.089-60.535-2.494-18.684 91.235-64.022 196.089-64.022 104.853 0 211.68 43.845 211.68 56.052z"/>
  <path fill="#33A86D" d="M162.321 424.085s.721-9.453 5.044-6.932c4.323 2.521 1.081 6.302 1.081 6.302s4.683-8.193 6.845-2.836c2.161 5.357-6.125 6.617-6.125 6.617s3.243 8.193-1.081 7.563c-4.323-.63-3.602-5.672-3.602-5.672s-1.081 2.521-3.603 1.261c-2.522-1.261-.36-3.782-.36-3.782s-5.044-2.836-2.522-6.302c2.522-3.461 4.323 3.781 4.323 3.781z"/>
  <path fill="#33A86D" d="M152.485 407.777s-6.279-.955-4.367 2.147c1.912 3.103 3.547 1.435 3.547 1.435s-5.459 5.013-1.64 5.013c3.824 0 3.547-1.91 3.547-1.91s-4.096 5.73-.272 6.21c3.825.48 3.547-3.82 3.547-3.82s1.913 7.403 4.096 4.538c2.184-2.865-.548-7.165-.548-7.165s6.008 4.057 5.187.237c-.82-3.82-6.279-4.058-6.279-4.058s5.459-6.685.548-5.492c-4.916 1.192-4.367 4.537-4.367 4.537s-2.184-7.165-2.999-1.672z"/>
  <path fill="#33A86D" d="M166.908 407.922c-2.705 5.125-.449 7.49 3.608 2.759 4.052-4.732-.903-7.883-3.608-2.759zM123.341 405.726c-2.328-3.02-.149-7.262 3.908-2.492 4.057 4.771-1.58 5.513-3.908 2.492zM149.635 413.701c-.904 2.434 1.053 5.915 3.608.79.843-1.701-2.71-3.224-3.608-.79zM148.776 401.47c-1.042-2.38-4.573-5.415-4.052-.407.521 5.012 5.094 2.787 4.052.407zM150.199 412.15c2.97-.495 7.377-2.221 3.414-2.957-3.963-.737-6.385 3.451-3.414 2.957z"/>
  <path fill="#33A86D" d="M142.794 407.525s-.676-5.915-4.057-2.957c-3.381 2.957.676 7.097.676 7.097s-12.171.591-8.79 4.14c3.381 3.549 4.733 1.774 4.733 1.774s-5.409 6.506 2.029 4.732 2.704-2.167 2.704-2.167-.227 4.334 2.932 3.35c3.16-.984 2.256-3.35 2.256-3.35s5.183.199 2.932-1.973c-2.256-2.167-2.704-.592-2.704-.592s4.955-10.646 1.801-11.824c-3.159-1.187-4.512 1.77-4.512 1.77z"/>
  <path fill="#33A86D" d="M132.204 404.374c4.057 3.548 7.211-1.183 3.609-5.124-3.609-3.942-7.66 1.575-3.609 5.124z"/>
  <path fill="#33A86D" d="M125.894 393.742c.449 3.534 2.422 6.739 5.759 2.57 3.331-4.174-6.208-6.109-5.759-2.57zM181.423 409.008s-4.013 5.711-10.215 1.125c-6.207-4.586 5.216-3.132 5.216-3.132s-10.254-2.055-6.662-5.269c3.597-3.215 9.932 3.131 9.932 3.131s1.48-7.15 4.761-3.81c3.287 3.35-3.032 7.955-3.032 7.955z"/>
  <path fill="#33A86D" d="M188.853 402.856s-5.858 5.517-.903 6.307c4.955.791 5.858-4.334 5.858-4.334s1.352 11.432 5.859 5.915c4.506-5.517-3.154-9.066-3.154-9.066s8.114.791 4.506-3.156c-3.608-3.941-10.819 1.576-10.819 1.576s-9.467-6.307-8.563-2.366c.903 3.941 7.216 5.124 7.216 5.124z"/>
  <path fill="#33A86D" d="M179.382 409.013s.904 8.188 7.211 4.092c6.313-4.092-5.858-8.474-7.211-4.092zM198.318 416.44c-.449 2.526 5.858 3.791 6.307.252.449-3.539-5.858-2.782-6.307-.252zM210.034 424.536c3.154.393 5.41-3.941 1.802-4.334-3.603-.397-4.956 3.941-1.802 4.334z"/>
  <path fill="#33A86D" d="M208.684 420.197s7.659.393 5.858-3.156c-1.801-3.543-10.365-1.178-5.858 3.156z"/>
  <path fill="#4B3355" d="M344.791 381.37l-10.592-1.381-2.029 5.914 12.621-4.533zM44.18 367.375l9.916-.786v7.093l-9.915-6.307z"/>
  <path fill="#665070" d="M131.167 382.752l13.519-5.914-22.309-8.082-9.239 7.82 18.029 6.176z"/>
  <path fill="#4B3355" d="M113.138 376.707l8.563-7.229 9.466 13.274-16.827-.136-1.202-5.909z"/>
  <g>
    <path fill="#4B3355" d="M159.409 313.369l-14.721-3.941 4.057-6.705 11.268-5.124-.604 15.77z"/>
    <path fill="#665070" d="M153.702 303.906l5.637 9.463 9.389-5.517-8.602-10.447-6.424 6.501z"/>
  </g>
  <path fill="#665070" d="M351.552 367.573s-8.79-6.506-14.871-5.914c-6.085.591-8.114 7.689-8.114 7.689l7.438 3.548 15.547-5.323zM319.779 364.616s-7.438 1.183-1.352 4.14c6.085 2.958 6.762-1.183 6.762-1.183l-5.41-2.957zM300.851 383.537s12.172-3.548 8.115-5.323c-4.058-1.774-9.013-1.182-9.689.592-.681 1.774-1.807 4.731 1.574 4.731zM256.232 387.086s-2.028 5.323 4.057 4.14c6.086-1.183 4.728-6.506-4.057-4.14zM96.911 354.368s3.154-3.942 4.955-2.366c1.802 1.576 5.859 5.914 5.859 5.914s-15.325 5.125-13.518 1.183c1.801-3.946 2.704-4.731 2.704-4.731zM103.003 365.6s.677-3.941-3.608-3.548c-3.503.32-3.83 4.925-2.028 4.14 3.381.397 5.636-.592 5.636-.592z"/>
  <path fill="#665070" d="M105.023 320.2c24.636-2.104 35.754 3.156 43.869 7.883 8.114 4.731-21.633 38.632-70.911 30.483-49.279-8.149 2.405-36.262 27.042-38.366zM167.672 282.338s-2.028 21.374 51.38 22.499c53.407 1.125 83.83-14.248 61.522-22.121-22.309-7.878-112.902-.378-112.902-.378zM349.527 300.755s-31.775 8.28-8.791 32.524c22.985 24.245 47.999 23.653 67.603 20.105 19.609-3.549-22.304-43.171-58.812-52.629z"/>
  <path fill="#34283A" d="M214.625 404.296l-.083-6.171 49.861 2.298-18.313 12.682-5.409 19.513-17.576-15.373-8.48-12.949z"/>
  <g>
    <path fill="#FEED7F" d="M226.338 319.366l-61.827 16.289 61.932 24.016 60.658-24.016-60.763-16.289z"/>
    <path stroke="#FEED7F" stroke-miterlimit="10" stroke-width="4" d="M77.526 335.873h300.277M226.479 320.268l-.227-34.1"/>
    <path fill="#2563EB" d="M226.293 322.173l-47.416 13.467 47.416 18.384 46.441-18.384-46.441-13.467z"/>
  </g>
  <g>
    <path fill="#CE9436" d="M116.157 296.959l8.391 3.534 6.18 9.967.433 9.434-16.977 2.938-.604-15.372 2.577-10.501z"/>
    <path fill="#F7BC4B" d="M124.551 300.493l-4.357 6.569 2.395 9.022 8.574 3.723-.432-9.347-6.18-9.967z"/>
    <path fill="#CE9436" d="M78.27 120.384l-7.138-3.558-25.912 11.576-21.267 38.444-7.842 30.45 1.751 56.289 4.263 5.648-3.864 7.223 2.029 74.507 22.131 9.366 16.717 1.978 27.551 1.809-4.8-17.186-6.451-2.104-7.965-92.411 9.29-69.494 1.507-52.537z"/>
    <path fill="#F7BC4B" d="M85.791 354.116l14.272-14.336 8.791-.591 14.194-15.373-15.02-98.223 2.699-3.941-13.368-57.492-18.778-43.689-12.321 14.714-7.81 16.56 4.08 15.504.265 77.896 3.847 5.255 5.166 86.447 9.178.083 4.805 17.186z"/>
    <path fill="#A96443" d="M17.863 253.585l4.262 5.648 3.159-2.366-7.421-3.282z"/>
    <path fill="#CE9436" d="M108.025 225.593l-6.762-9.463-5.41-22.47 4.734 8.28 3.381 10.05 6.756 9.662-2.699 3.941zM61.302 168.301l8.785 10.132-8.109 7.015-.676-17.147zM100.06 339.78l-2.255-14.98 11.046 14.389-8.791.591zM68.588 287.942l3.686 3.878-3.459 6.176-.227-10.054zM56.797 326.182l-31.775 12.415 3.381 2.696-1.352 12.091 30.423 4.726 2.704-18.33 7.433-8.867-10.814-4.731z"/>
    <path fill="#F7BC4B" d="M79.105 349.243l2.705 8.276-24.337.591v-17.738l10.137-9.458 3.381 9.458 8.114 8.871zM43.423 180.915l6.612-8.411 12.493-5.255-4.08-15.504.6 14.583-8.11 5.521-7.515 9.066z"/>
    <path stroke="#CE9436" stroke-miterlimit="10" d="M97.81 324.8L78.583 120.471"/>
    <path fill="#CE9436" d="M90.026 246.992l-5.337-14.054 3.686-10.656 3.497-.296-2.882 9.725 5.42 15.363-4.384-.082z"/>
    <path fill="#FEED7F" d="M94.337 247.084L88.86 233.5l3.01-11.514 4.472 9.812-2.006 15.286z"/>
    <path fill="#CE9436" d="M86.387 202.725l3.908 3.418-3.304 3.68-.604-7.098z"/>
    <g>
      <path fill="#CE9436" d="M240.865 263.363l-2.594 14.636 5.099 10.665 4.069-.911-4.695-9.168 2.428-15.939-4.307.717z"/>
      <path fill="#FEED7F" d="M245.094 262.646l-2.81 14.194 5.155 10.913 2.544-10.326-4.889-14.781z"/>
    </g>
    <g>
      <path fill="#CE9436" d="M351.547 270.15l-9.871-2.157-7.405 22.014 8.885 18.131 12.337-5.614-3.946-32.374zM369.568 110.868s5.132-1.518 9.256-1.004c4.118.514 33.665 28.734 36.021 30.28 2.355 1.547-2.944 7.723-2.944 7.723l13.186 28.118 1.12 60.235 2.139 11.441 7.682 16.492v70.862l-8.613 13.031-20.718 6.516-9.134-6.133-6.928 1.246-19.743-133.535-1.324-105.272z"/>
      <path fill="#F7BC4B" d="M349.484 224.57l-.588-1.168 1.691-58.005 1.862-8.15 1.862-12.216 15.126-34.095 7.46 2.986 14.832 23.74 4.484 27.735-.427 24.84 3.22 2.851-2.793 26.469-6.019-5.187-1.979 49.58 7.067 15.474-4.163 70.033-10.736-8.945-9.777-6.515-2.161-10.603-19.116-21.975-2.467-37.266-.465-30.367 2.289-8.595.798-.621zM341.676 267.993l3.453 12.948-1.48 4.32-2.96.431 2.467 2.158v20.288l-7.405-8.634-1.48-9.497 7.405-22.014z"/>
      <path fill="#CE9436" d="M391.557 224.444l-5.354 3.67 5.354 3.665v-7.335zM386.949 125.596l-2.793 10.995 7.576 1.071-4.783-12.066zM400.492 187.028l-17.004.902.931 19.139 7.604 15.746.698-3.461-6.906-12.692-1.069-17.457 15.585-.097.161-2.08z"/>
      <path fill="#F7BC4B" d="M392.024 234.833l-.699 28.709 5.587 8.552 4.19 11.606-4.19 66.586 9.777 4.276 7.688-19.547 2.095-25.044-3.498-36.655-13.967-15.882-6.983-22.601z"/>
      <path stroke="#CE9436" stroke-miterlimit="10" d="M363.159 317.301l6.69-206.394"/>
      <path fill="#CE9436" d="M367.174 244.568l4.395-14.437-3.968-10.743-3.403-.461 2.81 9.827-3.298 16.197 3.464-.383z"/>
      <path fill="#FEED7F" d="M363.7 244.946l3.619-15.586-3.12-10.433-3.57 11.107 3.071 14.912z"/>
      <path fill="#CE9436" d="M399.228 339.848l2.084 7.752-3.131 4.106-7.472 2.38-4.639-2.026 1.297-7.577 7.139-6.55 4.722 1.915z"/>
      <path fill="#F7BC4B" d="M387.696 344.357l6.49-5.677 5.044 1.168-4.119 9.58-7.415 1.013v-6.084z"/>
      <path fill="#CE9436" d="M363.618 301.531l-8.381 14.82-12.121-2.308 16.777 6.651 3.182-2.986.543-16.177z"/>
      <path fill="#F7BC4B" d="M355.241 316.35l-12.105-2.307.931-10.181 6.984-17.515 5.897 13.036 6.285 2.036-7.992 14.931z"/>
      <path fill="#CE9436" d="M390.159 266.8l-.931 8.959 6.983-.407-6.052-8.552zM415.775 280.239l-6.99 4.072 7.455 6.927-2.328-11.407M362.23 304.779l-4.074-1.019 1.513 6.618 2.561-5.599zM347.416 271.541l2.206 1.78-2.544 1.929.338-3.709zM364.788 289.706l-2.095-2.036 1.979-2.239.116 4.275zM349.493 224.585l3.347 8.929-1.241 7.059 3.104 10.316-5.161-10.689 1.126-7.5-1.968-7.505.793-.61z"/>
    </g>
  </g>
  <g>
    <path fill="#F7BC4B" d="M181.922 277.737l2.849-85.197-4.262-6.137 11.279-91.829 8.552-9.322 13.408-23.682 10.929-.165 1.353.984 15.774 11.266 5.858 17.38 1.951 2.758 8.863 34.493-2.251 2.172 3.603 1.934 13.552 72.001-3.986 8.47 15.675 70.12-24.337 9.361-50.027.887-28.783-15.494z"/>
    <path fill="#CE9436" d="M210.779 293.197l-1.574-19.251-25.795-40.577-1.485 44.005 28.854 15.823zM273.383 204.03l-3.985 8.469 15.674 70.518-2.854 3.005-21.86 6.85-41.613.262-5.11-10.117 48.68-40.606-1.58-27.396 5.315-4.615 7.333-6.37zM256.227 130.555l3.603 1.871-10.814 12.222-13.374-2.366 12.321.262 8.264-11.989zM241.804 73.297L240.9 85.12l6.762 5.914-5.858-17.738zM187.047 134.002l13.596 10.253-15.514 4.581 1.918-14.834zM200.266 85.32l4.434-1.513 5.631-5.362 3.531-16.977-13.596 23.851zM180.509 186.403l5.858 6.336 7.211-1.576 3.304 6.569-5.105-2.627-7.1.989-.111-3.748-4.057-5.943z"/>
    <path fill="#CE9436" d="M190.579 146.223l-1.352 12.353 8.413 10.515-13.634-11.334 1.463-11.534h5.11zM185.167 192.807l-9.616 41.459-2.1 20.235s-5.709 6.307-6.009 7.098c-.299.79-1.352 24.966-1.352 24.966l11.268 7.689 33.349-1.382-24.038-43.626 3.758-42.312-5.26-14.127z"/>
    <path fill="#F7BC4B" d="M176.903 294.249l1.956-19.251 6.607 1.842-5.709-5.521 6.313-10.772-.904-22.868 10.82 17.613 11.716 18.392-.454 19.45-30.345 1.115zM261.184 233.738l17.88 37.581-2.106 4.993 3.381 14.291-13.973.296-19.376-37.057 14.194-20.104z"/>
    <path fill="#CE9436" d="M184.267 155.667l-2.006 16.396 6.817-10.069-4.811-6.327zM198.539 91.428v4.731l-7.211 21.685.527-23.328 8.491-9.197-1.807 6.109zM195.237 229.093l-5.032 5.624 2.965 5.177 6.174-.465-4.107-10.336z"/>
    <path fill="#FEED7F" d="M195.235 229.093l6.646 2.23-2.539 8.106-5.265-4.208 1.158-6.128z"/>
    <path fill="#CE9436" d="M191.847 94.516l2.178 1.774-2.926 18.597 2.926 28.578-7.211-8.673 5.033-40.276zM255.774 135.975l-4.955 18.136 19.288 32.748-10.276-54.433-4.057 3.549zM278.141 285.213l3.093 7.717 8.38 2.701 14.333-3.665-2.206-10.903-23.6 4.15z"/>
    <path fill="#F7BC4B" d="M284.759 277.495l-6.618 7.717s5.293 3.472 6.618 3.859c1.324.388 17.054-8.1 17.054-8.1l-17.054-3.476z"/>
    <path stroke="#CE9436" stroke-miterlimit="10" d="M227.029 293.018l-2.522-231.565"/>
    <g>
      <path fill="#CE9436" d="M226.033 183.974l-7.665 19.634 7.665 12.92 7.66-12.92-7.66-19.634z"/>
      <path fill="#FEED7F" d="M226.032 186.325l-6.052 15.499 6.052 10.2 6.047-10.2-6.047-15.499z"/>
    </g>
    <path fill="#CE9436" d="M258.159 186.859l-2.461 3.781 3.453 1.706-.992-5.487z"/>
  </g>
  <g>
    <path fill="#2563EB" d="M226.857 278.876c5.229 0 9.467-2.617 9.467-5.846s-4.238-5.847-9.467-5.847c-5.228 0-9.466 2.618-9.466 5.847 0 3.229 4.238 5.846 9.466 5.846z"/>
    <path fill="#992C29" d="M226.861 278.876c3.569 0 6.463-2.617 6.463-5.846s-2.894-5.847-6.463-5.847-6.462 2.618-6.462 5.847c0 3.229 2.893 5.846 6.462 5.846z"/>
  </g>
  <g>
    <path fill="#3E4C6F" d="M233.379 262.723s-1.081-4.848-4.362-5.134c-3.276-.286-3.88 1.707-3.88 1.707s-5.06-2.351-7.25 1.498c-2.183 3.849 1.985 5.415 1.985 5.415s-4.368.407-1.685 3.747c2.682 3.345 13.396 2.337 15.957.102 1.856-1.624 3.802-4.586 2.211-6.06-1.585-1.478-2.976-1.275-2.976-1.275z"/>
  </g>
  <g>
    <path fill="#2563EB" d="M222.354 273.224c-1.502.523-5.709 7.422-12.016 7.819-6.307.393-9.162-.199-15.325.853-5.315.907-4.805 4.994-10.365 3.549-5.559-1.445-9.161-1.445-9.161-1.445s7.659 4.334 10.215 7.883c2.555 3.549 6.612 7.883 9.766 7.359 3.153-.523 5.858 5.915 7.964 7.359 0 0 16.678-.262 22.237-3.156 5.559-2.894 17.204-24.113 12.997-28.316-4.218-4.203-14.81-2.429-16.312-1.905z"/>
    <path fill="#2563EB" d="M222.352 273.223s-5.409.524-7.51 3.549c-2.101 3.02-8.674 4.305-11.379 4.174-2.705-.131-7.588.79-7.588.79s18.141 1.542 21.594-2.07c0 0 3.226-6.176 4.883-6.443z"/>
  </g>
  <g>
    <path fill="#992C29" d="M239.267 305.632s-4.356-8.266-12.715-7.049c-8.358 1.217-19.676-2.535-22.458-1.624s-4.439 2.055-4.439 2.055 4.062 3.811 8.856 5.769c.937.383 5.205-.092 6.175.107 5.919 1.217 6.207 1.741 10.037 1.13 3.836-.606 14.544-.388 14.544-.388z"/>
  </g>
  <g>
    <path fill="#F5894E" d="M233.169 314.159c-.621 5.638 1.818 9.589 3.004 13.075 1.186 3.486 2.029 7.068 3.154 7.03 1.13-.039 1.917.494 1.502-1.513-.599-2.889-.499-3.67-1.109-9.23-.565-5.197-1.419-7.999-1.857-10.496-.343-1.968-4.073-4.504-4.694 1.134z"/>
    <path fill="#CC6D3D" d="M234.894 313.961c-.621 5.638 1.33 10.869 2.516 14.354 1.186 3.486 1.275 4.072 2.028 5.061.588.771 1.874.655 1.353-1.328-.715-2.724-.283-2.118-1.02-8.503-.599-5.192-1.469-7.723-1.907-10.22-.349-1.973-2.35-5.003-2.97.636z"/>
    <path fill="#1D2538" d="M229.191 302.001s1.802 9.196 3.154 10.777c1.352 1.58 5.936 1.905 5.709-1.775-.233-3.786.598-7.49-1.879-9.855-2.478-2.366-6.086-3.68-6.984.853z"/>
    <path fill="#121721" d="M229.044 302.108l1.796 6.724 7.194 1.135c-.233-3.786.621-6.458-1.857-8.818-2.483-2.366-6.229-3.573-7.133.959z"/>
    <path fill="#1D2538" d="M238.091 312.089c.903 3.35.565 4.533.565 4.533l-5.631.737s-.227-.839-.676-4.189c-.455-3.35 4.899-4.208 5.742-1.081z"/>
    <path fill="#CC6D3D" d="M238.163 333.333c.144 2.206.26 5.032 5.631 4.741 2.727-.145-.46-3.049-1.375-4.121 0 0-1.601-1.759-1.729-2.031-.327-.703-1.602-.931-2.383.432-.399.702-.167.659-.144.979z"/>
    <path fill="#F5894E" d="M237.496 334.201c-.105.383-.027.955.571 1.333 1.258.785 3.326 1.517 5.454 1.415 2.672-.121-2.732-1.541-3.126-1.793-.853-.548-1.397-2.613-1.685-3.161-.288-.548-1.097 1.779-1.214 2.206z"/>
    <path fill="#992C29" d="M237.988 332.426s-.089.054.349.883c1.641 3.131 2.561 3.199 4.816 3.286 1.486.059-.681-2.579-.681-2.579l-1.669-1.89s1.491 1.25 2.766 2.661c.787.868 1.74 1.615 2.067 2.138.571.776 1.181 2.012.444 2.119-2.472.349-5.681-.349-6.263-.645-.588-.296-.61-1.038-1.325-1.847-.271-.306-1.192-.907-1.225-1.173-.011-.689-.033-.917.189-1.726.244-.853.532-1.227.532-1.227z"/>
  </g>
  <g>
    <path fill="#F5894E" d="M225.867 314.261c2.068 5.061.494 7.563-1.219 16.997-.155.872-2.123 1.57-2.71.3-.1-.208-.084-.62-.111-1.09-.205-3.462-1.774-11.965-1.319-15.31.343-2.584 4.339-3.394 5.359-.897z"/>
    <path fill="#CC6D3D" d="M226.807 317.504c.088.868.116 2.133-.172 3.913-.432 2.661-1.269 6.021-1.363 6.598-.156.964-.499 3.165-.632 3.766-.083.374-1.469 1.004-1.469 1.004s.693-2.046.848-2.57c.321-1.081 1.774-8.716 1.979-12.527.022-.436.72-1.061.809-.184z"/>
    <path fill="#1D2538" d="M226.247 313.262c-.776-1.75-1.641-3.582-3.253-3.543-1.358.033-2.561 1.367-2.705 4.164-.083 1.638.083 3.204.133 4.048 0 0 1.718-.708 6.418-.272 0 0-.078-3.233-.593-4.397z"/>
    <path fill="#273252" d="M226.248 313.262c-.161-.344-.117.858-.117.858l-.138 3.476s.188 0 .853.063c-.005 0 0-2.089-.598-4.397z" opacity=".4"/>
    <path fill="#1D2538" d="M219.798 305.486c.15 4.073.565 9.463 3.869 9.463 3.303 0 2.932-4.697 4.279-10.839 1.352-6.143-2.594-7.82-5.598-7.82-3.004-.005-2.7 5.119-2.55 9.196z"/>
    <path fill="#121721" d="M219.798 305.486l7.36 2.696s-.565 2.07.788-4.072c1.352-6.143-2.594-7.82-5.598-7.82-3.004-.005-2.7 5.119-2.55 9.196z"/>
    <g>
      <path fill="#F5894E" d="M224.735 331.233c.532 1.426.133 1.707-.311 2.187-3.27 3.553-4.168 2.278-4.711 2.525-1.807.829-1.973-1.047-1.164-1.478.782-.417 2.001-2.007 2.971-2.836.455-.388.477-.616 1.12-.722.665-.102 1.873-.277 2.095.324z"/>
      <path fill="#CC6D3D" d="M224.369 333.177c-1.696 4.368-5.481 3.302-6.324 3.016-.349-.117 1.719-2.313 1.719-2.313s2.649-2.613 3.957-3.18c1.363-.586 1.153 1.183.648 2.477z"/>
      <path fill="#992C29" d="M224.871 331.287c-.155-.214-.172-.112-.211.048-.277 1.256-.365 1.76-1.474 2.88-.377.383-.321 1.192-3.652 1.483-1.414.126.232-1.818.232-1.818l1.852-2.356-.56.514s-2.201 2.308-3.082 2.856c-.865.538-1.757 2.962-.898 2.991a21.883 21.883 0 005.981-.65c.798-.242 1.197-1.702 1.502-1.813 0 0 .82-.558.803-.945-.022-.364-.282-2.89-.493-3.19z"/>
    </g>
  </g>
  <g>
    <path fill="#CC6D3D" d="M236.654 280.214s2.993 6.637 5.266 5.857c2.272-.781 1.236-3.093-1.929-8.348-1.474-2.449-4.318.862-3.337 2.491z"/>
    <path fill="#992C29" d="M235.666 278.779s-1.885-3.272-.283-4.435c1.602-1.164 3.309.964 4.34 2.511 1.131 1.697 1.28 2.37 1.28 2.37l-4.023 1.91-1.314-2.356z"/>
    <path fill="#CC6D3D" d="M245.425 287.026s-1.475-2.715-2.611-3.568c-1.136-.854-3.192.358-3.043 1.774.15 1.415 1.613 3.083 2.506 4.15.892 1.066 3.713 5.318 4.772 5.391 1.053.072 1.951-.427 1.707-1.28-.244-.854-3.331-6.467-3.331-6.467z"/>
    <path fill="#F5894E" d="M246.231 288.567s-1.536-3.354-2.633-4.363c-.837-.771-.82.146-.604.815.221.673.316 2.54 1.042 3.403s1.862 2.351 2.521 3.02c.66.669 1.951 1.697 1.752 1.008-.194-.693-2.078-3.883-2.078-3.883z"/>
    <path fill="#992C29" d="M248.299 305.937c.061-.082.166-.121.261-.184l8.07-5.459c.099-.077.105-.295.16-.863.034-.383-.094-.79-.543-.761-.593.034-1.325-.038-1.485.102l-7.627 5.42c-.116.082-.36.543-.449.742-.105.228-.238.451-.26.746-.017.219.155.301.46.354l1.413-.097z"/>
    <path fill="#1D2538" d="M245.289 292.838c-.033-.034-.421-.034-.926.33-.587.427-.315.81-.315.81l5.686 8.12 2.516-1.464-6.961-7.796z"/>
    <path fill="#1D2538" d="M242.281 293.27c.626.732 1.702.897 2.439.392.748-.509.925-1.541.354-2.341-.598-.839-1.768-1.081-2.577-.504-.792.572-.87 1.682-.216 2.453zm.937-.393c-.405-.267-.621-.747-.477-1.062.15-.32.604-.349 1.009-.063.393.277.587.747.443 1.047-.144.301-.576.34-.975.078z"/>
    <path fill="#F7BC4B" d="M243.313 291.088c-.577.131-.826.693-.571 1.236a1.192 1.192 0 00.055.102c-.216-.383-.083-.751.294-.809.377-.059.842.213 1.036.601.194.373.056.717-.299.775-.222.039-.482-.048-.698-.203.299.223.687.325 1.036.237.538-.131.798-.649.582-1.178-.216-.543-.864-.887-1.435-.761z"/>
    <path fill="#F6BE4A" d="M244.36 292.067c0 .01.006.021.012.031-.006-.01-.006-.021-.012-.031zM244.387 292.179c0 .015.006.029.006.049 0-.015-.006-.029-.006-.049z"/>
    <path fill="#3E4C6F" d="M244.814 293.003c.016-.01.033-.019.044-.034a.973.973 0 00.133-.363c.005-.044-.033-.083-.089-.088-.055-.005-.105.029-.111.073a.902.902 0 01-.116.31c-.022.039 0 .088.044.107.034.01.067.01.095-.005z"/>
    <path fill="#C94039" d="M246.97 296.406c-.576.233-1.064.238-1.064.238l2.794 3.961c.277.436 1.241 1.769 1.241 1.769s2.167-1.464 2.489-1.716c0 0-1.092-1.193-1.441-1.542l-2.999-3.325c-.011 0-.443.378-1.02.615z"/>
    <path fill="#1D2538" d="M248.893 296.848l-.443-.437s-.516.388-1.713.873c0 .005.078.252 2.156-.436z"/>
    <path fill="#C73F37" d="M245.881 296.615s1.474-.616 1.884-1.076l-.526-.514s-1.281 1.047-1.635 1.192l.277.398z"/>
    <path fill="#1D2538" d="M246.88 298.035l.111.155s1.291-.446 2.006-1.018l-2.117.863zM249.639 297.623l.371.417s-1.219.795-2.522.863c0 0 1.779-.611 2.151-1.28zM250.981 299.121l-.571-.625s-1.02.998-2.317 1.289l.87 1.241s.632-.698 2.018-1.905zM251.704 299.887l.327.33s-.837 1.042-2.322 1.299c0 0 2-1.241 1.995-1.629z"/>
    <g>
      <path fill="#F5894E" d="M248.377 306.044a.688.688 0 00.322-.116l8.075-5.731c.023-.014.266-.911.045-1.095-.222-.184-1.547-.054-1.547-.054s-8.025 5.386-8.169 5.687c-.144.301-.333.718-.355 1.028-.017.233.199.417.46.392l1.169-.111z"/>
    </g>
    <path fill="#FEED7F" d="M260.679 316.481l-1.524-1.944.937-4.94 1.535 1.877-.948 5.007zM258.74 313.951l-.549-.766.937-4.94.56.698-.948 5.008z" opacity=".5"/>
    <path fill="#992C29" d="M248.698 303.528l.516.048c.177.02.21.01.238-.15l.1-.494-.854.596z"/>
    <g>
      <path fill="#F7BC4B" d="M268.516 327.282s-16.788-22.033-17.038-22.329a9.248 9.248 0 01-.499-.654l2.999-2.104 19.111 22.222c.099.117.06 3.787.06 3.787-.06.072-.038.247-.432.213l-3.752-.81a.85.85 0 01-.449-.325z"/>
      <path fill="#F5894E" d="M268.515 327.282s-16.816-22.038-17.065-22.329c-.25-.291-.571-.722-.571-.722s-.011-.024.327-.223l17.969 23.09s3.935 1.353 3.541 1.324l-3.752-.81a.88.88 0 01-.449-.33z"/>
      <path fill="#F5894E" d="M260.225 316.263l.627.902c.033.077.177.005.255-.126l.537-.887c.05-.078.034-.146-.027-.151l-1.297.054c-.1.009-.128.131-.095.208zM268.507 319.007l-.138.848.881.039-.743-.887zM269.255 320.786l-.421 1.101 1.081-.388-.66-.713z"/>
      <path stroke="#F3E7D9" stroke-miterlimit="10" stroke-width=".25" d="M273 328.344l-20.313-25.228M265.135 315.046l-.582.374.216.945.942.276-.027 1.862v.727"/>
    </g>
    <path fill="#CC6D3D" d="M246.178 293.774s.782-.659 1.791-.567c1.008.092 1.158.965 1.524 1.852.26.625.593 1.726.593 1.726l.227 1.585-1.202-1.328s-.909-1.086-1.031-1.086c-.261 0-1.242.819-1.242.819l.116 1.362s.527.65-.011.519c-.349-.083-1.197-.722-1.236-1.401-.083-1.571-.454-2.734.471-3.481z"/>
  </g>
  <g>
    <path fill="#F7BC4B" d="M219.153 302.369c18.368.01 18.701 2.468 20.114 3.166.188-1.362-.859-19.009-4.451-21.336-3.591-2.331-8.485-2.298-13.595.985-4.601 2.957-8.336 9.269-13.558 8.963-5.221-.305-8.008 4.872-8.008 4.872s1.651-1.144 4.439-2.055c2.788-.916 6.59 5.4 15.059 5.405z"/>
  </g>
  <g>
    <path fill="#F5894E" d="M217.675 273.66s-6.197-.436-7.133-.47c-.937-.034-2.035.334-2.284 1.638-.249 1.304.743 1.775 2.666 2.177 1.923.402 6.352 1.129 8.197 1.028 1.852-.097 2.955-3.597-1.446-4.373z"/>
    <path fill="#CC6D3D" d="M217.675 273.66s-6.197-.436-7.133-.47c-.937-.034-2.035.334-2.284 1.638-.249 1.304.743 1.775 2.666 2.177 1.923.402 6.352 1.129 8.197 1.028 1.852-.097 2.955-3.597-1.446-4.373z"/>
    <path fill="#992C29" d="M223.367 273.878c3.198.47 1.696 4.077-.654 4.329-2.35.257-5.332-.029-5.332-.029l.299-4.518s3.891-.049 5.687.218z"/>
    <path fill="#F5894E" d="M210.579 276.661c-1.574-.078-3.17-.917-1.99-2.798 1.181-1.88 4.329-4.309 6.695-5.759 2.367-1.449 3.559-2.535 4.667-1.59 1.109.945-1.602 3.592-3.104 4.877-1.047.892-4.689 5.342-6.268 5.27z"/>
  </g>
  <g>
    <path fill="#F7BC4B" d="M232.621 273.456c-3.514-.329-5.371-.543-7.793.296-1.308.451-2.821 2.831-2.627 4.732.166 1.619 1.768 3.83 2.627 5.124 1.452 2.177 2.1 1.575 4.656 1.575 2.555 0 4.245.863 5.559-1.478.765-1.362 1.845-3.592 1.746-5.764-.106-2.303-2.362-4.315-4.168-4.485z"/>
    <path fill="#CE9436" d="M232.621 273.456c-3.514-.329-5.371-.543-7.793.296-1.308.451-2.821 2.831-2.627 4.732 4.655-.524 6.462-.131 8.563 1.052 2.1 1.183 4.279 4.174 4.279 4.174s1.951-3.268 1.746-5.764c-.183-2.303-2.362-4.32-4.168-4.49z"/>
  </g>
  <g>
    <path fill="#F5894E" d="M227.166 270.596l.338 3.156s.227 1.086 1.352 1.183c1.126.097 1.126-1.28 1.126-1.28l.338-4.237-3.154 1.178z"/>
    <path fill="#CC6D3D" d="M226.864 270.596l.405 3.156s.266 1.086 1.607 1.183c1.342.097 1.342-1.28 1.342-1.28l.404-4.237-3.758 1.178z"/>
    <path fill="#2563EB" d="M227.847 275.575c3.276-.514 11.324.509 11.318.446-.349-2.633-5.914-3.811-7.549-3.99-1.086.044-3.142 1.556-3.769 3.544z"/>
    <path fill="#2563EB" d="M226.846 272.361c1.901.519 3.314 2.778 2.987 3.132-.87.936-2.533-.145-6.645-1.43-1.092-.34-2.949-.407-2.949-.407s4.706-1.813 6.607-1.295z"/>
    <path fill="#273150" d="M228.793 275.206c.18 0 .327-.128.327-.286 0-.158-.147-.286-.327-.286-.181 0-.327.128-.327.286 0 .158.146.286.327.286z"/>
  </g>
  <g>
    <path fill="#F5894E" d="M219.748 268.163c.648-.146 1.801-1.809 1.867-3.472.045-1.163.488-1.914.721-2.123.233-.208.022-.96-.477-.664-.593.344-1.036.78-1.274 1.474 0 0-.316-1.106.077-1.59.394-.485.305-1.043.067-1.043-.239 0-.566.199-.566.199s.2-.664-.255-.766c-.454-.102-.593.344-.593.344s-.953.64-1.031 1.193c-.077.552-.554 2.283-.554 2.283s-.476 2.288.233 3.399c.726 1.11 1.136.916 1.785.766z"/>
  </g>
  <g>
    <path fill="#CC6D3D" d="M228.708 260.445c-2.023-.199-6.368 1.124-5.83 5.279.537 4.155 2.521 5.488 5.681 5.468 3.159-.019 5.054-1.73 5.165-5.08.111-3.35-1.269-5.294-5.016-5.667z"/>
    <path fill="#CC6D3D" d="M223.551 267.445c-.227-.524-.183-2.822-.936-2.855-.749-.034-1.647 1.658-.322 3.422.809 1.076 1.907.936 1.258-.567z"/>
    <path fill="#F5894E" d="M228.671 260.876c-1.868-.184-5.887 1.047-5.388 4.906.499 3.859 2.334 5.095 5.249 5.076 2.915-.02 4.667-1.61 4.772-4.717.1-3.117-1.169-4.926-4.633-5.265z"/>
    <path fill="#F7BC4B" d="M223.156 265.918s.133-4.436 4.705-4.732c4.368-.281 5.886 4.286 5.886 4.286s.732-5.275-5.803-5.124c-6.512.145-4.788 5.57-4.788 5.57z"/>
    <path fill="#CC6D3D" d="M233.074 266.209c.027-.17.16-1.59.909-1.624.748-.034 1.624 1.629.36 3.422-1.264 1.794-1.547-.203-1.269-1.798z"/>
  </g>
  <g>
    <path fill="#C94039" d="M232.026 262.849c-.222.281.992 1.518 1.674.946.637-.539 1.252-1.227.67-1.435-.587-.214-2.123.208-2.344.489z"/>
    <path fill="#F7BC4B" d="M232.322 263.31s.837.678 1.125.543c.288-.141-.272-.349-.798-.805-.527-.461-.671-.029-.327.262z"/>
    <path fill="#C94039" d="M235.496 262.141c-.094-.329-1.962-1.047-1.928-.242.033.756.088 1.774.676 1.566.582-.204 1.347-.994 1.252-1.324z"/>
    <path fill="#C94039" d="M234.593 262.641s-.443 1.808-1.374 2.986c-.704.892-1.43 1.377-1.43 1.377l-.011-.393-.676-.019s1.701-1.12 2.998-3.922l.493-.029z"/>
    <path fill="#C94039" d="M234.422 263.315s.05 1.759-.576 3.02a6.048 6.048 0 01-1.075 1.532l-.122-.364-.693.102s1.424-1.338 1.973-4.169l.493-.121z"/>
  </g>
  <g>
    <path fill="#48598B" d="M225.185 260.794c.504-1.527-1.918-2.662-2.816-2.861-.903-.198-1.801 1.183.566 2.463 0 0-3.043-1.677-3.608.393-.566 2.07 5.354 1.532 5.858.005z"/>
  </g>
  <g>
    <path fill="#273252" d="M230.307 264.272c.254-.001.458-.337.454-.749-.003-.413-.212-.746-.466-.744-.254.001-.457.337-.454.749.004.413.212.746.466.744zM226.364 263.756c.01-.38-.156-.692-.37-.696-.215-.004-.396.3-.406.681-.009.38.156.691.371.695.214.005.395-.3.405-.68z"/>
    <path stroke="#273252" stroke-linecap="round" stroke-linejoin="round" stroke-miterlimit="10" stroke-width=".25" d="M230.038 261.933s.62 0 .853.456M225.504 262.534s.327-.359.743-.373"/>
  </g>
  <g>
    <path fill="#33A86D" d="M18.485 350.819s7.211-6.7 0-5.124c-7.21 1.575-6.313 8.673 0 5.124z"/>
    <path fill="#288453" d="M19.385 337.415c-4.955-2.366 4.506-5.915 6.762-.791 2.256 5.129-1.801 3.156-6.762.791z"/>
    <path fill="#288453" d="M16.688 340.701c-3.154 4.601 3.608 6.7 4.954 3.156 1.353-3.548-1.8-7.756-4.954-3.156z"/>
    <path fill="#33A86D" d="M19.384 350.426c-2.256 4.732 3.608 7.49 5.858 3.156 3.553-6.83-3.602-7.887-5.858-3.156z"/>
    <path fill="#288453" d="M34.71 357.126c3.608 3.156 3.154 11.824-3.608 4.732-6.762-7.093.005-7.888 3.608-4.732z"/>
    <path fill="#288453" d="M28.852 363.04s-2.705 9.066 1.801 7.49c4.512-1.58 3.16-9.855-1.801-7.49zM38.765 369.348c4.506 0 7.66 10.248-.45 9.065-8.114-1.183-4.056-9.065.45-9.065zM47.576 386.32s.676-6.205-3.72-4.431c-4.39 1.774 1.691 5.91 1.691 5.91s-6.756-.887-2.705 1.478c4.057 2.366 5.066 2.366 5.066 2.366s-7.432 4.727-1.352 4.135c6.08-.591 7.094-2.07 7.094-5.614 0-3.548-3.719.296-3.719.296s4.063-9.759-2.355-4.14zM27.947 351.212s3.154-7.098 4.506-2.759c1.358 4.339-.898 4.732-4.506 2.759z"/>
    <path fill="#288453" d="M53.188 393.001s2.755 11.959 6.762 6.699c2.705-3.548-4.057-10.248-6.762-6.699z"/>
    <path fill="#33A86D" d="M409.087 355.153s0-5.517-4.206-2.104c-4.207 3.413 0 6.312 4.206 2.104z"/>
    <path fill="#288453" d="M407.583 349.898s-1.502-4.993 3.004-5.255c4.506-.262 3.303 1.837 3.303 1.837s5.111-4.731 6.009-2.366c.903 2.366-2.101 2.89-2.101 2.89s2.405 5.255-1.203 4.203c-3.608-1.052-4.805-2.366-4.805-2.366s-1.801 2.371-4.207 1.057z"/>
    <path fill="#288453" d="M409.989 352.526s.598 4.993 3.608 2.104c2.998-2.89-.904-4.204-3.608-2.104z"/>
    <path fill="#33A86D" d="M413.782 336.445s-4.982-2.783-4.101-.184c.881 2.598 2.344 2.041 2.344 2.041s-5.276 3.708-.293 2.967c4.982-.742 3.225-2.599 3.225-2.599s6.153-2.967 3.808-4.45c-2.344-1.484-4.983 2.225-4.983 2.225zM409.349 345.792c-2.511-.689-2.866-4.984.798-2.991 3.137 1.711 1.263 3.781-.798 2.991zM420.505 359.492s3.043-2.167 3.719.494c.676 2.662-4.018 2.003-4.018 2.003s3.303 4.203.598 4.993c-2.704.79-5.708-1.314-4.805-4.203.904-2.89 2.367-1.808 2.367-1.808s-2.666-5.42 2.139-1.479zM419.327 356.738c-1.081-.499-1.081-7.223 2.588-4.237 3.67 2.987-1.513 4.732-2.588 4.237z"/>
  </g>
  <g>
    <path stroke="#FFFCF3" stroke-miterlimit="10" stroke-width="2" d="M96.907 235.318l129.801-31.54 138.812 31.54H96.907z"/>
  </g>
</svg>
