<svg xmlns="http://www.w3.org/2000/svg"  fill="none" viewBox="0 0 960 1080">
  <path fill="#F3E7D9" d="M97 720.78c4.751-3.56 108.001-48.66 108.001-48.66s-29.63 20.18-5.89 11.88c23.74-8.3 235-109.19 245.67-117.5 10.67-8.31-17.8-4.74-58.15 15.43l-40.36 20.17s-34.41-17.8-60.52-9.5c-26.11 8.3-33.23 23.74-33.23 23.74s0-14.24-19-13.05c0 0-11.87-16.62-40.35 0-28.48 16.62-26.11 67.64-26.11 67.64s-27.3 9.5-49.85 22.55-20.21 27.3-20.21 27.3zM256.081 490.54c4.88.26 147.16-67.65 168.52-76 21.36-8.35 36.8-17.8 110.38-51s148.35-73.54 166.15-81.88c17.8-8.34 125.8-68.84 151.87-84.26 26.07-15.42 1.19-42.73-16.61-46.29-17.8-3.56-34.39 16.62-34.39 16.62s-47.46-144.8-224.3-72.4-111.56 229.05-111.56 229.05-42.72-26.11-85.45 7.13c-42.73 33.24-34.42 67.64-5.93 79.51 0 0-49.85 0-81.89 22.55s-23.74 34.42-4.75 36.79c0 0-54.59 18.99-32.04 20.18z"/>
  <path fill="#856792" d="M382.909 956.4s-58.17.47-134 7.68-174.38 18.19-116.26 26.77c58.12 8.58 89.52 5.22 179.46 5.22 89.94 0 342 11.61 270.72-19.54 0 0 82.57-5.21 113.63-8.33 31.06-3.12 18.37-20.1 18.37-20.1s54.62-2.66 64.66-8.66-53.07-13.44-53.07-13.44 111.28-3.47 134.93-8c23.65-4.53-35.49-3.73-111.16-2.73-75.67 1-253 1.7-281.39 11.44-25.89 8.88 32.43 12.75 30.57 10 0 0-111.62 7.64-121.61 11.17-9.99 3.53 5.15 8.52 5.15 8.52z"/>
  <path fill="#856792" d="M689.29 985c-21.26-4.29-126.2 4.36-60.92 10.16s82.19-5.83 60.92-10.16zM821.91 964.82c-28.51 1.24-72.76 8.54-39.67 12.4 38.25 4.45 97.94-1.24 84.31-7.44-13.63-6.2-16.12-6.2-44.64-4.96z"/>
  <path fill="#33A86D" d="M587.169 919.58s-13.41-9.65-1.64-22.73 18.64-1.47 12.76 10.3c-5.88 11.77-11.12 12.43-11.12 12.43z"/>
  <path fill="#33A86D" d="M586.189 918.76s18.31-24.2 24.85-19.62c6.54 4.58-3.27 9.16-3.27 9.16s20.93-5.24 11.12 2-32.7 8.46-32.7 8.46z"/>
  <path fill="#288453" d="M547.899 915.73s-1-14.67 7.86-15.2c8.86-.53 16.76 4.72 9.43 11.53-7.33 6.81-13.63 9.94-17.29 3.67z"/>
  <path fill="#33A86D" d="M551.049 913.93c7.71-1.6 11.11-22.89.13-21.27-10.98 1.62-7.84 22.88-.13 21.27z"/>
  <path fill="#665070" d="M478.8 941.92c25.49.87 102.68-.8 104.44 5.15 1.76 5.95-102.86 6.33-102.86 6.33s67.34 21.36 5.54 21.36c-61.8 0-219.53 3.39-238.92-3.17C227.61 965.03 385.44 957 385.44 957s-40.35-10.33 3.56-12.7c43.91-2.37 64.31-3.25 89.8-2.38z"/>
  <path fill="#288453" d="M398.348 937.57s3-19.53-14-28.8-21.44.2-14.82 8.9c6.62 8.7 28.82 19.9 28.82 19.9z"/>
  <path fill="#288453" d="M399.43 937.14s24.11-16.9 22.94-34.18c-1.17-17.28-23.37 9.14-25.76 17.45-2.39 8.31 2.82 16.73 2.82 16.73z"/>
  <path fill="#288453" d="M362.17 936.86c-3.95-1 .09-5.93 12.36-10.21 12.27-4.28 26.18 11.45 26.18 11.45s-34.58-.25-38.54-1.24z"/>
  <path fill="#33A86D" d="M397.809 936.9s14.09-29.2 28-28.82c15.85.44-5.7 19.81-5.7 19.81s15-9.65 21.17-7.72c6.17 1.93-7.66 10.28-7.66 10.28s16 2.23 14.6 4.49c-1.4 2.26-50.41 1.96-50.41 1.96z"/>
  <path fill="#665070" d="M499.369 935.59s51.71 7.09 48.77 7.7c-13.95 2.88-47.2 10.81 32.2 10.37 95.47-.53 44.84-11.08 44.84-11.08s98.5-1.05 62.9-11.73l-188.71 4.74zM632.299 919.37c-35.61 0-18.2-2.7 32.83-4.35 73.58-2.37 148.22 1.45 118 1.45s-115.23 2.9-150.83 2.9z"/>
  <path fill="#CE9436" d="M627.81 452.82s-10.28 33.8 9.23 48.65c19.51 14.85 3.96-46.42-9.23-48.65z"/>
  <path fill="#F5894E" d="M558.689 497.09s14.39-25.93 18.59-36.3c4.2-10.37 14.43-28 23.61-30.83 9.18-2.83 17.2 6.54 7.66 22.41-11.35 18.89-26.8 39.55-36.3 47.57 0 0-.42 3.22-2.39 4.38-10.04 5.91-17.41 3.68-11.17-7.23z"/>
  <path fill="#CC6D3D" d="M579.81 485.79c1.32-4 5.57-10.2 9.76-20.57 4.19-10.37 2.14-32.42 11.32-35.26 9.18-2.84 17.2 6.54 7.66 22.41-11.35 18.89-26.8 39.55-36.3 47.57 0 0 6.24-10.19 7.56-14.15z"/>
  <path fill="#273252" d="M577.049 460c5.66-12.7 12.23-28.34 21.16-31.1 8.93-2.76 21.21 6.66 11.93 22.09-2.3 3.82-9.13 14-11.67 18l-21.42-8.99z"/>
  <path fill="#1D2538" d="M589.57 465s2.64-9-1.05-27.17c3.52-6 5.12-7.49 9.69-8.9 8.93-2.76 21.21 6.66 11.93 22.09-2.3 3.82-9.131 14-11.671 18L589.57 465z"/>
  <path fill="#992C29" d="M572.36 501.31c.36 1 1.41 7.54.9 10.09-.51 2.55-.41 7.87-8.93 5.52-7-1.92-14.6 0-18.72-.88-9.13-1.9-11.43-1.78-15.41-6.33-3.98-4.55 4.24-1.5 17.32-4.92s24.04-5.67 24.84-3.48z"/>
  <path fill="#F5894E" d="M559.25 498.77c7.29-4 13.57-.58 12.74 2.21-1.15 3.82-2.1 3-10.51 4.2a88.3 88.3 0 01-14.34.49c-6.2-.07-2.09.96 12.11-6.9z"/>
  <path fill="#273252" d="M647.089 446.37s-37.68-17.65-44.09-17.9c-6.41-.25-16.77 2.64-8.19 16.56 6.1 9.9 32.62 23.94 43.82 28.37 11.2 4.43 16.62-.42 17.52-10.1.9-9.68-9.06-16.93-9.06-16.93z"/>
  <path fill="#1D2538" d="M647.089 446.37s-37.68-17.65-44.09-17.9c-6.41-.25-16.77 2.64-8.19 16.56 6.1 9.9 32.62 23.94 43.82 28.37 11.2 4.43 16.62-.42 17.52-10.1.9-9.68-9.06-16.93-9.06-16.93z"/>
  <g>
    <path fill="#288453" d="M750.999 656.54c-5.68 2.53-3.16 20.84 6.32 12s-.63-14.54-6.32-12z"/>
    <path fill="#EE5D4F" d="M496 587.33S547.11 601 557.66 601c10.55 0 177.49-6 177.49-6s22.16-32.44-48.26-28.49C616.47 570.46 496 587.33 496 587.33z"/>
    <path fill="#EE5D4F" d="M735.508 507.73c1.18-4.26 2.75-8.29 6.9-6.77 17.89 6.55 65.59 24.39 65.59 24.39s12.33 3.93 13.45 23.74c2 35.21-1.59 92-36.4 105.49-23.21 9-104.51 4.22-93.89 6.33 0 0 41.67-13.71 41.67-73-.05-45.26-.37-69.16 2.68-80.18z"/>
    <path fill="#C94039" d="M738.319 500c-17.32-1.78-138.46 10.32-173.32 14.27-34.86 3.95-65.67 5.54-77.53 12.66-14.88 8.93-15.83 31.12-11.08 43.78s18.46 19 29.54 17.94c15.07-1.43 203.07-8.65 206.28-8.65 3.21 0 15 15.82 5.54 35.6-8.16 17-17.49 34.59-31.51 41.71a1.998 1.998 0 00-.33 3.168c.301.282.681.465 1.09.522 8.14.33 21.79-1.22 37.83-11.43 26.17-16.57 33.27-29.27 35.64-67.25.79-65.94.53-79.91-22.15-82.32z"/>
    <path fill="#EE5D4F" d="M673.18 554.63c8.522 0 15.43-6.908 15.43-15.43 0-8.522-6.908-15.43-15.43-15.43-8.522 0-15.43 6.908-15.43 15.43 0 8.522 6.908 15.43 15.43 15.43z"/>
    <path fill="#992C29" d="M676.599 551.33c6.699 0 12.13-5.431 12.13-12.13 0-6.699-5.431-12.13-12.13-12.13-6.699 0-12.13 5.431-12.13 12.13 0 6.699 5.431 12.13 12.13 12.13z"/>
    <path fill="#EE5D4F" d="M606.319 564.25c8.157 0 14.77-6.613 14.77-14.77s-6.613-14.77-14.77-14.77-14.77 6.613-14.77 14.77 6.613 14.77 14.77 14.77z"/>
    <path fill="#992C29" d="M609.599 561.1c6.417 0 11.62-5.202 11.62-11.62 0-6.418-5.203-11.62-11.62-11.62-6.418 0-11.62 5.202-11.62 11.62 0 6.418 5.202 11.62 11.62 11.62z"/>
    <path fill="#EE5D4F" d="M529.968 561.88c7.721 0 13.98-6.259 13.98-13.98s-6.259-13.98-13.98-13.98-13.98 6.259-13.98 13.98 6.259 13.98 13.98 13.98z"/>
    <path fill="#992C29" d="M533.078 558.9c6.075 0 11-4.925 11-11s-4.925-11-11-11-11 4.925-11 11 4.925 11 11 11z"/>
    <path fill="#EE5D4F" d="M694.799 504.78l-.53 11.6 14.77 21.63-2.11 26.37 2.64 17.41-4.22.53-1.58-17.41 2.11-25.84-15.83-23.21 4.75-11.08zM545.529 586.01l-4.22-10.55 15.82-12.13 6.13 13.45 13.39 7.65-31.12 1.58z"/>
    <path fill="#C94039" d="M547.849 586.5l-4.06-10.15 13.74-11.34 4.94 12.26 13.12 7.92-27.74 1.31z"/>
    <path fill="#EE5D4F" d="M700.078 526.67l12.92-15.56 2.11-5.01-1.06 5.8-12.92 16.09-1.05-1.32z"/>
    <path fill="#C94039" d="M786.189 529.31l4.35 34.02 8.7 1.19 14.64 30.06 5.14 3.56.4-2.77-5.15-3.95-13.84-29.67-8.31-1.19-5.93-31.25z"/>
    <path fill="#EE5D4F" d="M750.19 615.55l-11.87-12.66-10.55 8.18 1.05 10.28 12.659 2.11 8.711-7.91z"/>
    <path fill="#C94039" d="M749.088 614.66l-10.38-8.21-9.05 4.32.91 8.92 10.98 1.83 7.54-6.86z"/>
    <path fill="#33A86D" d="M753.348 670.14c-4 .79-3.16 17.41 6.33 15s-2.37-15.79-6.33-15zM756.519 693.88c4.74-5.54 11.07 1.58 4 7.12s-8.75-1.58-4-7.12zM753.399 623.21c-3.3-.92-9 2.65-4.23 5.82 4.77 3.17 7.53-4.89 4.23-5.82z"/>
    <path fill="#288453" d="M751.208 613.85c-4-3.14-10.92 1.2-5.08 4.69s9.03-1.54 5.08-4.69z"/>
    <path fill="#33A86D" d="M739.899 604.6c-3.55 6.72 6.53 6.4 8.51.86 1.98-5.54-6.14-5.34-8.51-.86z"/>
  </g>
  <g>
    <path fill="#288453" d="M792.12 616s-4.75-9.9-10.68-3.17 2.37 9.89 2.37 9.89 9.5 2.28 8.31-6.72z"/>
    <path fill="#288453" d="M788.56 623.46c-2.77.2-8.31 12.66 1.58 11.47 9.89-1.19 1.19-11.67-1.58-11.47zM798.45 638.89s-7.52-1.19-8.7 7.12c-1.18 8.31 9.92 7.78 11.47 4 3.78-9.23-2.51-11.65-2.77-11.12zM782.999 651.15c5.14-1.18 6.33 10.29-.39 8.71-6.72-1.58-4.73-7.52.39-8.71z"/>
    <path fill="#288453" d="M781.24 659.86c-2 .26-5.73 6.33-1.25 8.17 3.59 1.48 4-2.3 4.28-3.82.28-1.52-.98-4.62-3.03-4.35zM779.459 677.26c0 4 8.7 4.36 5.94-1.18-2.76-5.54-5.94-2.77-5.94 1.18z"/>
    <path fill="#33A86D" d="M700.601 568.08c-3.42 2-2.63 9.49 4.22 7.38 6.85-2.11-.82-9.36-4.22-7.38zM792.999 631.12c-5 2.66-2.67 8.66 3 8.66s2-11.32-3-8.66z"/>
    <path fill="#288453" d="M788.159 541.57c-1.18-2.77-8.3 1.19-3.95 4.75 4.35 3.56 5.14-1.98 3.95-4.75zM707.46 557.4s-6.33-2.77-5.54 3.56 6.73 2.77 5.54-3.56z"/>
    <path fill="#33A86D" d="M536.689 554.1c-2.77-.79-4.48 4.22-1.58 5.54 2.9 1.32 4.35-4.75 1.58-5.54zM532.87 563.86c2.57.67 4.35-3.43.13-3.83-4.22-.4-3.16 3.04-.13 3.83z"/>
    <path fill="#288453" d="M535.24 566.89c2.57.67 4.11-4.22-.13-4.22-2.77 0-2.9 3.43.13 4.22zM790.131 556.5c-3.85-.77-1.15-12.35 4.25-8.87 5.4 3.48-.38 9.64-4.25 8.87z"/>
    <path fill="#33A86D" d="M802.409 567.55s-10.55 2.64-3.7 7.91c6.85 5.27 7.39-4.75 3.7-7.91z"/>
    <path fill="#288453" d="M802.181 575.72c-5 8 5.36 11.29 5 3.16-.32-6.13-5-3.16-5-3.16z"/>
    <path fill="#33A86D" d="M702.709 522.71s-5.27-6.85 1.59-6.85c6.86 0 2.63 7.91-1.59 6.85zM704.82 535.37s-5.27-6.85 1.59-6.85c6.86 0 2.59 7.91-1.59 6.85z"/>
  </g>
  <g>
    <path fill="#CC6D3D" d="M665.729 427.65c-3-3.37-33-12.28-36.2-12.28-3.2 0-7.61 4-3.56 8.71 4.05 4.71 30 20.38 36.79 17 6.79-3.38 6-10.08 2.97-13.43z"/>
    <path fill="#CC6D3D" d="M630.319 424.87s-8.9 2.77-13.65 2-12.86-7.92-12.86-7.92-4.35-7.12-6.72-10.68c-1.45-2.17 14.83 2 14.83 2l8.9-1.38a8.335 8.335 0 01-5.73-5c-2-4.35.59-7.12 3.56-3.56 2.69 3.23 5.14 3.76 7.91 5 2.77 1.24 12.07 14.4 3.76 19.54z"/>
  </g>
  <g>
    <path fill="#1D2538" d="M635.63 479.93c-15.09 6.37-26.42 12.34-28 17.66-2.06 7.21 12.29 20.79 24.7 17.33 13.63-3.81 38.26-10.83 39.21-14.1 6.99-23.73-11.84-31.04-35.91-20.89z"/>
    <path fill="#FEED7F" d="M666.52 384.71s-10.75 11.86-12.78 24.09c-2.03 12.23 6.29 22.67 15 30.31 4.33 3.82 5.26 17 14.08 24.19 8.82 7.19 14.83 4.86 22.58 4 14.26-1.53 2.11-42.73-.53-52.75-2.2-8.39-15.43-23.61-21.54-26.66-6.11-3.05-10.19-6.23-16.81-3.18z"/>
    <path fill="#F7BC4B" d="M668.891 384.32l1.78 48.06 17 7.13 2.9 14.63s9.88 11 17.28 13.45c14.24 4.75 2-43.38-.66-53.4-2.21-8.39-15.43-23.61-21.55-26.67-6.12-3.06-10.13-6.26-16.75-3.2z"/>
    <path fill="#FEED7F" d="M713.5 468.91c2 15.3.25 31.13-8.61 31.91-26.9 2.38-33.3 2.91-47.47 6.73 0 0-5.74-20.77-13.45-26.9-4.13-3.28-4.82-17-14.05-40.22 0 0 34 7.38 39.83 11.08 0 0 12.51-1.59 22.28-3.7 9.77-2.11 19.51 5.81 21.47 21.1z"/>
    <path fill="#F7BC4B" d="M715.371 470c-.53 15.41-2.41 30.47-11.27 31.25-26.9 2.37-32.51 2.51-46.68 6.33 0 0-5.74-20.77-13.45-26.9-4.13-3.28-8.51-28.09-8.51-28.09l25.72 14.64 34-5.15s-10.37-14.24-3-15.82c7.37-1.58 15.16 2.42 20.84 10.48 1.81 2.58 2.55 7.49 2.35 13.26z"/>
  </g>
  <g>
    <path fill="#273252" d="M624.289 348.12s-9.92-1.4-8.41-7.32c2.37-9.29 16.61-5.54 16.61-5.54s-3.3-10.19 4.9-10.81c13.59-1 19.41 10.26 19.41 10.26s6.32-9 18.62-1.62 6.14 19.85 6.14 19.85 8.62 1.86 9.88 9.22c4.26 24.87-18.1 26.29-33 25.13 0 0-6.09 10-15.77 1.94s-22.29-35.96-18.38-41.11z"/>
    <path fill="#48598B" d="M623.299 347.82s-9.85-1.95-6.33-6c3.69-4.22 17.5-2.83 17.5-2.83s-5.48-10.85 2.06-11.44c7.54-.59 18.94 11 18.94 11s6-3.68 14.63 4.55c9.53 9.09 2.58 17.39 2.58 17.39s17.77 11.36-2.41 29.16c0 0-17.6 10.09-27.09 6.92-9.49-3.17-5.75-13-5.75-13-7.21-11.83-17.89-26.57-14.13-35.75z"/>
    <path fill="#F5894E" d="M636.89 376.35l21.32 21a20.005 20.005 0 009.41-11.16c2.23-5.84-.07-7.67-.07-7.67L647 363.23s-11.51 4.4-10.11 13.12z"/>
    <path fill="#CC6D3D" d="M636.89 376.35l6.51 5.14 6-6L667.37 387c2.94-5.78.21-8.4.21-8.4L647 363.23s-11.51 4.4-10.11 13.12z"/>
    <path fill="#F5894E" d="M630.079 344.29s-9.68 3.75-9.16 15.92c.37 8.57 4.55 21.15 11.56 25.37 7.01 4.22 17.48 2.12 24.74-4.82 7.49-7.17 7.74-11 1.17-26.16-6.18-14.26-22.69-14.36-28.31-10.31z"/>
    <path fill="#CC6D3D" d="M631.649 344.17s-9.1 6.7-8.95 14.9l.37 4.2s11.31 2.42 19.55 8.71c4.48 3.42 1.29 15.33 1.29 15.33 5.3.08 11.94-5.21 11.94-5.21 7.33-6 10.15-12.28 2.41-28.43-6.42-13.39-21.26-13.37-26.61-9.5z"/>
    <path fill="#F7BC4B" d="M622.898 351.05s14.57-13.09 36.31 9.63c0 0 1.75-12.88-12.16-17.94-16.53-6.02-24.15 8.31-24.15 8.31z"/>
    <path fill="#CC6D3D" d="M664.001 365.164c3-1.368 4.169-5.248 2.61-8.664-1.559-3.417-5.254-5.078-8.254-3.71-2.999 1.369-4.168 5.248-2.609 8.665 1.558 3.417 5.254 5.077 8.253 3.709z"/>
    <path fill="#273252" d="M630.617 366.566c.724-.39.719-1.806-.012-3.162-.731-1.357-1.911-2.14-2.635-1.75-.725.391-.719 1.807.012 3.163.731 1.357 1.911 2.14 2.635 1.749z"/>
    <path stroke="#273252" stroke-linecap="round" stroke-linejoin="round" stroke-width=".5" d="M626.379 357.29a3.195 3.195 0 013.25.19"/>
    <path fill="#48598B" d="M658.13 367.06s-9.18 8.05-2.66 16.12c8.26 10.21 25-2.66 19-13.19s-16.34-2.93-16.34-2.93z"/>
    <path fill="#C94039" d="M643.888 349.27c-.49 1.38 5 5.51 6.82 2.51 1.66-2.82 3.08-6.24.83-6.62-2.25-.38-7.17 2.73-7.65 4.11z"/>
    <path fill="#F7BC4B" d="M645.419 351s3.64 2.14 4.5 1.3c.86-.84-1.31-1.22-3.63-2.69s-2.37.39-.87 1.39z"/>
    <path fill="#C94039" d="M653.65 339.81c1.31-.65 6.09 4.33 3.33 6.45-2.59 2-5.81 3.84-6.47 1.65-.66-2.19 1.83-7.45 3.14-8.1z"/>
    <path fill="#C94039" d="M654.108 344.7s.34 8-1.67 13.75a28.086 28.086 0 01-3.54 7l-.45-1.65-2.37.51s4.76-6.18 6.34-19.08l1.69-.53z"/>
    <path fill="#C94039" d="M654.21 347.68s2 7.35 1.17 13.18a26.512 26.512 0 01-2.15 7.38l-.81-1.43-2.32 1s3.57-6.87 2.51-19.23l1.6-.9z"/>
  </g>
  <g>
    <path fill="#F5894E" d="M629.65 542.82l-.17 2.06-5.47 60.33-13.3-1.68-5.38-65.1"/>
    <path fill="#CC6D3D" d="M629.65 542.82l-.17 2.06-5.48 60.33-13.3-1.68-1.52-17.42s14.21-1.89 12.67-43.93"/>
    <path fill="#212B46" d="M604.17 506.94l1.47 33.72 24 2.16c4.91-24.67 5.24-31.39 1.76-38-6.47-12.3-26.07-13.93-27.23 2.12z"/>
    <path fill="#1D2538" d="M604.171 506.94s19.05 23.44 17.71 35.13l7.77.75c4.91-24.67 5.24-31.39 1.76-38-6.48-12.3-27.6-18.63-27.24 2.12z"/>
  </g>
  <g>
    <path fill="#992C29" d="M625.34 601.15c.63.89 3.51 7.33 3.7 10.08.19 2.75 1.74 8.16-7.62 8.1-7.68-.05-11.16 4.17-15.62 4.43-9.86.56-16 1.14-21.29-2.41-5.29-3.55 3.93-2.7 16.37-9.8 12.44-7.1 23.03-12.42 24.46-10.4z"/>
    <path fill="#CC6D3D" d="M611.219 602.16c6.35-6.14 12.23-4.57 13.17-.29.54 2.47-7.13 6.88-9 8.15-4.9 3.36-10.42 7.19-16.81 5.66-6.39-1.53.28-1.57 12.64-13.52z"/>
  </g>
  <g>
    <path fill="#F5894E" d="M654.871 417.2s-5.72 19.74-6.73 26.27c-1.01 6.53 12.74 14.84 16.63 7.18 4.61-9.07 10.26-35.33 10.26-35.33l-20.16 1.88z"/>
    <path fill="#CC6D3D" d="M654.869 417.2l12.65 10.53s-6.64 30.58-2.75 22.92c4.61-9.07 10.26-35.33 10.26-35.33l-20.16 1.88z"/>
    <path fill="#EE5D4F" d="M658.27 393.89l-4.67 25.17 20.4 5.09 6.62-29.41s-12.38-16.9-22.35-.85z"/>
    <path fill="#C94039" d="M658.27 393.88s6.469 2.77 8.579 4.35c2.11 1.58-1.06 15.3-1.06 15.3l9.18 6.23s5.74-18.42 6.13-24.07c.39-5.65-12.969-17.69-22.829-1.81z"/>
    <path fill="#EE5D4F" d="M659.079 411c3.61-.44 9.09 1.47 11.65 2.49a9.365 9.365 0 013.06 1.6 43.127 43.127 0 00-10.71 0c-5.17.69-7.6-3.71-4-4.09z"/>
    <path fill="#F5894E" d="M663.28 452.34s5-6.16-5.42-11.6c-10.42-5.44-31.55-14.27-39.23-16.5-7.68-2.23-13.82-3.94-15.93 0-2.11 3.94-1.12 6.95 4.41 9.33s34.67 21.47 44 22.84c9.33 1.37 12.17-4.07 12.17-4.07z"/>
  </g>
  <g>
    <path fill="#121721" d="M612.29 425.06l-31.64-22.7a2 2 0 01-.47-2.75 2 2 0 011.66-.85l8.7.13a2 2 0 011.12.37l22.94 16.21a1.994 1.994 0 01.84 1.62v6.35a1.99 1.99 0 01-.297 1.032 1.992 1.992 0 01-1.84.947 2 2 0 01-1.013-.359z"/>
    <path fill="#F3E7D9" d="M613.751 420.21l-30.37-20.23 8.12-.2 22.74 15.86-.49 4.57z"/>
    <path fill="#F5894E" d="M612.71 431.22s4.72-5.25 2.84-9.18c-1.88-3.93-5.25-11.2-4.5-14.87s-3.11-3.63-4.41-.94a8.436 8.436 0 00.27 5.77c1 2.12-3.91 4.15-3.91 4.15l-8.81-4.45s-4.79-3.85-5.41-4.09c-1.7-.64-5.08.06-3.16 2a41.876 41.876 0 012.93 3.3s-1.74 7.58.08 8.92a13.64 13.64 0 013.15 3.74l2.94 4.42s7.14 4.48 17.99 1.23z"/>
  </g>
  <g>
    <path fill="#A96443" d="M394.74 643a53.01 53.01 0 01-6.14-11.47c-5.14-13.8-10.67-32.74-3.51-33.17 10.79-.65 20.73 7.7 23.8 16.3 3.07 8.6 4.66 15.67 10.55 25.35 5.89 9.68 21.7 34.72 9.19 39.13-12.51 4.41-23.88-10.72-33.89-36.14z"/>
    <path fill="#7A462F" d="M405.53 631.18c-2.73-4.25-13.47-14.82-13.47-14.82s-13.23-17.58-7-18c10.79-.65 20.73 7.7 23.8 16.3 3.07 8.6 4.66 15.67 10.55 25.35 5.89 9.68 21.7 34.72 9.19 39.13-7.28 2.56-30.25-18.17-34.29-32.18-.38-1.31 14.19-.31 13.85-1.58-2.31-8.5-1.64-12.65-2.63-14.2z"/>
  </g>
  <g>
    <path fill="#121721" d="M340.72 720.36s-10.55.6-22.28 2.33c-9.93 1.48-21.24 3.1-20.51 14.26.73 11.16 9.29 12.22 20.42 11.54 11.13-.68 27.08-6.21 30.89-7.39 3.81-1.18 10.76-19.62-8.52-20.74z"/>
    <path fill="#F7BC4B" d="M373.179 679.9c10.28-.79 43.64 2.64 73.71 1.85 30.07-.79 10.55 54.85-40.89 51.69-51.44-3.16-49.85-7.12-53.8-24.53-3.95-17.41 10.69-28.22 20.98-29.01z"/>
    <path fill="#F7BC4B" d="M326.341 690.24s-48.34-3.76-57.74 24.76c-6.27 18.93 34.79 18.42 74.64 23.21 39.85 4.79 46.81-29.49 21.64-41.13-25.17-11.64-38.54-6.84-38.54-6.84z"/>
    <path fill="#29ABE2" d="M338.759 591.92c-.69.19-23.74 4.58-31.25 12.08-6 6-5.67 85.73-5.67 85.73s13.85 2.73 28.21 5a202.106 202.106 0 0040 2.08s17.21-14.17 18.59-16.25c1.38-2.08-4.94-11.46-4.94-11.46s-1.39.2 4.15-28.14a114.312 114.312 0 000-43.21s-9.53-5.83-49.09-5.83z"/>
    <path fill="#1689CB" d="M338.759 591.92c-.69.19-23.74 2.68-31.25 10.18-6 6-5.67 87.63-5.67 87.63s13.85 2.73 28.21 5a202.106 202.106 0 0040 2.08s17.21-14.17 18.59-16.25c1.38-2.08-4.94-11.46-4.94-11.46s-37.4 22.41-56.51 12.29c-10-5.3-4.94-41.4 3.5-52.79 8.44-11.39 51.31-9.45 51.31-9.45 3.17-1.95 5.8-21.4 5.8-21.4s-9.48-5.83-49.04-5.83z"/>
    <path fill="#7A462F" d="M370.311 596.58s-2.21 15-13 15.69c-20.94 1-21.41-9.07-19.08-17.4 2.33-8.33 24.2-3.68 24.2-3.68l7.88 5.39z"/>
    <path fill="#FEED7F" d="M366.999 713.76s66.63-40.52 82-43.22c8.53-1.51 23.75 7.71 24.62 12.93.87 5.22-1.15 19.35-9.3 24-12.32 7-84.35 29.49-93.17 32.06-8.82 2.57-4.15-25.77-4.15-25.77z"/>
    <path fill="#F7BC4B" d="M367.001 713.76s66.63-40.52 82-43.22l-19.81 24-29.89 9.08s-22.54 34.29-28.15 35.93c-8.83 2.51-4.15-25.79-4.15-25.79z"/>
    <path fill="#1D2538" d="M405.8 711.21s13.84-1 26.88-.72c11 .24 21.35.72 22.07 12.23.72 11.51-6.24 13.44-18.47 14.16-12.23.72-32.64-2.64-37-3.36-4.36-.72-14.35-18.71 6.52-22.31z"/>
    <path fill="#121721" d="M405.8 711.21L425.24 729l29.51-6.24c.72 11.52-6.24 13.44-18.47 14.16-12.23.72-32.64-2.64-37-3.36-4.36-.72-14.35-18.75 6.52-22.35z"/>
    <path fill="#FEED7F" d="M409.18 708s-8.71-5.54-11.08-4.75c-2.37.79-7.12 4-7.12 4s-55.39-9.5-64.09-12.66c-8.7-3.16-49.45-15-60.53-2.38-11.08 12.62-8 31.39 9.37 35.35C293.1 731.52 339 737 369.09 737c10.81 0 23.65 1.91 27.16 2.11 6.26.36 6.48 1 10-1.06 5.56-3.16 2.93-30.05 2.93-30.05z"/>
    <path fill="#F7BC4B" d="M409.18 708s-8.71-5.54-11.08-4.75c-2.37.79-7.12 4-7.12 4s-55.39-9.5-64.09-12.66c-8.7-3.16-49.45-15-60.53-2.38-11.08 12.62-8 31.39 9.37 35.35l37.45-23.21 31.64 3.16 43.78 19L409.18 708z"/>
    <path fill="#29ABE2" d="M355 617.34c-4.88-2-19.58-3.12-26.24 14.59 0 0 3.1-5.42 11.21-9.38a64.01 64.01 0 0115.03-5.21zM383.61 669.08s-10.61 19.26-41.95 18.15c0 0 35.62-14.23 41.95-18.15z"/>
    <path fill="#7A462F" d="M319.68 630.15C316 643 308.3 650.85 302.4 649c-5.62-1.78-8.39-12.07-6.22-24.12 2.43-13.41 10.15-24.81 17.32-24 7.6.91 10.33 14.8 6.18 29.27z"/>
  </g>
  <g>
    <path fill="#CC6D3D" d="M414 804c-2.22.25-7.79 39.3 21 77 42 55 112 47 126 49 0 0-40-31-46-83s-22-52-101-43z"/>
    <path fill="#7A462F" d="M414 804c-2.22.25-7.79 39.3 21 77 42 55 112 47 126 49 0 0-40-31-46-83s-22-52-101-43z"/>
    <path fill="#F5894E" d="M407 736l-104 2-62 4s-28.52 11-24.52 40 16.29 34 27.29 36 115.92-.89 115.92-.89L489 813s-2 28 11 54 47 63 61 63c0 0 .49-1.15-6.51-11.15S523 841 550 809c0 0 21.26-2 44-2s38-10 41-32-11-43-26-43-202 4-202 4z"/>
    <path fill="#7A462F" d="M345.78 737.2l-15.13.29S300.91 737 242 742c-4 .34-28 10-28 37s16.65 39.48 27.64 40.09C254.14 819.78 368 817 368 817s-27.61-4.14-31-42c-1.41-15.71 8.78-37.8 8.78-37.8z"/>
    <path fill="#A96443" d="M315.81 818.1l-51.43-11.87-19 2.37-4-13.45-7.12-4.74-4.75-22.95S243.26 742 242 742c-4 0-28 10-28 37s16.65 39.48 27.64 40.09c12.5.69 74.17-.99 74.17-.99zM429.35 790.01c8.522 0 15.43-6.908 15.43-15.43 0-8.522-6.908-15.43-15.43-15.43-8.522 0-15.43 6.908-15.43 15.43 0 8.522 6.908 15.43 15.43 15.43z"/>
    <path fill="#7A462F" d="M425.79 786.45c6.556 0 11.87-5.314 11.87-11.87 0-6.556-5.314-11.87-11.87-11.87-6.556 0-11.87 5.314-11.87 11.87 0 6.556 5.314 11.87 11.87 11.87z"/>
    <path fill="#A96443" d="M508.079 787.24c7.754 0 14.04-6.286 14.04-14.04s-6.286-14.04-14.04-14.04-14.04 6.286-14.04 14.04 6.286 14.04 14.04 14.04z"/>
    <path fill="#7A462F" d="M505.209 784.38c6.175 0 11.18-5.005 11.18-11.18s-5.005-11.18-11.18-11.18c-6.174 0-11.18 5.005-11.18 11.18s5.006 11.18 11.18 11.18z"/>
    <path fill="#A96443" d="M573.479 775.24c7.755 0 14.04-6.286 14.04-14.04s-6.285-14.04-14.04-14.04c-7.754 0-14.04 6.286-14.04 14.04s6.286 14.04 14.04 14.04z"/>
    <path fill="#7A462F" d="M571.009 772.77c6.39 0 11.57-5.18 11.57-11.57 0-6.39-5.18-11.57-11.57-11.57-6.389 0-11.57 5.18-11.57 11.57 0 6.39 5.181 11.57 11.57 11.57z"/>
    <path fill="#CC6D3D" d="M367.77 738.45l9.49 22.68-4.26 4.22-.52 17.94a58.318 58.318 0 005.27 4.74c1.58 1.06 4.48 12.66 4.48 12.66L376 788.43l-7-4.55 2.18-19.58 3.16-4-6.57-21.85zM621.69 736.56l-8.78 22.97-9.27 2.08-12.39 8.69 2.25 12.26-6.85 17.51 5.16-18.03-3.11-13.35 14.19-9.16 8.64-1.32 8.7-22.32 1.46.67z"/>
    <path fill="#7A462F" d="M303.98 807.27l3.22-7.36-11.02-6.94-15.83 4.42-9.12 14.98 43.79 5.33-11.04-10.43z"/>
    <path fill="#CC6D3D" d="M455.86 833.33l-12.46 34.02 15.42 16.75 13.39-16.95-4.48-19.31-11.87-14.51z"/>
    <path fill="#7A462F" d="M455.04 833.45l-12.36 30.79 15.6 17.76 9.71-16.18-4.75-18.71-8.2-13.66z"/>
    <path fill="#CC6D3D" d="M516.78 803.07l-5.54 21.36 4.75 16.61 9.49 9.5 11.08-33.23-19.78-14.24z"/>
    <path fill="#F5894E" d="M519.351 802.99l-7.21 21.42 5.83 15.84 6.72 6.73 13.45-30.46-18.79-13.53z"/>
    <path fill="#CC6D3D" d="M481.181 873.48l-4.22 12.66 9.49 8.44 11.61-2.11-4.23-17.4-12.65-1.59z"/>
    <path fill="#7A462F" d="M480.541 874.01l-3.58 10.76 8.07 7.18 9.86-1.8-3.59-14.79-10.76-1.35z"/>
    <path fill="#CC6D3D" d="M444.779 735.29s10.55 18.46 13.19 19c2.64.54 19 5.28 19 5.28l18.46-12.66-14.24-12.66-36.41 1.04z"/>
    <path fill="#F5894E" d="M442.67 734.09s10.44 18.27 13.05 18.79c2.61.52 18.79 5.22 18.79 5.22l18.27-12.53L478.69 733l-36.02 1.09z"/>
  </g>
  <g>
    <path fill="#288453" d="M341.92 810.19s-10 3.16-5.8 8.44c4.2 5.28 9.5 2.63 10.55-2.64 1.05-5.27-4.75-5.8-4.75-5.8zM340.339 801.75c-1-.53-10 3.16-1 5.8 9 2.64 2.06-5.28 1-5.8zM345.089 794.36c-3.69-2.11-8.44 5.8-.53 7.39 7.91 1.59 4.22-5.28.53-7.39zM295.001 769.57a6.218 6.218 0 00-3.797 3.055 6.204 6.204 0 00-.423 4.855c1.58 6.33 10.55 2.11 11.6-3.69 1.05-5.8-2.13-5.27-7.38-4.22zM287.59 789.09s-7.91 9 0 11.6c7.91 2.6 10.55-4.74 9-9.49-1.55-4.75-9-2.11-9-2.11z"/>
    <path fill="#33A86D" d="M299.199 800.69s-4.75 7.39 3.69 6.86c8.44-.53 3.69-10.55.53-12.13s-4.22 5.27-4.22 5.27zM299.2 784.87s-6.86 2.11-3.17 6.86c3.69 4.75 10.55-4.75 8.44-5.81a14.16 14.16 0 00-5.27-1.05z"/>
    <path fill="#33A86D" d="M303.42 813.35s7.91 2.11 7.38-3.69c-.53-5.8-8.44-1.06-7.38 3.69z"/>
    <path fill="#288453" d="M286 781.7c-4.75 1.59-7.38 7.92 1.06 5.28 8.44-2.64 3.7-6.86-1.06-5.28zM488.56 737.4c-4.75-2.64.53-10 6.33-7.39 5.8 2.61-1.58 9.99-6.33 7.39zM494.889 740.56c3.16 1.06 3.16 7.91-.53 6.86-3.69-1.05-2.63-7.91.53-6.86zM514.93 833.92c-2.63-4.74-7.38-.52-6.33 3.7 1.05 4.22 8.97 1.05 6.33-3.7zM519.151 839.73c2.64 4.22 6.33 2.11 5.81-1.59-.52-3.7-8.44-2.63-5.81 1.59zM511.241 828.65c2.64 4.22 6.33 2.11 5.8-1.58-.53-3.69-8.44-2.64-5.8 1.58z"/>
    <path fill="#33A86D" d="M509.66 881.92c5.27-4.22 9 2.64 4.75 6.86-4.25 4.22-10.03-2.64-4.75-6.86z"/>
    <path fill="#288453" d="M517.569 892c5.28-4.22 9 2.63 4.75 6.85s-10.02-2.69-4.75-6.85z"/>
    <path fill="#33A86D" d="M517.161 886.15c4.25-3.4 7.22 2.13 3.82 5.53-3.4 3.4-8.07-2.13-3.82-5.53zM504.909 873.48c4.25-3.39 7.22 2.13 3.83 5.53-3.39 3.4-8.08-2.13-3.83-5.53zM483.29 862.93c4.24-3.39 7.22 2.13 3.82 5.53-3.4 3.4-8.11-2.13-3.82-5.53zM488.409 869.63c6.53-4.3 11.1 2.69 5.88 7-5.22 4.31-12.4-2.7-5.88-7z"/>
    <path fill="#288453" d="M516.9 781c6.52-4.29 11.09 2.69 5.87 7-5.22 4.31-12.4-2.69-5.87-7zM509.07 777.8c4.08-2.69 6.94 1.68 3.68 4.37-3.26 2.69-7.75-1.68-3.68-4.37zM427.63 780.35c5.81-3.83 9.88 2.39 5.23 6.21s-11.04-2.39-5.23-6.21z"/>
    <path fill="#33A86D" d="M438.45 778s-5.27-7.38-2.64-7.91c2.63-.53 3.7 3.69 3.7 3.69s7.91-11.08 10-5.8-3.17 6.33-3.17 6.33 6.86 3.69 3.69 4.22c-3.17.53-6.83-1.53-6.83-1.53s1.58 6.33 0 6.33-4.75-2.11-4.75-2.11-4.22-1.1 0-3.22z"/>
  </g>
  <g>
    <path fill="#A96443" d="M415.77 676.74s10.11 5.57 16 .62c5.89-4.95 1.47-12.19-9.58-20.76-7.63-5.92-21.92-8.52-30.4-11-4.75-1.38-11.69 3.16-2.64 11.86 4.65 4.54 11.85 9.25 26.62 19.28z"/>
    <path fill="#7A462F" d="M415.77 676.74s10.11 5.57 16 .62c5.89-4.95 1.47-12.19-9.58-20.76l-11.94 5.63s-30.15-13.45-21.1-4.75c4.65 4.52 11.85 9.23 26.62 19.26z"/>
  </g>
  <g>
    <path fill="#A96443" d="M304.68 654.61c3.57-7.16 7.56-14.35 11.73-26.58 2.87-8.44 6.77-25.28-2.62-27-9.39-1.72-18.23 4.92-22.13 17-4.91 15.08-7.56 19.34-12.69 29.55-10.53 21-7.78 36.94 2.68 36.59 10.46-.35 10.59-4.65 23.03-29.56z"/>
    <path fill="#7A462F" d="M301.34 658.07s-14.14 3.7-14.72.14c-.4-2.52 10.63-18 10.63-18s2.4-17.91 5-22.81c2.6-4.9 17.66-8 16.47-11.89a6.603 6.603 0 00-5-4.44c-9.39-1.69-18.23 4.92-22.13 17-4.91 15.08-7.56 19.34-12.69 29.55-10.53 21-7.78 36.94 2.68 36.59 10.46-.35 19.76-26.14 19.76-26.14z"/>
    <path fill="#A96443" d="M340.22 660.47c-.25-4.88-3.1-9.59-14.6-6.8s-27.8 3.58-36.88 6c-9.08 2.42-16.08 8.2-16.05 16.64.03 8.44 9.08 17.2 28.24 7.15 19.16-10.05 39.88-11.67 39.29-22.99z"/>
    <path fill="#7A462F" d="M340.22 660.47c-.25-4.88-25.12 5.82-33.91 7.14-8.79 1.32-17.57-7.94-17.57-7.94-9.08 2.42-16.08 8.2-16.05 16.64.03 8.44 9.08 17.2 28.24 7.15 19.16-10.05 39.88-11.67 39.29-22.99z"/>
  </g>
  <g>
    <path fill="#A96443" d="M376 635.07c-.61-2.13 2-4.49 2.9-2.38.9 2.11 7.78 5.15 8.83 7.12 1.05 1.97 3.06 6 1.58 6.73-1.67.88-4.08-1.32-4.08-1.32s-8.49-7.38-9.23-10.15z"/>
  </g>
  <g>
    <path fill="#4B3355" d="M346.09 661.65c1.81-7.88 7.36-30.2 9-37.07a3.164 3.164 0 012.91-2.28l17.07-.07c1.78-.13 4.39 1.66 4.28 2.49L370 661.59a3.197 3.197 0 01-3 2.26l-18.33.59a2.324 2.324 0 01-2.016-.724 2.313 2.313 0 01-.564-2.066z"/>
    <path fill="#665070" d="M347.999 662.21c1.75-7.73 7.27-29.48 8.84-36.21a2.999 2.999 0 012.72-2.23l17.16-.15a2.258 2.258 0 012.5 2.8l-8.55 36.25a2.992 2.992 0 01-2.84 2.21l-17.45.08a2.25 2.25 0 01-2.38-2.75z"/>
    <path fill="#34283A" d="M361.946 629.453c.775-.55 1.05-1.492.615-2.104-.435-.613-1.415-.663-2.19-.113-.774.55-1.05 1.492-.615 2.104.435.613 1.416.663 2.19.113zM360.544 633.411c.59-.419.801-1.134.472-1.598-.33-.464-1.075-.5-1.665-.081-.59.419-.801 1.134-.471 1.598.329.464 1.074.5 1.664.081z"/>
  </g>
  <g>
    <path fill="#A96443" d="M324.699 662.73c-.12-.76 5.19-10.85 11.48-17 2.59-2.52 9.66-3.92 12.7-6.5 3.04-2.58 3.17 4.35 0 6.4-3.17 2.05-3.28 2.52-3.28 2.52s6.83-.56 7.59-.64c.76-.08 8.36-5.2 11.07-3.16 2.24 1.7-1.84 3.52-1.84 3.52s-6.25 4.2-6.85 4.67c0 0 11-4.2 11.45-2.11.45 2.09-1.6 4.09-4.86 4.94a15.695 15.695 0 00-5 2.09s5.92-3.6 6.7-1.45c.78 2.15-6.1 4.32-7.58 5.12 0 0 4.16-2.7 4.39-1 .38 3-10.84 7.09-10.84 7.09s-23.83 3.25-25.13-4.49z"/>
    <path fill="#7A462F" d="M324.7 662.73c-.12-.76 10.5-4.85 10.5-4.85l12.26-.13 4.09-1.26 3.63-1.51s10.24-.42 7 .43a15.695 15.695 0 00-5 2.09s5.92-3.6 6.7-1.45c.78 2.15-6.1 4.32-7.58 5.12 0 0 4.16-2.7 4.39-1 .38 3-10.84 7.09-10.84 7.09s-23.85 3.21-25.15-4.53z"/>
  </g>
  <g>
    <path fill="#A96443" d="M389.201 655.31c2.83-.73 6.53-5.21.05-13.38-2.37-3-5.92-.27-5.92-.27l-4.73-.66s-12.6-5.95-13.6-4.22c-1 1.73 5 4.3 5 4.3s-7.78-3.27-7.78-.49c0 2.78 7.43 4.47 7.43 4.47s-7.93-2.28-6.4.89c1.07 2.2 6.41 3.29 6.41 3.29s-3.37-.07-4 .86c-.52 1.73 10.43 7 13.2 7.65 2.77.65 8.93-2.08 10.34-2.44z"/>
  </g>
  <g>
    <path fill="#7A462F" d="M336.651 571.62s-1.23-11.12-6.8-4.78c-5.57 6.34 1.24 22.64 6.29 18.18 5.05-4.46.51-13.4.51-13.4z"/>
    <path fill="#A96443" d="M360.272 548.77s-21-1.9-23.44 12.5c-2.44 14.4-1.9 35.32 8.47 38.45 10.37 3.13 19.65 3.9 27.58-1.42 5.91-4 6.23-6.07 7.31-22.09 1.17-17.34-3-28.73-19.92-27.44z"/>
    <path fill="#7A462F" d="M360.27 548.77s-21-1.9-23.44 12.5c-2.44 14.4-2.62 36.87 8.47 38.45 0 0-14.45-22.68 9.81-35.34 24.26-12.66 24 27.85 25.08 11.83 1.17-17.34-3-28.73-19.92-27.44z"/>
    <path fill="#273252" d="M337.37 576.58c1.84-.19 2.58-6.72 4.95-14.44s.73-6.82 6.72-5.85c13.57 2.69 20.84-1.14 24.27-1.14 4.22 0 3.91 4.9 7.06 15.79 0 0 2.17-24.07-9.07-27.56-11-3.43-24.41-2.2-30.66 1-6 3.11-6.52 12-6.75 19-.08 2.52 3.48 13.2 3.48 13.2z"/>
    <path fill="#273252" d="M371.393 578.334c.922-.026 1.631-1.443 1.583-3.165-.048-1.723-.834-3.098-1.756-3.073-.922.026-1.63 1.443-1.583 3.165.048 1.723.834 3.098 1.756 3.073z"/>
    <path stroke="#273252" stroke-linecap="round" stroke-linejoin="round" stroke-width=".5" d="M370.371 567a3.569 3.569 0 013.16 1.82"/>
    <path fill="#273252" d="M354.664 575.418c.047-1.722-.661-3.14-1.583-3.165-.922-.026-1.708 1.35-1.756 3.072-.048 1.723.661 3.14 1.583 3.165.922.026 1.708-1.35 1.756-3.072z"/>
    <path stroke="#273252" stroke-linecap="round" stroke-linejoin="round" stroke-width=".5" d="M354 567.16a3.613 3.613 0 00-3.17 1.83"/>
  </g>
</svg>
