<svg xmlns="http://www.w3.org/2000/svg"  fill="none" viewBox="0 0 48 64">
  <path fill="#F6D2A2" d="M.63 34.581c.09 1.89 2 1 2.83.42.83-.58 1-.09 1.12-1.2a18.13 18.13 0 00.09-2.18 5.35 5.35 0 00-3.57.91c-.52.38-1.49 1.58-.48 2"/>
  <path fill="#010101" d="M1.61 35.952a1.2 1.2 0 01-.54-.12 1.24 1.24 0 01-.62-1.1.82.82 0 01-.45-.65 2.3 2.3 0 011-1.66 5.5 5.5 0 013.69-.94h.15v.15a13 13 0 01-.05 1.71v.5c-.05.78-.2.9-.6 1a2.23 2.23 0 00-.6.29 4.09 4.09 0 01-1.98.82zm2.54-4.13a5 5 0 00-2.94.9 2 2 0 00-.84 1.34.5.5 0 00.34.41h.1v.11a1 1 0 00.42.9 2.62 2.62 0 002.13-.62c.209-.146.438-.261.68-.34.26-.09.32-.11.36-.73v-.5c.047-.499.067-1 .06-1.5h-.31v.03z"/>
  <path fill="#C7B199" d="M.629 34.582a1.49 1.49 0 00.75-.42z"/>
  <path fill="#010101" d="M.63 34.761a.183.183 0 11-.11-.35h.12a1.08 1.08 0 00.55-.32.183.183 0 01.254-.035.182.182 0 01.035.256 1.4 1.4 0 01-.72.44H.63v.01z"/>
  <path fill="#F3F4F6" d="M4.99 12.092c-7.23-2-1.85-11.23 4-7.45l-4 7.45z"/>
  <path fill="#F3F4F6" d="M5.08 12.301h-.14c-2.06-.58-3.33-1.8-3.57-3.43a4.79 4.79 0 012.23-4.52 4.84 4.84 0 015.44.18l.14.09-4.1 7.68zm1-8.38a4.23 4.23 0 00-2.31.69 4.42 4.42 0 00-2.07 4.17c.22 1.45 1.34 2.55 3.17 3.1l3.8-7.17a5 5 0 00-2.56-.76l-.03-.03zM37.11 3.952c5.72-4 10.89 5 4.24 7.33l-4.24-7.33z"/>
  <path fill="#F3F4F6" d="M41.271 11.502l-4.4-7.6.13-.09a4.72 4.72 0 015.25-.44 4.85 4.85 0 012.39 4.48c-.1 1-.64 2.71-3.23 3.6l-.14.05zm-3.92-7.5l4.08 7.06a3.91 3.91 0 002.85-3.24 4.48 4.48 0 00-2.21-4.15 4.25 4.25 0 00-4.72.33z"/>
  <path fill="#F6D2A2" d="M38.34 57.821c1.45.9 4.11 3.62 1.93 4.94-2.09 1.92-3.27-2.11-5.11-2.66a5.09 5.09 0 013.18-2.28z"/>
  <path fill="#010101" d="M39.161 63.452h-.08c-.83-.05-1.51-.86-2.17-1.63a4.66 4.66 0 00-1.8-1.55l-.24-.07.15-.25a5.31 5.31 0 013.29-2.35h.13c.93.58 2.85 2.26 2.84 3.78a1.67 1.67 0 01-.9 1.45 1.81 1.81 0 01-1.22.62zm-3.72-3.44a5.728 5.728 0 011.73 1.57 3.49 3.49 0 001.92 1.51 1.43 1.43 0 001-.47 1.32 1.32 0 00.74-1.16c0-1.22-1.54-2.75-2.61-3.44a4.7 4.7 0 00-2.77 1.99h-.01z"/>
  <path fill="#010101" d="M40.269 62.952a.18.18 0 01-.16-.1 6.685 6.685 0 01-.28-.68 3 3 0 00-.66-1.22.181.181 0 01-.005-.255.182.182 0 01.255-.005c.345.377.598.829.74 1.32.078.218.168.432.27.64a.18.18 0 01-.08.24l-.08.06z"/>
  <path fill="#F6D2A2" d="M12.368 60.892c-1.71.26-2.67 1.8-4.09 2.58a1.24 1.24 0 01-2-.47.65.65 0 01-.52-.24c-1.24-2 1.29-3.39 2.62-4.37 1.87-.36 3.02 1.23 3.99 2.5z"/>
  <path fill="#010101" d="M7.38 63.952a1.224 1.224 0 01-.32 0 1.481 1.481 0 01-.87-.75.6.6 0 01-.49-.26c-1.2-1.89.84-3.32 2.19-4.27l.47-.34c1.89-.38 3.09 1.18 4.05 2.44l.27.36h-.3a5.17 5.17 0 00-2.53 1.45 9.19 9.19 0 01-1.5 1.12 2 2 0 01-.97.25zm-1.2-1.16a.49.49 0 01.21 0h.05l.08.16a1.16 1.16 0 00.67.61 1.37 1.37 0 001-.24 8.936 8.936 0 001.45-1.08 6 6 0 012.41-1.47c-.92-1.2-2-2.5-3.57-2.2l-.45.32c-1.38 1-3.09 2.18-2.1 3.77a.29.29 0 00.21.14l.04-.01z"/>
  <path fill="#010101" d="M6.308 63.192a.18.18 0 01-.18-.24 2.74 2.74 0 01.58-1.31c.145-.199.272-.41.38-.63a.182.182 0 01.33.15 4.56 4.56 0 01-.41.69 2.43 2.43 0 00-.49 1.17.18.18 0 01-.21.17zm-1.02-53.64c-1-.5-1.65-1.19-1.07-2.29.58-1.1 1.54-.91 2.5-.41l-1.43 2.7zm34.55-.96c1-.5 1.65-1.19 1.07-2.29-.58-1.1-1.54-.91-2.5-.41l1.43 2.7z"/>
  <path fill="#F6D2A2" d="M46.41 34.341c-.09 1.89-2 1-2.83.42-.83-.58-1-.09-1.12-1.2a18.136 18.136 0 01-.09-2.18 5.35 5.35 0 013.57.91c.52.38 1.49 1.58.48 2"/>
  <path fill="#010101" d="M45.43 35.671a4.09 4.09 0 01-1.91-.72 2.23 2.23 0 00-.6-.29c-.4-.14-.55-.26-.6-1v-.5c-.054-.568-.07-1.14-.05-1.71v-.24h.15a5.5 5.5 0 013.69.94 2.3 2.3 0 011 1.66.819.819 0 01-.45.65 1.239 1.239 0 01-.62 1.1c-.19.09-.4.127-.61.11zm-2.91-4.12c-.006.501.014 1.002.06 1.5v.5c0 .61.09.63.36.73.243.08.472.194.68.34a2.611 2.611 0 002.13.62 1 1 0 00.42-.9v-.12h.1a.5.5 0 00.34-.41 2 2 0 00-.84-1.34 5.1 5.1 0 00-3.25-.92z"/>
  <path fill="#C7B199" d="M46.41 34.342a1.489 1.489 0 01-.75-.39z"/>
  <path fill="#010101" d="M46.411 34.522h-.19a1.4 1.4 0 01-.7-.5.181.181 0 01.035-.255.181.181 0 01.255.034c.147.16.34.271.55.32h.12a.203.203 0 01-.07.4z"/>
  <path fill="#F3F4F6" d="M22.799.132c7.24 0 14 1 17.56 8 3.17 7.79 2 16.2 2.53 24.43.42 7.07 1.34 15.24-1.94 21.8-3.43 6.88-12.09 8.59-19.19 8.36-5.58-.2-12.32-2-15.47-7.12-3.7-6-1.95-14.88-1.68-21.53.32-7.88-2.14-15.79.45-23.51 2.69-8 9.93-9.81 17.73-10.43"/>
  <path fill="#010101" d="M22.988 62.952h-1.24a26.387 26.387 0 01-8.71-1.74 13.93 13.93 0 01-6.91-5.47c-3-4.84-2.46-11.52-2-17.42.12-1.48.23-2.89.28-4.21a67.83 67.83 0 00-.36-8.38c-.42-5-.86-10.17.82-15.18a13.28 13.28 0 017-8.09c2.7-1.32 6-2.08 10.85-2.46 7.14-.05 14.18.95 17.8 8.04 2.32 5.7 2.35 11.82 2.39 17.74 0 2.22 0 4.51.16 6.75 0 .68.08 1.37.13 2.06.42 6.49.9 13.86-2.09 19.82-3.74 7.46-13.14 8.54-18.12 8.54zm-.19-62.64c-7.53.64-14.87 2.26-17.57 10.31-1.66 4.94-1.22 10.07-.81 15a68.09 68.09 0 01.36 8.42c-.05 1.33-.17 2.74-.28 4.23-.46 5.84-1 12.47 1.93 17.2 1.23 2 5.19 6.67 15.33 7 4.39.16 15-.34 19-8.28 2.94-5.88 2.47-13.19 2.05-19.64 0-.7-.09-1.39-.13-2.06-.11-2.18-.16-4.48-.16-6.7 0-5.88-.06-12-2.36-17.6a12.87 12.87 0 00-7.29-6.51 29.9 29.9 0 00-10.07-1.37z"/>
  <path fill="#fff" d="M24.071 9.841c1.3 7.55 13.64 5.56 11.87-2.06-1.59-6.83-12.3-4.94-11.87 2.06z"/>
  <path fill="#010101" d="M29.939 14.772a6.91 6.91 0 01-2.26-.37 5.59 5.59 0 01-3.78-4.53 5.759 5.759 0 011.56-4.44 6.81 6.81 0 014-2 6.4 6.4 0 014.06.7 5.451 5.451 0 012.59 3.61 5.28 5.28 0 01-1.54 5.36 7 7 0 01-4.63 1.67zm-5.69-4.95a5.25 5.25 0 003.55 4.25 6.83 6.83 0 006.55-1.24 5 5 0 001.43-5 5.34 5.34 0 00-6.26-4.06 5.77 5.77 0 00-5.27 6.05z"/>
  <path fill="#fff" d="M9.318 11.072c1.68 6.57 12.2 4.88 11.81-1.71-.47-7.9-13.42-6.41-11.81 1.71z"/>
  <path fill="#010101" d="M14.94 15.402a6.46 6.46 0 01-3.07-.75 5.45 5.45 0 01-2.71-3.55 5.51 5.51 0 011.88-5.65 7.1 7.1 0 017.06-.9 5.34 5.34 0 013.2 4.8c.21 3.5-2.57 5.54-5.23 6a7.319 7.319 0 01-1.13.05zm-5.42-4.37a5.46 5.46 0 006.53 4c2.52-.4 5.15-2.32 4.95-5.61a5 5 0 00-3-4.52 6.75 6.75 0 00-6.71.86 5.19 5.19 0 00-1.77 5.27z"/>
  <path fill="#fff" d="M25.52 18.952a16.992 16.992 0 010 3.13 2 2 0 01-1.17.72 1.718 1.718 0 01-1.31-1 22.226 22.226 0 01.09-3.54l2.39.69z"/>
  <path fill="#010101" d="M24.46 22.952h-.05a1.888 1.888 0 01-1.45-1.13 11.888 11.888 0 010-2.43c0-.37.06-.76.07-1.14v-.3l2.7.83v.17c0 .32 0 .66.05 1 .091.714.091 1.436 0 2.15v.05a1.5 1.5 0 01-.95.68l-.31.12h-.06zm-1.16-1.26a1.53 1.53 0 001.12.89l.28-.11a1.2 1.2 0 00.73-.52c.08-.664.08-1.336 0-2 0-.31 0-.61-.05-.91l-2-.61c0 .31 0 .62-.06.92a11.542 11.542 0 00-.03 2.33l.01.01zM12.221 11.921c.983 0 1.78-.864 1.78-1.93 0-1.065-.796-1.93-1.78-1.93-.983 0-1.78.865-1.78 1.93 0 1.066.797 1.93 1.78 1.93z"/>
  <path fill="#fff" d="M13.03 10.921c.231 0 .42-.219.42-.49 0-.27-.189-.49-.42-.49-.233 0-.42.22-.42.49 0 .271.187.49.42.49z"/>
  <path fill="#010101" d="M27.121 11.442c.967 0 1.75-.864 1.75-1.93 0-1.066-.783-1.93-1.75-1.93-.966 0-1.75.864-1.75 1.93 0 1.066.784 1.93 1.75 1.93z"/>
  <path fill="#fff" d="M27.91 10.442c.226 0 .41-.22.41-.49s-.184-.49-.41-.49c-.226 0-.41.22-.41.49s.184.49.41.49zM20.52 18.802c-.78 1.88.43 5.64 2.54 2.87a22.226 22.226 0 01.09-3.54l-2.63.67z"/>
  <path fill="#010101" d="M21.611 22.841a1 1 0 01-.52-.14c-.85-.49-1.38-2.5-.78-4v-.08l3-.76v.24c0 .39 0 .78-.07 1.15a11.42 11.42 0 000 2.36v.13a2.11 2.11 0 01-1.63 1.1zm-.99-3.89c-.43 1.17-.09 3 .66 3.43.54.31 1.14-.23 1.56-.77a12.227 12.227 0 010-2.36c0-.29 0-.6.06-.9l-2.28.6z"/>
  <path fill="#F6D2A2" d="M20.749 15.182a2.29 2.29 0 00-1.88 3.2c1 1.8 3.22-.16 4.6 0 1.59 0 2.9 1.68 4.18.3 1.42-1.54-.61-3-2.2-3.71l-4.7.21z"/>
  <path fill="#231F20" d="M26.52 19.442a4 4 0 01-1.46-.41 4.41 4.41 0 00-1.58-.44c-.573 0-1.139.122-1.66.36-1.12.39-2.39.83-3.11-.46a2.16 2.16 0 010-2.1 2.56 2.56 0 012-1.37l4.81-.21c1.18.5 2.53 1.41 2.76 2.47a1.91 1.91 0 01-1.76 2.16zm-3-1.21a4.701 4.701 0 011.7.47c.9.38 1.61.67 2.33-.11a1.33 1.33 0 00.41-1.21c-.2-.92-1.47-1.76-2.51-2.2l-4.65.19a2.22 2.22 0 00-1.7 1.18 1.81 1.81 0 000 1.75c.57 1 1.59.67 2.68.3a4.24 4.24 0 011.74-.37z"/>
  <path fill="#010101" d="M20.521 15.112c-.11-2.5 4.67-2.82 5.23-.72.56 2.1-5 2.58-5.23.72z"/>
</svg>
