<svg xmlns="http://www.w3.org/2000/svg" width="1216" height="1157" fill="none" viewBox="0 0 1216 1157">
  <rect width="1216" height="1157" fill="#2563EB" rx="200"/>
  <path fill="#F3F4F6" d="M951.991 857.964L818.027 569.96c-.837-1.768-1.901-3.758-2.972-5.453-14.367-22.769-44.472-29.583-67.243-15.216l-1.598 1.009-381.559 240.744 246.676-393.966 78.291 106.257c6.801 9.239 19.318 12.9 30.272 8.112 12.704-5.556 18.501-20.359 12.945-33.064l-83.267-190.436a45.26 45.26 0 00-20.296-21.891c-22.121-11.736-49.57-3.317-61.308 18.806l-1.636 3.085-302.418 570.016c-3.615 6.923-4.042 15.551-.29 23.073 6.216 12.46 21.358 17.523 33.819 11.307l.323-.161 457.412-228.19 153.594 218.923c6.836 9.761 19.89 13.527 31.071 8.327 12.544-5.835 17.983-20.735 12.148-33.278z"/>
</svg>
